<svg xmlns="http://www.w3.org/2000/svg" xmlns:xlink="http://www.w3.org/1999/xlink" width="1080" zoomAndPan="magnify" viewBox="0 0 810 809.999993" height="1080" preserveAspectRatio="xMidYMid meet" version="1.0"><path fill="#071c51" d="M 388.019531 36.808594 C 415.40625 48.46875 445.914062 0.078125 476.902344 27.097656 L 502.652344 49.546875 C 525.082031 69.109375 569.0625 32.511719 590.183594 67.78125 L 607.742188 97.09375 C 623.023438 122.628906 676.15625 101.410156 685.347656 141.496094 L 693 174.796875 C 699.648438 203.800781 756.75 200.042969 753.109375 241.015625 L 750.082031 275.050781 C 747.441406 304.691406 802.90625 318.757812 786.777344 356.589844 L 773.382812 388.019531 C 761.722656 415.40625 810.117188 445.914062 783.097656 476.902344 L 760.644531 502.671875 C 741.082031 525.101562 777.679688 569.082031 742.414062 590.203125 L 713.101562 607.761719 C 687.566406 623.0625 708.785156 676.175781 668.699219 685.367188 L 635.394531 693 C 606.390625 699.648438 610.148438 756.75 569.175781 753.109375 L 535.144531 750.082031 C 505.503906 747.441406 491.433594 802.90625 453.605469 786.777344 L 422.171875 773.382812 C 394.785156 761.722656 364.277344 810.117188 333.289062 783.097656 L 307.542969 760.644531 C 285.109375 741.082031 241.128906 777.679688 220.007812 742.414062 L 202.453125 713.101562 C 187.167969 687.566406 134.035156 708.785156 124.84375 668.699219 L 117.191406 635.394531 C 110.542969 606.390625 53.441406 610.148438 57.082031 569.175781 L 60.109375 535.144531 C 62.75 505.503906 7.285156 491.433594 23.414062 453.605469 L 36.808594 422.171875 C 48.46875 394.785156 0.078125 364.277344 27.097656 333.289062 L 49.546875 307.542969 C 69.109375 285.109375 32.511719 241.128906 67.78125 220.007812 L 97.09375 202.453125 C 122.628906 187.167969 101.410156 134.035156 141.496094 124.84375 L 174.796875 117.191406 C 203.800781 110.542969 200.042969 53.441406 241.015625 57.082031 L 275.050781 60.109375 C 304.6875 62.75 318.757812 7.285156 356.589844 23.414062 Z M 388.019531 36.808594 " fill-opacity="1" fill-rule="evenodd"/><path fill="#ffffff" d="M 601.515625 239.972656 L 627.011719 265.472656 C 630.675781 269.132812 630.675781 275.105469 627.011719 278.769531 L 335.214844 570.566406 L 335.042969 570.71875 L 334.871094 570.875 L 334.675781 571.027344 L 334.484375 571.164062 L 334.292969 571.296875 L 334.097656 571.433594 L 333.90625 571.566406 L 333.714844 571.683594 L 333.519531 571.796875 L 333.308594 571.914062 L 333.097656 572.011719 L 332.882812 572.105469 L 332.460938 572.300781 L 332.25 572.375 L 332.035156 572.453125 L 331.613281 572.609375 L 331.398438 572.664062 L 331.1875 572.722656 L 330.957031 572.78125 L 330.746094 572.820312 L 330.515625 572.859375 L 330.28125 572.898438 L 329.820312 572.9375 L 329.589844 572.953125 L 329.359375 572.972656 L 328.433594 572.972656 L 328.203125 572.953125 L 327.96875 572.9375 L 327.738281 572.917969 L 327.277344 572.839844 L 327.0625 572.800781 L 326.851562 572.761719 L 326.621094 572.703125 L 326.410156 572.648438 L 326.195312 572.589844 L 325.984375 572.53125 L 325.5625 572.375 L 325.347656 572.300781 L 324.925781 572.105469 L 324.714844 572.011719 L 324.5 571.914062 L 324.308594 571.796875 C 324.171875 571.722656 324.039062 571.644531 323.902344 571.566406 C 323.304688 571.203125 322.746094 570.757812 322.226562 570.238281 L 296.75 544.742188 L 183.179688 431.171875 C 179.519531 427.507812 179.519531 421.535156 183.179688 417.875 L 208.65625 392.375 C 212.320312 388.714844 218.292969 388.714844 221.957031 392.375 L 328.894531 499.316406 L 588.199219 240.011719 C 591.878906 236.332031 597.855469 236.332031 601.515625 239.972656 " fill-opacity="1" fill-rule="evenodd"/></svg>