<svg width="51" height="51" viewBox="0 0 51 51" fill="none" xmlns="http://www.w3.org/2000/svg">
<circle cx="25.5" cy="25.8936" r="25" fill="#DF413A"/>
<path d="M26.6527 25.688C26.6226 25.658 26.6057 25.6172 26.6057 25.5747C26.6057 25.5321 26.6226 25.4913 26.6527 25.4613L32.5847 19.5299C32.9598 19.1543 32.9594 18.5458 32.5838 18.1707C32.2081 17.7956 31.5996 17.796 31.2245 18.1716L25.2931 24.1005C25.2631 24.1306 25.2223 24.1475 25.1798 24.1475C25.1372 24.1475 25.0965 24.1306 25.0664 24.1005L19.135 18.1716C18.76 17.7964 18.1517 17.7962 17.7764 18.1713C17.4012 18.5464 17.401 19.1547 17.7761 19.5299L23.7069 25.4613C23.737 25.4913 23.7539 25.5321 23.7539 25.5747C23.7539 25.6172 23.737 25.658 23.7069 25.688L17.7761 31.62C17.5335 31.8628 17.4388 32.2165 17.5277 32.548C17.6166 32.8795 17.8756 33.1384 18.2072 33.2272C18.5387 33.3159 18.8924 33.2211 19.135 32.9783L25.0664 27.0463C25.0965 27.0162 25.1372 26.9993 25.1798 26.9993C25.2223 26.9993 25.2631 27.0162 25.2931 27.0463L31.2245 32.9783C31.5996 33.3536 32.2079 33.3537 32.5831 32.9786C32.9584 32.6036 32.9585 31.9953 32.5834 31.62L26.6527 25.688Z" fill="white"/>
<mask id="mask0" mask-type="alpha" maskUnits="userSpaceOnUse" x="17" y="17" width="16" height="17">
<path d="M26.6527 25.688C26.6226 25.658 26.6057 25.6172 26.6057 25.5747C26.6057 25.5321 26.6226 25.4913 26.6527 25.4613L32.5847 19.5299C32.9598 19.1543 32.9594 18.5458 32.5838 18.1707C32.2081 17.7956 31.5996 17.796 31.2245 18.1716L25.2931 24.1005C25.2631 24.1306 25.2223 24.1475 25.1798 24.1475C25.1372 24.1475 25.0965 24.1306 25.0664 24.1005L19.135 18.1716C18.76 17.7964 18.1517 17.7962 17.7764 18.1713C17.4012 18.5464 17.401 19.1547 17.7761 19.5299L23.7069 25.4613C23.737 25.4913 23.7539 25.5321 23.7539 25.5747C23.7539 25.6172 23.737 25.658 23.7069 25.688L17.7761 31.62C17.5335 31.8628 17.4388 32.2165 17.5277 32.548C17.6166 32.8795 17.8756 33.1384 18.2072 33.2272C18.5387 33.3159 18.8924 33.2211 19.135 32.9783L25.0664 27.0463C25.0965 27.0162 25.1372 26.9993 25.1798 26.9993C25.2223 26.9993 25.2631 27.0162 25.2931 27.0463L31.2245 32.9783C31.5996 33.3536 32.2079 33.3537 32.5831 32.9786C32.9584 32.6036 32.9585 31.9953 32.5834 31.62L26.6527 25.688Z" fill="white"/>
</mask>
<g mask="url(#mask0)">
</g>
</svg>
