<svg width="30" height="30" viewBox="0 0 30 30" fill="none" xmlns="http://www.w3.org/2000/svg">
<path fill-rule="evenodd" clip-rule="evenodd" d="M15.7367 17.1313C15.3292 17.5375 14.6699 17.5375 14.2624 17.1313L6.18656 9.05455C6.07505 8.94304 6.036 8.77814 6.08567 8.62846C6.17572 8.35412 6.43255 8.3291 6.66186 8.3291H23.3389C23.5674 8.3291 23.8226 8.35412 23.9143 8.62846C23.964 8.77814 23.9249 8.94304 23.8134 9.05455L15.7367 17.1313ZM24.7465 9.88924C24.7902 9.84538 24.8562 9.8325 24.9133 9.85672C24.97 9.8801 25.0069 9.93547 25.0066 9.9968V20.0031C25.0066 20.9241 24.26 21.6708 23.3389 21.6708H6.66185C5.7408 21.6708 4.99414 20.9241 4.99414 20.0031V9.9968C4.99386 9.93594 5.02997 9.88079 5.08587 9.85672C5.14283 9.83202 5.20913 9.84495 5.25264 9.88924L13.3769 18.0151C14.2723 18.9101 15.7235 18.9101 16.6189 18.0151L24.7465 9.88924Z" fill="#DF413A"/>
<mask id="mask0" mask-type="alpha" maskUnits="userSpaceOnUse" x="4" y="8" width="22" height="14">
<path fill-rule="evenodd" clip-rule="evenodd" d="M15.7367 17.1313C15.3292 17.5375 14.6699 17.5375 14.2624 17.1313L6.18656 9.05455C6.07505 8.94304 6.036 8.77814 6.08567 8.62846C6.17572 8.35412 6.43255 8.3291 6.66186 8.3291H23.3389C23.5674 8.3291 23.8226 8.35412 23.9143 8.62846C23.964 8.77814 23.9249 8.94304 23.8134 9.05455L15.7367 17.1313ZM24.7465 9.88924C24.7902 9.84538 24.8562 9.8325 24.9133 9.85672C24.97 9.8801 25.0069 9.93547 25.0066 9.9968V20.0031C25.0066 20.9241 24.26 21.6708 23.3389 21.6708H6.66185C5.7408 21.6708 4.99414 20.9241 4.99414 20.0031V9.9968C4.99386 9.93594 5.02997 9.88079 5.08587 9.85672C5.14283 9.83202 5.20913 9.84495 5.25264 9.88924L13.3769 18.0151C14.2723 18.9101 15.7235 18.9101 16.6189 18.0151L24.7465 9.88924Z" fill="white"/>
</mask>
<g mask="url(#mask0)">
</g>
</svg>
