<svg width="50" height="50" viewBox="0 0 50 50" fill="none" xmlns="http://www.w3.org/2000/svg">
<g clip-path="url(#clip0)">
<path d="M11.6654 16.6608H11.682C15.6431 16.5567 19.3473 14.6766 21.7695 11.5408C22.5578 10.5673 23.743 10.0012 24.9957 9.9997C26.2483 9.99825 27.4348 10.5616 28.2254 11.5333C30.6479 14.6716 34.3531 16.5543 38.3162 16.6608H38.332L41.6654 16.6666V15.8333C41.6654 14.9128 40.9192 14.1666 39.9987 14.1666H38.7404C35.3941 14.127 32.2439 12.581 30.1654 9.95827C28.901 8.40286 27.0032 7.49982 24.9987 7.49982C22.9942 7.49982 21.0964 8.40286 19.832 9.95827C17.7535 12.581 14.6033 14.127 11.257 14.1666H9.9987C9.07822 14.1666 8.33203 14.9128 8.33203 15.8333V16.6666L11.6654 16.6608Z" fill="#DF413A"/>
<path d="M38.3325 18.3276H38.3142C33.8494 18.2214 29.6693 16.112 26.9317 12.5834C26.4576 12.0007 25.7459 11.663 24.9947 11.6643C24.2435 11.6656 23.533 12.0057 23.0609 12.5901C20.3275 16.1296 16.1371 18.2396 11.6659 18.3276L8.33253 18.3334V25.0001C8.26601 33.8803 14.8914 41.3885 23.7109 42.4276C24.567 42.5242 25.4314 42.5242 26.2875 42.4276C35.107 41.3885 41.7324 33.8803 41.6659 25.0001V18.3334L38.3325 18.3276ZM14.2942 20.8434C21.3891 21.9351 28.6093 21.9351 35.7042 20.8434C36.0001 20.7937 36.2999 20.9069 36.4891 21.1398C36.6783 21.3727 36.7277 21.6894 36.6183 21.9688C36.509 22.2483 36.2579 22.4474 35.9609 22.4901C32.334 23.0509 28.6692 23.3312 24.9992 23.3284C21.3292 23.3312 17.6644 23.0509 14.0375 22.4901C13.5874 22.4144 13.2819 21.9908 13.3522 21.5399C13.4225 21.089 13.8424 20.7784 14.2942 20.8434V20.8434ZM13.37 26.4167C13.4356 26.2056 13.5824 26.0293 13.7781 25.9264C13.9738 25.8236 14.2023 25.8027 14.4134 25.8684C21.3056 28.0267 28.6928 28.0267 35.585 25.8684C35.8694 25.78 36.1793 25.8499 36.398 26.052C36.6167 26.254 36.7111 26.5574 36.6455 26.8478C36.5799 27.1382 36.3644 27.3716 36.08 27.4601C32.4934 28.5823 28.7573 29.1543 24.9992 29.1567C21.2404 29.1554 17.5035 28.5842 13.9159 27.4626C13.7047 27.3964 13.5284 27.249 13.426 27.0528C13.3236 26.8567 13.3035 26.6278 13.37 26.4167V26.4167ZM36.1917 33.2501C29.1288 36.7002 20.8695 36.7002 13.8067 33.2501C13.5183 33.1344 13.3183 32.8679 13.2876 32.5587C13.257 32.2496 13.401 31.949 13.661 31.7791C13.9211 31.6091 14.2541 31.5979 14.525 31.7501C21.1345 34.9793 28.8639 34.9793 35.4734 31.7501C35.7442 31.5979 36.0773 31.6091 36.3374 31.7791C36.5974 31.949 36.7414 32.2496 36.7107 32.5587C36.6801 32.8679 36.4801 33.1344 36.1917 33.2501V33.2501Z" fill="#DF413A"/>
<path d="M7.73333 31.3916C3.41667 30.3749 0 26.5833 0 22.4999V18.3333C0 16.4923 1.49238 14.9999 3.33333 14.9999H6.775C6.70058 15.2714 6.66412 15.5518 6.66667 15.8333V16.6666H3.33333C2.414 16.6694 1.66941 17.4139 1.66667 18.3333V22.4999C1.66667 25.7916 4.23333 28.4249 7.18333 29.4833C7.33243 30.1288 7.51603 30.7658 7.73333 31.3916Z" fill="#DF413A"/>
<path d="M49.999 18.3333V22.4999C49.999 26.5833 46.5823 30.3749 42.2656 31.3916C42.4829 30.7658 42.6665 30.1288 42.8156 29.4833C45.7656 28.4249 48.3323 25.7916 48.3323 22.4999V18.3333C48.3295 17.4139 47.585 16.6694 46.6656 16.6666H43.3323V15.8333C43.3348 15.5518 43.2984 15.2714 43.224 14.9999H46.6656C48.5066 14.9999 49.999 16.4923 49.999 18.3333V18.3333Z" fill="#DF413A"/>
</g>
<defs>
<clipPath id="clip0">
<rect width="50" height="50" fill="white"/>
</clipPath>
</defs>
</svg>
