<svg width="31" height="30" viewBox="0 0 31 30" fill="none" xmlns="http://www.w3.org/2000/svg">
<path d="M24.3998 19.1764L22.3552 17.1309C21.9155 16.6904 21.3186 16.4429 20.6962 16.4429C20.0738 16.4429 19.477 16.6904 19.0373 17.1309L18.6203 17.5478C16.5655 15.8261 14.6674 13.9256 12.9485 11.8685L13.3654 11.4515C14.2795 10.5348 14.2795 9.05123 13.3654 8.13446L11.3166 6.09152C10.3874 5.20387 8.92451 5.20387 7.99536 6.09152L6.87799 7.21389C5.77132 8.32853 5.59734 10.0662 6.46107 11.3782C9.79239 16.3978 14.0941 20.7004 19.1131 24.0327C20.4288 24.8881 22.1621 24.7147 23.2824 23.6158L24.4039 22.4934C24.8444 22.054 25.0919 21.4574 25.0919 20.8353C25.0919 20.2132 24.8444 19.6166 24.4039 19.1772L24.3998 19.1764Z" fill="#DF413A"/>
<mask id="mask0" mask-type="alpha" maskUnits="userSpaceOnUse" x="5" y="5" width="21" height="20">
<path d="M24.3998 19.1764L22.3552 17.1309C21.9155 16.6904 21.3186 16.4429 20.6962 16.4429C20.0738 16.4429 19.477 16.6904 19.0373 17.1309L18.6203 17.5478C16.5655 15.8261 14.6674 13.9256 12.9485 11.8685L13.3654 11.4515C14.2795 10.5348 14.2795 9.05123 13.3654 8.13446L11.3166 6.09152C10.3874 5.20387 8.92451 5.20387 7.99536 6.09152L6.87799 7.21389C5.77132 8.32853 5.59734 10.0662 6.46107 11.3782C9.79239 16.3978 14.0941 20.7004 19.1131 24.0327C20.4288 24.8881 22.1621 24.7147 23.2824 23.6158L24.4039 22.4934C24.8444 22.054 25.0919 21.4574 25.0919 20.8353C25.0919 20.2132 24.8444 19.6166 24.4039 19.1772L24.3998 19.1764Z" fill="white"/>
</mask>
<g mask="url(#mask0)">
</g>
</svg>
