<svg width="42" height="40" viewBox="0 0 42 40" fill="none" xmlns="http://www.w3.org/2000/svg">
<g clip-path="url(#clip0)">
<path d="M30.1615 8.89655L30.2011 9.19352L29.745 9.28565L29.6842 9.91825H30.2306L30.9575 9.84997L31.3327 9.4148L30.9338 9.26344L30.7155 9.0183L30.3875 8.50005L30.2306 7.76709L29.6143 7.88966L29.4414 8.14796V8.43917L29.7382 8.63742L30.1615 8.89655Z" fill="white"/>
<path d="M29.6362 9.14024L29.6691 8.74374L29.3074 8.59155L28.8015 8.7059L28.4263 9.29325V9.67412H28.8639L29.6362 9.14024Z" fill="white"/>
<path d="M19.2224 10.8241L19.1111 11.1038H18.5723V11.3752H18.7004C18.7004 11.3752 18.708 11.4328 18.719 11.5085L19.0495 11.4813L19.2561 11.3563L19.3101 11.1038L19.5773 11.0815L19.6827 10.8693L19.4374 10.8199L19.2224 10.8241Z" fill="white"/>
<path d="M17.8331 11.3168L17.812 11.5825L18.2024 11.5504L18.2429 11.2839L18.0085 11.1038L17.8331 11.3168Z" fill="white"/>
<path d="M41.2806 19.7931C41.2747 19.2082 41.2443 18.6275 41.1878 18.0557C40.9981 16.1497 40.531 14.3227 39.8311 12.61C39.7789 12.4825 39.7308 12.3533 39.6752 12.2275C38.7426 10.0779 37.4331 8.12093 35.8302 6.43208C35.7248 6.32185 35.6177 6.21326 35.5107 6.10632C35.2079 5.79949 34.8968 5.50005 34.5747 5.21296C30.9305 1.97594 26.0906 0 20.7852 0C15.4352 0 10.5607 2.01131 6.90635 5.29769C6.05473 6.06355 5.27226 6.89933 4.56229 7.79434C1.88433 11.1737 0.285645 15.4069 0.285645 19.9996C0.285645 31.0285 9.48229 40 20.7861 40C28.7373 40 35.6405 35.5578 39.0385 29.0854C39.7654 27.7018 40.3312 26.2268 40.7123 24.6811C40.8092 24.2887 40.8927 23.8947 40.9652 23.4957C41.1718 22.3597 41.2848 21.1916 41.2848 19.9996C41.2856 19.9305 41.2814 19.8622 41.2806 19.7931ZM37.4222 11.7997L37.541 11.6697C37.697 11.965 37.8429 12.2653 37.982 12.5697L37.7881 12.5623L37.4222 12.6116V11.7997V11.7997ZM34.46 8.31013L34.4634 7.41676C34.7855 7.74992 35.0958 8.09296 35.3926 8.44833L35.0233 8.98468L33.7324 8.97316L33.6514 8.71075L34.46 8.31013ZM9.73103 6.08987V6.05614H10.1417L10.1771 5.91877H10.8491V6.20504L10.656 6.45676H9.73019L9.73103 6.08987ZM10.387 6.98242C10.387 6.98242 10.7977 6.91414 10.8331 6.91414C10.8685 6.91414 10.8331 7.31393 10.8331 7.31393L9.90726 7.37069L9.73103 7.16504L10.387 6.98242ZM38.7283 14.9215H37.2282L36.3142 14.2577L35.3521 14.349V14.9215H35.0477L34.7189 14.6929L33.0528 14.2807V13.2278L30.9414 13.3882L30.2871 13.7312H29.449L29.0383 13.6909L28.0206 14.2421V15.2794L25.9405 16.7437L26.1133 17.3688H26.5349L26.4245 17.9644L26.1277 18.0705L26.1116 19.6269L27.9093 21.6243H28.6918L28.739 21.5025H30.1454L30.551 21.1365H31.3487L31.7863 21.5642L32.9752 21.6843L32.8175 23.2267L34.1371 25.4996L33.4423 26.7953L33.4895 27.4057L34.0368 27.9379V29.4054L34.7552 30.3482V31.5673H35.3757C31.922 35.7043 26.6656 38.3539 20.7844 38.3539C10.4115 38.3548 1.97202 30.1203 1.97202 19.9996C1.97202 17.4519 2.50829 15.0235 3.47374 12.8165V12.2439L4.1466 11.4468C4.38016 11.0166 4.63059 10.597 4.89788 10.1882L4.92824 10.5213L4.14744 11.4468C3.90545 11.8926 3.67947 12.3484 3.47458 12.8165V13.8612L4.25622 14.2281V15.68L5.00581 16.9279L5.61543 17.0192L5.69385 16.5915L4.97461 15.5089L4.8338 14.4568H5.25539L5.43331 15.5393L6.47296 17.0192L6.20482 17.4972L6.86588 18.4835L8.50757 18.88V18.6209L9.16441 18.7122L9.10201 19.1696L9.61805 19.2617L10.4149 19.4739L11.5405 20.7251L12.9781 20.8313L13.119 21.9755L12.135 22.6468L12.0886 23.6685L11.9478 24.2937L13.3711 26.0319L13.4798 26.6275C13.4798 26.6275 13.9959 26.764 14.0591 26.764C14.1215 26.764 15.216 27.5726 15.216 27.5726V30.7142L15.6064 30.8212L15.3408 32.2706L15.9976 33.1253L15.8762 34.5616L16.7438 36.0498L17.8577 36.9991L18.9774 37.0188L19.087 36.6676L18.2641 35.9914L18.3113 35.6557L18.4589 35.2444L18.4901 34.8249L17.9336 34.8084L17.6528 34.4646L18.1148 34.0311L18.1772 33.7037L17.6612 33.5597L17.6916 33.2553L18.4268 33.1467L19.5449 32.6227L19.9201 31.9515L21.093 30.4872L20.8265 29.3421L21.1866 28.7325L22.265 28.7646L22.991 28.2036L23.2254 25.994L24.0307 24.9962L24.1715 24.3554L23.437 24.1259L22.9522 23.3501L21.2954 23.3337L19.9817 22.845L19.9193 21.9311L19.4808 21.1833L18.2928 21.1661L17.6064 20.1148L16.9968 19.8244L16.9656 20.1452L15.8559 20.2094L15.4495 19.6574L14.2918 19.4279L13.3382 20.503L11.8373 20.2546L11.7285 18.6044L10.6332 18.4218L11.0725 17.6123L10.9469 17.1476L9.50759 18.0862L8.602 17.9784L8.27906 17.2882L8.47637 16.5767L8.97554 15.6792L10.1248 15.1116L12.3441 15.1107L12.3382 15.7713L13.1358 16.1333L13.0726 15.0046L13.6476 14.4403L14.8079 13.6967L14.8871 13.1735L16.044 11.9988L17.2742 11.3341L17.1654 11.2469L17.9985 10.4819L18.3037 10.5608L18.4437 10.7319L18.7599 10.3897L18.8375 10.356L18.4909 10.3083L18.1393 10.1939V9.86488L18.3256 9.71599H18.7363L18.9243 9.79661L19.087 10.1174L19.286 10.0878V10.0598L19.3434 10.0788L19.9201 9.99239L20.0019 9.71763L20.3307 9.79825V10.096L20.0255 10.3009H20.0264L20.071 10.6275L21.1158 10.9417C21.1158 10.9417 21.1166 10.9458 21.1183 10.954L21.3586 10.9343L21.3746 10.4925L20.5466 10.1248L20.4994 9.9126L21.1866 9.68391L21.2169 9.04226L20.4985 8.61532L20.4513 7.53357L19.4665 8.00576H19.1073L19.2017 7.18231L17.861 6.87383L17.3062 7.28267V8.52977L16.3087 8.83825L15.9091 9.651L15.4757 9.71928V8.67949L14.538 8.5528L14.0692 8.25501L13.8804 7.58129L15.5575 6.62375L16.3779 6.38026L16.4605 6.91825L16.9175 6.89522L16.9529 6.62458L17.431 6.55794L17.4395 6.46334L17.2337 6.38026L17.1865 6.09398L17.7742 6.04545L18.1292 5.68514L18.1486 5.65882L18.1528 5.66046L18.2607 5.55188L19.496 5.39969L20.0424 5.85213L18.6098 6.59661L20.4328 7.01614L20.6689 6.42139H21.4657L21.7473 5.90314L21.184 5.76576V5.11013L19.4176 4.34674L18.1983 4.48411L17.5103 4.83537L17.5575 5.68925L16.8383 5.58231L16.7278 5.11013L17.4167 4.49974L16.1662 4.43887L15.807 4.54499L15.6511 4.9563L16.1199 5.03362L16.0263 5.491L15.2295 5.53707L15.1047 5.84144L13.9487 5.8727C13.9487 5.8727 13.9166 5.2327 13.8702 5.2327C13.8239 5.2327 14.7767 5.21707 14.7767 5.21707L15.4656 4.56062L15.0895 4.37717L14.5895 4.851L13.7598 4.80494L13.2598 4.13368H12.1965L11.0869 4.94231H12.1038L12.1965 5.2327L11.9326 5.47208L13.0583 5.50252L13.2303 5.89902L11.963 5.85296L11.9014 5.54776L11.1046 5.37995L10.6821 5.15126L9.73356 5.15866C12.839 2.95157 16.6578 1.64524 20.7852 1.64524C25.5425 1.64524 29.8891 3.38015 33.2054 6.23054L32.9819 6.62046L32.1143 6.95198L31.7483 7.33943L31.8327 7.79105L32.2804 7.85193L32.5502 8.51003L33.3226 8.20648L33.4499 9.08668H33.2172L32.5831 8.99537L31.8799 9.11054L31.1994 10.0483L30.2264 10.1972L30.0856 11.01L30.4962 11.1046L30.3773 11.6269L29.411 11.4377L28.5248 11.6269L28.3368 12.1082L28.4903 13.1184L29.0105 13.3561L29.8832 13.3512L30.4726 13.2993L30.6522 12.842L31.573 11.6747L32.1792 11.7956L32.7762 11.2691L32.8875 11.6804L34.3563 12.647L34.1767 12.8823L33.5148 12.8477L33.7695 13.1998L34.1767 13.287L34.654 13.0929L34.6439 12.5318L34.8555 12.4282L34.6852 12.2521L33.7054 11.7191L33.4474 11.0108H34.2619L34.5224 11.2625L35.224 11.8523L35.2535 12.5656L35.9803 13.3207L36.251 12.2859L36.7544 12.0177L36.8488 12.8642L37.3404 13.3906L38.321 13.3742C38.5107 13.8505 38.681 14.335 38.8303 14.8294L38.7283 14.9215ZM11.4672 9.08668L11.9596 8.85799L12.4048 8.96165L12.2513 9.54488L11.7707 9.69378L11.4672 9.08668ZM14.0802 10.4596V10.8372H12.9554L12.5338 10.7229L12.6392 10.4596L13.1797 10.2416H13.9183V10.4596H14.0802ZM14.5979 10.9861V11.3522L14.3163 11.529L13.9655 11.5924C13.9655 11.5924 13.9655 11.0437 13.9655 10.9861H14.5979ZM14.2809 10.8372V10.4021L14.6679 10.7459L14.2809 10.8372ZM14.4571 11.7174V12.0736L14.1881 12.3369H13.5903L13.6839 11.9371L13.9664 11.9132L14.0245 11.7758L14.4571 11.7174ZM12.968 10.9861H13.5895L12.7926 12.0728L12.4638 11.9009L12.5346 11.4435L12.968 10.9861ZM15.5128 11.5924V11.9478H14.915L14.7514 11.7174V11.3867H14.7986L15.5128 11.5924ZM14.9605 11.1038L15.1308 10.9294L15.4183 11.1038L15.1881 11.2888L14.9605 11.1038ZM39.0335 15.8478L39.0925 15.7804C39.117 15.884 39.1431 15.9877 39.1667 16.093L39.0335 15.8478Z" fill="white"/>
<path d="M3.47412 12.244V12.8166C3.67902 12.3493 3.90499 11.8936 4.14698 11.4469L3.47412 12.244Z" fill="white"/>
</g>
<defs>
<clipPath id="clip0">
<rect width="41" height="40" fill="white" transform="translate(0.285645)"/>
</clipPath>
</defs>
</svg>
