<svg width="40" height="50" viewBox="0 0 40 50" fill="none" xmlns="http://www.w3.org/2000/svg">
<path d="M39.1482 10.0322C39.0591 9.81424 38.9274 9.61638 38.7608 9.45001L29.8322 0.521379C29.4962 0.189488 29.0436 0.00240653 28.5714 0H1.78575C0.79949 0 0 0.79949 0 1.78575V48.2143C0 49.2005 0.79949 50 1.78575 50H37.5C38.4862 50 39.2857 49.2005 39.2857 48.2143V10.7143C39.2854 10.48 39.2387 10.2481 39.1482 10.0322ZM30.3571 41.0714H8.92853C7.94227 41.0714 7.14278 40.2719 7.14278 39.2856C7.14278 38.2994 7.94227 37.4999 8.92853 37.4999H30.3571C31.3433 37.4999 32.1428 38.2994 32.1428 39.2856C32.1428 40.2719 31.3433 41.0714 30.3571 41.0714ZM30.3571 33.9286H8.92853C7.94227 33.9286 7.14278 33.1291 7.14278 32.1428C7.14278 31.1566 7.94227 30.3571 8.92853 30.3571H30.3571C31.3433 30.3571 32.1428 31.1566 32.1428 32.1428C32.1428 33.1291 31.3433 33.9286 30.3571 33.9286ZM30.3571 26.7857H8.92853C7.94227 26.7857 7.14278 25.9862 7.14278 24.9999C7.14278 24.0137 7.94227 23.2142 8.92853 23.2142H30.3571C31.3433 23.2142 32.1428 24.0137 32.1428 24.9999C32.1428 25.9862 31.3433 26.7857 30.3571 26.7857ZM30.3571 19.6428H8.92853C7.94227 19.6428 7.14278 18.8433 7.14278 17.8571C7.14278 16.8708 7.94227 16.0713 8.92853 16.0713H30.3571C31.3433 16.0713 32.1428 16.8708 32.1428 17.8571C32.1428 18.8433 31.3433 19.6428 30.3571 19.6428ZM30.3571 8.92853V6.09647L33.1893 8.92864H30.3571V8.92853Z" fill="white"/>
</svg>
