<svg width="51" height="50" viewBox="0 0 51 50" fill="none" xmlns="http://www.w3.org/2000/svg">
<g clip-path="url(#clip0)">
<path d="M25.6997 0C16.2216 0 8.51221 7.70938 8.51221 17.1875C8.51221 26.6656 16.2216 34.375 25.6997 34.375C35.1747 34.375 42.8872 26.6656 42.8872 17.1875C42.8872 7.70938 35.1747 0 25.6997 0ZM34.7341 14.7563L31.7653 18.475L32.0903 23.3344C32.1278 23.875 31.881 24.3969 31.4341 24.7125C31.1622 24.9031 30.8466 25 30.5278 25C30.3216 25 30.1122 24.9594 29.9185 24.875L25.6997 23.0844L21.4841 24.875C20.9841 25.0875 20.4091 25.0281 19.9685 24.7125C19.5247 24.3969 19.2778 23.875 19.3122 23.3344L19.6372 18.475L16.6685 14.7563C16.3372 14.3438 16.2403 13.7906 16.406 13.2875C16.5716 12.7844 16.981 12.4031 17.4935 12.2688L21.9247 11.1094L24.356 7.01562C24.9185 6.06562 26.481 6.06562 27.0403 7.01562L29.4716 11.1094L33.906 12.2688C34.4153 12.4031 34.8247 12.7875 34.9935 13.2875C35.1622 13.7875 35.0622 14.3406 34.7341 14.7563Z" fill="white"/>
<path d="M8.12189 27.322L0.909391 39.8439C0.593766 40.3939 0.640641 41.0783 1.02502 41.5783C1.40939 42.0783 2.05627 42.3033 2.66877 42.1345L11.8438 39.6689L14.2844 48.8439C14.4469 49.4533 14.9625 49.9064 15.5875 49.9908C15.6563 49.997 15.7281 50.0001 15.7938 50.0001C16.3469 50.0001 16.8656 49.7064 17.1469 49.2189L23.9688 37.4126C17.1906 36.8376 11.3656 32.922 8.12189 27.322Z" fill="white"/>
<path d="M50.4941 39.8439L43.2785 27.322C40.0379 32.922 34.2098 36.8376 27.4316 37.4126L34.2535 49.2189C34.5348 49.7064 35.0535 50.0001 35.6066 50.0001C35.6723 50.0001 35.7441 49.997 35.8098 49.9876C36.4379 49.9033 36.9504 49.4501 37.116 48.8408L39.5566 39.6658L48.7316 42.1314C49.3441 42.3001 49.9879 42.0751 50.3754 41.5751C50.7629 41.0783 50.8066 40.3939 50.4941 39.8439Z" fill="white"/>
</g>
<defs>
<clipPath id="clip0">
<rect width="50" height="50" fill="white" transform="translate(0.700684)"/>
</clipPath>
</defs>
</svg>
