<svg width="50" height="50" viewBox="0 0 50 50" fill="none" xmlns="http://www.w3.org/2000/svg">
<g clip-path="url(#clip0)">
<path d="M42.5811 4.17712C38.4906 4.17712 35.1627 7.50505 35.1627 11.5961C35.1627 12.6291 36 13.4664 37.033 13.4664C38.066 13.4664 38.9033 12.6291 38.9033 11.5961C38.9033 9.56736 40.5529 7.91775 42.581 7.91775C44.6097 7.91775 46.2593 9.56736 46.2593 11.5961C46.2593 13.6248 44.6097 15.2744 42.581 15.2744H1.87031C0.837305 15.2744 0 16.1117 0 17.1447C0 18.1777 0.837305 19.015 1.87031 19.015H42.5811C46.6715 19.015 50 15.6871 50 11.5961C50 7.50505 46.6715 4.17712 42.5811 4.17712Z" fill="#DF413A"/>
<path d="M47.3815 23.1921H1.87031C0.837305 23.1921 0 24.0294 0 25.0625C0 26.0955 0.837305 26.9328 1.87031 26.9328H47.3815C48.4146 26.9328 49.2519 26.0955 49.2519 25.0625C49.2519 24.0294 48.4146 23.1921 47.3815 23.1921Z" fill="#DF413A"/>
<path d="M42.5811 30.9857H1.87031C0.837305 30.9857 0 31.823 0 32.856C0 33.889 0.837305 34.7263 1.87031 34.7263H42.5811C44.6098 34.7263 46.2594 36.3759 46.2594 38.4046C46.2594 40.4326 44.6098 42.0822 42.5811 42.0822C40.553 42.0822 38.9034 40.4326 38.9034 38.4046C38.9034 37.3716 38.0661 36.5343 37.0331 36.5343C36.0001 36.5343 35.1628 37.3716 35.1628 38.4046C35.1628 42.495 38.4901 45.823 42.5812 45.823C46.6716 45.823 50.0001 42.495 50.0001 38.4046C50 34.3143 46.6721 30.9857 42.5811 30.9857Z" fill="#DF413A"/>
</g>
<defs>
<clipPath id="clip0">
<rect width="50" height="50" fill="white"/>
</clipPath>
</defs>
</svg>
