<svg width="499" height="167" viewBox="0 0 499 167" fill="none" xmlns="http://www.w3.org/2000/svg">
<path fill-rule="evenodd" clip-rule="evenodd" d="M222.718 23.092C211.852 25.65 204.084 34.736 200.351 49.251C198.372 56.947 198.162 71.632 199.926 79C201.657 86.232 206.565 95.452 210.417 98.711C219.246 106.181 232.781 108.608 242 104.374C251.291 100.108 259 88.797 259 79.431C259 73.759 256.494 73.888 251.133 79.836C248.585 82.662 245.233 85.431 243.685 85.987C227.545 91.793 209 70.567 209 46.29C209 41.333 209.424 39.576 211 38C213.959 35.041 217.649 35.532 227.053 40.135C231.699 42.409 236.816 44.558 238.425 44.911C240.034 45.263 241.492 45.99 241.666 46.526C241.839 47.062 239.277 49.243 235.971 51.372C227.415 56.886 224.411 61.806 225.692 68.209C226.477 72.135 231.323 76.782 235.437 77.554C240.197 78.447 247.374 75.111 249.488 71.024C251.694 66.758 251.161 61.548 248.5 61.356C247.4 61.277 245.928 61.165 245.229 61.106C244.529 61.048 243.473 59.937 242.881 58.639C241.498 55.602 243.219 52.151 249.965 44.442C254.645 39.095 259 30.246 259 26.085C259 23.063 256.77 21.888 253.881 23.387C249.167 25.833 246.45 25.926 237.073 23.963C231.916 22.883 227.427 22.045 227.098 22.1C226.769 22.156 224.798 22.602 222.718 23.092ZM352.81 23.398C346.473 25.104 341.513 28.614 337.978 33.894C334.516 39.065 333.596 43.114 334.207 50.486C335.11 61.374 341.592 67.204 359.759 73.465C365.667 75.501 371.926 78.25 373.669 79.573C382.761 86.474 378.487 99 367.039 99C363.287 99 361.864 98.483 359.924 96.415C357.768 94.115 357.5 92.929 357.5 85.665C357.5 81.174 357.104 76.886 356.62 76.135C355.132 73.828 347.526 75.378 341.198 79.278C332.234 84.803 331.148 88.472 336.24 96.028C341.508 103.846 353.73 108.044 365.177 105.968C376.428 103.928 383.232 98.83 387.824 89C392.84 78.262 391.654 67.141 384.733 60.018C380.32 55.476 375.045 53.346 365 52.051C352.219 50.404 347.188 49.029 343.942 46.297C340.625 43.507 340.126 40.016 342.679 37.464C345.033 35.11 349.881 35.965 359.362 40.403C370.326 45.537 376.27 46.704 379.787 44.416C384.433 41.392 388.326 35.11 389.53 28.693C390.643 22.761 388.985 21.641 382.738 24.103L377.642 26.112L368.293 24.056C357.596 21.704 358.897 21.759 352.81 23.398ZM37.951 25.908C39.377 28.574 39.39 100.402 37.965 103.066C36.953 104.956 37.543 105 63.742 105C94.321 105 95 104.849 95 98.054C95 93.101 93.068 90.826 84.488 85.671C74.146 79.459 74.497 76.839 86.319 72C90.525 70.278 92.905 68.62 93.963 66.675C95.459 63.925 95.41 63.773 92.133 61.004C88.328 57.789 77.403 54.431 73.739 55.351C69.711 56.362 66.113 59.89 64.866 64.054C63.223 69.535 65.033 75.031 70.406 80.876C78.784 89.992 79.801 93.29 75.545 97.545C72.284 100.807 64.332 100.986 59.354 97.91C54.726 95.05 50.32 88.324 48.494 81.333C45.686 70.584 48.269 64.506 64.57 43.5C70.963 35.261 72.174 31.051 69.272 27.16C67.293 24.508 67.242 24.499 52.094 24.224C37.272 23.954 36.927 23.995 37.951 25.908ZM115.094 26.84C117.056 32.467 103.968 89.301 98.03 100.941L95.959 105H110.908C123.165 105 126.14 104.717 127.429 103.429C129.851 101.006 129.46 91.36 126.624 83.545L124.248 77H129.545C135.581 77 135.325 76.564 136.863 89.462C137.642 95.992 137.167 101.303 135.573 103.882C135.074 104.689 139.664 105 152.096 105C168.95 105 169.274 104.96 167.589 103.098C162.389 97.352 148.07 38.946 149.264 28.353L149.754 24H131.929H114.104L115.094 26.84ZM279.232 26.804C280.049 28.968 279.782 32.339 278.065 41.554C273.406 66.558 265.741 95.182 261.946 101.75L260.067 105H275.585H291.102L292.6 101.416C294.321 97.297 293.78 91.625 290.854 83.093C289.834 80.12 289 77.509 289 77.291C289 77.074 291.361 77.031 294.247 77.198L299.494 77.5L300.856 87.358C302.052 96.013 302.032 97.692 300.69 101.108L299.161 105H316.01H332.859L330.49 100.75C327.244 94.925 320.607 71.044 316.45 50.227C312.737 31.639 312.327 27.073 314.2 25.2C315.133 24.267 311.264 24 296.787 24H278.174L279.232 26.804ZM412.061 26.659C414.239 32.389 401.301 88.648 394.935 101.127L392.959 105H407.908C420.165 105 423.14 104.717 424.429 103.429C426.851 101.006 426.46 91.36 423.624 83.545L421.248 77H426.545C432.581 77 432.325 76.564 433.863 89.462C434.642 95.992 434.167 101.303 432.573 103.882C432.074 104.689 436.664 105 449.096 105C465.717 105 466.253 104.937 464.653 103.169C459.43 97.398 445.068 38.964 446.264 28.353L446.754 24H428.902H411.05L412.061 26.659ZM120.535 41.351C116.766 44.107 116.823 58.518 120.64 68.057L122.217 72H128.128H134.038L133.412 69.25C127.976 45.366 124.712 38.296 120.535 41.351ZM285.309 40.843C281.412 43.38 280.841 55.427 284.141 65.479L286.281 72H292.141C295.632 72 298 71.568 298 70.931C298 68.124 292.707 49.45 290.797 45.518C288.583 40.963 287.085 39.686 285.309 40.843ZM417.535 41.351C413.766 44.107 413.823 58.518 417.64 68.057L419.217 72H425.128H431.038L430.412 69.25C424.976 45.366 421.712 38.296 417.535 41.351ZM146.105 120.197C135.226 126.023 135.208 141.132 146.074 146.815C156.728 152.386 168.5 145.397 168.5 133.5C168.5 121.671 156.578 114.589 146.105 120.197ZM377.295 119.107C371.447 120.798 369.124 127.124 372.947 130.947C374.018 132.018 376.831 133.384 379.197 133.982C388.55 136.347 391.98 138.073 392.653 140.752C393.573 144.417 390.13 147 384.323 147C379.577 147 376.808 145.94 373.355 142.8C371.869 141.448 370.995 141.199 370.508 141.988C369.402 143.776 372.923 146.902 377.398 148.107C386.745 150.624 395 146.986 395 140.349C395 136.24 392.766 134.64 383.402 132.044C379.257 130.894 375.83 129.273 374.765 127.958C372.652 125.349 372.615 124.909 374.311 122.59C376.416 119.711 384.078 119.317 388.917 121.84C391.267 123.064 393.172 123.53 393.522 122.965C394.504 121.375 393.14 120.133 389.214 119.043C384.828 117.824 381.672 117.842 377.295 119.107ZM107 133.5C107 145.722 107.236 148 108.5 148C109.69 148 110 146.556 110 141V134H119.5H129V141C129 146.556 129.31 148 130.5 148C131.764 148 132 145.722 132 133.5C132 121.278 131.764 119 130.5 119C129.31 119 129 120.444 129 126V133H119.5H110V126C110 120.444 109.69 119 108.5 119C107.236 119 107 121.278 107 133.5ZM173.385 121.465C174.61 123.335 174.996 126.411 174.985 134.215C174.969 144.736 174.617 146.275 172 147.271C171.175 147.585 173.425 147.849 177 147.858C181.885 147.869 182.937 147.647 181.235 146.963C178.221 145.752 177.3 142.976 176.844 133.731C176.634 129.479 176.514 126 176.576 126C176.638 126 179.122 129.585 182.095 133.967C185.068 138.349 187.748 141.949 188.052 141.967C188.356 141.985 191.161 137.613 194.285 132.25L199.966 122.5L199.983 135.25C199.997 145.909 200.246 148 201.5 148C202.764 148 203 145.722 203 133.5C203 121.86 202.729 119 201.624 119C200.868 119 197.911 123.05 195.054 128C192.198 132.95 189.458 137 188.967 137C188.475 137 185.266 132.95 181.836 128C177.659 121.972 174.967 119 173.685 119C171.879 119 171.862 119.141 173.385 121.465ZM209 119.729C211.651 120.738 211.969 122.287 211.985 134.282C211.999 145.573 211.906 146.102 209.75 146.969C208.23 147.58 211.802 147.894 220.75 147.937C232.061 147.991 234 147.774 234 146.455C234 145.195 233.307 145.056 230.25 145.7C228.188 146.135 224.025 146.493 221 146.496L215.5 146.5L215.202 140.25L214.905 134H223.952C231.328 134 233 133.723 233 132.5C233 131.278 231.333 131 224 131H215L215.015 126.75C215.039 120.27 215.837 119.6 222.65 120.337C225.868 120.686 229.738 121.255 231.25 121.602C233.376 122.09 234 121.866 234 120.617C234 119.205 232.318 119.01 220.75 119.079C213.463 119.122 208.175 119.415 209 119.729ZM236.984 119.75C236.975 120.162 238.627 126.688 240.655 134.25L244.342 148H248.612C250.961 148 253.204 147.479 253.597 146.843C254.686 145.081 254.23 139.515 252.529 133.787C250.734 127.741 250.564 123.387 252.087 122.446C253.961 121.288 254.828 123.173 258.211 135.758C261.395 147.602 261.587 147.995 264.222 147.997C266.683 148 267.099 147.447 268.56 142.25C270.944 133.767 274.053 122.763 274.661 120.658C275.056 119.291 274.734 118.905 273.411 119.159C272.041 119.423 270.789 122.594 268 132.865L264.372 146.228L261.104 134.232C259.307 127.635 257.334 121.734 256.718 121.118C254.747 119.147 251.022 119.812 250.074 122.305C249.22 124.552 249.473 126.542 252.081 138.082C253.519 144.443 252.941 147 250.067 147C247.488 147 246.993 145.894 243.009 131.25C240.859 123.347 239.201 119 238.338 119C237.602 119 236.993 119.338 236.984 119.75ZM291.213 120.688C291.394 124.033 281.004 145.687 278.678 146.812C276.936 147.654 277.901 147.858 283.5 147.833C287.869 147.813 289.56 147.541 288 147.111C284.468 146.136 283.81 141.076 287.184 140.833C298.769 139.995 300.116 140.175 301.07 142.685C302.37 146.104 302.249 146.788 300.25 147.311C299.288 147.562 301.2 147.814 304.5 147.869C309.849 147.96 310.242 147.837 308.118 146.735C306.419 145.854 304.108 141.77 300.063 132.503C296.5 124.339 293.781 119.389 292.753 119.191C291.698 118.988 291.15 119.52 291.213 120.688ZM312.75 120.031C314.916 120.902 315 121.405 315 133.5C315 145.595 314.916 146.098 312.75 146.969C311.041 147.656 311.942 147.869 316.5 147.858C319.8 147.849 321.825 147.585 321 147.271C318.598 146.357 318.032 144.834 318.015 139.25C317.994 131.852 320.169 132.259 327.36 141C331.034 145.466 333.851 148 335.143 148C336.962 148 336.828 147.586 333.834 143.935C332 141.699 329.43 138.549 328.122 136.935L325.744 134H328.422C336.675 134 340.81 126.719 335.545 121.455C333.22 119.129 332.497 119.003 321.795 119.063C314.014 119.107 311.2 119.408 312.75 120.031ZM341.75 120.031C343.916 120.902 344 121.405 344 133.5C344 145.595 343.916 146.098 341.75 146.969C340.23 147.58 343.802 147.894 352.75 147.937C364.312 147.992 366 147.794 366 146.383C366 145.177 365.429 144.935 363.75 145.43C362.512 145.795 358.921 146.359 355.768 146.684C348.271 147.456 347 146.397 347 139.378V134H356C363.333 134 365 133.722 365 132.5C365 131.278 363.333 131 356 131H347V126.622C347 120.677 348.567 119.557 355.771 120.352C358.922 120.7 362.512 121.266 363.75 121.609C365.413 122.07 366 121.811 366 120.617C366 119.206 364.312 119.008 352.75 119.063C343.802 119.106 340.23 119.42 341.75 120.031ZM150.352 121.092C148.62 121.594 145.807 123.594 144.102 125.537C137.844 132.664 140.979 144.967 149.458 146.558C153.717 147.357 161.173 144.191 163.54 140.579C167.947 133.854 165.872 124.098 159.466 121.421C155.651 119.827 154.822 119.797 150.352 121.092ZM318 126.524V133.274L324.711 132.735C331.702 132.174 335 130.041 335 126.08C335 122.094 332.484 120.593 325.109 120.176L318 119.774V126.524ZM291.279 125.551C290.699 127.173 289.28 130.863 288.127 133.75L286.029 139H292.515C296.082 139 299 138.609 299 138.13C299 137.652 297.5 133.962 295.667 129.931L292.334 122.602L291.279 125.551Z" fill="black"/>
</svg>
