<svg width="550" height="550" viewBox="0 0 550 550" fill="none" xmlns="http://www.w3.org/2000/svg">
<path fill-rule="evenodd" clip-rule="evenodd" d="M436.863 45.699C376.098 55.387 338.145 104.85 347.472 162.198C354.354 204.512 384.43 235.312 426.628 243.258C433.749 244.6 439.249 244.825 454.5 244.399C476.341 243.79 490.762 241.274 505 235.591L513.5 232.198L513.542 191.198C513.565 168.648 513.96 147.835 514.421 144.948L515.258 139.698H504.083H492.908L493.704 149.948C494.142 155.585 494.5 174.618 494.5 192.242C494.5 227.459 494.431 227.886 488.241 231.063C478.498 236.061 446.527 237.978 433 234.374C399.557 225.465 376.713 201.366 369.372 167.25C366.98 156.139 366.556 138.821 368.382 126.905C376 77.207 410.054 49.294 457.723 53.675C476.072 55.361 487.409 58.992 500.25 67.294L507 71.658L509.61 67.428C511.046 65.101 512.888 62.137 513.703 60.841C514.519 59.545 514.807 58.137 514.343 57.712C512.337 55.874 493.264 49.585 483.809 47.642C472.207 45.259 446.339 44.188 436.863 45.699ZM35 49.987C35 50.182 38.414 59.309 42.586 70.27C55.799 104.983 80.343 170.99 93.036 205.948L105.291 239.698H114.899H124.507L126.856 232.948C134.991 209.57 167.316 124.052 185.56 77.639C191.302 63.031 196 50.769 196 50.389C196 50.009 191.517 49.698 186.037 49.698H176.074L171.99 62.448C169.744 69.461 157.079 109.173 143.847 150.698C130.614 192.223 119.496 226.514 119.141 226.901C118.56 227.533 104.093 185.947 70.541 87.198C64.188 68.498 58.606 52.523 58.138 51.698C57.478 50.534 54.788 50.135 46.143 49.915C40.015 49.76 35 49.792 35 49.987ZM212.771 50.336C212.505 50.81 212.705 60.423 213.216 71.698C214.209 93.578 213.551 232.335 212.433 236.948L211.767 239.698H222.636H233.506L233.503 149.283C233.501 99.555 233.871 58.497 234.325 58.042C234.778 57.587 241.528 57.22 249.325 57.226C261.615 57.236 264.423 57.554 270.444 59.614C282.853 63.86 289.264 72.637 290.676 87.313C292.125 102.378 284.314 116.59 269.985 124.957C264.738 128.022 249.274 132.698 244.388 132.698C241.183 132.698 241 132.887 241 136.198C241 139.179 241.34 139.698 243.29 139.698C247.358 139.698 257.337 142.662 263.713 145.764C285.652 156.438 299.541 180.074 307.45 220.198C308.752 226.798 310.103 233.886 310.453 235.948L311.091 239.698H322.014C330.297 239.698 332.842 239.396 332.542 238.448C332.324 237.761 331.171 232.248 329.979 226.198C325.602 203.982 316.116 179.737 306.494 166.173C297.62 153.664 282.884 142.19 270.366 138.044C267.69 137.157 265.15 136.119 264.722 135.737C264.294 135.354 266.758 134.259 270.198 133.303C285.766 128.974 300.153 118.28 306.006 106.685C315.445 87.987 308.722 64.739 291.306 55.854C282.013 51.113 277.16 50.505 244.378 49.977C227.261 49.701 213.038 49.863 212.771 50.336ZM153.534 307.727C114.738 315.899 85.127 342.348 74.397 378.416C70.666 390.958 69.927 413.004 72.78 426.698C80.738 464.896 106.689 492.265 144.523 502.36C153.64 504.793 156.138 505.025 173.5 505.049C187.515 505.069 195.124 504.604 202.5 503.277C214.955 501.037 227.726 497.384 233.68 494.358L238.224 492.049L238.362 446.373L238.5 400.698H228.492H218.485L218.492 443.776L218.5 486.854L215.331 489.69C210.165 494.311 199.779 496.198 179.5 496.198C160.044 496.198 153.805 494.992 140.422 488.641C123.747 480.728 110.491 467.49 101.927 450.198C93.893 433.979 92.606 427.7 92.602 404.698C92.599 386.681 92.802 384.447 95.272 375.326C103.468 345.073 121.715 325.121 149.035 316.542C155.666 314.46 158.398 314.202 173.5 314.233C188.794 314.265 191.475 314.537 200.211 316.949C210.775 319.865 219.921 324.062 227.066 329.27L231.632 332.598L235.316 326.192C237.342 322.669 239 319.349 239 318.815C239 317.58 224.775 312.07 215.386 309.669C197.824 305.177 169.816 304.298 153.534 307.727ZM275.675 330.948C276.71 356.634 276.696 456.058 275.653 481.483L274.862 500.767L285.681 500.483L296.5 500.198L296 475.698C295.725 462.223 295.518 421.583 295.54 385.387C295.574 328.808 295.785 319.446 297.04 318.652C299.255 317.251 322.73 317.548 329.147 319.058C345.803 322.979 353.805 334.689 352.751 353.6C352.169 364.04 349.929 369.426 343.031 376.974C335.641 385.06 322.328 391.26 308.25 393.173C303.408 393.83 303 394.093 303 396.551C303 399.066 303.451 399.318 310.997 401.014C343.504 408.32 361.449 433.63 370.885 485.478L373.564 500.198L384.376 500.483L395.188 500.768L394.5 496.483C391.9 480.288 385.169 457.555 378.993 444.108C368.567 421.408 350.509 404.069 330.683 397.721C328.584 397.049 327.086 396.279 327.354 396.011C327.622 395.742 331.49 394.26 335.948 392.716C360.717 384.139 374.235 366.936 372.689 345.958C371.727 332.897 365.254 322.777 354.038 316.799C344.049 311.475 338.046 310.735 304.679 310.715L274.858 310.698L275.675 330.948ZM417.539 335.448C418.518 367.136 418.515 443.962 417.534 475.948L416.775 500.698H460.388H504V492.901V485.104L471.25 488.767C453.237 490.781 438.275 492.227 438 491.979C437.185 491.246 437.467 324.809 438.296 317.448L439.056 310.698H427.915H416.775L417.539 335.448Z" fill="black"/>
</svg>
