<svg width="953" height="443" viewBox="0 0 953 443" fill="none" xmlns="http://www.w3.org/2000/svg">
<path d="M427.198 24.7871C426.837 25.0502 425.653 26.563 424.633 28.1416C421.641 32.6802 419.372 35.2783 415.459 38.5671C409.868 43.3029 407.5 45.9669 404.442 51.0316C402.403 54.4519 400.759 58.3985 399.444 63.1343C397.931 68.6924 396.32 71.5208 392.834 74.9411C390.302 77.4077 389.907 77.9339 389.677 79.2823C389.348 80.9596 389.447 80.8609 384.448 84.8733C382.015 86.8465 381.061 87.4385 381.061 86.9781C381.061 86.9123 382.212 85.7612 383.626 84.4457C387.375 80.8938 389.611 78.5259 389.611 78.197C389.611 77.2433 384.547 81.6831 381.686 85.1692C380.634 86.3861 380.371 86.5505 379.877 86.2545C378.858 85.6626 378.989 84.6759 380.338 81.9462C382.146 78.3614 382.475 77.1775 382.541 73.9545C382.607 72.4087 382.87 69.975 383.166 68.528C384.218 63.0686 383.56 54.715 381.587 48.4006C381.061 46.8548 380.042 44.7171 379.088 43.2372C376.951 39.9813 375.767 39.5208 374.155 41.231C373.333 42.0861 373.366 41.9545 373.662 47.8086C373.826 51.2289 373.761 52.4458 373.366 53.8928C370.801 62.641 370.604 66.0943 372.051 74.1189C372.61 77.309 372.939 80.4992 373.07 84.4786C373.333 92.5361 373.202 92.8979 368.729 97.6666C366.46 100.067 364.191 102.929 362.152 106.02C360.311 108.783 358.305 111.381 357.285 112.302C356.365 113.157 352.978 115.591 349.821 117.695C340.843 123.714 332.721 130.522 332.721 132.035C332.721 132.89 334.069 134.929 334.726 135.06C335.746 135.258 343.77 129.963 348.505 125.983C352.879 122.267 358.798 119.077 365.276 116.906C370.998 114.999 374.912 114.703 379.417 115.788C382.968 116.676 387.178 119.142 395.267 125.194C400.167 128.844 401.022 129.732 404.442 134.37C407.632 138.678 409.671 141.046 416.708 148.544C423.844 156.174 424.633 156.668 429.139 156.668C431.769 156.668 432.098 156.602 432.822 155.845C433.282 155.385 433.71 154.661 433.841 154.201C434.038 153.346 433.611 152.721 428.711 147.163C427.396 145.683 425.817 143.282 424.601 141.046C420.227 132.824 414.242 126.707 404.672 120.655C403.094 119.669 401.811 118.715 401.778 118.583C401.778 118.057 405.199 118.583 408.027 119.537C410.756 120.425 410.986 120.458 418.418 120.491H425.982L428.448 121.708C429.763 122.365 432.131 123.977 433.677 125.26C437.689 128.614 441.207 130.883 445.877 133.12C453.013 136.54 457.617 137.757 463.306 137.757C467.975 137.757 469.784 136.869 468.929 134.994C468.699 134.468 467.844 133.975 466.167 133.383C463.405 132.363 460.05 130.39 454.887 126.772C445.614 120.261 440.254 117.202 436.275 116.183C434.17 115.656 433.216 115.656 428.58 116.347C427.33 116.544 424.305 116.676 421.871 116.709C419.043 116.709 416.708 116.906 415.294 117.235C412.828 117.827 413.617 117.958 403.258 115.262C396.089 113.387 391.354 112.532 386.323 112.269C381.324 111.973 378.956 111.578 376.819 110.592C375.306 109.901 375.109 109.737 375.504 109.276C376.194 108.421 377.312 107.993 386.06 105.231C390.729 103.751 396.122 101.876 398.063 101.054C402.732 99.0479 405.527 98.3902 410.92 97.9297C417.103 97.4035 422.463 97.6995 426.771 98.7519C431.638 99.9359 438.313 101.12 443.608 101.745C446.107 102.008 449.56 102.468 451.336 102.731C453.112 102.994 455.512 103.225 456.663 103.225H458.768L458.011 102.403C456.729 101.021 453.112 100.199 445.186 99.4426C439.3 98.8835 434.17 97.9626 431.013 96.9431C429.862 96.5485 428.876 96.2196 428.81 96.1538C428.777 96.1209 430.322 95.8907 432.263 95.6934C434.236 95.4632 437.952 94.8712 440.583 94.345C450.185 92.4375 451.27 92.3059 457.683 92.1415C466.726 91.8784 469.587 92.4375 472.546 94.9369C473.138 95.4303 474.191 96.1209 474.881 96.4498C476.92 97.5022 478.597 99.1466 481.656 103.159C485.372 108.059 489.252 112.203 491.028 113.256C492.771 114.275 494.678 114.933 503.031 117.399L509.772 119.373L510.594 118.748C511.219 118.287 511.449 117.827 511.449 117.038C511.449 116.018 511.219 115.788 508.161 113.716C506.023 112.269 502.899 109.638 499.282 106.119C496.191 103.192 492.244 99.4426 490.469 97.8311C488.726 96.2196 487.279 94.7067 487.279 94.4107C487.279 93.8845 490.107 93.9503 498.789 94.8383C503.129 95.2329 503.425 95.3316 509.147 97.6338C512.403 98.9164 517.533 101.219 520.558 102.731C530.128 107.533 537.691 109.441 549.924 110.098C553.377 110.296 557.356 110.526 558.803 110.624C561.993 110.789 565.972 111.776 568.767 113.091C569.885 113.617 573.075 115.492 575.837 117.301C588.695 125.654 594.253 128.187 602.244 129.338C608.032 130.193 617.93 130.916 618.884 130.555C620.692 129.864 620.462 127.759 618.555 127.397C616.286 126.97 614.707 126.016 606.322 119.702C594.713 110.986 591.425 109.408 582.316 108.289C577.745 107.73 573.766 106.875 573.766 106.448C573.766 106.316 573.963 106.185 574.193 106.185C575.213 106.185 585.275 103.093 587.117 102.238C589.287 101.186 595.305 96.7129 602.671 90.6286C605.861 87.9976 607.242 86.6163 607.966 85.3666C609.544 82.6369 609.216 81.1898 607.012 81.1898C606.026 81.1898 605.532 81.5516 603.066 84.1168C599.449 87.8332 598.331 88.3923 593.858 88.7869C587.15 89.3789 583.763 91.1548 571.957 100.298C568.899 102.666 565.413 105.099 564.229 105.658L562.092 106.678L551.799 106.579C540.782 106.481 537.066 106.119 534.567 104.836C533.844 104.474 533.317 104.113 533.416 104.014C533.482 103.948 538.086 103.751 543.643 103.619C554.594 103.356 554.364 103.422 554.364 101.515C554.364 100.692 554.035 100.462 551.174 99.015C546.965 96.9431 544.893 95.5947 541.703 92.865C537.428 89.2145 533.252 87.7674 527.069 87.7674C523.748 87.7674 514.277 89.0829 504.445 90.8917C499.446 91.8126 494.777 91.9442 491.817 91.2535C489.975 90.826 488.265 89.9709 488.265 89.4776C488.265 89.3131 489.482 88.7211 490.995 88.1292C492.475 87.5043 495.171 86.2874 496.98 85.3666C500.005 83.8537 500.63 83.3604 504.905 79.085C509.904 74.086 511.285 72.2443 514.047 66.9822C516.119 63.0028 516.382 62.1148 515.889 60.602C515.56 59.6482 515.362 59.4838 514.507 59.4838C513.488 59.4838 512.403 60.4047 510.495 62.9041C509.312 64.4828 507.108 65.8969 504.774 66.5876C503.195 67.0151 502.472 67.5742 499.15 70.7643C494.908 74.8753 487.279 81.2227 484.286 83.1631C481.853 84.7417 478.893 85.9257 474.848 86.9452C469.324 88.3594 467.186 88.5896 464.851 88.1292C463.7 87.8989 458.801 87.6029 453.901 87.4385C449.034 87.2741 444.496 87.011 443.871 86.8465C442.391 86.4848 441.24 86.8794 441.24 87.7345C441.24 88.1949 441.536 88.458 442.161 88.6225C443.509 88.8856 444.529 89.346 444.529 89.6749C444.529 90.0367 435.617 91.9113 431.704 92.3717C430.191 92.5361 427.231 92.7006 425.127 92.7006L421.345 92.6677L423.088 91.6153C424.633 90.6615 424.798 90.4642 424.798 89.3789C424.798 88.1949 424.831 88.162 427.856 86.6821C431.737 84.7417 434.334 82.6369 436.439 79.677C437.36 78.3614 438.84 76.3882 439.727 75.2371C441.438 72.9349 443.312 69.4488 444.858 65.5681C446.041 62.5753 446.074 62.3122 445.055 61.2926C444.003 60.2402 443.575 60.4047 440.911 62.937C438.313 65.4036 436.044 66.9493 430.52 70.0408C428.185 71.3234 425.62 72.8363 424.831 73.3954C422.529 74.974 419.766 77.9668 416.182 82.7684C414.34 85.235 411.907 88.162 410.723 89.3131C406.613 93.3912 401.778 96.0223 396.517 97.1404C393.689 97.7324 393.36 97.8969 391.716 99.5413C390.663 100.627 389.841 101.021 387.474 101.745C385.829 102.205 382.968 103.126 381.094 103.751C379.187 104.343 377.575 104.803 377.51 104.705C376.983 104.178 378.332 103.422 382.771 101.778C385.533 100.725 387.868 99.8372 387.934 99.7386C388 99.6728 387.671 99.4755 387.178 99.311C386.454 99.015 385.237 99.3768 379.45 101.416C372.577 103.882 370.538 104.474 370.538 104.08C370.538 103.554 372.971 100.1 374.418 98.5546C375.273 97.6338 378.266 94.7725 381.061 92.2073C383.856 89.642 389.184 84.5115 392.9 80.828C399.246 74.5136 399.904 73.9545 403.949 71.5537C409.309 68.2977 413.025 65.5352 416.412 62.2793C420.424 58.3985 422.562 56.6883 427.593 53.3666C433.216 49.6832 434.17 49.1899 437.853 48.1046C440.155 47.4139 441.701 47.2166 445.384 47.0851C451.007 46.8548 454.263 47.2166 463.931 49.1241C473.632 51.0316 476.558 51.3934 480.537 51.1632C485.898 50.8343 491.521 49.0583 499.972 45.0131C504.872 42.6781 506.286 41.4941 505.892 39.9813C505.727 39.2577 505.629 39.2577 499.709 39.2248C493.099 39.192 489.679 38.7315 483.201 37.0871C480.143 36.2978 478.597 36.0676 476.131 36.0676C467.384 36.1005 454.559 38.4355 445.976 41.5599C444.2 42.2176 440.517 43.566 437.787 44.5527C432.098 46.6246 431.473 46.9535 425.192 51.3605C419.569 55.2413 414.998 58.8589 411.644 62.1148C408.882 64.7459 407.698 65.5023 406.514 65.3378C405.758 65.2392 405.889 65.1076 407.698 63.7921C410.789 61.5557 417.3 54.3204 422.66 47.2166C425.85 42.9412 428.843 35.4098 430.059 28.3389C430.454 26.2341 430.421 25.8724 429.928 25.1488C429.303 24.1951 428.251 24.0306 427.198 24.7871ZM423.811 38.2711C423.252 40.0799 421.674 43.1385 420.095 45.4735C417.793 48.861 412.466 54.9781 408.651 58.6287C403.719 63.3317 403.028 63.2659 404.771 58.2998C406.974 51.9853 410.23 46.9535 414.702 42.9412C416.149 41.6585 418.846 39.192 420.654 37.5476L423.976 34.489L424.074 35.7387C424.14 36.3965 424.009 37.5476 423.811 38.2711ZM480.242 40.1128C484.878 40.9021 494.086 42.6781 494.941 42.9083C496.585 43.4016 492.179 45.7366 486.786 47.1837C483.892 47.973 476.558 48.1704 473.632 47.5126C472.382 47.2495 467.712 46.3286 463.273 45.5064C453.572 43.6976 452.421 43.4016 452.421 42.8754C452.421 42.2176 454.526 41.7572 462.286 40.7377C474.092 39.192 474.848 39.1591 480.242 40.1128ZM378.858 52.7418C379.779 55.6359 380.075 58.1683 380.075 63.0686C380.042 72.7376 379.22 78.197 377.608 79.5454C377.049 80.0058 377.049 80.0387 375.832 73.1652C374.517 66.0285 374.517 63.4303 375.8 58.2998C376.326 56.1621 376.786 53.6955 376.786 52.8404C376.786 51.7222 376.951 51.196 377.378 50.9658C378.101 50.5712 378.233 50.7356 378.858 52.7418ZM507.339 69.9093C507.306 73.8887 499.841 80.4663 491.488 83.9195C490.304 84.4128 490.238 84.4128 490.238 83.8208C490.238 83.3933 491.488 82.2751 493.954 80.4334C497.44 77.8024 499.545 75.7962 502.011 72.6718C503.294 71.0603 504.313 70.3368 505.793 70.0079C507.24 69.6462 507.339 69.6462 507.339 69.9093ZM438.116 70.7315C437.722 72.047 435.288 76.158 433.841 77.901C431.901 80.2361 429.369 82.2751 426.442 83.788C423.91 85.1035 419.076 86.9123 418.517 86.715C417.925 86.5176 420.687 82.9329 423.943 79.7099C425.784 77.8681 428.514 75.566 430.059 74.5464C432.92 72.6718 437.557 70.0079 438.05 70.0079C438.215 70.0079 438.215 70.3368 438.116 70.7315ZM533.219 92.1086C535.981 93.0952 539.039 95.1672 541.374 97.6666L542.986 99.4097L542.032 99.7057C541.473 99.8701 538.908 100.002 536.277 100.035C528.779 100.067 523.255 98.7848 514.409 94.8712L512.469 93.9832L513.455 93.3912C515.987 91.8455 520.756 91.0562 526.576 91.1877C530.128 91.2535 531.246 91.4179 533.219 92.1086ZM593.858 92.6019C593.201 93.6872 591.03 95.9236 589.419 97.1404C586.525 99.2782 583.237 100.758 577.252 102.534L574.029 103.521L574.785 102.666C575.213 102.205 577.482 100.298 579.817 98.4231C584.914 94.345 588.005 92.7335 591.326 92.3717C592.609 92.2401 593.793 92.1086 593.924 92.0757C594.056 92.0757 594.023 92.3059 593.858 92.6019ZM485.635 98.6862C488.002 99.8701 491.718 103.225 495.336 107.5C498.525 111.282 498.493 111.249 496.947 110.953C495.336 110.657 492.277 109.145 490.238 107.665C487.509 105.658 484.681 102.271 483.037 99.015C482.379 97.6995 482.379 97.6338 482.938 97.6338C483.267 97.6338 484.484 98.0942 485.635 98.6862ZM376.786 105.001C376.786 105.231 372.741 106.513 372.577 106.349C372.248 106.053 374.714 104.869 375.734 104.869C376.293 104.869 376.786 104.935 376.786 105.001ZM580.343 110.756C585.604 111.94 591.556 113.749 593.76 114.9C596.062 116.084 596.686 116.544 602.77 121.675C606.848 125.128 607.505 125.819 607.177 126.18C607.045 126.312 605.335 126.411 603.428 126.411C600.337 126.411 599.646 126.279 597.607 125.457C593.234 123.681 588.334 121.05 580.573 116.413C573.404 112.104 571.793 110.92 572.352 110.328C572.779 109.901 577.646 110.164 580.343 110.756ZM393.557 116.38C393.557 117.005 392.538 117.136 391.979 116.577C391.486 116.084 391.518 116.051 392.505 116.051C393.097 116.051 393.557 116.215 393.557 116.38ZM437.985 120.622C441.142 121.938 445.022 124.174 448.837 126.904C452.059 129.14 455.052 131.706 455.052 132.166C455.052 132.692 450.316 131.179 447.324 129.699C445.713 128.91 441.668 126.411 438.379 124.174C433.644 120.951 432.46 120.03 432.789 119.702C433.348 119.11 435.091 119.406 437.985 120.622ZM349.821 120.359C349.459 120.984 347.288 122.168 346.993 121.872C346.861 121.741 349.788 119.669 350.084 119.669C350.117 119.669 350.018 119.965 349.821 120.359ZM400.233 122.267C402.107 123.122 412.795 131.344 416.018 134.435C416.84 135.192 417.991 137.033 419.24 139.566C421.082 143.249 423.91 147.525 426.902 151.077C428.086 152.458 428.152 152.622 427.659 153.116C427.166 153.609 427.034 153.576 425.719 152.721C422.825 150.813 415.491 143.019 412.236 138.415C408.191 132.692 404.376 128.187 401.121 125.194C398.918 123.188 397.438 121.313 397.997 121.313C398.095 121.313 399.082 121.741 400.233 122.267ZM342.422 126.74C340.416 128.548 339.889 128.614 340.679 127.003C341.04 126.246 343.244 124.996 344.23 124.964C344.329 124.964 343.507 125.753 342.422 126.74Z" fill="black"/>
<path d="M435.321 87.6358C431.473 88.4909 424.929 90.3655 425.784 90.3655C426.245 90.3984 428.251 90.0037 430.224 89.5433C432.23 89.0829 434.433 88.6225 435.156 88.5567C438.116 88.2278 440.911 87.6687 440.911 87.4056C440.911 86.9781 437.754 87.1096 435.321 87.6358Z" fill="black"/>
<path d="M529.174 223.825C528.681 224.877 527.365 228.034 526.181 230.83C509.147 271.545 504.346 282.825 503.392 284.437C500.959 288.581 498.427 290.554 495.04 290.916C492.935 291.146 492.179 291.903 493.231 292.856C493.757 293.317 494.415 293.415 496.914 293.383C498.558 293.35 500.827 293.251 501.913 293.152C502.998 293.054 506.155 293.087 508.95 293.284C514.31 293.613 515.691 293.415 515.494 292.396C515.428 292.034 514.573 291.574 512.929 291.015C509.542 289.863 509.081 289.568 508.292 287.989C507.108 285.687 507.503 283.746 510.726 275.393L513.521 268.157L526.675 268.059L539.796 267.993L542.427 275.13C545.781 284.207 546.406 286.608 545.781 288.285C545.189 289.831 543.61 290.653 540.749 290.916C539.303 291.047 538.283 291.343 537.823 291.738L537.099 292.33L537.888 292.988C538.645 293.646 538.941 293.678 544.959 293.415C548.412 293.284 551.7 293.185 552.226 293.185C559.395 293.35 566.827 293.317 567.287 293.152C567.583 293.021 567.846 292.659 567.846 292.363C567.846 291.935 567.024 291.508 564.657 290.686C561.006 289.436 559.461 288.219 557.751 285.358C557.159 284.404 551.371 270.131 544.86 253.687C538.316 237.21 532.726 223.397 532.397 222.937C532.035 222.476 531.377 222.082 530.884 222.016C530.095 221.917 529.93 222.114 529.174 223.825ZM532.956 250.135C536.047 258.127 538.579 264.737 538.579 264.836C538.579 264.934 533.252 265.033 526.741 265.033C520.229 265.033 514.902 264.934 514.902 264.803C514.902 264.54 526.313 236.914 526.806 235.993C526.971 235.664 527.168 235.434 527.234 235.5C527.267 235.533 529.865 242.143 532.956 250.135Z" fill="black"/>
<path d="M440.254 222.772C432.394 224.055 426.541 227.015 421.18 232.441C415.459 238.197 411.841 245.366 410.493 253.522C409.769 257.798 409.934 268.421 410.789 271.413C412.302 276.84 414.143 280.03 418.056 283.977C421.444 287.397 423.943 289.173 428.218 291.212C439.695 296.638 455.085 296.014 464.424 289.699C467.844 287.397 469.883 287.561 470.573 290.16C471.001 291.771 471.527 292.199 472.514 291.672C473.106 291.343 473.138 290.85 473.138 280.721C473.138 272.301 473.04 269.966 472.678 269.473C471.889 268.388 471.264 269.144 470.179 272.499C468.798 276.643 466.693 281.609 465.509 283.319C463.273 286.673 459.557 289.436 455.348 290.916C442.49 295.389 429.336 288.186 424.995 274.308C423.45 269.407 423.022 265.888 423.022 257.962C423.022 250.299 423.417 246.978 424.798 242.669C427.725 233.658 434.236 227.048 442.227 225.041C444.858 224.351 450.251 224.285 452.75 224.877C455.775 225.601 460.346 228.034 462.714 230.172C465.575 232.803 467.055 235.105 468.732 239.644C470.343 243.985 470.804 244.643 471.626 243.82C472.218 243.196 472.218 243.853 471.823 233.625C471.659 229.284 471.396 225.305 471.198 224.811C470.672 223.43 469.685 223.66 468.929 225.305C467.811 227.87 467.778 227.87 462.78 225.765C460.346 224.745 457.058 223.594 455.479 223.233C451.632 222.378 444.068 222.114 440.254 222.772Z" fill="black"/>
<path d="M215.815 223.594C205.818 223.759 202.037 223.923 201.214 224.252L200.096 224.68L201.214 225.239C201.839 225.568 203.319 225.929 204.503 226.028C207.035 226.291 208.482 227.08 209.304 228.593C209.863 229.613 209.896 231.422 209.995 257.403C210.06 275.985 209.962 285.555 209.732 286.41C209.008 289.107 207.068 290.423 202.924 291.015C200.458 291.343 199.866 291.738 200.392 292.593C200.721 293.119 201.938 293.152 215.782 293.185C228.805 293.218 230.876 293.152 231.008 292.725C231.403 291.771 230.482 291.179 226.963 290.192C224.99 289.666 223.181 289.074 222.918 288.91C222.688 288.745 222.195 288.022 221.866 287.265C221.307 286.016 221.241 284.93 221.241 274.077C221.241 267.467 221.373 262.04 221.537 261.744C221.998 261.054 223.872 261.251 225.746 262.205C227.259 262.961 228.64 264.573 239.262 277.794C247.483 288.022 251.397 292.659 252.054 292.922C252.613 293.119 256.296 293.317 261.196 293.382C269.187 293.481 269.417 293.448 269.417 292.823C269.417 292.462 269.056 292.034 268.595 291.804C268.135 291.574 266.524 290.817 264.978 290.094C261.459 288.416 261.262 288.186 247.713 272.268L236.96 259.607L238.571 259.179C245.773 257.304 247.615 256.548 250.41 254.312C254.948 250.628 257.053 243.755 255.639 237.309C254.126 230.501 250.015 226.423 242.879 224.581C240.183 223.923 233.705 223.233 230.942 223.331C230.054 223.364 223.247 223.496 215.815 223.594ZM233.54 226.423C236.237 227.113 237.848 228.001 239.821 229.876C242.814 232.704 244.261 236.914 244.261 242.867C244.261 251.648 240.545 256.712 233.014 258.258C229.528 258.982 222.458 258.982 221.767 258.258C221.307 257.798 221.241 255.956 221.241 242.702C221.241 228.067 221.274 227.64 221.899 226.949C222.261 226.554 222.984 226.16 223.477 226.028C223.971 225.929 224.53 225.765 224.694 225.699C225.385 225.436 231.666 225.962 233.54 226.423Z" fill="black"/>
<path d="M695.538 223.529C695.143 223.594 694.65 223.825 694.453 224.088C693.795 224.877 695.538 225.666 698.399 225.864C702.279 226.16 703.792 227.541 704.318 231.191C704.746 234.151 704.746 282.069 704.285 284.766C703.595 289.107 702.246 290.39 698.004 290.62C695.867 290.751 695.341 290.883 694.946 291.475C694.683 291.837 694.453 292.297 694.453 292.527C694.453 293.119 696.492 293.514 698.399 293.284C700.635 292.988 715.335 292.988 721.747 293.284C731.909 293.711 739.965 292.823 745.358 290.653C754.106 287.167 760.913 278.945 763.017 269.309C763.774 265.855 764.037 257.239 763.511 253.424C761.275 236.848 749.601 225.403 733.027 223.627C730.199 223.298 697.643 223.233 695.538 223.529ZM727.864 226.225C731.81 226.719 734.079 227.376 737.367 228.988C745.786 233.132 749.929 241.058 751.047 255.167C751.639 262.665 750.982 271.38 749.469 276.051C748.318 279.602 746.378 282.891 744.109 285.128C741.708 287.528 739.702 288.614 735.69 289.765C733.487 290.39 732.303 290.521 727.995 290.521C723.063 290.521 722.832 290.488 721.024 289.6C718.853 288.515 717.11 286.673 716.255 284.47C715.729 283.056 715.663 281.017 715.565 256.153C715.499 236.881 715.565 229.12 715.861 228.495C716.354 227.278 717.242 226.521 718.524 226.225C720.103 225.831 724.838 225.864 727.864 226.225Z" fill="black"/>
<path d="M19.9208 223.825C19.1973 223.923 19 224.153 19 224.778C19 225.798 20.0194 226.225 22.42 226.225C24.985 226.225 26.8595 227.278 27.8789 229.35L28.701 230.994V258.456V285.917L27.9775 287.496C27.3527 288.811 26.991 289.206 25.4783 289.863C24.5246 290.324 22.9462 290.817 21.9925 291.015C19.8221 291.409 19 291.87 19 292.626C19 293.514 20.0852 293.58 27.5171 293.251C31.3318 293.087 36.9222 293.087 41.1972 293.284C48.6949 293.613 49.5828 293.514 49.5828 292.33C49.5828 291.837 49.0895 291.574 47.2151 291.015C41.3945 289.337 41.2959 289.304 40.5724 287.89C39.9147 286.64 39.8818 285.983 39.7832 273.716L39.6845 260.856L46.0313 260.659C53.2988 260.462 56.7846 259.903 61.1911 258.324C69.7412 255.265 73.9504 249.411 73.5229 241.157C73.3256 237.605 72.4706 235.204 70.4646 232.54C67.9983 229.284 64.3152 226.916 59.218 225.337L56.3242 224.449L39.7174 224.219C30.5754 224.088 22.5844 223.923 21.9596 223.825C21.3348 223.726 20.414 223.726 19.9208 223.825ZM52.1149 227.015C54.384 227.738 57.7053 230.008 58.9879 231.718C59.5798 232.474 60.4019 233.954 60.8294 235.006C61.4871 236.717 61.5857 237.44 61.5857 241.847C61.5857 246.024 61.4871 247.142 60.8623 249.083C58.6919 255.89 54.8115 258.456 46.6232 258.456C44.5186 258.456 42.0851 258.357 41.2301 258.258L39.7174 258.028V242.998C39.7174 228.659 39.7503 227.936 40.3422 227.409C40.671 227.113 41.3945 226.719 41.8878 226.554C43.3347 226.094 50.1419 226.39 52.1149 227.015Z" fill="black"/>
<path d="M152.907 224.121C151.986 224.778 152.709 225.502 154.715 225.897C158.925 226.785 159.977 227.179 160.996 228.363C161.621 229.054 162.082 230.008 162.213 230.895C162.312 231.685 162.378 241.847 162.312 253.522C162.18 274.505 162.18 274.768 161.424 277.202C160.339 280.852 158.629 283.812 156.524 285.851C154.058 288.153 152.315 289.14 148.73 290.225C146.132 290.982 145.179 291.08 140.674 291.146C135.083 291.179 133.011 290.817 129.624 289.14C126.27 287.496 123.409 283.615 122.028 278.813C121.469 276.873 121.436 274.965 121.436 253.851C121.436 232.178 121.469 230.928 122.061 229.843C123.475 227.179 124.856 226.324 128.21 225.962C129.887 225.798 130.677 225.568 130.94 225.173C131.104 224.877 131.203 224.548 131.137 224.449C130.841 224.186 101.047 224.088 100.62 224.351C99.7321 224.943 100.817 225.699 103.119 226.094C104.402 226.324 106.276 226.85 107.296 227.344C110.42 228.758 110.222 227.015 110.452 254.345C110.65 280.688 110.551 279.635 112.985 284.207C116.635 291.212 125.119 294.961 137.221 294.961C151.986 294.961 160.503 290.028 163.66 279.668C165.37 274.176 165.436 273.124 165.633 251.056C165.83 230.994 165.863 230.304 166.488 229.185C167.409 227.672 168.658 226.982 172.079 226.258C175.301 225.535 175.926 225.173 175.203 224.417C174.775 224.022 172.868 223.923 164.055 223.857C156.656 223.792 153.236 223.857 152.907 224.121Z" fill="black"/>
<path d="M298.455 223.825C297.073 223.989 296.218 224.713 296.81 225.305C297.008 225.502 298.389 225.864 299.902 226.127C303.683 226.785 304.703 227.344 305.558 229.152C306.248 230.632 306.248 230.961 306.347 257.469C306.413 275.459 306.314 284.799 306.084 285.884C305.393 289.074 303.815 290.225 299.145 290.85C297.337 291.08 296.218 292.067 296.777 292.922C297.041 293.383 297.567 293.448 299.54 293.383C304.341 293.185 331.471 293.152 341.994 293.317C351.991 293.481 352.78 293.448 353.339 292.889C353.865 292.396 353.931 291.508 354.03 285.325C354.128 279.57 354.063 278.254 353.668 277.695C352.945 276.741 352.386 277.399 351.136 280.754C349.327 285.555 348.078 287.035 344.395 288.745C338.969 291.278 326.801 291.409 321.869 288.943C319.994 288.022 319.632 287.693 318.843 286.081C317.528 283.45 317.265 280.918 317.265 269.045V258.456H320.586C324.302 258.456 327.656 259.113 329.564 260.199C331.57 261.317 332.753 263.06 333.871 266.579C334.891 269.703 335.746 270.92 336.305 270.032C336.436 269.802 336.535 263.52 336.535 256.055L336.502 242.505H335.68C334.792 242.505 334.891 242.308 333.378 247.504C331.8 252.963 328.446 255.101 320.586 255.66L317.265 255.923V242.702C317.265 228.1 317.33 227.672 319.205 226.916C320.685 226.291 334.398 226.62 337.259 227.344C340.054 228.067 342.257 229.218 343.605 230.731C344.855 232.112 345.151 232.737 346.203 236.355C346.894 238.756 347.486 239.446 348.308 238.756C348.966 238.197 348.867 225.436 348.176 224.778C347.124 223.759 341.83 223.561 326.505 223.956C314.437 224.252 301.809 224.186 300.033 223.792C299.836 223.759 299.112 223.759 298.455 223.825Z" fill="black"/>
<path d="M594.911 223.989C592.313 224.548 593.299 225.765 596.654 226.258C599.35 226.62 601.159 227.64 603 229.712L604.349 231.257V258.521C604.349 288.548 604.447 287.035 602.244 288.976C600.994 290.061 600.534 290.258 597.311 290.817C595.075 291.245 594.319 291.968 595.207 292.889C595.634 293.317 596.358 293.448 598.331 293.448C602.573 293.448 611.583 293.448 614.313 293.448C616.187 293.448 616.976 293.284 617.206 292.955C617.831 291.968 617.305 291.574 614.411 290.784C610.761 289.798 610.169 289.403 609.117 287.265C607.736 284.47 607.604 281.707 607.703 257.568L607.801 235.138L631.117 264.079C643.942 279.997 654.958 293.448 655.55 294.007C656.8 295.093 658.115 295.257 658.575 294.369C658.773 293.975 658.937 282.266 659.003 262.863L659.102 231.981L660.022 230.073C661.108 227.87 662.62 226.85 665.679 226.193C667.783 225.765 668.868 225.107 668.605 224.45C668.474 224.121 665.909 223.989 657.951 223.825C652.163 223.726 647.132 223.726 646.737 223.825C646.277 223.956 646.112 224.219 646.178 224.713C646.244 225.272 646.573 225.436 647.921 225.633C651.209 226.094 651.768 226.291 653.051 227.442C654.037 228.33 654.498 229.12 654.991 230.797C655.649 232.902 655.649 233.757 655.583 255.594L655.484 278.221L634.142 251.549C622.402 236.848 612.471 224.647 612.109 224.417C611.254 223.89 596.982 223.529 594.911 223.989Z" fill="black"/>
<path d="M877.719 223.825C877.325 223.89 876.832 224.186 876.601 224.482C875.944 225.272 876.864 225.732 880.021 226.193C884.559 226.883 885.612 227.903 886.171 232.244C886.598 235.5 886.598 283.187 886.171 285.457C885.579 288.68 884.099 289.929 880.054 290.653C877.16 291.179 876.338 291.705 876.733 292.758C877.029 293.514 879.66 293.81 882.06 293.35C884.527 292.922 901.956 292.889 918.957 293.317C925.534 293.481 931.42 293.514 932.045 293.415C932.703 293.317 933.36 292.955 933.558 292.626C933.722 292.264 933.919 288.91 933.952 285.095C934.018 278.945 933.952 278.155 933.459 277.629C932.9 277.103 932.867 277.103 932.44 277.662C932.209 277.991 931.585 279.372 931.091 280.786C929.809 284.24 928.526 286.147 926.52 287.528C922.969 289.962 918.168 290.883 910.506 290.587C901.66 290.258 898.733 288.515 897.713 282.957C897.483 281.806 897.352 276.478 897.352 269.703V258.39L901.396 258.554C909.453 258.883 911.821 260.396 913.761 266.513C914.287 268.092 914.945 269.605 915.241 269.901C915.734 270.394 915.8 270.394 916.293 269.901C916.754 269.44 916.787 268.618 916.556 262.698C916.392 259.015 916.392 253.128 916.523 249.609C916.787 244.182 916.754 243.163 916.326 242.768C915.307 241.749 914.649 242.505 913.827 245.695C913.399 247.372 912.775 249.28 912.446 249.938C911.591 251.648 908.796 254.049 906.921 254.673C905.343 255.2 900.837 255.825 898.601 255.825H897.352V242.209V228.56L898.141 227.64L898.93 226.719L905.112 226.62C914.156 226.456 919.286 227.344 922.311 229.514C923.955 230.731 924.81 232.014 925.501 234.447C926.619 238.197 926.981 239.052 927.606 239.052C928.789 239.052 928.987 238.262 928.691 235.039C928.559 233.362 928.526 230.632 928.658 229.021C928.888 225.601 928.493 224.647 926.586 224.121C925.961 223.956 919.713 223.89 912.643 223.956C895.28 224.121 883.507 224.088 880.745 223.89C879.495 223.759 878.114 223.759 877.719 223.825Z" fill="black"/>
<path d="M789.687 224.186C788.996 224.844 790.016 225.403 793.107 226.061C796.56 226.785 797.941 227.607 798.796 229.448L799.519 230.994V258.291V285.588L798.697 287.233C797.645 289.37 796.428 290.127 793.238 290.653C790.049 291.179 789.424 291.475 789.555 292.429L789.654 293.152L813.002 293.185C825.86 293.185 839.178 293.317 842.664 293.448L848.945 293.711L849.34 292.955C849.636 292.462 849.8 289.6 849.932 284.305C850.063 276.675 850.063 276.347 849.406 275.788C848.781 275.196 848.748 275.228 848.09 276.018C847.761 276.478 847.038 278.353 846.545 280.162C845.558 283.746 844.374 285.489 841.645 287.364C836.581 290.817 824.183 291.771 816.258 289.337C814.614 288.844 813.923 288.384 812.904 287.233C810.47 284.47 810.536 285.161 810.536 256.614C810.536 240.236 810.667 230.896 810.865 230.106C811.259 228.758 812.509 227.081 813.594 226.489C813.989 226.291 815.567 225.962 817.113 225.765C819.579 225.436 819.908 225.305 820.007 224.68L820.105 223.956L804.978 223.989C796.658 223.989 789.786 224.088 789.687 224.186Z" fill="black"/>
<path d="M187.699 346.431C180.596 347.878 175.499 351.397 173.065 356.527C169.678 363.664 170.96 371.787 176.321 377.312C179.247 380.338 181.484 381.654 189.343 385.041C197.367 388.527 200.392 390.237 202.628 392.638C205.588 395.828 206.936 400.433 206.18 404.905C205.095 411.22 200.984 415.101 194.44 415.989C188.356 416.778 182.273 414.87 178.327 410.891C176.288 408.885 175.63 407.668 172.934 401.353C171.783 398.624 170.73 396.289 170.599 396.157C170.467 395.993 170.138 396.091 169.875 396.387C169.448 396.815 169.382 397.9 169.513 403.557C169.612 407.273 169.513 411.384 169.349 412.864C169.053 415.035 169.086 415.627 169.481 416.252C169.744 416.646 170.105 416.975 170.27 416.975C170.467 416.975 171.125 416.219 171.783 415.331C172.44 414.41 173.164 413.686 173.46 413.686C173.723 413.686 175.301 414.41 176.945 415.298C178.623 416.186 181.188 417.304 182.7 417.765C187.699 419.343 194.506 419.409 199.767 417.962C209.962 415.199 215.914 408.096 216.045 398.624C216.111 394.973 215.618 392.868 213.809 389.119C212.099 385.534 209.501 382.542 206.114 380.305C204.865 379.483 199.373 376.655 193.881 374.057C184.673 369.65 183.785 369.156 182.207 367.479C179.806 364.947 179.017 362.776 179.247 359.06C179.412 355.771 180.431 353.436 182.371 351.989C188.652 347.187 197.992 347.648 203.319 353.041C205.095 354.85 208.252 360.474 209.107 363.368C209.6 364.947 210.192 365.341 210.981 364.585C211.442 364.124 211.474 362.973 211.442 355.738C211.409 348.272 211.343 347.384 210.817 347.023C210.521 346.792 210.159 346.595 209.995 346.595C209.863 346.595 209.172 347.483 208.416 348.568C206.871 350.838 207.331 350.838 202.53 348.437C200.886 347.582 198.616 346.694 197.466 346.431C194.999 345.839 190.593 345.839 187.699 346.431Z" fill="black"/>
<path d="M755.125 346.496C752.231 347.088 748.449 348.601 746.641 349.851C739.11 355.047 736.775 364.979 741.116 373.497C741.971 375.175 745.26 378.759 747.43 380.338C748.318 380.996 752.692 383.134 757.164 385.074C761.603 387.047 766.043 389.185 767.062 389.843C769.66 391.586 771.567 393.658 772.751 396.124C773.672 397.966 773.837 398.69 773.968 401.485C774.1 404.182 774.001 405.136 773.409 406.977C771.6 412.864 766.733 416.087 759.63 416.087C754.862 416.087 750.784 414.805 747.331 412.141C745.523 410.792 743.287 407.635 742.103 404.807C738.617 396.387 737.893 395.203 737.269 396.881C737.137 397.242 737.104 399.775 737.203 402.57C737.302 405.333 737.236 409.51 737.104 411.845C736.874 415.364 736.907 416.186 737.302 416.581C737.926 417.173 738.551 416.844 739.571 415.364C740.82 413.522 741.281 413.39 743.056 414.443C748.351 417.6 753.218 418.981 759.071 418.981C770.943 418.981 779.953 413.555 782.748 404.774C784.425 399.446 784.097 394.315 781.795 389.514C779.098 383.89 775.547 380.7 767.72 376.951C749.929 368.466 749.535 368.202 747.759 364.355C747.101 362.908 746.937 362.052 746.937 360.046C746.97 355.113 748.515 352.482 752.659 350.41C758.973 347.253 767.029 348.535 771.337 353.337C773.047 355.278 775.481 359.652 776.665 362.94C777.487 365.177 778.375 365.703 778.934 364.256C779.098 363.828 779.197 359.882 779.164 355.475C779.065 348.305 778.999 347.45 778.506 347.056C777.684 346.464 777.289 346.694 776.237 348.371C775.744 349.16 775.152 349.983 774.922 350.147C774.626 350.41 773.376 349.95 770.417 348.568C768.147 347.483 765.517 346.464 764.53 346.266C762.064 345.806 757.855 345.904 755.125 346.496Z" fill="black"/>
<path d="M243.34 347.944C242.583 348.174 242.287 348.437 242.353 348.832C242.452 349.424 243.077 349.654 246.036 350.18C247.089 350.377 248.601 350.838 249.423 351.232C252.12 352.548 251.956 350.969 252.186 377.51C252.35 400.235 252.383 401.123 253.041 403.557C255.211 411.22 259.881 415.462 268.694 417.666C272.147 418.521 281.979 418.916 286.057 418.324C292.371 417.403 296.81 415.594 300.066 412.601C302.565 410.266 303.848 408.293 305.097 404.84C307.103 399.347 307.169 398.427 307.366 375.537C307.564 355.508 307.597 354.587 308.221 353.337C309.076 351.66 310.852 350.673 314.141 350.048C317.1 349.456 317.265 349.391 317.265 348.536C317.265 348.108 317.034 347.911 316.541 347.878C313.384 347.68 294.87 347.713 294.541 347.911C294.344 348.075 294.245 348.404 294.344 348.667C294.541 349.226 295.791 349.621 298.915 350.213C301.283 350.673 302.762 351.66 303.618 353.337C304.242 354.62 304.275 355.31 304.275 375.865C304.275 396.815 304.275 397.111 303.519 400.005C301.579 407.701 297.271 412.272 290.135 414.213C287.044 415.035 279.151 415.232 276.06 414.542C269.582 413.095 265.8 409.378 263.893 402.57C263.235 400.137 263.202 399.216 263.071 379.384C263.005 365.177 263.071 358.007 263.334 356.363C264.024 351.857 266.096 349.884 270.108 349.884C272.147 349.884 272.87 349.522 272.87 348.503C272.87 347.944 272.377 347.911 265.044 347.911C260.703 347.911 254.323 347.845 250.805 347.746C246.858 347.648 243.997 347.713 243.34 347.944Z" fill="black"/>
<path d="M343.309 348.174C342.915 349.226 343.737 349.72 346.335 349.95C349.656 350.246 351.07 350.969 352.123 352.844L352.945 354.324V382.279C352.945 408.852 352.912 410.299 352.32 411.45C351.563 413.029 350.149 413.884 347.321 414.542C346.072 414.838 344.723 415.199 344.296 415.364C343.441 415.693 342.981 416.614 343.507 416.942C343.671 417.041 350.544 417.14 358.732 417.14C372.38 417.14 373.629 417.074 373.958 416.581C374.484 415.693 373.991 415.43 369.683 414.246L365.77 413.193L364.948 411.549L364.125 409.904L364.027 397.144L363.928 384.416H369.617C381.226 384.416 388.361 382.311 393.294 377.477C395.892 374.945 397.273 372.346 397.832 368.86C399.542 358.829 392.768 350.838 380.568 348.47C376.72 347.713 343.605 347.483 343.309 348.174ZM376.852 351.035C380.995 352.449 384.021 355.409 385.402 359.356C385.994 361 386.027 361.855 385.928 366.492C385.796 371.13 385.698 372.018 384.941 373.991C383.363 378.2 381.226 380.305 377.378 381.522C375.8 381.983 374.353 382.114 370.11 382.114C367.184 382.114 364.586 381.983 364.356 381.851C364.027 381.621 363.961 378.496 364.027 366.723C364.125 352.252 364.158 351.857 364.783 351.199C365.178 350.838 366.131 350.377 366.921 350.213C369.288 349.72 374.287 350.114 376.852 351.035Z" fill="black"/>
<path d="M425.291 347.878C425.192 347.944 425.127 348.371 425.127 348.766C425.127 349.621 425.423 349.752 428.678 350.016C431.572 350.279 433.085 351.134 434.038 353.074L434.828 354.653L434.926 381.062C434.992 398.328 434.893 408.128 434.663 409.345C434.104 412.47 432.789 413.719 429.237 414.542C425.719 415.364 425.094 415.66 425.192 416.449C425.291 417.14 425.324 417.14 440.418 417.14H455.545L455.644 416.416C455.775 415.495 455.315 415.265 451.27 414.213C449.494 413.719 447.751 413.094 447.423 412.799C446.041 411.549 445.844 409.641 445.844 396.716V384.482L453.013 384.318C458.538 384.186 460.774 383.989 462.977 383.495C474.158 380.864 479.715 375.043 479.715 365.966C479.715 357.35 473.928 351.199 463.602 348.766C460.215 347.976 459.886 347.944 442.786 347.845C433.249 347.779 425.357 347.779 425.291 347.878ZM457.518 350.673C462.352 351.956 465.871 355.245 467.285 359.849C467.877 361.822 467.943 362.677 467.778 366.755C467.68 370.274 467.449 371.886 466.956 373.267C465.213 378.135 463.076 380.338 458.702 381.654C457.156 382.114 447.455 382.311 446.37 381.917C445.91 381.752 445.844 380.108 445.844 366.788C445.844 349.358 445.548 350.805 449.461 350.081C450.81 349.851 455.742 350.18 457.518 350.673Z" fill="black"/>
<path d="M506.352 347.845C505.76 348.042 506.023 348.799 506.845 349.16C507.273 349.358 508.588 349.687 509.739 349.884C512.107 350.311 514.047 351.298 514.968 352.548C516.119 354.094 516.25 357.711 516.152 383.956C516.053 407.701 516.02 409.345 515.428 410.628C514.409 413.029 513.126 413.851 509.509 414.509C507.273 414.903 506.253 415.232 506.056 415.627C505.267 417.074 504.971 417.041 530.226 417.14C543.413 417.173 556.567 417.304 559.461 417.469C564.361 417.699 564.788 417.666 565.512 417.074L566.268 416.449L566.334 408.128C566.367 400.4 566.334 399.775 565.775 399.413C564.854 398.854 564.098 400.038 563.276 403.228C562.223 407.142 561.993 407.668 560.283 409.411C558.507 411.253 555.811 412.7 552.555 413.555C550.648 414.081 549.069 414.18 543.347 414.18C533.054 414.18 530.161 413.226 528.187 409.181L527.234 407.273V380.634V353.995L528.056 352.548C529.108 350.673 530.785 349.818 533.745 349.588C535.455 349.423 536.146 349.226 536.409 348.799C536.672 348.338 536.672 348.141 536.277 347.911C535.85 347.648 507.174 347.582 506.352 347.845Z" fill="black"/>
<path d="M595.7 347.779C594.713 347.976 594.187 348.733 594.713 349.259C594.878 349.424 596.193 349.752 597.64 350.016C600.896 350.575 602.836 351.528 603.592 352.943C604.151 353.929 604.184 355.902 604.283 380.963C604.349 399.61 604.283 408.457 604.02 409.608C603.329 412.897 601.159 414.41 596.719 414.838C595.272 414.969 594.22 415.265 593.76 415.66C593.036 416.252 593.036 416.285 593.595 416.712C594.056 417.041 597.443 417.14 610.202 417.14C626.118 417.107 626.217 417.107 626.316 416.449C626.48 415.397 625.691 415.002 621.975 414.18C617.996 413.325 617.174 412.897 616.384 411.22C615.266 408.885 615.168 406.221 615.266 380.601L615.365 355.278L616.351 353.337C617.634 350.838 619.278 349.884 622.271 349.884C624.342 349.884 625.066 349.522 625.066 348.503C625.066 347.944 624.573 347.911 617.239 347.911C612.899 347.911 606.519 347.845 603 347.779C599.482 347.68 596.193 347.713 595.7 347.779Z" fill="black"/>
<path d="M653.807 348.272C653.084 349.095 653.807 349.456 656.997 349.983C660.647 350.575 661.765 351.199 662.653 353.107C663.377 354.653 663.377 354.653 663.377 382.114C663.377 405.037 663.311 409.773 662.916 410.727C661.963 413.062 660.812 413.818 657.03 414.542C654.3 415.068 653.511 415.561 653.807 416.515C654.004 417.107 654.991 417.14 682.121 417.14C705.929 417.14 710.303 417.074 710.533 416.679C710.928 416.054 711.355 407.208 711.125 404.215C710.994 402.636 710.764 401.551 710.435 401.255C709.974 400.794 709.81 400.959 708.922 403.031C708.33 404.281 707.508 406.155 707.015 407.208C705.403 410.759 702.181 412.93 697.018 413.917C694.913 414.311 692.874 414.377 688.205 414.278C681.233 414.081 679.128 413.555 676.991 411.417C674.755 409.181 674.623 408.227 674.459 394.348L674.36 382.114H677.122C680.279 382.114 684.489 382.871 686.264 383.758C688.336 384.844 689.684 386.686 690.802 390.106C691.394 391.816 692.085 393.428 692.315 393.625C693.598 394.677 693.631 394.217 693.631 380.108V366.492H692.677C691.756 366.492 691.69 366.558 690.835 369.781C689.849 373.596 689.323 374.649 687.81 376.096C685.508 378.299 681.661 379.483 676.761 379.483H674.393V366.163C674.393 356.988 674.492 352.614 674.755 352.055C675.412 350.607 676.629 350.377 683.601 350.41C692.348 350.443 696.261 351.167 699.451 353.37C701.063 354.488 702.115 356.297 702.937 359.29C703.595 361.625 704.187 363.039 704.515 363.039C704.614 363.039 704.943 362.908 705.272 362.743C705.798 362.447 705.831 361.822 705.798 355.771C705.732 349.292 705.699 349.095 704.976 348.503C704.022 347.746 705.239 347.779 677.747 347.746C656.602 347.746 654.235 347.812 653.807 348.272Z" fill="black"/>
</svg>
