<svg xmlns="http://www.w3.org/2000/svg" xmlns:xlink="http://www.w3.org/1999/xlink" width="1080" zoomAndPan="magnify" viewBox="0 0 810 809.999993" height="1080" preserveAspectRatio="xMidYMid meet" version="1.0"><defs><clipPath id="b5633c914a"><path d="M 183.253906 165.066406 L 775.074219 165.066406 L 775.074219 756.882812 L 183.253906 756.882812 Z M 183.253906 165.066406 " clip-rule="nonzero"/></clipPath><clipPath id="d286b909f4"><path d="M 479.164062 165.066406 C 315.738281 165.066406 183.253906 297.546875 183.253906 460.972656 C 183.253906 624.402344 315.738281 756.882812 479.164062 756.882812 C 642.589844 756.882812 775.074219 624.402344 775.074219 460.972656 C 775.074219 297.546875 642.589844 165.066406 479.164062 165.066406 Z M 479.164062 165.066406 " clip-rule="nonzero"/></clipPath><clipPath id="5698f82334"><path d="M 18.539062 44.722656 L 212.789062 44.722656 L 212.789062 238.972656 L 18.539062 238.972656 Z M 18.539062 44.722656 " clip-rule="nonzero"/></clipPath></defs><g clip-path="url(#b5633c914a)"><g clip-path="url(#d286b909f4)"><path fill="#002157" d="M 183.253906 165.066406 L 775.074219 165.066406 L 775.074219 756.882812 L 183.253906 756.882812 Z M 183.253906 165.066406 " fill-opacity="1" fill-rule="nonzero"/></g></g><path fill="#ffffff" d="M 669.445312 605.960938 L 559.292969 495.808594 C 605.421875 433.867188 600.566406 345.6875 544.375 289.492188 C 482.652344 227.769531 382.230469 227.769531 320.507812 289.492188 C 258.789062 351.214844 258.789062 451.636719 320.507812 513.359375 C 376.703125 569.550781 464.886719 574.40625 526.828125 528.277344 L 636.976562 638.425781 C 645.945312 647.394531 660.476562 647.394531 669.445312 638.425781 C 678.410156 629.460938 678.410156 614.929688 669.445312 605.960938 Z M 342.152344 491.714844 C 292.371094 441.929688 292.371094 360.921875 342.152344 311.136719 C 391.9375 261.351562 472.945312 261.351562 522.730469 311.136719 C 572.515625 360.921875 572.515625 441.929688 522.730469 491.714844 C 472.945312 541.5 391.9375 541.496094 342.152344 491.714844 Z M 342.152344 491.714844 " fill-opacity="1" fill-rule="nonzero"/><path fill="#ffffff" d="M 334.039062 412.117188 C 328.859375 412.117188 324.660156 407.917969 324.660156 402.738281 C 324.660156 344.003906 372.445312 296.222656 431.179688 296.222656 C 436.359375 296.222656 440.558594 300.421875 440.558594 305.601562 C 440.558594 310.78125 436.359375 314.980469 431.179688 314.980469 C 382.789062 314.980469 343.417969 354.347656 343.417969 402.738281 C 343.417969 407.917969 339.222656 412.117188 334.039062 412.117188 Z M 334.039062 412.117188 " fill-opacity="1" fill-rule="nonzero"/><g clip-path="url(#5698f82334)"><path fill="#00194c" d="M 115.699219 44.722656 C 62.042969 44.722656 18.539062 88.226562 18.539062 141.882812 C 18.539062 195.539062 62.042969 239.042969 115.699219 239.042969 C 169.359375 239.042969 212.859375 195.539062 212.859375 141.882812 C 212.859375 88.226562 169.359375 44.722656 115.699219 44.722656 Z M 144.980469 182.367188 L 87.363281 182.367188 L 87.363281 170.691406 L 113.433594 145.175781 C 124.671875 134.214844 127.488281 130.070312 127.488281 124.863281 C 127.488281 118.441406 122.285156 113.898438 114.980469 113.898438 C 107.230469 113.898438 101.921875 118.992188 101.921875 126.351562 L 101.921875 126.683594 L 86.421875 126.683594 L 86.421875 126.410156 C 86.421875 110.96875 98.269531 100.453125 115.539062 100.453125 C 132.203125 100.453125 143.820312 110.03125 143.820312 123.753906 C 143.820312 132.441406 139.117188 139.914062 125.28125 152.925781 L 110 167.484375 L 110 168.480469 L 144.980469 168.480469 Z M 144.980469 182.367188 " fill-opacity="1" fill-rule="nonzero"/></g></svg>