<svg xmlns="http://www.w3.org/2000/svg" xmlns:xlink="http://www.w3.org/1999/xlink" width="1080" zoomAndPan="magnify" viewBox="0 0 810 809.999993" height="1080" preserveAspectRatio="xMidYMid meet" version="1.0"><path fill="#00194c" d="M 676.308594 651.230469 C 650.566406 654.847656 629.632812 673.820312 623.503906 699.082031 C 614.824219 734.847656 577.625 755.734375 542.570312 744.539062 C 517.796875 736.628906 490.714844 744.636719 474.226562 764.734375 C 450.890625 793.195312 408.3125 795.878906 381.585938 770.578125 C 362.699219 752.710938 334.832031 748.164062 311.25 759.125 C 277.878906 774.632812 238.347656 758.582031 225.246094 724.191406 C 215.988281 699.898438 192.84375 683.710938 166.84375 683.355469 C 130.046875 682.847656 101.40625 651.238281 104.519531 614.5625 C 106.714844 588.660156 92.886719 564.03125 69.621094 552.433594 C 36.683594 536.011719 24.59375 495.097656 43.3125 463.410156 C 56.53125 441.03125 54.753906 412.839844 38.824219 392.292969 C 16.277344 363.210938 23.136719 321.101562 53.746094 300.667969 C 75.371094 286.238281 86 260.074219 80.566406 234.652344 L 80.566406 234.648438 C 72.867188 198.664062 97.316406 163.699219 133.757812 158.574219 C 159.507812 154.957031 180.433594 135.992188 186.570312 110.730469 C 195.25 74.96875 232.445312 54.070312 267.503906 65.269531 C 292.265625 73.175781 319.351562 65.175781 335.84375 45.070312 C 359.183594 16.617188 401.761719 13.933594 428.488281 39.234375 C 447.363281 57.101562 475.242188 61.640625 498.820312 50.679688 C 532.195312 35.171875 571.71875 51.222656 584.820312 85.613281 C 594.078125 109.910156 617.230469 126.09375 643.222656 126.453125 C 680.019531 126.957031 708.664062 158.574219 705.554688 195.242188 C 703.347656 221.152344 717.179688 245.773438 740.453125 257.378906 C 773.382812 273.800781 785.472656 314.707031 766.757812 346.394531 C 753.535156 368.785156 755.3125 396.964844 771.242188 417.511719 C 793.792969 446.601562 786.9375 488.710938 756.324219 509.136719 C 734.699219 523.566406 724.066406 549.738281 729.503906 575.160156 C 737.199219 611.144531 712.753906 646.105469 676.308594 651.230469 " fill-opacity="1" fill-rule="nonzero"/><path fill="#ffffff" d="M 560.011719 255.113281 L 329.664062 485.46875 C 326.253906 488.875 320.722656 488.875 317.316406 485.46875 L 250.058594 418.214844 C 238.535156 406.6875 219.84375 406.6875 208.316406 418.214844 C 196.789062 429.738281 196.789062 448.421875 208.316406 459.949219 L 281.746094 533.378906 L 303.363281 555.003906 C 314.476562 566.117188 332.496094 566.117188 343.609375 555.003906 L 365.226562 533.378906 L 601.757812 296.859375 C 613.28125 285.332031 613.28125 266.640625 601.757812 255.113281 C 590.230469 243.589844 571.539062 243.589844 560.011719 255.113281 " fill-opacity="1" fill-rule="nonzero"/></svg>