<svg xmlns="http://www.w3.org/2000/svg" xmlns:xlink="http://www.w3.org/1999/xlink" width="1080" zoomAndPan="magnify" viewBox="0 0 810 809.999993" height="1080" preserveAspectRatio="xMidYMid meet" version="1.0"><defs><clipPath id="64ef9aafa6"><path d="M 10.070312 6.097656 L 799.820312 6.097656 L 799.820312 795.847656 L 10.070312 795.847656 Z M 10.070312 6.097656 " clip-rule="nonzero"/></clipPath></defs><g clip-path="url(#64ef9aafa6)"><path fill="#ef4123" d="M 563.070312 6.261719 C 555 6.265625 546.953125 6.679688 538.925781 7.507812 C 530.902344 8.335938 522.9375 9.574219 515.039062 11.21875 C 507.140625 12.863281 499.34375 14.90625 491.65625 17.347656 C 483.964844 19.792969 476.421875 22.625 469.019531 25.839844 C 461.621094 29.058594 454.40625 32.644531 447.375 36.601562 C 440.34375 40.558594 433.53125 44.863281 426.941406 49.519531 C 420.351562 54.175781 414.015625 59.15625 407.9375 64.460938 C 401.855469 69.765625 396.0625 75.367188 390.558594 81.265625 C 365.105469 74.980469 339.269531 71.910156 313.054688 72.054688 C 172.910156 72.054688 61.984375 166.273438 36.851562 306.808594 L 10.53125 464.710938 C 10.261719 466.621094 10.390625 468.507812 10.917969 470.363281 C 11.445312 472.21875 12.324219 473.886719 13.558594 475.371094 C 14.816406 476.824219 16.316406 477.953125 18.0625 478.757812 C 19.804688 479.558594 21.640625 479.96875 23.558594 479.976562 L 89.355469 479.976562 L 89.355469 651.039062 C 89.355469 651.90625 89.4375 652.761719 89.605469 653.609375 C 89.773438 654.457031 90.023438 655.277344 90.355469 656.078125 C 90.6875 656.875 91.089844 657.632812 91.570312 658.351562 C 92.050781 659.070312 92.597656 659.734375 93.207031 660.34375 C 93.820312 660.957031 94.484375 661.5 95.203125 661.980469 C 95.921875 662.460938 96.679688 662.867188 97.476562 663.199219 C 98.273438 663.527344 99.097656 663.777344 99.945312 663.945312 C 100.792969 664.113281 101.648438 664.199219 102.511719 664.199219 L 299.894531 664.199219 L 299.894531 782.628906 C 299.894531 783.492188 299.976562 784.347656 300.148438 785.195312 C 300.316406 786.042969 300.566406 786.867188 300.894531 787.664062 C 301.226562 788.460938 301.632812 789.21875 302.113281 789.9375 C 302.589844 790.65625 303.136719 791.320312 303.75 791.933594 C 304.359375 792.542969 305.023438 793.089844 305.742188 793.570312 C 306.460938 794.050781 307.21875 794.453125 308.015625 794.785156 C 308.816406 795.117188 309.636719 795.367188 310.484375 795.535156 C 311.332031 795.703125 312.1875 795.789062 313.054688 795.789062 L 563.070312 795.789062 C 563.933594 795.789062 564.789062 795.703125 565.636719 795.535156 C 566.484375 795.367188 567.308594 795.117188 568.105469 794.785156 C 568.902344 794.453125 569.660156 794.050781 570.378906 793.570312 C 571.097656 793.089844 571.761719 792.542969 572.375 791.933594 C 572.984375 791.320312 573.53125 790.65625 574.011719 789.9375 C 574.492188 789.21875 574.894531 788.460938 575.226562 787.664062 C 575.558594 786.867188 575.808594 786.042969 575.976562 785.195312 C 576.144531 784.347656 576.226562 783.492188 576.226562 782.628906 L 576.226562 479.320312 C 700.710938 472.476562 799.925781 369.3125 799.925781 243.117188 C 799.925781 112.453125 693.734375 6.261719 563.070312 6.261719 Z M 115.671875 585.246094 L 115.671875 558.929688 C 145.148438 558.929688 194.625 553.796875 194.625 519.453125 C 194.625 518.589844 194.707031 517.734375 194.875 516.886719 C 195.046875 516.039062 195.292969 515.214844 195.625 514.417969 C 195.957031 513.617188 196.363281 512.859375 196.839844 512.140625 C 197.320312 511.425781 197.867188 510.757812 198.476562 510.148438 C 199.089844 509.539062 199.753906 508.992188 200.472656 508.511719 C 201.191406 508.03125 201.949219 507.625 202.746094 507.296875 C 203.546875 506.964844 204.367188 506.714844 205.214844 506.546875 C 206.0625 506.378906 206.917969 506.292969 207.78125 506.292969 C 208.648438 506.292969 209.503906 506.378906 210.351562 506.546875 C 211.195312 506.714844 212.019531 506.964844 212.816406 507.296875 C 213.617188 507.625 214.375 508.03125 215.09375 508.511719 C 215.8125 508.992188 216.476562 509.539062 217.085938 510.148438 C 217.699219 510.757812 218.242188 511.425781 218.722656 512.140625 C 219.203125 512.859375 219.609375 513.617188 219.941406 514.417969 C 220.269531 515.214844 220.519531 516.039062 220.6875 516.886719 C 220.855469 517.734375 220.941406 518.589844 220.941406 519.453125 C 220.941406 539.191406 210.675781 585.246094 115.671875 585.246094 Z M 194.625 407.601562 C 158.304688 407.601562 128.828125 384.050781 128.828125 354.96875 C 128.828125 354.105469 128.914062 353.25 129.082031 352.402344 C 129.25 351.554688 129.5 350.730469 129.832031 349.933594 C 130.164062 349.132812 130.566406 348.375 131.046875 347.65625 C 131.527344 346.9375 132.074219 346.273438 132.683594 345.664062 C 133.296875 345.050781 133.960938 344.507812 134.679688 344.027344 C 135.398438 343.546875 136.15625 343.140625 136.953125 342.8125 C 137.75 342.480469 138.574219 342.230469 139.421875 342.0625 C 140.269531 341.894531 141.125 341.808594 141.988281 341.808594 C 142.851562 341.808594 143.707031 341.894531 144.554688 342.0625 C 145.402344 342.230469 146.226562 342.480469 147.023438 342.8125 C 147.824219 343.140625 148.582031 343.546875 149.300781 344.027344 C 150.019531 344.507812 150.683594 345.050781 151.292969 345.664062 C 151.90625 346.273438 152.449219 346.9375 152.929688 347.65625 C 153.410156 348.375 153.816406 349.132812 154.144531 349.933594 C 154.476562 350.730469 154.726562 351.554688 154.894531 352.402344 C 155.0625 353.25 155.148438 354.105469 155.148438 354.96875 C 155.148438 369.179688 173.242188 381.285156 194.625 381.285156 C 216.007812 381.285156 234.101562 369.179688 234.101562 354.96875 C 234.101562 354.105469 234.183594 353.25 234.351562 352.402344 C 234.523438 351.554688 234.769531 350.730469 235.101562 349.933594 C 235.433594 349.132812 235.835938 348.375 236.316406 347.65625 C 236.796875 346.9375 237.34375 346.273438 237.953125 345.664062 C 238.566406 345.050781 239.230469 344.507812 239.949219 344.027344 C 240.667969 343.546875 241.425781 343.140625 242.222656 342.8125 C 243.023438 342.480469 243.84375 342.230469 244.691406 342.0625 C 245.539062 341.894531 246.394531 341.808594 247.257812 341.808594 C 248.121094 341.808594 248.980469 341.894531 249.824219 342.0625 C 250.671875 342.230469 251.496094 342.480469 252.292969 342.8125 C 253.09375 343.140625 253.851562 343.546875 254.570312 344.027344 C 255.289062 344.507812 255.953125 345.050781 256.5625 345.664062 C 257.175781 346.273438 257.71875 346.9375 258.199219 347.65625 C 258.679688 348.375 259.085938 349.132812 259.417969 349.933594 C 259.746094 350.730469 259.996094 351.554688 260.164062 352.402344 C 260.332031 353.25 260.417969 354.105469 260.417969 354.96875 C 260.417969 384.050781 230.941406 407.601562 194.625 407.601562 Z M 563.070312 453.660156 C 447.007812 453.660156 352.527344 359.179688 352.527344 243.117188 C 352.527344 127.058594 447.007812 32.578125 563.070312 32.578125 C 679.128906 32.578125 773.609375 127.058594 773.609375 243.117188 C 773.609375 359.179688 679.128906 453.660156 563.070312 453.660156 Z M 563.070312 453.660156 " fill-opacity="1" fill-rule="nonzero"/></g><path fill="#ef4123" d="M 563.070312 85.214844 C 560.484375 85.214844 557.902344 85.277344 555.320312 85.402344 C 552.742188 85.53125 550.164062 85.71875 547.59375 85.972656 C 545.019531 86.226562 542.457031 86.542969 539.898438 86.921875 C 537.34375 87.300781 534.796875 87.742188 532.265625 88.246094 C 529.730469 88.75 527.207031 89.316406 524.703125 89.945312 C 522.195312 90.574219 519.703125 91.261719 517.230469 92.011719 C 514.757812 92.761719 512.304688 93.574219 509.871094 94.445312 C 507.441406 95.316406 505.03125 96.246094 502.640625 97.234375 C 500.253906 98.222656 497.890625 99.269531 495.554688 100.375 C 493.21875 101.480469 490.914062 102.640625 488.632812 103.859375 C 486.355469 105.078125 484.105469 106.351562 481.890625 107.679688 C 479.671875 109.007812 477.492188 110.390625 475.34375 111.824219 C 473.191406 113.261719 471.082031 114.75 469.003906 116.289062 C 466.929688 117.828125 464.894531 119.417969 462.894531 121.054688 C 460.898438 122.695312 458.941406 124.382812 457.027344 126.117188 C 455.113281 127.855469 453.242188 129.636719 451.414062 131.460938 C 449.585938 133.289062 447.804688 135.160156 446.070312 137.074219 C 444.332031 138.992188 442.648438 140.945312 441.007812 142.945312 C 439.367188 144.941406 437.777344 146.980469 436.238281 149.054688 C 434.699219 151.128906 433.210938 153.242188 431.777344 155.390625 C 430.339844 157.539062 428.957031 159.722656 427.628906 161.9375 C 426.300781 164.15625 425.027344 166.402344 423.808594 168.683594 C 422.589844 170.960938 421.429688 173.269531 420.324219 175.605469 C 419.21875 177.941406 418.171875 180.304688 417.183594 182.691406 C 416.195312 185.078125 415.265625 187.488281 414.394531 189.921875 C 413.523438 192.355469 412.714844 194.808594 411.964844 197.28125 C 411.214844 199.753906 410.523438 202.242188 409.894531 204.75 C 409.269531 207.257812 408.703125 209.777344 408.199219 212.3125 C 407.695312 214.847656 407.253906 217.394531 406.875 219.949219 C 406.496094 222.503906 406.179688 225.070312 405.925781 227.640625 C 405.671875 230.214844 405.480469 232.789062 405.355469 235.371094 C 405.226562 237.953125 405.164062 240.535156 405.164062 243.117188 C 405.164062 245.703125 405.226562 248.285156 405.355469 250.867188 C 405.480469 253.449219 405.671875 256.023438 405.925781 258.597656 C 406.179688 261.167969 406.496094 263.730469 406.875 266.289062 C 407.253906 268.84375 407.695312 271.390625 408.199219 273.925781 C 408.703125 276.460938 409.269531 278.980469 409.894531 281.488281 C 410.523438 283.992188 411.214844 286.484375 411.964844 288.957031 C 412.714844 291.429688 413.523438 293.882812 414.394531 296.316406 C 415.265625 298.75 416.195312 301.160156 417.183594 303.546875 C 418.171875 305.933594 419.21875 308.296875 420.324219 310.632812 C 421.429688 312.96875 422.589844 315.277344 423.808594 317.554688 C 425.027344 319.832031 426.300781 322.082031 427.628906 324.296875 C 428.957031 326.515625 430.339844 328.699219 431.777344 330.847656 C 433.210938 332.996094 434.699219 335.105469 436.238281 337.183594 C 437.777344 339.257812 439.367188 341.296875 441.007812 343.292969 C 442.648438 345.289062 444.332031 347.246094 446.070312 349.160156 C 447.804688 351.078125 449.585938 352.949219 451.414062 354.773438 C 453.242188 356.601562 455.113281 358.382812 457.027344 360.117188 C 458.941406 361.855469 460.898438 363.542969 462.894531 365.179688 C 464.894531 366.820312 466.929688 368.410156 469.003906 369.949219 C 471.082031 371.488281 473.191406 372.976562 475.34375 374.414062 C 477.492188 375.847656 479.671875 377.230469 481.890625 378.558594 C 484.105469 379.886719 486.355469 381.160156 488.632812 382.378906 C 490.914062 383.597656 493.21875 384.757812 495.554688 385.863281 C 497.890625 386.96875 500.253906 388.015625 502.640625 389.003906 C 505.03125 389.992188 507.441406 390.921875 509.871094 391.792969 C 512.304688 392.664062 514.757812 393.472656 517.230469 394.226562 C 519.703125 394.976562 522.195312 395.664062 524.703125 396.292969 C 527.207031 396.917969 529.730469 397.484375 532.265625 397.988281 C 534.796875 398.492188 537.34375 398.9375 539.898438 399.316406 C 542.457031 399.695312 545.019531 400.011719 547.59375 400.265625 C 550.164062 400.515625 552.742188 400.707031 555.320312 400.832031 C 557.902344 400.960938 560.484375 401.023438 563.070312 401.023438 C 565.652344 401.023438 568.238281 400.960938 570.816406 400.832031 C 573.398438 400.707031 575.976562 400.515625 578.546875 400.265625 C 581.117188 400.011719 583.683594 399.695312 586.238281 399.316406 C 588.796875 398.9375 591.339844 398.492188 593.875 397.988281 C 596.410156 397.484375 598.929688 396.917969 601.4375 396.292969 C 603.945312 395.664062 606.433594 394.976562 608.90625 394.226562 C 611.378906 393.472656 613.832031 392.664062 616.265625 391.792969 C 618.699219 390.921875 621.109375 389.992188 623.496094 389.003906 C 625.882812 388.015625 628.246094 386.96875 630.582031 385.863281 C 632.917969 384.757812 635.226562 383.597656 637.503906 382.378906 C 639.785156 381.160156 642.03125 379.886719 644.25 378.558594 C 646.464844 377.230469 648.648438 375.847656 650.796875 374.414062 C 652.945312 372.976562 655.058594 371.488281 657.132812 369.949219 C 659.210938 368.410156 661.246094 366.820312 663.242188 365.179688 C 665.242188 363.542969 667.199219 361.855469 669.113281 360.117188 C 671.027344 358.382812 672.898438 356.601562 674.726562 354.773438 C 676.550781 352.949219 678.335938 351.078125 680.070312 349.160156 C 681.804688 347.246094 683.492188 345.289062 685.132812 343.292969 C 686.769531 341.296875 688.359375 339.257812 689.898438 337.183594 C 691.441406 335.105469 692.925781 332.996094 694.363281 330.847656 C 695.796875 328.699219 697.179688 326.515625 698.507812 324.296875 C 699.835938 322.082031 701.109375 319.832031 702.328125 317.554688 C 703.546875 315.277344 704.710938 312.96875 705.8125 310.632812 C 706.917969 308.296875 707.964844 305.933594 708.953125 303.546875 C 709.945312 301.160156 710.875 298.75 711.746094 296.316406 C 712.613281 293.882812 713.425781 291.429688 714.175781 288.957031 C 714.925781 286.484375 715.613281 283.992188 716.242188 281.488281 C 716.871094 278.980469 717.4375 276.460938 717.941406 273.925781 C 718.445312 271.390625 718.886719 268.84375 719.265625 266.289062 C 719.644531 263.730469 719.960938 261.167969 720.214844 258.597656 C 720.46875 256.023438 720.65625 253.449219 720.785156 250.867188 C 720.910156 248.285156 720.976562 245.703125 720.976562 243.117188 C 720.972656 240.535156 720.90625 237.953125 720.777344 235.371094 C 720.648438 232.792969 720.457031 230.214844 720.203125 227.644531 C 719.949219 225.074219 719.628906 222.511719 719.25 219.957031 C 718.867188 217.398438 718.425781 214.855469 717.917969 212.320312 C 717.414062 209.789062 716.847656 207.269531 716.214844 204.761719 C 715.585938 202.257812 714.898438 199.769531 714.144531 197.296875 C 713.394531 194.824219 712.582031 192.371094 711.710938 189.941406 C 710.839844 187.507812 709.910156 185.097656 708.917969 182.710938 C 707.929688 180.324219 706.882812 177.964844 705.777344 175.628906 C 704.671875 173.292969 703.507812 170.988281 702.289062 168.707031 C 701.070312 166.429688 699.796875 164.183594 698.46875 161.96875 C 697.140625 159.753906 695.757812 157.570312 694.324219 155.421875 C 692.886719 153.273438 691.398438 151.164062 689.859375 149.089844 C 688.320312 147.011719 686.730469 144.976562 685.089844 142.980469 C 683.453125 140.984375 681.765625 139.027344 680.03125 137.113281 C 678.296875 135.199219 676.515625 133.328125 674.6875 131.5 C 672.859375 129.675781 670.988281 127.894531 669.074219 126.15625 C 667.160156 124.421875 665.207031 122.734375 663.207031 121.097656 C 661.210938 119.457031 659.175781 117.867188 657.101562 116.328125 C 655.023438 114.789062 652.914062 113.300781 650.765625 111.867188 C 648.617188 110.429688 646.4375 109.046875 644.21875 107.71875 C 642.003906 106.390625 639.757812 105.117188 637.480469 103.898438 C 635.203125 102.679688 632.894531 101.515625 630.558594 100.410156 C 628.222656 99.304688 625.863281 98.257812 623.476562 97.269531 C 621.089844 96.277344 618.679688 95.347656 616.25 94.476562 C 613.816406 93.605469 611.363281 92.792969 608.890625 92.042969 C 606.421875 91.292969 603.929688 90.601562 601.425781 89.972656 C 598.917969 89.34375 596.398438 88.773438 593.867188 88.269531 C 591.332031 87.765625 588.789062 87.320312 586.234375 86.941406 C 583.675781 86.558594 581.113281 86.242188 578.542969 85.984375 C 575.972656 85.730469 573.394531 85.539062 570.816406 85.410156 C 568.234375 85.28125 565.652344 85.214844 563.070312 85.214844 Z M 646.363281 345.097656 L 576.226562 274.964844 L 576.226562 374.046875 C 567.457031 374.90625 558.683594 374.90625 549.910156 374.046875 L 549.910156 274.964844 L 479.773438 345.097656 C 473.085938 339.332031 466.855469 333.101562 461.089844 326.414062 L 549.910156 237.59375 L 549.910156 112.1875 C 558.683594 111.332031 567.457031 111.332031 576.226562 112.1875 L 576.226562 237.59375 L 665.050781 326.414062 C 659.28125 333.101562 653.054688 339.332031 646.363281 345.097656 Z M 646.363281 345.097656 " fill-opacity="1" fill-rule="nonzero"/></svg>