<svg xmlns="http://www.w3.org/2000/svg" xmlns:xlink="http://www.w3.org/1999/xlink" width="1080" zoomAndPan="magnify" viewBox="0 0 810 809.999993" height="1080" preserveAspectRatio="xMidYMid meet" version="1.0"><defs><clipPath id="75f1bd7b70"><path d="M 73.601562 37 L 735 37 L 735 774 L 73.601562 774 Z M 73.601562 37 " clip-rule="nonzero"/></clipPath></defs><g clip-path="url(#75f1bd7b70)"><path fill="#00194c" d="M 687.015625 569.8125 L 514.691406 569.8125 C 518.226562 555.035156 522.027344 540.164062 525.730469 525.625 L 530.640625 506.398438 C 531.90625 501.519531 533.160156 496.5625 534.425781 491.605469 L 536.191406 484.453125 C 540.65625 484.453125 545.109375 484.214844 549.492188 483.871094 L 549.492188 496.90625 C 549.492188 497.917969 549.542969 498.929688 549.640625 499.9375 C 549.738281 500.945312 549.886719 501.945312 550.085938 502.941406 C 550.285156 503.933594 550.53125 504.914062 550.824219 505.882812 C 551.117188 506.855469 551.457031 507.804688 551.847656 508.742188 C 552.234375 509.679688 552.667969 510.59375 553.144531 511.488281 C 553.621094 512.378906 554.140625 513.246094 554.703125 514.089844 C 555.265625 514.933594 555.871094 515.746094 556.511719 516.527344 C 557.15625 517.3125 557.835938 518.0625 558.550781 518.777344 C 559.265625 519.492188 560.015625 520.171875 560.800781 520.816406 C 561.582031 521.457031 562.394531 522.0625 563.238281 522.625 C 564.082031 523.1875 564.949219 523.707031 565.839844 524.183594 C 566.734375 524.660156 567.648438 525.09375 568.585938 525.480469 C 569.523438 525.871094 570.472656 526.210938 571.445312 526.503906 C 572.414062 526.796875 573.394531 527.042969 574.386719 527.242188 C 575.382812 527.441406 576.382812 527.589844 577.390625 527.6875 C 578.398438 527.785156 579.410156 527.835938 580.421875 527.835938 L 643.167969 527.835938 C 644.175781 527.828125 645.183594 527.769531 646.191406 527.664062 C 647.195312 527.558594 648.191406 527.402344 649.183594 527.199219 C 650.171875 526.996094 651.148438 526.746094 652.117188 526.445312 C 653.082031 526.148438 654.03125 525.800781 654.960938 525.410156 C 655.894531 525.019531 656.804688 524.585938 657.695312 524.105469 C 658.585938 523.628906 659.449219 523.105469 660.289062 522.542969 C 661.128906 521.980469 661.9375 521.378906 662.71875 520.734375 C 663.5 520.09375 664.246094 519.414062 664.960938 518.699219 C 665.675781 517.984375 666.355469 517.238281 666.996094 516.457031 C 667.636719 515.675781 668.238281 514.867188 668.804688 514.027344 C 669.367188 513.1875 669.886719 512.324219 670.367188 511.433594 C 670.847656 510.542969 671.28125 509.632812 671.671875 508.703125 C 672.0625 507.769531 672.40625 506.820312 672.707031 505.855469 C 673.003906 504.890625 673.253906 503.910156 673.457031 502.921875 C 673.664062 501.933594 673.816406 500.933594 673.921875 499.929688 C 674.03125 498.925781 674.085938 497.917969 674.097656 496.90625 L 674.097656 427.765625 C 686.335938 415.8125 696.863281 402.507812 705.679688 387.847656 C 710.164062 380.453125 714.140625 372.796875 717.609375 364.878906 C 721.082031 356.960938 724.015625 348.847656 726.414062 340.539062 C 728.8125 332.234375 730.65625 323.804688 731.941406 315.253906 C 733.226562 306.703125 733.941406 298.105469 734.09375 289.460938 C 734.148438 286.527344 734.136719 283.589844 734.0625 280.65625 C 733.988281 277.71875 733.851562 274.789062 733.644531 271.859375 C 733.441406 268.929688 733.171875 266.003906 732.839844 263.089844 C 732.503906 260.171875 732.105469 257.261719 731.644531 254.363281 C 731.179688 251.460938 730.652344 248.574219 730.0625 245.699219 C 729.472656 242.820312 728.816406 239.960938 728.101562 237.113281 C 727.382812 234.265625 726.601562 231.4375 725.757812 228.621094 C 724.914062 225.808594 724.011719 223.015625 723.042969 220.246094 C 722.078125 217.472656 721.046875 214.722656 719.960938 211.996094 C 718.871094 209.269531 717.722656 206.566406 716.511719 203.890625 C 715.304688 201.214844 714.035156 198.566406 712.710938 195.945312 C 711.386719 193.328125 710 190.738281 708.5625 188.179688 C 707.121094 185.621094 705.625 183.09375 704.070312 180.601562 C 702.519531 178.109375 700.910156 175.652344 699.25 173.234375 C 697.585938 170.8125 695.871094 168.429688 694.105469 166.082031 C 692.339844 163.738281 690.519531 161.433594 688.648438 159.167969 C 686.78125 156.90625 684.863281 154.683594 682.894531 152.503906 C 680.925781 150.324219 678.910156 148.191406 676.847656 146.101562 C 674.785156 144.011719 672.679688 141.964844 670.523438 139.96875 C 668.371094 137.972656 666.175781 136.027344 663.9375 134.125 C 661.695312 132.226562 659.414062 130.378906 657.09375 128.582031 C 654.773438 126.78125 652.414062 125.035156 650.015625 123.34375 C 647.613281 121.648438 645.179688 120.011719 642.707031 118.425781 C 640.238281 116.839844 637.730469 115.308594 635.191406 113.835938 C 632.652344 112.359375 630.082031 110.941406 627.480469 109.582031 C 624.878906 108.222656 622.246094 106.917969 619.585938 105.675781 C 616.925781 104.429688 614.242188 103.246094 611.527344 102.121094 C 608.816406 100.996094 606.078125 99.933594 603.320312 98.929688 C 600.558594 97.925781 597.78125 96.984375 594.980469 96.105469 C 592.175781 95.222656 589.359375 94.40625 586.519531 93.652344 C 583.683594 92.894531 580.828125 92.203125 577.960938 91.574219 C 575.09375 90.945312 572.210938 90.382812 569.320312 89.878906 C 566.425781 89.378906 563.523438 88.941406 560.609375 88.570312 C 557.695312 88.195312 554.777344 87.890625 551.851562 87.644531 C 548.925781 87.402344 545.996094 87.226562 543.0625 87.113281 C 540.125 87 537.191406 86.949219 534.253906 86.96875 C 531.320312 86.984375 528.382812 87.066406 525.453125 87.214844 C 522.519531 87.359375 519.589844 87.574219 516.667969 87.851562 C 513.742188 88.128906 510.828125 88.46875 507.921875 88.875 C 505.011719 89.28125 502.113281 89.75 499.226562 90.285156 C 496.339844 90.820312 493.464844 91.417969 490.605469 92.082031 C 487.742188 92.742188 484.898438 93.46875 482.070312 94.257812 C 479.242188 95.042969 476.433594 95.894531 473.640625 96.808594 C 470.851562 97.71875 468.082031 98.695312 465.332031 99.730469 C 462.585938 100.765625 459.863281 101.859375 457.164062 103.015625 C 454.464844 104.171875 451.792969 105.386719 449.144531 106.664062 C 446.5 107.9375 443.882812 109.269531 441.296875 110.660156 C 438.710938 112.050781 436.15625 113.5 433.636719 115.003906 C 431.113281 116.503906 428.625 118.066406 426.171875 119.679688 C 423.71875 121.292969 421.304688 122.960938 418.925781 124.679688 C 416.546875 126.402344 414.207031 128.175781 411.90625 130 C 409.605469 131.824219 407.347656 133.699219 405.128906 135.625 C 402.910156 137.550781 400.738281 139.523438 398.609375 141.546875 C 396.476562 143.566406 394.394531 145.632812 392.355469 147.746094 C 390.316406 149.863281 388.328125 152.019531 386.386719 154.222656 C 384.441406 156.421875 382.550781 158.667969 380.707031 160.953125 C 378.863281 163.238281 377.070312 165.566406 375.332031 167.929688 C 373.589844 170.296875 371.90625 172.699219 370.269531 175.136719 C 368.636719 177.578125 367.058594 180.054688 365.535156 182.5625 C 364.011719 185.074219 362.542969 187.617188 361.132812 190.191406 C 359.722656 192.765625 358.367188 195.371094 357.074219 198.007812 C 355.777344 200.640625 354.539062 203.304688 353.363281 205.996094 C 352.1875 208.683594 351.070312 211.398438 350.011719 214.136719 C 348.953125 216.878906 347.957031 219.640625 347.023438 222.421875 C 345.09375 227.882812 343.414062 233.421875 341.988281 239.039062 C 340.5625 244.652344 339.390625 250.320312 338.480469 256.039062 C 337.570312 261.761719 336.917969 267.511719 336.53125 273.289062 C 336.140625 279.070312 336.015625 284.855469 336.15625 290.644531 C 336.292969 296.4375 336.691406 302.210938 337.355469 307.964844 C 338.015625 313.71875 338.9375 319.433594 340.121094 325.105469 C 341.300781 330.773438 342.738281 336.378906 344.429688 341.921875 C 346.121094 347.460938 348.0625 352.914062 350.25 358.277344 C 356.644531 374.246094 364.875 389.207031 374.949219 403.152344 L 374.949219 496.90625 C 374.949219 497.917969 375 498.929688 375.097656 499.9375 C 375.195312 500.945312 375.34375 501.945312 375.542969 502.941406 C 375.742188 503.933594 375.988281 504.914062 376.28125 505.882812 C 376.574219 506.855469 376.914062 507.804688 377.304688 508.742188 C 377.691406 509.679688 378.125 510.59375 378.601562 511.488281 C 379.078125 512.378906 379.597656 513.246094 380.160156 514.089844 C 380.722656 514.933594 381.328125 515.746094 381.96875 516.527344 C 382.613281 517.3125 383.292969 518.0625 384.007812 518.777344 C 384.722656 519.492188 385.472656 520.171875 386.257812 520.816406 C 387.039062 521.457031 387.851562 522.0625 388.695312 522.625 C 389.539062 523.1875 390.40625 523.707031 391.296875 524.183594 C 392.191406 524.660156 393.105469 525.09375 394.042969 525.480469 C 394.976562 525.871094 395.929688 526.210938 396.898438 526.503906 C 397.871094 526.796875 398.851562 527.042969 399.84375 527.242188 C 400.839844 527.441406 401.839844 527.589844 402.847656 527.6875 C 403.855469 527.785156 404.867188 527.835938 405.878906 527.835938 L 457.824219 527.835938 C 454.964844 539.03125 452.085938 550.191406 449.179688 561.320312 C 448.601562 562.695312 447.667969 563.761719 446.378906 564.519531 C 444.007812 566.027344 441.847656 567.796875 439.902344 569.820312 L 153.753906 569.820312 L 153.753906 77.933594 C 153.753906 76.621094 153.691406 75.3125 153.5625 74.007812 C 153.433594 72.699219 153.238281 71.402344 152.984375 70.117188 C 152.726562 68.828125 152.410156 67.558594 152.027344 66.300781 C 151.648438 65.046875 151.207031 63.8125 150.703125 62.597656 C 150.199219 61.386719 149.640625 60.199219 149.023438 59.042969 C 148.402344 57.886719 147.730469 56.761719 147 55.667969 C 146.269531 54.578125 145.488281 53.523438 144.65625 52.511719 C 143.824219 51.496094 142.945312 50.523438 142.015625 49.597656 C 141.085938 48.667969 140.117188 47.789062 139.101562 46.957031 C 138.085938 46.121094 137.035156 45.339844 135.941406 44.613281 C 134.851562 43.882812 133.726562 43.210938 132.570312 42.589844 C 131.410156 41.972656 130.226562 41.410156 129.015625 40.910156 C 127.800781 40.40625 126.566406 39.964844 125.3125 39.585938 C 124.054688 39.203125 122.78125 38.882812 121.496094 38.628906 C 120.207031 38.371094 118.910156 38.179688 117.605469 38.050781 C 116.300781 37.921875 114.988281 37.859375 113.675781 37.859375 C 112.363281 37.859375 111.054688 37.921875 109.75 38.050781 C 108.441406 38.179688 107.144531 38.371094 105.859375 38.628906 C 104.570312 38.882812 103.300781 39.203125 102.042969 39.585938 C 100.789062 39.964844 99.554688 40.40625 98.339844 40.910156 C 97.128906 41.410156 95.941406 41.972656 94.785156 42.589844 C 93.628906 43.210938 92.503906 43.882812 91.410156 44.613281 C 90.320312 45.339844 89.265625 46.121094 88.253906 46.957031 C 87.238281 47.789062 86.265625 48.667969 85.339844 49.597656 C 84.410156 50.523438 83.53125 51.496094 82.699219 52.511719 C 81.863281 53.523438 81.082031 54.578125 80.355469 55.667969 C 79.625 56.761719 78.953125 57.886719 78.332031 59.042969 C 77.714844 60.199219 77.152344 61.386719 76.652344 62.597656 C 76.148438 63.8125 75.707031 65.046875 75.328125 66.300781 C 74.945312 67.558594 74.625 68.828125 74.371094 70.117188 C 74.113281 71.402344 73.921875 72.699219 73.792969 74.007812 C 73.664062 75.3125 73.601562 76.621094 73.601562 77.933594 L 73.601562 609.933594 C 73.597656 612.566406 73.851562 615.175781 74.363281 617.757812 C 74.878906 620.339844 75.640625 622.847656 76.648438 625.277344 C 77.660156 627.710938 78.898438 630.019531 80.367188 632.203125 C 81.835938 634.390625 83.503906 636.410156 85.371094 638.265625 C 87.21875 640.132812 89.234375 641.800781 91.414062 643.269531 C 93.597656 644.734375 95.902344 645.96875 98.328125 646.972656 C 100.757812 647.976562 103.261719 648.730469 105.839844 649.234375 C 108.417969 649.738281 111.023438 649.984375 113.652344 649.964844 C 114.339844 649.984375 115.023438 649.964844 115.710938 649.902344 C 116.371094 649.964844 117.054688 649.964844 117.714844 649.964844 L 418.851562 649.964844 C 414.953125 670.34375 411.058594 690.246094 407.167969 709.96875 C 406.273438 713.230469 405.644531 716.542969 405.277344 719.90625 C 404.910156 723.269531 404.8125 726.636719 404.980469 730.015625 C 405.152344 733.394531 405.589844 736.734375 406.292969 740.042969 C 406.996094 743.351562 407.957031 746.582031 409.175781 749.738281 L 415.804688 759.457031 C 417.933594 761.648438 420.253906 763.617188 422.761719 765.359375 C 425.265625 767.105469 427.917969 768.597656 430.710938 769.832031 C 433.503906 771.070312 436.390625 772.03125 439.367188 772.714844 C 442.34375 773.398438 445.359375 773.792969 448.414062 773.898438 C 452.695312 773.894531 456.933594 773.460938 461.128906 772.589844 C 463.957031 771.8125 466.683594 770.777344 469.320312 769.488281 C 471.953125 768.203125 474.445312 766.679688 476.792969 764.929688 C 479.144531 763.175781 481.3125 761.21875 483.296875 759.0625 C 485.28125 756.90625 487.050781 754.585938 488.605469 752.097656 C 491.820312 747.046875 494.011719 741.585938 495.179688 735.714844 C 500.542969 709.058594 505.652344 681.683594 510.582031 655.214844 L 511.554688 650 L 686.988281 650 C 688.300781 649.996094 689.605469 649.925781 690.90625 649.792969 C 692.210938 649.660156 693.503906 649.460938 694.785156 649.203125 C 696.070312 648.941406 697.339844 648.621094 698.589844 648.238281 C 699.84375 647.851562 701.070312 647.410156 702.28125 646.90625 C 703.488281 646.402344 704.671875 645.839844 705.824219 645.21875 C 706.976562 644.601562 708.097656 643.925781 709.1875 643.199219 C 710.273438 642.46875 711.324219 641.691406 712.335938 640.859375 C 713.347656 640.027344 714.316406 639.148438 715.242188 638.222656 C 716.167969 637.296875 717.046875 636.328125 717.878906 635.316406 C 718.710938 634.304688 719.492188 633.253906 720.21875 632.167969 C 720.949219 631.078125 721.621094 629.957031 722.242188 628.804688 C 722.859375 627.648438 723.421875 626.46875 723.925781 625.261719 C 724.429688 624.050781 724.875 622.820312 725.257812 621.570312 C 725.640625 620.316406 725.960938 619.050781 726.222656 617.765625 C 726.484375 616.484375 726.679688 615.191406 726.8125 613.886719 C 726.945312 612.585938 727.015625 611.277344 727.023438 609.96875 C 727.03125 607.339844 726.785156 604.730469 726.277344 602.148438 C 725.773438 599.566406 725.015625 597.058594 724.015625 594.628906 C 723.011719 592.195312 721.777344 589.886719 720.316406 587.699219 C 718.855469 585.507812 717.191406 583.488281 715.332031 581.628906 C 713.472656 579.765625 711.449219 578.101562 709.265625 576.636719 C 707.078125 575.167969 704.773438 573.929688 702.34375 572.917969 C 699.914062 571.902344 697.410156 571.136719 694.832031 570.613281 C 692.253906 570.089844 689.648438 569.824219 687.015625 569.8125 Z M 645.480469 496.90625 C 645.472656 497.195312 645.414062 497.476562 645.296875 497.742188 C 645.183594 498.007812 645.023438 498.246094 644.816406 498.449219 C 644.613281 498.65625 644.375 498.816406 644.109375 498.929688 C 643.839844 499.046875 643.5625 499.109375 643.273438 499.117188 L 580.527344 499.117188 C 580.238281 499.109375 579.957031 499.046875 579.691406 498.929688 C 579.425781 498.816406 579.1875 498.65625 578.984375 498.449219 C 578.777344 498.246094 578.617188 498.007812 578.503906 497.742188 C 578.386719 497.476562 578.328125 497.195312 578.320312 496.90625 L 578.320312 479.601562 C 597.378906 475.421875 615.414062 468.542969 632.421875 458.976562 C 636.980469 456.414062 641.355469 453.675781 645.480469 450.933594 Z M 405.878906 499.117188 C 405.585938 499.113281 405.304688 499.058594 405.035156 498.945312 C 404.765625 498.832031 404.527344 498.671875 404.320312 498.464844 C 404.113281 498.257812 403.953125 498.019531 403.839844 497.75 C 403.726562 497.480469 403.671875 497.199219 403.667969 496.90625 L 403.667969 434.605469 C 413.675781 443.238281 424.410156 450.84375 435.871094 457.425781 C 447.335938 464.003906 459.320312 469.433594 471.820312 473.71875 L 465.148438 499.117188 Z M 424.375 621.246094 L 118.140625 621.246094 C 117.546875 621.253906 116.957031 621.210938 116.371094 621.113281 L 115.046875 621.183594 C 114.613281 621.238281 114.175781 621.261719 113.738281 621.246094 C 112.992188 621.246094 112.253906 621.175781 111.523438 621.03125 C 110.792969 620.890625 110.082031 620.675781 109.394531 620.394531 C 108.703125 620.109375 108.046875 619.761719 107.425781 619.351562 C 106.804688 618.9375 106.230469 618.46875 105.703125 617.945312 C 105.171875 617.421875 104.699219 616.847656 104.28125 616.230469 C 103.867188 615.613281 103.511719 614.960938 103.226562 614.273438 C 102.9375 613.585938 102.71875 612.878906 102.570312 612.148438 C 102.417969 611.417969 102.34375 610.679688 102.339844 609.933594 L 102.339844 77.933594 C 102.339844 77.1875 102.410156 76.449219 102.558594 75.71875 C 102.703125 74.988281 102.917969 74.277344 103.203125 73.589844 C 103.488281 72.902344 103.839844 72.246094 104.253906 71.625 C 104.667969 71.007812 105.136719 70.433594 105.664062 69.90625 C 106.191406 69.378906 106.765625 68.90625 107.386719 68.492188 C 108.007812 68.078125 108.660156 67.730469 109.347656 67.445312 C 110.039062 67.160156 110.75 66.941406 111.480469 66.796875 C 112.210938 66.652344 112.949219 66.578125 113.695312 66.578125 C 114.441406 66.578125 115.179688 66.652344 115.910156 66.796875 C 116.640625 66.941406 117.351562 67.160156 118.039062 67.445312 C 118.730469 67.730469 119.382812 68.078125 120.003906 68.492188 C 120.625 68.90625 121.199219 69.378906 121.722656 69.90625 C 122.25 70.433594 122.722656 71.007812 123.136719 71.625 C 123.550781 72.246094 123.902344 72.902344 124.1875 73.589844 C 124.472656 74.277344 124.6875 74.988281 124.832031 75.71875 C 124.976562 76.449219 125.050781 77.1875 125.050781 77.933594 L 125.050781 598.535156 L 428.589844 598.535156 C 427.183594 606.214844 425.78125 613.820312 424.375 621.246094 Z M 492.5625 595.148438 C 492.507812 596.96875 489.910156 615.476562 485.085938 647.421875 C 478.476562 689.125 472.421875 717.828125 468.957031 730.792969 C 468.40625 733.71875 467.347656 736.453125 465.785156 738.988281 C 464.222656 741.527344 462.257812 743.703125 459.890625 745.515625 C 457.894531 746.820312 455.722656 747.699219 453.378906 748.148438 C 451.035156 748.59375 448.691406 748.582031 446.351562 748.101562 C 445.695312 747.957031 445.050781 747.777344 444.410156 747.566406 C 443.773438 747.355469 443.144531 747.113281 442.53125 746.839844 C 441.914062 746.566406 441.316406 746.265625 440.730469 745.933594 C 440.144531 745.601562 439.578125 745.242188 439.027344 744.855469 C 438.476562 744.46875 437.945312 744.058594 437.4375 743.617188 C 436.925781 743.179688 436.441406 742.71875 435.976562 742.230469 C 435.511719 741.742188 435.074219 741.234375 434.65625 740.707031 C 434.242188 740.175781 433.855469 739.628906 433.496094 739.0625 C 433.132812 738.492188 432.800781 737.910156 432.5 737.308594 C 432.195312 736.707031 431.921875 736.09375 431.675781 735.46875 C 431.433594 734.839844 431.222656 734.203125 431.039062 733.554688 C 430.859375 732.910156 430.710938 732.253906 430.59375 731.589844 C 430.476562 730.929688 430.394531 730.261719 430.339844 729.589844 C 430.289062 728.921875 430.273438 728.25 430.285156 727.578125 C 430.300781 726.90625 430.347656 726.234375 430.425781 725.566406 C 430.507812 724.898438 430.621094 724.238281 430.765625 723.578125 L 431.921875 717.4375 C 436.304688 694.371094 440.75 671.289062 445.257812 648.179688 C 446.757812 640.058594 448.261719 632.027344 449.84375 623.90625 C 450.734375 619.378906 451.617188 614.835938 452.496094 610.269531 C 453.378906 605.769531 454.210938 601.253906 455.144531 596.714844 C 455.226562 596.21875 455.332031 595.75 455.429688 595.28125 C 455.527344 594.8125 455.667969 594.195312 455.765625 593.621094 C 455.980469 592.386719 456.414062 591.238281 457.066406 590.171875 C 457.71875 589.101562 458.542969 588.191406 459.539062 587.433594 C 461.046875 586.410156 462.710938 585.917969 464.53125 585.957031 C 465.3125 585.960938 466.089844 586.039062 466.855469 586.195312 L 487.117188 590.191406 C 488.554688 590.359375 489.839844 590.890625 490.972656 591.789062 C 491.242188 592.179688 491.539062 592.550781 491.855469 592.90625 C 492.085938 593.160156 492.316406 593.425781 492.472656 593.628906 C 492.625 594.128906 492.652344 594.636719 492.5625 595.148438 Z M 488.066406 563.457031 L 476.207031 560.738281 L 496.363281 481.035156 L 508.417969 482.898438 Z M 473.855469 446.808594 C 460.277344 441.691406 447.558594 434.953125 435.703125 426.589844 C 429.664062 422.269531 423.917969 417.585938 418.472656 412.542969 C 413.023438 407.496094 407.914062 402.128906 403.144531 396.4375 C 398.375 390.746094 393.980469 384.777344 389.964844 378.53125 C 385.949219 372.285156 382.34375 365.808594 379.144531 359.109375 C 375.347656 351.046875 372.210938 342.734375 369.734375 334.171875 C 367.261719 325.609375 365.480469 316.90625 364.390625 308.0625 C 363.300781 299.214844 362.917969 290.339844 363.242188 281.433594 C 363.566406 272.527344 364.59375 263.703125 366.324219 254.960938 C 366.925781 251.796875 367.617188 248.652344 368.398438 245.53125 C 369.175781 242.40625 370.042969 239.304688 371 236.230469 C 371.953125 233.152344 372.992188 230.109375 374.121094 227.089844 C 375.246094 224.074219 376.457031 221.09375 377.753906 218.144531 C 379.046875 215.195312 380.421875 212.285156 381.882812 209.414062 C 383.339844 206.542969 384.878906 203.714844 386.5 200.933594 C 388.117188 198.148438 389.8125 195.410156 391.585938 192.722656 C 393.359375 190.035156 395.207031 187.398438 397.125 184.816406 C 399.046875 182.230469 401.042969 179.703125 403.105469 177.230469 C 405.167969 174.757812 407.300781 172.347656 409.5 169.996094 C 411.703125 167.644531 413.964844 165.355469 416.296875 163.132812 C 418.625 160.910156 421.015625 158.753906 423.464844 156.664062 C 425.917969 154.574219 428.425781 152.558594 430.988281 150.609375 C 433.554688 148.664062 436.171875 146.789062 438.84375 144.988281 C 441.511719 143.191406 444.230469 141.464844 447 139.820312 C 449.765625 138.175781 452.578125 136.605469 455.433594 135.121094 C 458.289062 133.632812 461.1875 132.226562 464.121094 130.902344 C 467.058594 129.578125 470.027344 128.335938 473.03125 127.179688 C 476.039062 126.023438 479.074219 124.953125 482.140625 123.964844 C 485.207031 122.980469 488.296875 122.082031 491.414062 121.269531 C 494.527344 120.460938 497.664062 119.738281 500.824219 119.101562 C 503.980469 118.46875 507.152344 117.925781 510.339844 117.46875 C 513.527344 117.015625 516.726562 116.648438 519.933594 116.375 C 523.144531 116.097656 526.359375 115.914062 529.578125 115.820312 C 532.796875 115.726562 536.015625 115.726562 539.234375 115.8125 C 542.453125 115.902344 545.667969 116.082031 548.875 116.351562 C 552.085938 116.621094 555.285156 116.980469 558.472656 117.429688 C 561.660156 117.878906 564.835938 118.417969 567.992188 119.046875 C 571.152344 119.675781 574.289062 120.394531 577.40625 121.199219 C 580.523438 122.003906 583.617188 122.898438 586.683594 123.878906 C 589.75 124.859375 592.789062 125.925781 595.796875 127.078125 C 598.804688 128.230469 601.777344 129.464844 604.714844 130.785156 C 607.652344 132.105469 610.550781 133.503906 613.40625 134.988281 C 616.265625 136.472656 619.082031 138.03125 621.851562 139.675781 C 624.621094 141.316406 627.34375 143.035156 630.015625 144.832031 C 632.691406 146.625 635.3125 148.496094 637.878906 150.4375 C 640.445312 152.382812 642.957031 154.394531 645.410156 156.480469 C 647.867188 158.566406 650.261719 160.71875 652.59375 162.9375 C 654.925781 165.15625 657.195312 167.441406 659.398438 169.789062 C 661.601562 172.136719 663.738281 174.542969 665.808594 177.011719 C 667.875 179.480469 669.871094 182.003906 671.796875 184.585938 C 673.722656 187.167969 675.574219 189.800781 677.351562 192.484375 C 679.128906 195.171875 680.828125 197.90625 682.453125 200.6875 C 684.074219 203.46875 685.621094 206.292969 687.082031 209.160156 C 688.546875 212.027344 689.929688 214.9375 691.226562 217.882812 C 692.527344 220.828125 693.742188 223.808594 694.875 226.824219 C 696.007812 229.839844 697.050781 232.882812 698.011719 235.957031 C 698.972656 239.03125 699.84375 242.128906 700.628906 245.253906 C 701.414062 248.375 702.109375 251.519531 702.71875 254.683594 C 703.324219 257.84375 703.84375 261.019531 704.273438 264.210938 C 704.699219 267.40625 705.039062 270.605469 705.285156 273.816406 C 705.535156 277.027344 705.691406 280.242188 705.757812 283.460938 C 705.824219 286.679688 705.800781 289.898438 705.683594 293.117188 C 705.570312 296.335938 705.363281 299.550781 705.066406 302.753906 C 704.769531 305.960938 704.386719 309.15625 703.90625 312.34375 C 703.429688 315.527344 702.867188 318.695312 702.210938 321.847656 C 701.554688 325.003906 700.8125 328.132812 699.980469 331.246094 C 699.148438 334.355469 698.226562 337.441406 697.222656 340.5 C 696.214844 343.558594 695.125 346.585938 693.945312 349.585938 C 692.769531 352.582031 691.507812 355.542969 690.164062 358.46875 C 688.820312 361.398438 687.394531 364.28125 685.890625 367.128906 C 684.382812 369.976562 682.796875 372.777344 681.132812 375.53125 C 679.464844 378.289062 677.726562 380.996094 675.90625 383.65625 C 674.089844 386.3125 672.199219 388.917969 670.234375 391.46875 C 658.867188 405.761719 645.652344 418.078125 630.601562 428.417969 C 624.964844 432.265625 619.125 435.769531 613.074219 438.925781 C 601.179688 445.101562 588.726562 449.789062 575.710938 452.984375 L 551.558594 457.121094 C 542.574219 458.023438 533.570312 458.207031 524.554688 457.667969 C 507.089844 456.617188 490.179688 452.980469 473.828125 446.765625 Z M 694.96875 617.914062 C 693.917969 618.976562 692.703125 619.796875 691.324219 620.375 C 689.949219 620.953125 688.511719 621.242188 687.015625 621.246094 L 516.945312 621.246094 C 517.828125 616.121094 518.828125 610.96875 519.835938 605.59375 C 520.304688 603.261719 520.546875 600.90625 520.558594 598.523438 L 686.988281 598.523438 C 687.734375 598.527344 688.472656 598.605469 689.203125 598.753906 C 689.933594 598.902344 690.644531 599.121094 691.332031 599.410156 C 692.019531 599.695312 692.671875 600.050781 693.289062 600.464844 C 693.90625 600.882812 694.480469 601.355469 695.003906 601.882812 C 695.527344 602.414062 695.996094 602.988281 696.410156 603.609375 C 696.820312 604.230469 697.167969 604.886719 697.453125 605.578125 C 697.734375 606.265625 697.949219 606.976562 698.089844 607.710938 C 698.234375 608.441406 698.304688 609.179688 698.300781 609.925781 C 698.300781 611.425781 698.011719 612.867188 697.4375 614.253906 C 696.859375 615.636719 696.035156 616.859375 694.96875 617.914062 Z M 230.371094 525.449219 L 296.472656 525.625 C 297.414062 525.625 298.351562 525.574219 299.285156 525.476562 C 300.222656 525.382812 301.148438 525.242188 302.070312 525.054688 C 302.992188 524.871094 303.902344 524.640625 304.800781 524.363281 C 305.699219 524.089844 306.582031 523.769531 307.449219 523.410156 C 308.316406 523.046875 309.164062 522.644531 309.992188 522.203125 C 310.820312 521.757812 311.625 521.273438 312.402344 520.75 C 313.183594 520.230469 313.9375 519.667969 314.664062 519.074219 C 315.390625 518.476562 316.085938 517.847656 316.75 517.179688 C 317.414062 516.515625 318.042969 515.820312 318.640625 515.09375 C 319.238281 514.371094 319.796875 513.617188 320.320312 512.835938 C 320.84375 512.054688 321.324219 511.25 321.769531 510.421875 C 322.214844 509.59375 322.617188 508.746094 322.976562 507.878906 C 323.339844 507.011719 323.65625 506.128906 323.933594 505.230469 C 324.207031 504.332031 324.4375 503.421875 324.625 502.5 C 324.8125 501.582031 324.953125 500.652344 325.046875 499.71875 C 325.140625 498.78125 325.191406 497.847656 325.195312 496.90625 L 325.195312 109.75 C 325.191406 108.808594 325.140625 107.871094 325.046875 106.9375 C 324.953125 106.003906 324.8125 105.074219 324.625 104.152344 C 324.4375 103.234375 324.207031 102.324219 323.933594 101.425781 C 323.65625 100.527344 323.339844 99.644531 322.976562 98.777344 C 322.617188 97.910156 322.214844 97.0625 321.769531 96.234375 C 321.324219 95.40625 320.84375 94.601562 320.320312 93.820312 C 319.796875 93.039062 319.238281 92.285156 318.640625 91.558594 C 318.042969 90.832031 317.414062 90.136719 316.75 89.472656 C 316.085938 88.808594 315.390625 88.179688 314.664062 87.582031 C 313.9375 86.984375 313.183594 86.425781 312.402344 85.902344 C 311.625 85.378906 310.820312 84.898438 309.992188 84.453125 C 309.164062 84.007812 308.316406 83.605469 307.449219 83.246094 C 306.582031 82.882812 305.699219 82.566406 304.800781 82.289062 C 303.902344 82.015625 302.992188 81.785156 302.070312 81.597656 C 301.148438 81.414062 300.222656 81.273438 299.285156 81.175781 C 298.351562 81.082031 297.414062 81.03125 296.472656 81.027344 L 233.730469 81.027344 C 232.789062 81.03125 231.851562 81.078125 230.917969 81.171875 C 229.980469 81.265625 229.050781 81.402344 228.128906 81.589844 C 227.210938 81.773438 226.296875 82.003906 225.398438 82.277344 C 224.5 82.550781 223.617188 82.867188 222.746094 83.226562 C 221.878906 83.589844 221.03125 83.992188 220.203125 84.433594 C 219.375 84.878906 218.566406 85.363281 217.785156 85.882812 C 217.003906 86.40625 216.25 86.96875 215.523438 87.5625 C 214.796875 88.160156 214.101562 88.789062 213.4375 89.457031 C 212.773438 90.121094 212.140625 90.816406 211.546875 91.542969 C 210.949219 92.269531 210.390625 93.023438 209.867188 93.804688 C 209.34375 94.585938 208.859375 95.390625 208.417969 96.21875 C 207.972656 97.050781 207.570312 97.898438 207.210938 98.765625 C 206.847656 99.632812 206.53125 100.519531 206.257812 101.417969 C 205.984375 102.316406 205.753906 103.226562 205.570312 104.148438 C 205.386719 105.070312 205.246094 106 205.152344 106.933594 C 205.058594 107.871094 205.011719 108.808594 205.007812 109.75 L 205.007812 496.90625 C 205.011719 497.777344 205.054688 498.644531 205.132812 499.511719 C 205.214844 500.375 205.335938 501.238281 205.496094 502.09375 C 205.652344 502.949219 205.851562 503.792969 206.085938 504.632812 C 206.320312 505.46875 206.59375 506.292969 206.90625 507.109375 C 207.214844 507.921875 207.5625 508.71875 207.945312 509.5 C 208.328125 510.28125 208.742188 511.042969 209.195312 511.785156 C 209.644531 512.53125 210.128906 513.253906 210.648438 513.953125 C 211.164062 514.652344 211.710938 515.328125 212.289062 515.976562 C 212.867188 516.628906 213.472656 517.25 214.109375 517.847656 C 214.742188 518.441406 215.402344 519.007812 216.085938 519.542969 C 216.773438 520.078125 217.480469 520.582031 218.210938 521.054688 C 218.941406 521.527344 219.695312 521.964844 220.464844 522.367188 C 221.234375 522.769531 222.023438 523.140625 222.828125 523.472656 C 223.628906 523.804688 224.449219 524.101562 225.277344 524.359375 C 226.109375 524.617188 226.949219 524.835938 227.800781 525.019531 C 228.652344 525.203125 229.507812 525.34375 230.371094 525.449219 Z M 229.3125 109.75 C 229.3125 109.457031 229.339844 109.171875 229.398438 108.886719 C 229.453125 108.601562 229.535156 108.324219 229.648438 108.058594 C 229.757812 107.789062 229.894531 107.535156 230.054688 107.292969 C 230.21875 107.054688 230.402344 106.828125 230.605469 106.625 C 230.8125 106.417969 231.035156 106.234375 231.277344 106.074219 C 231.515625 105.914062 231.769531 105.777344 232.039062 105.667969 C 232.308594 105.554688 232.582031 105.472656 232.867188 105.414062 C 233.152344 105.359375 233.441406 105.332031 233.730469 105.332031 L 296.472656 105.332031 C 296.761719 105.335938 297.050781 105.367188 297.332031 105.425781 C 297.613281 105.484375 297.886719 105.574219 298.15625 105.683594 C 298.421875 105.796875 298.671875 105.933594 298.914062 106.097656 C 299.152344 106.257812 299.375 106.441406 299.578125 106.644531 C 299.78125 106.847656 299.964844 107.070312 300.128906 107.308594 C 300.289062 107.550781 300.425781 107.800781 300.539062 108.070312 C 300.652344 108.335938 300.738281 108.609375 300.796875 108.890625 C 300.855469 109.175781 300.886719 109.460938 300.894531 109.75 L 300.894531 496.90625 C 300.875 497.488281 300.753906 498.042969 300.523438 498.578125 C 300.292969 499.109375 299.972656 499.582031 299.5625 499.992188 C 299.152344 500.402344 298.679688 500.726562 298.144531 500.953125 C 297.613281 501.183594 297.054688 501.308594 296.472656 501.324219 L 233.730469 501.324219 C 233.441406 501.324219 233.152344 501.296875 232.867188 501.238281 C 232.582031 501.183594 232.308594 501.097656 232.039062 500.988281 C 231.769531 500.878906 231.515625 500.742188 231.277344 500.578125 C 231.035156 500.417969 230.8125 500.234375 230.605469 500.03125 C 230.402344 499.824219 230.21875 499.601562 230.054688 499.359375 C 229.894531 499.121094 229.757812 498.863281 229.648438 498.597656 C 229.535156 498.328125 229.453125 498.050781 229.398438 497.769531 C 229.339844 497.484375 229.3125 497.195312 229.3125 496.90625 Z M 532.914062 253.316406 L 534.378906 253.316406 C 536.199219 253.324219 538.015625 253.242188 539.828125 253.070312 C 541.640625 252.902344 543.441406 252.644531 545.230469 252.304688 C 547.019531 251.964844 548.785156 251.535156 550.53125 251.027344 C 552.28125 250.515625 554 249.921875 555.6875 249.246094 C 557.378906 248.570312 559.03125 247.816406 560.652344 246.980469 C 562.269531 246.148438 563.84375 245.238281 565.375 244.253906 C 566.90625 243.269531 568.386719 242.214844 569.816406 241.085938 C 571.246094 239.960938 572.617188 238.769531 573.933594 237.511719 C 575.25 236.253906 576.5 234.933594 577.691406 233.554688 C 578.878906 232.179688 580 230.746094 581.054688 229.261719 C 582.105469 227.777344 583.085938 226.242188 583.988281 224.664062 C 584.894531 223.085938 585.722656 221.46875 586.472656 219.808594 C 587.222656 218.148438 587.894531 216.460938 588.484375 214.738281 C 589.070312 213.015625 589.578125 211.269531 589.996094 209.496094 C 590.417969 207.726562 590.753906 205.941406 591.003906 204.136719 C 591.253906 202.332031 591.417969 200.523438 591.496094 198.703125 C 591.5625 196.851562 591.535156 195 591.417969 193.148438 C 591.304688 191.296875 591.097656 189.457031 590.800781 187.625 C 590.5 185.792969 590.117188 183.980469 589.640625 182.1875 C 589.164062 180.394531 588.601562 178.632812 587.953125 176.894531 C 587.304688 175.15625 586.574219 173.453125 585.757812 171.789062 C 584.941406 170.121094 584.046875 168.5 583.070312 166.921875 C 582.097656 165.347656 581.046875 163.820312 579.921875 162.34375 C 578.796875 160.871094 577.601562 159.453125 576.335938 158.097656 C 575.074219 156.742188 573.746094 155.449219 572.355469 154.222656 C 570.960938 152.996094 569.515625 151.839844 568.011719 150.753906 C 566.503906 149.671875 564.949219 148.664062 563.347656 147.730469 C 561.742188 146.800781 560.097656 145.949219 558.410156 145.179688 C 556.722656 144.410156 555.003906 143.722656 553.246094 143.125 C 551.492188 142.523438 549.714844 142.007812 547.90625 141.582031 C 546.101562 141.15625 544.28125 140.820312 542.441406 140.574219 C 540.605469 140.328125 538.757812 140.171875 536.90625 140.105469 C 535.050781 140.039062 533.199219 140.0625 531.347656 140.179688 C 529.496094 140.296875 527.65625 140.503906 525.824219 140.800781 C 523.996094 141.097656 522.183594 141.484375 520.390625 141.960938 C 518.597656 142.433594 516.832031 142.996094 515.09375 143.644531 C 513.355469 144.292969 511.65625 145.027344 509.988281 145.84375 C 508.324219 146.660156 506.703125 147.554688 505.125 148.53125 C 503.546875 149.503906 502.023438 150.554688 500.546875 151.679688 C 499.074219 152.804688 497.65625 154 496.300781 155.265625 C 494.941406 156.527344 493.652344 157.855469 492.425781 159.25 C 491.199219 160.640625 490.042969 162.085938 488.957031 163.59375 C 487.875 165.097656 486.867188 166.652344 485.933594 168.253906 C 485.003906 169.859375 484.152344 171.503906 483.382812 173.191406 C 482.613281 174.878906 481.925781 176.601562 481.328125 178.355469 C 480.726562 180.109375 480.210938 181.890625 479.785156 183.695312 C 479.359375 185.5 479.023438 187.320312 478.777344 189.160156 C 478.53125 191 478.375 192.84375 478.308594 194.699219 C 478.242188 196.550781 478.269531 198.402344 478.386719 200.253906 C 478.5 202.105469 478.707031 203.945312 479.003906 205.777344 C 479.304688 207.609375 479.691406 209.417969 480.164062 211.210938 C 480.640625 213.003906 481.203125 214.769531 481.851562 216.507812 C 482.5 218.246094 483.234375 219.945312 484.046875 221.613281 C 484.863281 223.277344 485.761719 224.898438 486.734375 226.476562 C 487.710938 228.054688 488.761719 229.582031 489.886719 231.054688 C 491.011719 232.53125 492.207031 233.945312 493.472656 235.300781 C 494.734375 236.660156 496.0625 237.949219 497.453125 239.175781 C 498.847656 240.402344 500.292969 241.558594 501.796875 242.644531 C 503.304688 243.726562 504.859375 244.734375 506.460938 245.667969 C 508.066406 246.597656 509.710938 247.449219 511.398438 248.21875 C 513.085938 248.988281 514.808594 249.671875 516.5625 250.273438 C 518.316406 250.875 520.097656 251.386719 521.902344 251.8125 C 523.707031 252.238281 525.527344 252.578125 527.367188 252.824219 C 529.207031 253.070312 531.050781 253.226562 532.90625 253.292969 Z M 510.820312 172.75 C 512.394531 171.160156 514.113281 169.742188 515.972656 168.492188 C 517.828125 167.246094 519.792969 166.191406 521.859375 165.335938 C 523.925781 164.476562 526.054688 163.832031 528.25 163.398438 C 530.445312 162.960938 532.664062 162.75 534.902344 162.753906 L 536.847656 162.753906 C 537.960938 162.785156 539.070312 162.871094 540.175781 163.007812 C 541.28125 163.148438 542.378906 163.339844 543.464844 163.589844 C 544.554688 163.835938 545.625 164.136719 546.683594 164.488281 C 547.738281 164.839844 548.777344 165.242188 549.796875 165.699219 C 550.8125 166.152344 551.808594 166.65625 552.773438 167.207031 C 553.742188 167.757812 554.683594 168.355469 555.59375 169 C 556.503906 169.644531 557.378906 170.332031 558.21875 171.0625 C 559.0625 171.792969 559.867188 172.5625 560.632812 173.371094 C 561.398438 174.183594 562.125 175.027344 562.808594 175.90625 C 563.492188 176.789062 564.128906 177.699219 564.726562 178.644531 C 565.320312 179.585938 565.863281 180.554688 566.363281 181.554688 C 566.863281 182.550781 567.3125 183.570312 567.710938 184.609375 C 568.109375 185.652344 568.453125 186.710938 568.75 187.785156 C 569.042969 188.859375 569.285156 189.945312 569.472656 191.046875 C 569.660156 192.144531 569.792969 193.25 569.871094 194.363281 C 569.953125 195.472656 569.976562 196.585938 569.945312 197.699219 C 569.914062 198.816406 569.832031 199.925781 569.691406 201.03125 C 569.550781 202.136719 569.359375 203.234375 569.113281 204.320312 C 568.863281 205.40625 568.566406 206.480469 568.210938 207.539062 C 567.859375 208.59375 567.457031 209.632812 567.003906 210.652344 C 566.546875 211.667969 566.042969 212.660156 565.492188 213.628906 C 564.941406 214.597656 564.34375 215.539062 563.699219 216.449219 C 563.054688 217.355469 562.367188 218.234375 561.636719 219.074219 C 560.90625 219.917969 560.136719 220.722656 559.328125 221.488281 C 558.519531 222.253906 557.671875 222.980469 556.792969 223.664062 C 555.914062 224.347656 555 224.984375 554.058594 225.578125 C 553.113281 226.171875 552.144531 226.71875 551.144531 227.21875 C 550.148438 227.71875 549.128906 228.164062 548.089844 228.5625 C 547.046875 228.960938 545.988281 229.308594 544.914062 229.605469 C 543.839844 229.898438 542.753906 230.140625 541.652344 230.328125 C 540.554688 230.515625 539.449219 230.648438 538.339844 230.726562 C 537.226562 230.804688 536.113281 230.832031 535 230.800781 L 534.195312 230.800781 C 532.539062 230.761719 530.894531 230.601562 529.265625 230.324219 C 527.632812 230.042969 526.03125 229.648438 524.457031 229.136719 C 522.882812 228.621094 521.351562 227.996094 519.871094 227.261719 C 518.386719 226.527344 516.964844 225.6875 515.605469 224.742188 C 514.242188 223.796875 512.960938 222.761719 511.75 221.628906 C 510.539062 220.5 509.421875 219.289062 508.386719 217.992188 C 507.355469 216.699219 506.421875 215.335938 505.589844 213.90625 C 504.757812 212.476562 504.03125 210.992188 503.414062 209.453125 C 502.796875 207.917969 502.296875 206.34375 501.90625 204.734375 C 501.519531 203.125 501.25 201.496094 501.101562 199.847656 C 500.953125 198.199219 500.921875 196.546875 501.015625 194.894531 C 501.105469 193.242188 501.316406 191.605469 501.644531 189.984375 C 501.976562 188.359375 502.421875 186.769531 502.984375 185.214844 C 503.546875 183.65625 504.21875 182.148438 505 180.6875 C 505.78125 179.230469 506.664062 177.835938 507.652344 176.503906 C 508.636719 175.175781 509.714844 173.921875 510.882812 172.75 Z M 628.089844 345.800781 L 627.550781 346.160156 L 627.550781 332.214844 C 627.523438 330.382812 627.40625 328.558594 627.203125 326.738281 C 627 324.914062 626.707031 323.109375 626.328125 321.316406 C 625.953125 319.523438 625.488281 317.753906 624.941406 316.003906 C 624.390625 314.257812 623.761719 312.539062 623.046875 310.851562 C 622.335938 309.164062 621.542969 307.511719 620.667969 305.902344 C 619.796875 304.289062 618.851562 302.722656 617.828125 301.203125 C 616.804688 299.683594 615.710938 298.214844 614.546875 296.800781 C 613.382812 295.386719 612.152344 294.03125 610.859375 292.734375 C 609.566406 291.4375 608.210938 290.203125 606.796875 289.039062 C 605.386719 287.871094 603.921875 286.777344 602.402344 285.75 C 600.882812 284.722656 599.320312 283.773438 597.710938 282.898438 C 596.101562 282.023438 594.453125 281.226562 592.765625 280.511719 C 591.078125 279.792969 589.363281 279.160156 587.613281 278.609375 C 585.867188 278.058594 584.097656 277.589844 582.304688 277.210938 C 580.511719 276.828125 578.707031 276.535156 576.886719 276.328125 C 575.066406 276.117188 573.238281 276 571.40625 275.96875 C 546.804688 275.914062 522.199219 275.933594 497.589844 276.03125 C 495.988281 276.046875 494.386719 276.132812 492.789062 276.289062 C 491.195312 276.441406 489.605469 276.664062 488.03125 276.957031 C 486.453125 277.246094 484.890625 277.601562 483.34375 278.027344 C 481.796875 278.449219 480.269531 278.941406 478.765625 279.496094 C 477.261719 280.050781 475.78125 280.667969 474.328125 281.347656 C 472.875 282.027344 471.457031 282.769531 470.066406 283.574219 C 468.679688 284.375 467.328125 285.234375 466.011719 286.15625 C 464.695312 287.074219 463.421875 288.046875 462.191406 289.074219 C 460.960938 290.097656 459.773438 291.175781 458.632812 292.304688 C 457.492188 293.433594 456.40625 294.609375 455.367188 295.832031 C 454.324219 297.054688 453.339844 298.316406 452.410156 299.625 C 451.480469 300.929688 450.605469 302.273438 449.789062 303.652344 C 448.972656 305.035156 448.21875 306.449219 447.523438 307.894531 C 446.828125 309.339844 446.195312 310.8125 445.625 312.3125 C 445.054688 313.808594 444.550781 315.332031 444.113281 316.875 C 443.671875 318.417969 443.300781 319.976562 442.996094 321.550781 C 442.054688 329.886719 441.628906 338.25 441.722656 346.636719 L 441.113281 407.820312 L 627.460938 407.820312 Z M 604.460938 353.824219 L 604.28125 385.398438 L 463.683594 385.398438 L 464.1875 352.109375 C 464.1875 328.089844 464.257812 343.351562 464.292969 332.96875 C 464.28125 331.851562 464.320312 330.738281 464.417969 329.628906 C 464.515625 328.515625 464.664062 327.414062 464.871094 326.316406 C 465.074219 325.222656 465.332031 324.136719 465.644531 323.066406 C 465.957031 321.996094 466.316406 320.941406 466.734375 319.90625 C 467.148438 318.871094 467.613281 317.859375 468.125 316.871094 C 468.640625 315.878906 469.199219 314.917969 469.808594 313.984375 C 470.417969 313.046875 471.070312 312.144531 471.769531 311.277344 C 472.464844 310.40625 473.203125 309.570312 473.980469 308.773438 C 474.761719 307.976562 475.578125 307.21875 476.429688 306.5 C 477.285156 305.78125 478.171875 305.105469 479.089844 304.476562 C 480.011719 303.84375 480.957031 303.261719 481.933594 302.722656 C 482.914062 302.183594 483.914062 301.695312 484.9375 301.257812 C 485.964844 300.816406 487.007812 300.429688 488.070312 300.09375 C 489.132812 299.753906 490.210938 299.472656 491.300781 299.238281 C 492.390625 299.007812 493.492188 298.832031 494.601562 298.707031 C 495.707031 298.585938 496.820312 298.515625 497.9375 298.503906 L 498.75 298.503906 C 521.1875 298.433594 543.628906 298.433594 566.0625 298.503906 C 570.160156 298.386719 574.226562 298.679688 578.265625 299.386719 C 579.214844 299.589844 580.152344 299.832031 581.078125 300.113281 C 582.007812 300.398438 582.917969 300.722656 583.820312 301.085938 C 584.71875 301.445312 585.597656 301.847656 586.464844 302.285156 C 587.328125 302.726562 588.171875 303.199219 588.996094 303.714844 C 589.820312 304.226562 590.617188 304.773438 591.394531 305.351562 C 592.171875 305.933594 592.917969 306.546875 593.640625 307.195312 C 594.363281 307.839844 595.058594 308.515625 595.722656 309.222656 C 596.386719 309.929688 597.019531 310.664062 597.621094 311.425781 C 598.222656 312.1875 598.789062 312.972656 599.320312 313.78125 C 599.851562 314.589844 600.347656 315.421875 600.808594 316.277344 C 601.269531 317.128906 601.691406 318 602.078125 318.890625 C 602.464844 319.78125 602.808594 320.6875 603.117188 321.605469 C 603.421875 322.523438 603.6875 323.457031 603.914062 324.398438 C 604.140625 325.34375 604.324219 326.292969 604.46875 327.25 C 604.613281 328.210938 604.714844 329.175781 604.777344 330.140625 C 604.835938 331.109375 604.855469 332.078125 604.832031 333.046875 C 604.890625 348.679688 604.460938 320.285156 604.460938 353.824219 Z M 604.460938 353.824219 " fill-opacity="1" fill-rule="nonzero"/></g></svg>