<svg width="1013" height="1022" viewBox="0 0 1013 1022" fill="none" xmlns="http://www.w3.org/2000/svg">
<path fill-rule="evenodd" clip-rule="evenodd" d="M797.311 902.952C805.483 869.27 833.394 843.973 867.717 839.15C916.311 832.316 948.905 785.702 938.644 737.723C931.394 703.827 945.571 668.931 974.405 649.691C1015.22 622.457 1024.36 566.311 994.295 527.525C973.056 500.129 970.686 462.556 988.316 432.702C1013.27 390.452 997.149 335.91 953.243 314.014C922.212 298.54 903.769 265.712 906.712 231.165C910.858 182.275 872.665 140.118 823.603 139.447C788.946 138.967 758.076 117.389 745.733 84.9935C728.264 39.1393 675.566 17.7383 631.066 38.4153C599.629 53.0299 562.457 46.9778 537.29 23.1549C501.655 -10.5794 444.884 -7.00132 413.764 30.9362C391.774 57.7435 355.66 68.4101 322.644 57.8685C275.899 42.9362 226.306 70.8008 214.733 118.483C206.55 152.165 178.649 177.452 144.316 182.275C95.7274 189.108 63.1285 235.728 73.3941 283.707V283.712C80.6389 317.608 66.467 352.494 37.6337 371.733C-3.1788 398.978 -12.3246 455.124 17.7379 493.9C38.9774 521.296 41.3472 558.884 23.7222 588.723C-1.23609 630.973 14.8837 685.525 58.8004 707.421C89.8212 722.884 108.259 755.723 105.332 790.259C101.181 839.16 139.368 881.306 188.431 881.983C223.097 882.457 253.957 904.04 266.3 936.431C283.769 982.285 336.477 1003.69 380.972 983.009C412.415 968.395 449.571 974.457 474.754 998.28C510.389 1032.01 567.16 1028.44 598.274 990.488C620.259 963.691 656.368 953.014 689.399 963.561C736.139 978.488 785.738 950.639 797.311 902.952ZM405.524 618.134L712.655 310.993C728.024 295.629 752.946 295.629 768.316 310.993C783.681 326.363 783.681 351.285 768.316 366.655L452.941 682.014L424.118 710.848C409.3 725.665 385.274 725.665 370.457 710.848L341.634 682.014L243.727 584.108C228.358 568.738 228.358 543.827 243.727 528.462C259.097 513.092 284.019 513.092 299.384 528.462L389.061 618.134C393.602 622.676 400.977 622.676 405.524 618.134Z" fill="white"/>
</svg>
