<svg xmlns="http://www.w3.org/2000/svg" xmlns:xlink="http://www.w3.org/1999/xlink" width="1080" zoomAndPan="magnify" viewBox="0 0 810 809.999993" height="1080" preserveAspectRatio="xMidYMid meet" version="1.0"><defs><clipPath id="d7009c14cd"><path d="M 81 21.777344 L 772.5 21.777344 L 772.5 788.277344 L 81 788.277344 Z M 81 21.777344 " clip-rule="nonzero"/></clipPath></defs><g clip-path="url(#d7009c14cd)"><path fill="#ffffff" d="M 473.589844 657.363281 C 473.589844 670.449219 475.460938 682.601562 478.261719 694.75 L 81.023438 694.75 L 81.023438 171.328125 L 230.570312 171.328125 L 230.570312 320.878906 C 230.570312 331.160156 238.984375 339.570312 249.265625 339.570312 L 454.894531 339.570312 C 465.175781 339.570312 473.589844 331.160156 473.589844 320.878906 L 473.589844 171.328125 L 623.140625 171.328125 L 623.140625 490.054688 C 539.015625 499.402344 473.589844 571.371094 473.589844 657.363281 Z M 604.445312 133.941406 L 520.324219 21.777344 L 425.921875 21.777344 L 467.980469 133.941406 Z M 278.242188 21.777344 L 183.835938 21.777344 L 99.714844 133.941406 L 236.179688 133.941406 Z M 267.960938 302.183594 L 436.203125 302.183594 L 436.203125 171.328125 L 267.960938 171.328125 Z M 427.789062 133.941406 L 385.730469 21.777344 L 318.433594 21.777344 L 276.371094 133.941406 Z M 772.6875 657.363281 C 772.6875 729.335938 713.804688 788.21875 641.832031 788.21875 C 569.863281 788.21875 510.976562 729.335938 510.976562 657.363281 C 510.976562 585.394531 569.863281 526.507812 641.832031 526.507812 C 713.804688 526.507812 772.6875 585.394531 772.6875 657.363281 Z M 734.367188 618.105469 C 741.84375 610.628906 741.84375 598.480469 734.367188 591.9375 C 726.890625 584.457031 714.738281 584.457031 708.195312 591.9375 L 682.023438 618.105469 L 615.660156 684.46875 L 582.949219 651.753906 L 576.40625 645.210938 C 568.925781 637.734375 557.710938 637.734375 550.234375 645.210938 C 542.757812 652.691406 542.757812 663.90625 550.234375 671.382812 L 603.511719 724.660156 C 607.25 728.398438 611.921875 730.269531 616.597656 730.269531 C 621.269531 730.269531 625.941406 728.398438 629.683594 724.660156 Z M 734.367188 618.105469 " fill-opacity="1" fill-rule="nonzero"/></g></svg>