<svg xmlns="http://www.w3.org/2000/svg" xmlns:xlink="http://www.w3.org/1999/xlink" width="1080" zoomAndPan="magnify" viewBox="0 0 810 809.999993" height="1080" preserveAspectRatio="xMidYMid meet" version="1.0"><defs><clipPath id="55670ed614"><path d="M 8 69 L 802.75 69 L 802.75 774.761719 L 8 774.761719 Z M 8 69 " clip-rule="nonzero"/></clipPath></defs><g clip-path="url(#55670ed614)"><path fill="#ffffff" d="M 406.894531 71.800781 L 426.957031 124.636719 C 427.558594 126.226562 428.964844 127.246094 430.660156 127.328125 L 487.109375 130.078125 C 490.949219 130.265625 492.519531 135.101562 489.523438 137.511719 L 445.472656 172.917969 C 444.148438 173.980469 443.613281 175.632812 444.058594 177.269531 L 458.882812 231.808594 C 459.890625 235.515625 455.78125 238.503906 452.5625 236.398438 L 405.277344 205.445312 C 403.855469 204.515625 402.121094 204.515625 400.699219 205.445312 L 353.414062 236.402344 C 350.195312 238.503906 346.082031 235.515625 347.089844 231.808594 L 361.917969 177.269531 C 362.363281 175.632812 361.828125 173.980469 360.503906 172.917969 L 316.453125 137.511719 C 313.457031 135.101562 315.027344 130.265625 318.867188 130.078125 L 375.316406 127.328125 C 377.011719 127.246094 378.417969 126.226562 379.019531 124.636719 L 399.078125 71.800781 C 400.4375 68.226562 405.539062 68.226562 406.894531 71.800781 Z M 668.84375 506.5625 C 742.878906 506.5625 802.898438 566.582031 802.898438 640.617188 C 802.898438 714.65625 742.878906 774.671875 668.84375 774.671875 C 594.808594 774.671875 534.789062 714.65625 534.789062 640.617188 C 534.789062 566.578125 594.808594 506.5625 668.84375 506.5625 Z M 651.238281 652.441406 L 621.28125 622.488281 C 613.519531 614.726562 600.925781 614.726562 593.164062 622.488281 C 585.398438 630.25 585.398438 642.84375 593.164062 650.605469 L 637.21875 694.664062 C 644.980469 702.425781 657.574219 702.425781 665.335938 694.664062 C 691.890625 668.109375 718.144531 641.253906 744.578125 614.574219 C 752.285156 606.796875 752.261719 594.246094 744.492188 586.519531 C 736.722656 578.789062 724.132812 578.8125 716.417969 586.605469 Z M 402.988281 284.644531 C 457.972656 284.644531 502.542969 329.214844 502.542969 384.199219 C 502.542969 439.183594 457.972656 483.753906 402.988281 483.753906 C 348.007812 483.753906 303.433594 439.183594 303.433594 384.199219 C 303.433594 329.214844 348.007812 284.644531 402.988281 284.644531 Z M 226.59375 676.019531 L 512.238281 676.019531 C 509.675781 664.628906 508.3125 652.78125 508.3125 640.617188 C 508.3125 607.621094 518.273438 576.949219 535.347656 551.441406 C 500.382812 519.671875 453.953125 500.304688 402.988281 500.304688 C 308.367188 500.304688 229.339844 567.050781 210.40625 656.027344 C 208.203125 666.378906 216.007812 676.019531 226.59375 676.019531 Z M 796.441406 301.21875 L 760.714844 345.007812 C 759.640625 346.324219 759.460938 348.050781 760.238281 349.5625 L 786.078125 399.824219 C 787.835938 403.246094 784.433594 407.023438 780.851562 405.632812 L 728.164062 385.183594 C 726.578125 384.570312 724.878906 384.929688 723.683594 386.136719 L 683.867188 426.246094 C 681.160156 428.972656 676.515625 426.90625 676.730469 423.066406 L 679.894531 366.640625 C 679.992188 364.945312 679.121094 363.441406 677.605469 362.675781 L 627.15625 337.203125 C 623.726562 335.46875 624.257812 330.414062 627.972656 329.429688 L 682.613281 315.003906 C 684.257812 314.570312 685.417969 313.28125 685.679688 311.601562 L 694.316406 255.75 C 694.902344 251.949219 699.875 250.890625 701.957031 254.125 L 732.566406 301.636719 C 733.484375 303.0625 735.070312 303.769531 736.746094 303.496094 L 792.535156 294.453125 C 796.308594 293.839844 798.859375 298.257812 796.441406 301.21875 Z M 632.40625 134.320312 C 633.019531 130.546875 628.601562 127.996094 625.636719 130.410156 L 581.847656 166.140625 C 580.53125 167.214844 578.804688 167.394531 577.292969 166.617188 L 527.03125 140.777344 C 523.613281 139.019531 519.835938 142.421875 521.222656 146.003906 L 541.671875 198.691406 C 542.285156 200.277344 541.925781 201.972656 540.71875 203.171875 L 500.609375 242.988281 C 497.882812 245.695312 499.949219 250.339844 503.789062 250.125 L 560.214844 246.960938 C 561.910156 246.867188 563.414062 247.734375 564.179688 249.25 L 589.652344 299.699219 C 591.386719 303.132812 596.445312 302.601562 597.425781 298.886719 L 611.851562 244.242188 C 612.285156 242.601562 613.574219 241.4375 615.253906 241.179688 L 671.109375 232.542969 C 674.90625 231.953125 675.964844 226.980469 672.734375 224.898438 L 625.222656 194.289062 C 623.792969 193.371094 623.089844 191.785156 623.359375 190.109375 Z M 13.4375 294.449219 L 69.226562 303.496094 C 70.902344 303.765625 72.488281 303.0625 73.410156 301.632812 L 104.015625 254.125 C 106.097656 250.890625 111.074219 251.949219 111.660156 255.75 L 120.296875 311.601562 C 120.554688 313.28125 121.714844 314.570312 123.359375 315.003906 L 178.003906 329.433594 C 181.71875 330.414062 182.25 335.472656 178.820312 337.203125 L 128.371094 362.679688 C 126.855469 363.445312 125.988281 364.945312 126.082031 366.644531 L 129.246094 423.070312 C 129.460938 426.910156 124.816406 428.976562 122.109375 426.25 L 82.289062 386.136719 C 81.09375 384.929688 79.394531 384.570312 77.8125 385.183594 L 25.125 405.628906 C 21.539062 407.019531 18.136719 403.242188 19.894531 399.824219 L 45.738281 349.558594 C 46.515625 348.050781 46.332031 346.324219 45.257812 345.007812 L 9.53125 301.214844 C 7.117188 298.257812 9.667969 293.839844 13.4375 294.449219 Z M 180.335938 130.410156 C 177.375 127.996094 172.957031 130.546875 173.570312 134.320312 L 182.617188 190.105469 C 182.886719 191.78125 182.183594 193.367188 180.753906 194.289062 L 133.242188 224.894531 C 130.011719 226.976562 131.066406 231.949219 134.867188 232.539062 L 190.722656 241.175781 C 192.398438 241.433594 193.6875 242.59375 194.125 244.238281 L 208.550781 298.882812 C 209.53125 302.597656 214.589844 303.128906 216.324219 299.699219 L 241.796875 249.246094 C 242.5625 247.730469 244.0625 246.863281 245.761719 246.957031 L 302.1875 250.121094 C 306.023438 250.335938 308.09375 245.691406 305.363281 242.984375 L 265.253906 203.167969 C 264.050781 201.972656 263.691406 200.273438 264.304688 198.6875 L 284.75 146 C 286.140625 142.417969 282.363281 139.011719 278.945312 140.773438 L 228.683594 166.613281 C 227.171875 167.390625 225.445312 167.210938 224.128906 166.136719 Z M 180.335938 130.410156 " fill-opacity="1" fill-rule="evenodd"/></g></svg>