<svg xmlns="http://www.w3.org/2000/svg" xmlns:xlink="http://www.w3.org/1999/xlink" width="1080" zoomAndPan="magnify" viewBox="0 0 810 809.999993" height="1080" preserveAspectRatio="xMidYMid meet" version="1.0"><defs><clipPath id="8519e8c187"><path d="M 102.726562 406.441406 L 133.089844 406.441406 L 133.089844 436.800781 L 102.726562 436.800781 Z M 102.726562 406.441406 " clip-rule="nonzero"/></clipPath><clipPath id="6a3c94bf86"><path d="M 117.90625 406.441406 C 109.523438 406.441406 102.726562 413.238281 102.726562 421.621094 C 102.726562 430.003906 109.523438 436.800781 117.90625 436.800781 C 126.292969 436.800781 133.089844 430.003906 133.089844 421.621094 C 133.089844 413.238281 126.292969 406.441406 117.90625 406.441406 Z M 117.90625 406.441406 " clip-rule="nonzero"/></clipPath><clipPath id="f3d59be649"><path d="M 185.414062 414.554688 L 215.773438 414.554688 L 215.773438 444.917969 L 185.414062 444.917969 Z M 185.414062 414.554688 " clip-rule="nonzero"/></clipPath><clipPath id="5eaf7a92fb"><path d="M 200.59375 414.554688 C 192.210938 414.554688 185.414062 421.351562 185.414062 429.734375 C 185.414062 438.121094 192.210938 444.917969 200.59375 444.917969 C 208.976562 444.917969 215.773438 438.121094 215.773438 429.734375 C 215.773438 421.351562 208.976562 414.554688 200.59375 414.554688 Z M 200.59375 414.554688 " clip-rule="nonzero"/></clipPath><clipPath id="01e6bde0bb"><path d="M 268.273438 414.554688 L 298.636719 414.554688 L 298.636719 444.917969 L 268.273438 444.917969 Z M 268.273438 414.554688 " clip-rule="nonzero"/></clipPath><clipPath id="d5402a0409"><path d="M 283.453125 414.554688 C 275.070312 414.554688 268.273438 421.351562 268.273438 429.734375 C 268.273438 438.121094 275.070312 444.917969 283.453125 444.917969 C 291.839844 444.917969 298.636719 438.121094 298.636719 429.734375 C 298.636719 421.351562 291.839844 414.554688 283.453125 414.554688 Z M 283.453125 414.554688 " clip-rule="nonzero"/></clipPath><clipPath id="c1e4d45760"><path d="M 355.074219 410.941406 L 385.433594 410.941406 L 385.433594 441.300781 L 355.074219 441.300781 Z M 355.074219 410.941406 " clip-rule="nonzero"/></clipPath><clipPath id="3c85b4977d"><path d="M 370.253906 410.941406 C 361.867188 410.941406 355.074219 417.738281 355.074219 426.121094 C 355.074219 434.503906 361.867188 441.300781 370.253906 441.300781 C 378.636719 441.300781 385.433594 434.503906 385.433594 426.121094 C 385.433594 417.738281 378.636719 410.941406 370.253906 410.941406 Z M 370.253906 410.941406 " clip-rule="nonzero"/></clipPath><clipPath id="fec996d42c"><path d="M 441.871094 399.375 L 472.230469 399.375 L 472.230469 429.734375 L 441.871094 429.734375 Z M 441.871094 399.375 " clip-rule="nonzero"/></clipPath><clipPath id="c199425295"><path d="M 457.050781 399.375 C 448.667969 399.375 441.871094 406.171875 441.871094 414.554688 C 441.871094 422.941406 448.667969 429.734375 457.050781 429.734375 C 465.433594 429.734375 472.230469 422.941406 472.230469 414.554688 C 472.230469 406.171875 465.433594 399.375 457.050781 399.375 Z M 457.050781 399.375 " clip-rule="nonzero"/></clipPath><clipPath id="9b289345b9"><path d="M 523.605469 384.195312 L 553.964844 384.195312 L 553.964844 414.554688 L 523.605469 414.554688 Z M 523.605469 384.195312 " clip-rule="nonzero"/></clipPath><clipPath id="a183e2da62"><path d="M 538.785156 384.195312 C 530.402344 384.195312 523.605469 390.992188 523.605469 399.375 C 523.605469 407.757812 530.402344 414.554688 538.785156 414.554688 C 547.171875 414.554688 553.964844 407.757812 553.964844 399.375 C 553.964844 390.992188 547.171875 384.195312 538.785156 384.195312 Z M 538.785156 384.195312 " clip-rule="nonzero"/></clipPath><clipPath id="4551482838"><path d="M 606.375 360.765625 L 636.734375 360.765625 L 636.734375 391.125 L 606.375 391.125 Z M 606.375 360.765625 " clip-rule="nonzero"/></clipPath><clipPath id="c1665ee325"><path d="M 621.554688 360.765625 C 613.167969 360.765625 606.375 367.5625 606.375 375.945312 C 606.375 384.328125 613.167969 391.125 621.554688 391.125 C 629.9375 391.125 636.734375 384.328125 636.734375 375.945312 C 636.734375 367.5625 629.9375 360.765625 621.554688 360.765625 Z M 621.554688 360.765625 " clip-rule="nonzero"/></clipPath><clipPath id="af02677298"><path d="M 661 311 L 714 311 L 714 370 L 661 370 Z M 661 311 " clip-rule="nonzero"/></clipPath><clipPath id="f4da7fd8a3"><path d="M 692.722656 369.988281 L 661.539062 321.382812 L 697.519531 298.296875 L 728.703125 346.902344 Z M 692.722656 369.988281 " clip-rule="nonzero"/></clipPath><clipPath id="bd025a3e86"><path d="M 692.722656 369.988281 L 661.539062 321.382812 L 697.519531 298.296875 L 728.703125 346.902344 Z M 692.722656 369.988281 " clip-rule="nonzero"/></clipPath></defs><g clip-path="url(#8519e8c187)"><g clip-path="url(#6a3c94bf86)"><path fill="#b2bbc1" d="M 102.726562 406.441406 L 133.089844 406.441406 L 133.089844 436.800781 L 102.726562 436.800781 Z M 102.726562 406.441406 " fill-opacity="1" fill-rule="nonzero"/></g></g><g clip-path="url(#f3d59be649)"><g clip-path="url(#5eaf7a92fb)"><path fill="#b2bbc1" d="M 185.414062 414.554688 L 215.773438 414.554688 L 215.773438 444.917969 L 185.414062 444.917969 Z M 185.414062 414.554688 " fill-opacity="1" fill-rule="nonzero"/></g></g><g clip-path="url(#01e6bde0bb)"><g clip-path="url(#d5402a0409)"><path fill="#b2bbc1" d="M 268.273438 414.554688 L 298.636719 414.554688 L 298.636719 444.917969 L 268.273438 444.917969 Z M 268.273438 414.554688 " fill-opacity="1" fill-rule="nonzero"/></g></g><g clip-path="url(#c1e4d45760)"><g clip-path="url(#3c85b4977d)"><path fill="#b2bbc1" d="M 355.074219 410.941406 L 385.433594 410.941406 L 385.433594 441.300781 L 355.074219 441.300781 Z M 355.074219 410.941406 " fill-opacity="1" fill-rule="nonzero"/></g></g><g clip-path="url(#fec996d42c)"><g clip-path="url(#c199425295)"><path fill="#b2bbc1" d="M 441.871094 399.375 L 472.230469 399.375 L 472.230469 429.734375 L 441.871094 429.734375 Z M 441.871094 399.375 " fill-opacity="1" fill-rule="nonzero"/></g></g><g clip-path="url(#9b289345b9)"><g clip-path="url(#a183e2da62)"><path fill="#b2bbc1" d="M 523.605469 384.195312 L 553.964844 384.195312 L 553.964844 414.554688 L 523.605469 414.554688 Z M 523.605469 384.195312 " fill-opacity="1" fill-rule="nonzero"/></g></g><g clip-path="url(#4551482838)"><g clip-path="url(#c1665ee325)"><path fill="#b2bbc1" d="M 606.375 360.765625 L 636.734375 360.765625 L 636.734375 391.125 L 606.375 391.125 Z M 606.375 360.765625 " fill-opacity="1" fill-rule="nonzero"/></g></g><g clip-path="url(#af02677298)"><g clip-path="url(#f4da7fd8a3)"><g clip-path="url(#bd025a3e86)"><path fill="#b2bbc1" d="M 676.808594 311.933594 L 713.476562 322.539062 L 707.832031 360.289062 L 692.722656 369.984375 L 698.367188 332.234375 L 661.695312 321.628906 Z M 676.808594 311.933594 " fill-opacity="1" fill-rule="nonzero"/></g></g></g></svg>