<svg xmlns="http://www.w3.org/2000/svg" xmlns:xlink="http://www.w3.org/1999/xlink" width="1080" zoomAndPan="magnify" viewBox="0 0 810 809.999993" height="1080" preserveAspectRatio="xMidYMid meet" version="1.0"><defs><clipPath id="5e5405edb5"><path d="M 7 61.492188 L 808 61.492188 L 808 791 L 7 791 Z M 7 61.492188 " clip-rule="nonzero"/></clipPath></defs><g clip-path="url(#5e5405edb5)"><path fill="#00194c" d="M 641.769531 790.996094 C 633.757812 790.996094 625.746094 786.546875 615.066406 774.976562 C 610.617188 770.523438 607.054688 766.074219 603.496094 761.625 C 598.152344 753.613281 597.261719 743.820312 601.714844 734.917969 C 607.054688 724.238281 619.515625 718.898438 631.085938 721.566406 C 636.429688 723.347656 640.878906 722.457031 641.769531 722.457031 C 652.449219 717.117188 663.132812 719.789062 668.472656 727.800781 C 672.921875 734.917969 672.03125 743.820312 666.691406 754.503906 C 664.910156 757.171875 664.023438 761.625 663.132812 765.183594 C 660.460938 776.753906 656.011719 790.996094 641.769531 790.996094 Z M 639.097656 693.085938 C 631.976562 693.085938 624.855469 691.304688 618.625 687.742188 C 607.945312 682.402344 595.484375 680.625 579.460938 679.734375 C 534.066406 677.953125 518.042969 663.710938 514.484375 620.097656 C 514.484375 619.207031 512.703125 618.316406 508.253906 615.644531 C 502.910156 612.976562 492.230469 607.632812 494.011719 594.28125 C 485.109375 587.160156 482.441406 578.261719 482.441406 568.46875 L 461.96875 586.273438 C 458.40625 588.941406 455.734375 588.941406 453.066406 588.941406 C 450.394531 588.050781 447.726562 586.273438 446.835938 583.601562 C 432.59375 548.886719 402.328125 535.535156 374.734375 526.632812 C 368.503906 524.855469 362.273438 526.632812 356.042969 528.414062 C 353.375 529.304688 350.703125 530.195312 347.144531 531.085938 C 340.023438 532.863281 333.792969 533.753906 326.671875 534.644531 C 296.40625 539.984375 268.8125 545.328125 248.339844 569.359375 C 240.328125 579.152344 227.867188 584.492188 214.515625 584.492188 L 212.734375 584.492188 C 207.394531 584.492188 202.054688 584.492188 197.605469 584.492188 C 176.242188 584.492188 161.109375 588.050781 151.320312 608.523438 C 145.976562 618.316406 132.625 618.316406 128.175781 618.316406 C 109.484375 618.316406 83.671875 611.195312 72.988281 603.183594 C 70.320312 601.402344 68.539062 596.953125 69.429688 593.390625 C 81.890625 541.765625 57.855469 504.382812 32.042969 465.214844 C 27.59375 458.984375 24.03125 452.753906 19.582031 446.523438 C 16.023438 441.183594 15.132812 434.0625 17.800781 427.832031 C 19.582031 424.273438 21.363281 420.710938 24.921875 418.929688 C 24.03125 416.261719 22.253906 412.699219 19.582031 409.140625 C 16.023438 403.800781 12.460938 398.457031 10.679688 391.335938 C 0 339.710938 19.582031 312.117188 80.109375 290.753906 C 85.449219 288.976562 89.902344 287.195312 95.242188 285.414062 C 122.835938 276.511719 148.648438 268.503906 164.671875 243.578125 L 166.449219 240.019531 C 170.011719 234.679688 171.792969 232.898438 170.011719 226.667969 C 167.339844 217.765625 176.242188 209.753906 204.726562 189.28125 C 210.957031 184.832031 217.1875 180.382812 219.855469 177.710938 C 224.308594 172.371094 253.679688 139.4375 298.1875 139.4375 C 306.199219 139.4375 313.320312 140.328125 321.328125 142.105469 C 322.21875 129.644531 326.671875 118.074219 334.679688 109.171875 C 345.363281 96.710938 361.382812 89.589844 379.1875 88.699219 C 381.855469 88.699219 382.746094 87.808594 382.746094 87.808594 C 390.757812 79.800781 405 75.347656 418.351562 77.128906 C 426.363281 78.019531 433.484375 78.910156 440.605469 79.800781 C 450.394531 80.6875 461.078125 82.46875 471.757812 83.359375 C 479.769531 84.25 486 89.589844 488.671875 96.710938 C 491.339844 103.832031 490.449219 111.84375 485.109375 118.074219 C 482.441406 120.746094 480.660156 124.304688 477.988281 127.863281 C 471.757812 138.546875 474.429688 152.789062 484.21875 160.800781 L 492.230469 167.03125 C 509.144531 180.382812 525.164062 193.734375 543.855469 202.632812 C 544.746094 203.523438 546.527344 203.523438 547.417969 204.414062 C 550.089844 206.195312 552.757812 207.085938 554.539062 207.085938 C 554.539062 207.085938 555.429688 207.085938 556.320312 206.195312 L 560.769531 201.746094 C 566.109375 191.0625 567.890625 178.601562 570.558594 165.25 C 571.449219 162.578125 571.449219 159.019531 572.339844 156.347656 C 573.230469 149.226562 574.121094 142.105469 575.011719 134.984375 C 577.679688 110.0625 581.242188 83.359375 601.714844 61.996094 C 605.273438 64.667969 607.945312 63.777344 610.617188 63.777344 C 613.285156 63.777344 615.066406 64.667969 616.847656 66.449219 L 622.1875 71.789062 C 623.078125 72.679688 623.96875 74.457031 624.855469 76.238281 C 626.636719 83.359375 629.308594 90.480469 631.976562 97.601562 C 637.320312 110.0625 642.660156 123.414062 642.660156 139.4375 C 642.660156 139.4375 642.660156 139.4375 642.660156 140.328125 C 674.703125 151.007812 675.59375 176.820312 676.484375 197.292969 C 676.484375 207.976562 677.375 217.765625 680.933594 224.886719 C 683.605469 230.226562 685.382812 236.457031 686.273438 240.910156 C 689.835938 253.371094 691.617188 258.710938 704.078125 260.492188 C 714.757812 261.382812 728.109375 272.953125 730.78125 283.632812 C 737.902344 310.335938 747.691406 327.25 764.605469 339.710938 C 769.945312 343.273438 769.945312 348.613281 769.945312 353.0625 C 769.945312 354.84375 769.945312 358.402344 770.835938 359.292969 C 770.835938 359.292969 771.726562 360.183594 771.726562 360.183594 L 777.066406 365.523438 C 777.066406 365.523438 777.957031 366.414062 777.957031 367.304688 C 780.625 371.753906 783.296875 375.316406 786.855469 379.765625 C 797.539062 394.007812 810 409.140625 807.328125 430.503906 L 806.441406 436.734375 C 801.988281 482.128906 796.648438 529.304688 765.496094 570.25 C 745.910156 596.0625 727.21875 623.65625 718.320312 656.589844 C 713.867188 673.503906 705.855469 677.0625 699.625 677.0625 C 697.847656 677.0625 696.957031 677.0625 695.175781 676.171875 C 682.714844 671.722656 674.703125 675.28125 661.351562 685.074219 C 656.011719 690.414062 648 693.085938 639.097656 693.085938 Z M 639.097656 693.085938 " fill-opacity="1" fill-rule="nonzero"/></g><path fill="#00194c" d="M 624.855469 726.910156 C 616.847656 726.910156 609.726562 731.359375 606.164062 738.480469 C 602.605469 745.601562 603.496094 753.613281 607.945312 760.734375 C 610.617188 765.183594 614.175781 768.742188 618.625 773.195312 C 628.417969 782.984375 635.539062 787.4375 641.769531 787.4375 C 651.558594 787.4375 655.121094 777.644531 658.679688 765.183594 C 659.570312 760.734375 661.351562 756.28125 663.132812 753.613281 C 667.582031 744.710938 668.472656 736.699219 664.910156 731.359375 C 661.351562 725.128906 652.449219 724.238281 644.4375 727.800781 C 642.660156 728.6875 639.097656 729.578125 630.199219 727.800781 C 628.417969 726.910156 626.636719 726.910156 624.855469 726.910156 Z M 485.109375 559.566406 L 486 568.46875 C 486 575.589844 487.78125 584.492188 495.792969 590.722656 L 497.570312 592.503906 L 497.570312 595.171875 C 495.792969 604.074219 502.023438 608.523438 509.144531 611.195312 C 513.59375 613.863281 517.152344 615.644531 518.042969 619.207031 C 521.605469 660.152344 535.847656 673.503906 579.460938 675.28125 C 596.375 676.171875 609.726562 677.0625 621.296875 683.292969 C 634.648438 690.414062 650.671875 689.523438 662.242188 680.625 C 675.59375 670.832031 685.382812 666.382812 699.625 670.832031 C 700.515625 670.832031 701.40625 671.722656 702.296875 671.722656 C 710.308594 671.722656 714.757812 661.929688 716.539062 654.808594 C 725.4375 621.875 745.023438 593.390625 764.605469 567.578125 C 794.867188 527.523438 799.320312 481.238281 804.660156 435.84375 L 805.550781 429.613281 C 807.328125 410.03125 796.648438 395.789062 785.96875 381.546875 C 782.40625 377.097656 779.734375 373.535156 777.066406 369.085938 C 777.066406 369.085938 777.066406 368.195312 776.175781 368.195312 L 770.835938 362.855469 C 768.164062 361.074219 768.164062 357.511719 767.273438 353.0625 C 767.273438 348.613281 766.382812 345.050781 763.714844 343.273438 C 745.910156 330.808594 735.230469 313.007812 728.109375 284.523438 C 726.328125 275.625 713.867188 265.832031 704.96875 264.050781 C 689.835938 262.273438 687.164062 254.261719 683.605469 240.910156 C 682.714844 235.566406 680.933594 230.226562 678.261719 225.777344 C 673.8125 217.765625 673.8125 207.085938 673.8125 196.402344 C 672.921875 175.929688 672.921875 152.789062 643.550781 143.886719 L 640.878906 142.996094 L 639.988281 138.546875 C 639.988281 124.304688 634.648438 110.953125 630.199219 98.492188 C 627.527344 91.371094 623.96875 84.25 622.1875 77.128906 C 622.1875 76.238281 621.296875 75.347656 621.296875 75.347656 L 613.285156 69.117188 C 612.394531 68.226562 611.503906 68.226562 610.617188 68.226562 C 608.835938 68.226562 607.945312 69.117188 607.054688 70.007812 C 587.472656 90.480469 584.800781 115.402344 581.242188 140.328125 C 580.351562 148.335938 579.460938 155.457031 577.679688 161.6875 C 576.792969 164.359375 576.792969 167.03125 575.902344 169.699219 C 573.230469 183.050781 571.449219 195.511719 566.109375 207.085938 L 560.769531 212.425781 C 558.988281 215.097656 557.207031 215.097656 556.320312 215.097656 C 553.648438 215.097656 550.085938 213.316406 546.527344 211.535156 C 545.636719 210.644531 543.855469 209.753906 542.96875 209.753906 C 523.382812 200.855469 507.363281 187.503906 490.449219 174.152344 L 482.441406 167.921875 C 470.867188 158.128906 467.308594 142.105469 475.320312 128.753906 C 477.097656 125.195312 479.769531 121.632812 482.441406 118.074219 C 486 113.625 487.78125 107.390625 485.109375 101.160156 C 482.441406 94.929688 477.988281 91.371094 471.757812 90.480469 C 460.1875 88.699219 450.394531 87.808594 440.605469 86.921875 C 433.484375 86.03125 425.472656 85.140625 418.351562 84.25 C 405.890625 82.46875 393.429688 86.03125 386.308594 93.152344 L 385.417969 94.039062 C 384.527344 94.039062 382.746094 94.929688 380.078125 94.929688 C 363.164062 95.820312 348.03125 102.050781 338.242188 113.625 C 331.121094 121.632812 326.671875 132.316406 325.78125 143.886719 L 325.78125 149.226562 L 320.441406 147.449219 C 313.320312 145.667969 306.199219 144.777344 299.078125 144.777344 C 256.351562 144.777344 227.867188 177.710938 224.308594 181.273438 C 220.746094 184.832031 214.515625 188.390625 208.285156 193.734375 C 180.691406 213.316406 173.570312 219.546875 175.351562 225.777344 C 177.132812 233.789062 175.351562 236.457031 171.792969 242.6875 L 170.011719 246.25 C 153.097656 272.953125 126.394531 280.964844 97.910156 289.863281 C 92.570312 291.644531 87.230469 293.425781 82.78125 295.207031 C 24.921875 314.789062 6.230469 340.601562 16.023438 390.449219 C 16.910156 396.679688 20.472656 402.019531 24.03125 406.46875 C 26.703125 410.917969 28.484375 413.589844 30.265625 417.152344 L 31.152344 419.820312 L 28.484375 421.601562 C 25.8125 423.382812 24.03125 426.050781 23.144531 428.722656 C 21.363281 433.171875 21.363281 438.511719 24.921875 442.964844 C 28.484375 449.195312 32.933594 454.535156 36.496094 460.765625 L 37.382812 461.65625 C 64.089844 501.710938 88.121094 539.984375 75.660156 593.390625 C 75.660156 595.171875 75.660156 596.953125 77.441406 597.84375 C 88.121094 604.964844 113.042969 612.085938 129.957031 612.085938 C 133.515625 612.085938 145.089844 612.085938 148.648438 604.964844 C 160.21875 583.601562 177.132812 579.152344 199.382812 579.152344 C 203.835938 579.152344 209.175781 579.152344 214.515625 579.152344 L 216.296875 579.152344 C 227.867188 579.152344 239.441406 573.808594 246.558594 564.910156 C 267.921875 539.09375 297.296875 533.753906 327.558594 528.414062 C 334.679688 527.523438 340.910156 525.742188 348.03125 524.855469 C 350.703125 523.964844 353.375 523.074219 356.042969 522.183594 C 363.164062 520.402344 370.285156 518.625 377.40625 520.402344 C 405.890625 529.304688 437.042969 543.546875 452.175781 580.039062 C 453.066406 580.929688 453.957031 582.710938 454.847656 582.710938 C 456.625 582.710938 457.515625 582.710938 458.40625 581.820312 Z M 485.109375 559.566406 " fill-opacity="1" fill-rule="nonzero"/></svg>