<svg xmlns="http://www.w3.org/2000/svg" xmlns:xlink="http://www.w3.org/1999/xlink" width="1080" zoomAndPan="magnify" viewBox="0 0 810 809.999993" height="1080" preserveAspectRatio="xMidYMid meet" version="1.0"><defs><clipPath id="d4bc82a22a"><path d="M 27.511719 100 L 513 100 L 513 807 L 27.511719 807 Z M 27.511719 100 " clip-rule="nonzero"/></clipPath></defs><path fill="#ffffff" d="M 211.226562 665.101562 C 211.796875 665.101562 212.371094 665.132812 212.941406 665.1875 C 213.511719 665.242188 214.074219 665.328125 214.636719 665.4375 C 215.199219 665.550781 215.753906 665.691406 216.304688 665.855469 C 216.851562 666.023438 217.390625 666.214844 217.921875 666.433594 C 218.449219 666.652344 218.96875 666.898438 219.472656 667.167969 C 219.976562 667.4375 220.46875 667.734375 220.945312 668.050781 C 221.421875 668.371094 221.882812 668.710938 222.324219 669.074219 C 222.765625 669.4375 223.191406 669.820312 223.597656 670.226562 C 224 670.632812 224.386719 671.054688 224.75 671.5 C 225.113281 671.941406 225.453125 672.402344 225.773438 672.878906 C 226.089844 673.355469 226.386719 673.847656 226.65625 674.351562 C 226.925781 674.855469 227.167969 675.375 227.390625 675.902344 C 227.609375 676.433594 227.800781 676.972656 227.96875 677.519531 C 228.132812 678.070312 228.273438 678.625 228.386719 679.1875 C 228.496094 679.746094 228.582031 680.3125 228.636719 680.882812 C 228.691406 681.453125 228.722656 682.027344 228.722656 682.597656 C 228.722656 683.171875 228.691406 683.742188 228.636719 684.3125 C 228.582031 684.882812 228.496094 685.449219 228.386719 686.011719 C 228.273438 686.574219 228.132812 687.128906 227.96875 687.679688 C 227.800781 688.226562 227.609375 688.765625 227.390625 689.292969 C 227.167969 689.824219 226.925781 690.339844 226.65625 690.847656 C 226.386719 691.351562 226.089844 691.84375 225.773438 692.320312 C 225.453125 692.796875 225.113281 693.253906 224.75 693.699219 C 224.386719 694.140625 224 694.566406 223.597656 694.972656 C 223.191406 695.375 222.765625 695.761719 222.324219 696.125 C 221.882812 696.488281 221.421875 696.828125 220.945312 697.148438 C 220.46875 697.464844 219.976562 697.757812 219.472656 698.03125 C 218.96875 698.300781 218.449219 698.542969 217.921875 698.761719 C 217.390625 698.984375 216.851562 699.175781 216.304688 699.34375 C 215.753906 699.507812 215.199219 699.648438 214.636719 699.757812 C 214.074219 699.871094 213.511719 699.953125 212.941406 700.011719 C 212.371094 700.066406 211.796875 700.09375 211.226562 700.09375 C 208.285156 700.078125 205.355469 699.921875 202.433594 699.625 C 199.511719 699.324219 196.609375 698.882812 193.726562 698.304688 C 190.847656 697.726562 188 697.007812 185.191406 696.152344 C 182.378906 695.296875 179.617188 694.308594 176.902344 693.1875 C 174.183594 692.066406 171.53125 690.816406 168.9375 689.4375 C 166.339844 688.058594 163.820312 686.554688 161.371094 684.933594 C 158.921875 683.3125 156.554688 681.574219 154.273438 679.722656 C 151.992188 677.871094 149.804688 675.914062 147.710938 673.851562 C 145.632812 671.789062 143.660156 669.628906 141.796875 667.371094 C 139.929688 665.117188 138.183594 662.773438 136.546875 660.339844 C 134.914062 657.910156 133.40625 655.40625 132.019531 652.828125 C 130.636719 650.246094 129.382812 647.605469 128.257812 644.902344 C 127.132812 642.195312 126.148438 639.445312 125.296875 636.644531 C 124.445312 633.839844 123.734375 631.003906 123.164062 628.132812 C 122.59375 625.261719 122.167969 622.367188 121.886719 619.453125 C 121.601562 616.539062 121.460938 613.617188 121.46875 610.6875 L 121.46875 40.746094 C 121.46875 40.171875 121.496094 39.601562 121.550781 39.03125 C 121.609375 38.460938 121.691406 37.894531 121.804688 37.332031 C 121.917969 36.769531 122.054688 36.214844 122.222656 35.664062 C 122.386719 35.117188 122.582031 34.578125 122.800781 34.050781 C 123.019531 33.519531 123.265625 33.003906 123.535156 32.496094 C 123.804688 31.992188 124.097656 31.5 124.417969 31.023438 C 124.734375 30.546875 125.078125 30.089844 125.441406 29.644531 C 125.804688 29.203125 126.1875 28.777344 126.59375 28.371094 C 126.996094 27.96875 127.421875 27.582031 127.863281 27.21875 C 128.308594 26.855469 128.769531 26.515625 129.242188 26.195312 C 129.71875 25.878906 130.210938 25.585938 130.71875 25.3125 C 131.222656 25.042969 131.738281 24.800781 132.269531 24.578125 C 132.796875 24.359375 133.335938 24.167969 133.886719 24 C 134.433594 23.835938 134.988281 23.695312 135.550781 23.585938 C 136.113281 23.472656 136.679688 23.386719 137.25 23.332031 C 137.820312 23.277344 138.390625 23.25 138.964844 23.25 L 566.136719 23.25 C 566.710938 23.25 567.285156 23.277344 567.855469 23.332031 C 568.425781 23.386719 568.988281 23.472656 569.550781 23.585938 C 570.113281 23.695312 570.667969 23.835938 571.21875 24 C 571.765625 24.167969 572.304688 24.359375 572.835938 24.578125 C 573.363281 24.800781 573.882812 25.042969 574.386719 25.3125 C 574.890625 25.585938 575.382812 25.878906 575.859375 26.195312 C 576.335938 26.515625 576.796875 26.855469 577.238281 27.21875 C 577.679688 27.582031 578.105469 27.96875 578.511719 28.371094 C 578.914062 28.777344 579.300781 29.203125 579.664062 29.644531 C 580.027344 30.089844 580.367188 30.546875 580.6875 31.023438 C 581.003906 31.5 581.300781 31.992188 581.570312 32.496094 C 581.839844 33.003906 582.082031 33.519531 582.304688 34.050781 C 582.523438 34.578125 582.714844 35.117188 582.882812 35.664062 C 583.046875 36.214844 583.1875 36.769531 583.300781 37.332031 C 583.410156 37.894531 583.496094 38.460938 583.550781 39.03125 C 583.605469 39.601562 583.636719 40.171875 583.636719 40.746094 L 583.636719 196.8125 C 583.636719 197.386719 583.605469 197.957031 583.550781 198.527344 C 583.496094 199.097656 583.410156 199.664062 583.300781 200.226562 C 583.1875 200.789062 583.046875 201.34375 582.882812 201.890625 C 582.714844 202.441406 582.523438 202.976562 582.304688 203.507812 C 582.082031 204.039062 581.839844 204.554688 581.570312 205.058594 C 581.300781 205.566406 581.003906 206.054688 580.6875 206.53125 C 580.367188 207.007812 580.027344 207.46875 579.664062 207.910156 C 579.300781 208.355469 578.914062 208.777344 578.511719 209.183594 C 578.105469 209.589844 577.679688 209.972656 577.238281 210.335938 C 576.796875 210.699219 576.335938 211.042969 575.859375 211.359375 C 575.382812 211.679688 574.890625 211.972656 574.386719 212.242188 C 573.882812 212.511719 573.363281 212.757812 572.835938 212.976562 C 572.304688 213.195312 571.765625 213.390625 571.21875 213.554688 C 570.667969 213.722656 570.113281 213.859375 569.550781 213.972656 C 568.988281 214.085938 568.425781 214.167969 567.855469 214.222656 C 567.285156 214.28125 566.710938 214.308594 566.136719 214.308594 C 565.566406 214.308594 564.992188 214.28125 564.421875 214.222656 C 563.851562 214.167969 563.289062 214.085938 562.726562 213.972656 C 562.164062 213.859375 561.609375 213.722656 561.058594 213.554688 C 560.511719 213.390625 559.972656 213.195312 559.441406 212.976562 C 558.914062 212.757812 558.394531 212.511719 557.890625 212.242188 C 557.386719 211.972656 556.894531 211.679688 556.417969 211.359375 C 555.941406 211.042969 555.480469 210.699219 555.039062 210.335938 C 554.597656 209.972656 554.171875 209.589844 553.765625 209.183594 C 553.363281 208.777344 552.976562 208.355469 552.613281 207.910156 C 552.25 207.46875 551.910156 207.007812 551.589844 206.53125 C 551.273438 206.054688 550.976562 205.566406 550.707031 205.058594 C 550.4375 204.554688 550.191406 204.039062 549.972656 203.507812 C 549.753906 202.976562 549.5625 202.441406 549.394531 201.890625 C 549.230469 201.34375 549.089844 200.789062 548.976562 200.226562 C 548.867188 199.664062 548.78125 199.097656 548.726562 198.527344 C 548.671875 197.957031 548.640625 197.386719 548.640625 196.8125 L 548.640625 58.414062 L 156.722656 58.414062 L 156.722656 610.6875 C 156.707031 614.261719 157.042969 617.800781 157.738281 621.308594 C 158.429688 624.8125 159.460938 628.214844 160.835938 631.511719 C 162.210938 634.8125 163.902344 637.941406 165.902344 640.898438 C 167.90625 643.859375 170.183594 646.589844 172.734375 649.09375 C 175.253906 651.632812 178 653.898438 180.96875 655.890625 C 183.941406 657.886719 187.074219 659.570312 190.378906 660.945312 C 193.683594 662.316406 197.085938 663.355469 200.597656 664.054688 C 204.105469 664.753906 207.648438 665.105469 211.226562 665.101562 Z M 548.378906 373.613281 C 548.378906 373.039062 548.40625 372.46875 548.464844 371.898438 C 548.519531 371.328125 548.605469 370.761719 548.714844 370.199219 C 548.828125 369.636719 548.96875 369.082031 549.132812 368.535156 C 549.300781 367.984375 549.492188 367.445312 549.710938 366.917969 C 549.929688 366.386719 550.175781 365.871094 550.445312 365.367188 C 550.714844 364.859375 551.011719 364.367188 551.328125 363.890625 C 551.648438 363.417969 551.988281 362.957031 552.351562 362.511719 C 552.714844 362.070312 553.097656 361.644531 553.503906 361.242188 C 553.910156 360.835938 554.332031 360.453125 554.777344 360.089844 C 555.21875 359.726562 555.679688 359.382812 556.15625 359.066406 C 556.632812 358.746094 557.125 358.453125 557.628906 358.183594 C 558.132812 357.914062 558.652344 357.667969 559.179688 357.449219 C 559.710938 357.230469 560.25 357.035156 560.796875 356.871094 C 561.34375 356.703125 561.902344 356.566406 562.460938 356.453125 C 563.023438 356.339844 563.589844 356.257812 564.160156 356.199219 C 564.730469 356.144531 565.304688 356.117188 565.875 356.117188 C 566.449219 356.117188 567.019531 356.144531 567.589844 356.199219 C 568.160156 356.257812 568.726562 356.339844 569.289062 356.453125 C 569.851562 356.566406 570.40625 356.703125 570.957031 356.871094 C 571.503906 357.035156 572.042969 357.230469 572.570312 357.449219 C 573.101562 357.667969 573.617188 357.914062 574.125 358.183594 C 574.628906 358.453125 575.121094 358.746094 575.597656 359.066406 C 576.074219 359.382812 576.53125 359.726562 576.976562 360.089844 C 577.417969 360.453125 577.84375 360.835938 578.246094 361.242188 C 578.652344 361.644531 579.039062 362.070312 579.402344 362.511719 C 579.765625 362.957031 580.105469 363.417969 580.421875 363.890625 C 580.742188 364.367188 581.035156 364.859375 581.304688 365.367188 C 581.578125 365.871094 581.820312 366.386719 582.039062 366.917969 C 582.261719 367.445312 582.453125 367.984375 582.617188 368.535156 C 582.785156 369.082031 582.925781 369.636719 583.035156 370.199219 C 583.148438 370.761719 583.230469 371.328125 583.289062 371.898438 C 583.34375 372.46875 583.371094 373.039062 583.371094 373.613281 L 583.371094 505.535156 C 583.371094 506.109375 583.34375 506.679688 583.289062 507.25 C 583.230469 507.820312 583.148438 508.386719 583.035156 508.949219 C 582.925781 509.511719 582.785156 510.066406 582.617188 510.613281 C 582.453125 511.164062 582.261719 511.703125 582.039062 512.230469 C 581.820312 512.761719 581.578125 513.277344 581.304688 513.785156 C 581.035156 514.289062 580.742188 514.78125 580.421875 515.257812 C 580.105469 515.734375 579.765625 516.191406 579.402344 516.636719 C 579.039062 517.078125 578.652344 517.503906 578.246094 517.90625 C 577.84375 518.3125 577.417969 518.695312 576.976562 519.0625 C 576.53125 519.425781 576.074219 519.765625 575.597656 520.082031 C 575.121094 520.402344 574.628906 520.695312 574.125 520.964844 C 573.617188 521.234375 573.101562 521.480469 572.570312 521.699219 C 572.042969 521.917969 571.503906 522.113281 570.957031 522.277344 C 570.40625 522.445312 569.851562 522.585938 569.289062 522.695312 C 568.726562 522.808594 568.160156 522.890625 567.589844 522.949219 C 567.019531 523.003906 566.449219 523.03125 565.875 523.03125 C 565.304688 523.03125 564.730469 523.003906 564.160156 522.949219 C 563.589844 522.890625 563.023438 522.808594 562.460938 522.695312 C 561.902344 522.585938 561.34375 522.445312 560.796875 522.277344 C 560.25 522.113281 559.710938 521.917969 559.179688 521.699219 C 558.652344 521.480469 558.132812 521.234375 557.628906 520.964844 C 557.125 520.695312 556.632812 520.402344 556.15625 520.082031 C 555.679688 519.765625 555.21875 519.425781 554.777344 519.0625 C 554.332031 518.695312 553.910156 518.3125 553.503906 517.90625 C 553.097656 517.503906 552.714844 517.078125 552.351562 516.636719 C 551.988281 516.191406 551.648438 515.734375 551.328125 515.257812 C 551.011719 514.78125 550.714844 514.289062 550.445312 513.785156 C 550.175781 513.277344 549.929688 512.761719 549.710938 512.230469 C 549.492188 511.703125 549.300781 511.164062 549.132812 510.613281 C 548.96875 510.066406 548.828125 509.511719 548.714844 508.949219 C 548.605469 508.386719 548.519531 507.820312 548.464844 507.25 C 548.40625 506.679688 548.378906 506.109375 548.378906 505.535156 Z M 548.378906 373.613281 " fill-opacity="1" fill-rule="nonzero"/><path fill="#ffffff" d="M 272.722656 542.191406 L 638.136719 542.191406 C 638.710938 542.191406 639.28125 542.21875 639.851562 542.273438 C 640.421875 542.332031 640.988281 542.414062 641.550781 542.527344 C 642.113281 542.640625 642.667969 542.777344 643.214844 542.945312 C 643.761719 543.109375 644.300781 543.304688 644.832031 543.523438 C 645.359375 543.742188 645.878906 543.988281 646.382812 544.257812 C 646.890625 544.527344 647.378906 544.820312 647.855469 545.140625 C 648.332031 545.457031 648.792969 545.796875 649.234375 546.164062 C 649.679688 546.527344 650.101562 546.910156 650.507812 547.316406 C 650.914062 547.71875 651.296875 548.144531 651.660156 548.585938 C 652.023438 549.03125 652.367188 549.488281 652.683594 549.964844 C 653.003906 550.441406 653.296875 550.933594 653.566406 551.4375 C 653.835938 551.945312 654.082031 552.460938 654.300781 552.992188 C 654.519531 553.519531 654.710938 554.058594 654.878906 554.609375 C 655.046875 555.15625 655.183594 555.710938 655.296875 556.273438 C 655.40625 556.835938 655.492188 557.402344 655.546875 557.972656 C 655.605469 558.542969 655.632812 559.113281 655.632812 559.6875 L 655.632812 620.925781 C 655.65625 623.539062 655.550781 626.152344 655.3125 628.753906 C 655.078125 631.359375 654.710938 633.949219 654.21875 636.515625 C 653.722656 639.085938 653.101562 641.625 652.355469 644.128906 C 651.609375 646.636719 650.738281 649.101562 649.746094 651.519531 C 648.753906 653.941406 647.640625 656.304688 646.414062 658.617188 C 645.183594 660.925781 643.84375 663.167969 642.390625 665.34375 C 640.941406 667.519531 639.382812 669.617188 637.722656 671.636719 C 636.0625 673.660156 634.304688 675.59375 632.449219 677.4375 C 630.609375 679.261719 628.683594 680.992188 626.675781 682.632812 C 624.667969 684.269531 622.585938 685.804688 620.425781 687.242188 C 618.269531 688.675781 616.046875 690.003906 613.757812 691.222656 C 611.472656 692.441406 609.132812 693.546875 606.738281 694.539062 C 604.34375 695.53125 601.90625 696.402344 599.425781 697.15625 C 596.945312 697.910156 594.4375 698.542969 591.894531 699.054688 C 589.355469 699.566406 586.796875 699.953125 584.214844 700.210938 C 581.636719 700.472656 579.054688 700.609375 576.460938 700.621094 L 211.226562 700.621094 L 211.226562 665.628906 C 214.105469 665.621094 216.957031 665.332031 219.78125 664.761719 C 222.601562 664.195312 225.34375 663.355469 228 662.242188 C 230.65625 661.132812 233.179688 659.773438 235.570312 658.164062 C 237.957031 656.554688 240.164062 654.726562 242.191406 652.679688 L 242.980469 651.894531 C 244.929688 649.890625 246.664062 647.722656 248.191406 645.386719 C 249.71875 643.050781 251.007812 640.585938 252.054688 638 C 253.105469 635.414062 253.898438 632.75 254.429688 630.011719 C 254.964844 627.269531 255.230469 624.503906 255.226562 621.710938 L 255.226562 560.472656 C 255.226562 559.902344 255.257812 559.328125 255.3125 558.757812 C 255.367188 558.1875 255.453125 557.625 255.5625 557.0625 C 255.675781 556.5 255.816406 555.945312 255.980469 555.394531 C 256.148438 554.847656 256.339844 554.308594 256.558594 553.777344 C 256.777344 553.25 257.023438 552.730469 257.292969 552.226562 C 257.5625 551.722656 257.859375 551.230469 258.175781 550.753906 C 258.496094 550.277344 258.835938 549.816406 259.199219 549.375 C 259.5625 548.933594 259.949219 548.507812 260.351562 548.101562 C 260.757812 547.699219 261.183594 547.3125 261.625 546.949219 C 262.066406 546.585938 262.527344 546.246094 263.003906 545.925781 C 263.480469 545.609375 263.972656 545.3125 264.476562 545.042969 C 264.980469 544.773438 265.5 544.527344 266.027344 544.308594 C 266.558594 544.089844 267.097656 543.898438 267.644531 543.730469 C 268.195312 543.566406 268.75 543.425781 269.3125 543.3125 C 269.875 543.203125 270.4375 543.117188 271.007812 543.0625 C 271.578125 543.007812 272.152344 542.976562 272.722656 542.976562 Z M 620.640625 577.183594 L 290.832031 577.183594 L 290.832031 620.925781 C 290.816406 624.800781 290.519531 628.65625 289.933594 632.488281 C 289.347656 636.320312 288.488281 640.089844 287.34375 643.796875 C 286.203125 647.5 284.796875 651.101562 283.125 654.597656 C 281.449219 658.097656 279.53125 661.453125 277.359375 664.664062 L 576.636719 664.664062 C 579.523438 664.652344 582.378906 664.355469 585.207031 663.78125 C 588.035156 663.210938 590.78125 662.367188 593.441406 661.257812 C 596.105469 660.148438 598.636719 658.789062 601.035156 657.183594 C 603.433594 655.578125 605.652344 653.757812 607.691406 651.71875 C 609.75 649.699219 611.589844 647.5 613.207031 645.113281 C 614.824219 642.726562 616.191406 640.203125 617.300781 637.546875 C 618.414062 634.886719 619.25 632.140625 619.8125 629.316406 C 620.375 626.488281 620.652344 623.632812 620.640625 620.75 Z M 620.640625 577.183594 " fill-opacity="1" fill-rule="nonzero"/><g clip-path="url(#d4bc82a22a)"><path fill="#ffffff" d="M 477.082031 732.375 C 477.082031 731.804688 477.109375 731.230469 477.167969 730.660156 C 477.222656 730.089844 477.304688 729.523438 477.417969 728.960938 C 477.53125 728.402344 477.667969 727.84375 477.835938 727.296875 C 478 726.75 478.195312 726.210938 478.414062 725.679688 C 478.632812 725.152344 478.878906 724.632812 479.148438 724.128906 C 479.417969 723.621094 479.710938 723.132812 480.03125 722.65625 C 480.347656 722.179688 480.691406 721.71875 481.054688 721.277344 C 481.417969 720.832031 481.800781 720.410156 482.207031 720.003906 C 482.613281 719.597656 483.035156 719.214844 483.480469 718.851562 C 483.921875 718.488281 484.382812 718.148438 484.859375 717.828125 C 485.335938 717.511719 485.824219 717.214844 486.332031 716.945312 C 486.835938 716.675781 487.351562 716.429688 487.882812 716.210938 C 488.414062 715.992188 488.949219 715.800781 489.5 715.632812 C 490.046875 715.46875 490.601562 715.328125 491.164062 715.214844 C 491.726562 715.105469 492.292969 715.019531 492.863281 714.964844 C 493.433594 714.90625 494.003906 714.878906 494.578125 714.878906 C 495.152344 714.878906 495.722656 714.90625 496.292969 714.964844 C 496.863281 715.019531 497.429688 715.105469 497.992188 715.214844 C 498.554688 715.328125 499.109375 715.46875 499.65625 715.632812 C 500.207031 715.800781 500.746094 715.992188 501.273438 716.210938 C 501.804688 716.429688 502.320312 716.675781 502.824219 716.945312 C 503.332031 717.214844 503.824219 717.511719 504.300781 717.828125 C 504.773438 718.148438 505.234375 718.488281 505.679688 718.851562 C 506.121094 719.214844 506.546875 719.597656 506.949219 720.003906 C 507.355469 720.410156 507.738281 720.832031 508.101562 721.277344 C 508.464844 721.71875 508.808594 722.179688 509.125 722.65625 C 509.445312 723.132812 509.738281 723.621094 510.007812 724.128906 C 510.277344 724.632812 510.523438 725.152344 510.742188 725.679688 C 510.960938 726.210938 511.15625 726.75 511.320312 727.296875 C 511.488281 727.84375 511.625 728.402344 511.738281 728.960938 C 511.851562 729.523438 511.933594 730.089844 511.992188 730.660156 C 512.046875 731.230469 512.074219 731.804688 512.074219 732.375 L 512.074219 788.976562 C 512.074219 789.550781 512.046875 790.121094 511.992188 790.691406 C 511.933594 791.261719 511.851562 791.828125 511.738281 792.390625 C 511.625 792.953125 511.488281 793.507812 511.320312 794.054688 C 511.15625 794.605469 510.960938 795.144531 510.742188 795.671875 C 510.523438 796.203125 510.277344 796.71875 510.007812 797.226562 C 509.738281 797.730469 509.445312 798.222656 509.125 798.699219 C 508.808594 799.175781 508.464844 799.632812 508.101562 800.078125 C 507.738281 800.519531 507.355469 800.945312 506.949219 801.347656 C 506.546875 801.753906 506.121094 802.136719 505.679688 802.5 C 505.234375 802.867188 504.773438 803.207031 504.300781 803.523438 C 503.824219 803.84375 503.332031 804.136719 502.824219 804.40625 C 502.320312 804.675781 501.804688 804.921875 501.273438 805.140625 C 500.746094 805.359375 500.207031 805.554688 499.65625 805.71875 C 499.109375 805.886719 498.554688 806.027344 497.992188 806.136719 C 497.429688 806.25 496.863281 806.332031 496.292969 806.390625 C 495.722656 806.445312 495.152344 806.472656 494.578125 806.472656 L 44.660156 806.472656 C 44.085938 806.472656 43.515625 806.445312 42.945312 806.390625 C 42.375 806.332031 41.808594 806.25 41.246094 806.136719 C 40.683594 806.027344 40.128906 805.886719 39.582031 805.71875 C 39.03125 805.554688 38.492188 805.359375 37.964844 805.140625 C 37.433594 804.921875 36.917969 804.675781 36.410156 804.40625 C 35.90625 804.136719 35.414062 803.84375 34.9375 803.523438 C 34.460938 803.207031 34.003906 802.867188 33.558594 802.5 C 33.117188 802.136719 32.691406 801.753906 32.289062 801.347656 C 31.882812 800.945312 31.496094 800.519531 31.132812 800.078125 C 30.769531 799.632812 30.429688 799.175781 30.113281 798.699219 C 29.792969 798.222656 29.5 797.730469 29.230469 797.226562 C 28.957031 796.71875 28.714844 796.203125 28.496094 795.671875 C 28.273438 795.144531 28.082031 794.605469 27.917969 794.054688 C 27.75 793.507812 27.609375 792.953125 27.5 792.390625 C 27.386719 791.828125 27.304688 791.261719 27.246094 790.691406 C 27.191406 790.121094 27.164062 789.550781 27.164062 788.976562 L 27.164062 117.554688 C 27.164062 116.980469 27.191406 116.410156 27.246094 115.839844 C 27.304688 115.269531 27.386719 114.703125 27.5 114.140625 C 27.609375 113.578125 27.75 113.023438 27.917969 112.476562 C 28.082031 111.925781 28.273438 111.386719 28.496094 110.859375 C 28.714844 110.328125 28.957031 109.8125 29.230469 109.304688 C 29.5 108.800781 29.792969 108.308594 30.113281 107.832031 C 30.429688 107.355469 30.769531 106.898438 31.132812 106.453125 C 31.496094 106.011719 31.882812 105.585938 32.289062 105.183594 C 32.691406 104.777344 33.117188 104.390625 33.558594 104.027344 C 34.003906 103.664062 34.460938 103.324219 34.9375 103.007812 C 35.414062 102.6875 35.90625 102.394531 36.410156 102.125 C 36.917969 101.851562 37.433594 101.609375 37.964844 101.390625 C 38.492188 101.167969 39.03125 100.976562 39.582031 100.8125 C 40.128906 100.644531 40.683594 100.503906 41.246094 100.394531 C 41.808594 100.28125 42.375 100.199219 42.945312 100.140625 C 43.515625 100.085938 44.085938 100.058594 44.660156 100.058594 L 138.964844 100.058594 C 139.539062 100.058594 140.109375 100.085938 140.679688 100.140625 C 141.25 100.199219 141.816406 100.28125 142.378906 100.394531 C 142.941406 100.503906 143.496094 100.644531 144.042969 100.8125 C 144.59375 100.976562 145.128906 101.167969 145.660156 101.390625 C 146.191406 101.609375 146.707031 101.851562 147.210938 102.125 C 147.71875 102.394531 148.207031 102.6875 148.683594 103.007812 C 149.160156 103.324219 149.621094 103.664062 150.0625 104.027344 C 150.507812 104.390625 150.929688 104.777344 151.335938 105.183594 C 151.742188 105.585938 152.125 106.011719 152.488281 106.453125 C 152.851562 106.898438 153.195312 107.355469 153.511719 107.832031 C 153.832031 108.308594 154.125 108.800781 154.394531 109.304688 C 154.664062 109.8125 154.910156 110.328125 155.128906 110.859375 C 155.347656 111.386719 155.542969 111.925781 155.707031 112.476562 C 155.875 113.023438 156.011719 113.578125 156.125 114.140625 C 156.238281 114.703125 156.320312 115.269531 156.375 115.839844 C 156.433594 116.410156 156.460938 116.980469 156.460938 117.554688 C 156.460938 118.125 156.433594 118.699219 156.375 119.269531 C 156.320312 119.839844 156.238281 120.40625 156.125 120.96875 C 156.011719 121.527344 155.875 122.085938 155.707031 122.632812 C 155.542969 123.179688 155.347656 123.71875 155.128906 124.25 C 154.910156 124.777344 154.664062 125.296875 154.394531 125.800781 C 154.125 126.308594 153.832031 126.796875 153.511719 127.273438 C 153.195312 127.75 152.851562 128.210938 152.488281 128.652344 C 152.125 129.097656 151.742188 129.519531 151.335938 129.925781 C 150.929688 130.332031 150.507812 130.714844 150.0625 131.078125 C 149.621094 131.441406 149.160156 131.78125 148.683594 132.101562 C 148.207031 132.417969 147.71875 132.714844 147.210938 132.984375 C 146.707031 133.253906 146.191406 133.5 145.660156 133.71875 C 145.128906 133.9375 144.59375 134.128906 144.042969 134.296875 C 143.496094 134.464844 142.941406 134.601562 142.378906 134.714844 C 141.816406 134.824219 141.25 134.910156 140.679688 134.964844 C 140.109375 135.023438 139.539062 135.050781 138.964844 135.050781 L 62.417969 135.050781 L 62.417969 771.566406 L 477.082031 771.566406 Z M 477.082031 732.375 " fill-opacity="1" fill-rule="nonzero"/></g><path fill="#ffffff" d="M 741.191406 149.921875 L 736.992188 145.460938 C 736.257812 144.75 735.464844 144.117188 734.613281 143.5625 C 733.757812 143.003906 732.859375 142.535156 731.914062 142.152344 C 730.96875 141.769531 729.996094 141.480469 728.996094 141.285156 C 727.996094 141.089844 726.988281 140.992188 725.96875 140.992188 C 724.949219 140.992188 723.9375 141.089844 722.9375 141.285156 C 721.9375 141.480469 720.964844 141.769531 720.019531 142.152344 C 719.078125 142.535156 718.175781 143.003906 717.324219 143.5625 C 716.46875 144.117188 715.675781 144.75 714.945312 145.460938 L 465.796875 393.296875 L 453.550781 432.925781 L 493.089844 420.765625 L 742.238281 172.667969 C 743.636719 171.230469 744.699219 169.578125 745.425781 167.710938 C 746.15625 165.84375 746.492188 163.910156 746.4375 161.90625 C 746.5 159.875 746.167969 157.914062 745.441406 156.015625 C 744.710938 154.121094 743.644531 152.4375 742.238281 150.972656 C 741.714844 150.972656 741.453125 150.183594 741.191406 149.921875 Z M 761.484375 120.527344 L 766.210938 125.253906 L 766.996094 125.953125 C 769.363281 128.3125 771.476562 130.878906 773.335938 133.652344 C 775.195312 136.429688 776.765625 139.359375 778.050781 142.441406 C 779.332031 145.527344 780.304688 148.707031 780.960938 151.984375 C 781.617188 155.257812 781.949219 158.566406 781.957031 161.90625 C 781.960938 165.230469 781.636719 168.519531 780.984375 171.777344 C 780.332031 175.039062 779.363281 178.199219 778.082031 181.265625 C 776.796875 184.328125 775.222656 187.234375 773.355469 189.984375 C 771.488281 192.734375 769.371094 195.273438 766.996094 197.597656 L 515.398438 448.671875 C 513.238281 450.523438 510.820312 451.921875 508.136719 452.871094 L 432.292969 476.230469 C 430.632812 476.792969 428.925781 477.074219 427.171875 477.074219 C 425.421875 477.074219 423.714844 476.792969 422.054688 476.230469 C 421.507812 476.058594 420.96875 475.859375 420.441406 475.636719 C 419.914062 475.410156 419.398438 475.160156 418.894531 474.886719 C 418.390625 474.613281 417.902344 474.3125 417.429688 473.988281 C 416.953125 473.667969 416.496094 473.320312 416.058594 472.953125 C 415.617188 472.585938 415.195312 472.195312 414.792969 471.785156 C 414.390625 471.375 414.011719 470.949219 413.652344 470.5 C 413.292969 470.054688 412.957031 469.589844 412.640625 469.109375 C 412.328125 468.628906 412.039062 468.136719 411.773438 467.628906 C 411.507812 467.117188 411.265625 466.597656 411.050781 466.066406 C 410.835938 465.535156 410.648438 464.992188 410.488281 464.441406 C 410.328125 463.890625 410.195312 463.332031 410.089844 462.769531 C 409.980469 462.207031 409.902344 461.636719 409.855469 461.066406 C 409.804688 460.496094 409.78125 459.921875 409.789062 459.347656 C 409.792969 458.773438 409.828125 458.203125 409.890625 457.632812 C 409.953125 457.0625 410.042969 456.496094 410.160156 455.933594 C 410.277344 455.371094 410.421875 454.820312 410.597656 454.269531 L 433.339844 380 C 433.648438 378.328125 434.203125 376.746094 435.011719 375.25 C 435.816406 373.757812 436.835938 372.421875 438.066406 371.25 L 689.664062 120.179688 C 692.050781 117.851562 694.640625 115.773438 697.433594 113.945312 C 700.222656 112.117188 703.164062 110.574219 706.25 109.316406 C 709.339844 108.054688 712.519531 107.101562 715.792969 106.457031 C 719.066406 105.8125 722.371094 105.488281 725.707031 105.480469 C 729.023438 105.476562 732.308594 105.792969 735.566406 106.433594 C 738.820312 107.074219 741.980469 108.027344 745.050781 109.285156 C 748.121094 110.546875 751.035156 112.09375 753.800781 113.925781 C 756.566406 115.757812 759.128906 117.84375 761.484375 120.179688 Z M 761.484375 120.527344 " fill-opacity="1" fill-rule="nonzero"/><path fill="#ffffff" d="M 711.183594 228.480469 L 658.957031 176.078125 L 683.976562 151.410156 L 736.203125 203.546875 Z M 711.183594 228.480469 " fill-opacity="1" fill-rule="nonzero"/><path fill="#ffffff" d="M 202.214844 134.4375 C 201.640625 134.4375 201.070312 134.410156 200.5 134.351562 C 199.929688 134.296875 199.363281 134.214844 198.800781 134.101562 C 198.238281 133.988281 197.683594 133.851562 197.136719 133.683594 C 196.585938 133.519531 196.046875 133.324219 195.519531 133.105469 C 194.988281 132.886719 194.472656 132.640625 193.964844 132.371094 C 193.460938 132.101562 192.96875 131.808594 192.492188 131.488281 C 192.015625 131.171875 191.558594 130.828125 191.113281 130.464844 C 190.671875 130.101562 190.246094 129.71875 189.84375 129.3125 C 189.4375 128.90625 189.050781 128.484375 188.6875 128.039062 C 188.324219 127.597656 187.984375 127.136719 187.667969 126.660156 C 187.347656 126.183594 187.054688 125.695312 186.785156 125.1875 C 186.511719 124.683594 186.269531 124.167969 186.050781 123.636719 C 185.832031 123.105469 185.636719 122.570312 185.472656 122.019531 C 185.304688 121.472656 185.164062 120.917969 185.054688 120.355469 C 184.941406 119.792969 184.859375 119.226562 184.800781 118.65625 C 184.746094 118.085938 184.71875 117.515625 184.71875 116.941406 C 184.71875 116.367188 184.746094 115.796875 184.800781 115.226562 C 184.859375 114.65625 184.941406 114.089844 185.054688 113.527344 C 185.164062 112.964844 185.304688 112.410156 185.472656 111.863281 C 185.636719 111.3125 185.832031 110.773438 186.050781 110.246094 C 186.269531 109.714844 186.511719 109.199219 186.785156 108.695312 C 187.054688 108.1875 187.347656 107.695312 187.667969 107.222656 C 187.984375 106.746094 188.324219 106.285156 188.6875 105.839844 C 189.050781 105.398438 189.4375 104.976562 189.84375 104.570312 C 190.246094 104.164062 190.671875 103.78125 191.113281 103.417969 C 191.558594 103.054688 192.015625 102.710938 192.492188 102.394531 C 192.96875 102.074219 193.460938 101.78125 193.964844 101.511719 C 194.472656 101.242188 194.988281 100.996094 195.519531 100.777344 C 196.046875 100.558594 196.585938 100.363281 197.136719 100.199219 C 197.683594 100.03125 198.238281 99.894531 198.800781 99.78125 C 199.363281 99.667969 199.929688 99.585938 200.5 99.527344 C 201.070312 99.472656 201.640625 99.445312 202.214844 99.445312 L 502.890625 99.445312 C 503.460938 99.445312 504.035156 99.472656 504.605469 99.527344 C 505.175781 99.585938 505.742188 99.667969 506.300781 99.78125 C 506.863281 99.894531 507.417969 100.03125 507.96875 100.199219 C 508.515625 100.363281 509.054688 100.558594 509.585938 100.777344 C 510.113281 100.996094 510.632812 101.242188 511.136719 101.511719 C 511.640625 101.78125 512.132812 102.074219 512.609375 102.394531 C 513.085938 102.710938 513.546875 103.054688 513.988281 103.417969 C 514.433594 103.78125 514.855469 104.164062 515.261719 104.570312 C 515.667969 104.976562 516.050781 105.398438 516.414062 105.839844 C 516.777344 106.285156 517.117188 106.746094 517.4375 107.222656 C 517.753906 107.695312 518.050781 108.1875 518.320312 108.695312 C 518.589844 109.199219 518.835938 109.714844 519.054688 110.246094 C 519.273438 110.773438 519.464844 111.3125 519.632812 111.863281 C 519.796875 112.410156 519.9375 112.964844 520.050781 113.527344 C 520.160156 114.089844 520.246094 114.65625 520.300781 115.226562 C 520.359375 115.796875 520.386719 116.367188 520.386719 116.941406 C 520.386719 117.515625 520.359375 118.085938 520.300781 118.65625 C 520.246094 119.226562 520.160156 119.792969 520.050781 120.355469 C 519.9375 120.917969 519.796875 121.472656 519.632812 122.019531 C 519.464844 122.570312 519.273438 123.105469 519.054688 123.636719 C 518.835938 124.167969 518.589844 124.683594 518.320312 125.1875 C 518.050781 125.695312 517.753906 126.183594 517.4375 126.660156 C 517.117188 127.136719 516.777344 127.597656 516.414062 128.039062 C 516.050781 128.484375 515.667969 128.90625 515.261719 129.3125 C 514.855469 129.71875 514.433594 130.101562 513.988281 130.464844 C 513.546875 130.828125 513.085938 131.171875 512.609375 131.488281 C 512.132812 131.808594 511.640625 132.101562 511.136719 132.371094 C 510.632812 132.640625 510.113281 132.886719 509.585938 133.105469 C 509.054688 133.324219 508.515625 133.519531 507.96875 133.683594 C 507.417969 133.851562 506.863281 133.988281 506.300781 134.101562 C 505.742188 134.214844 505.175781 134.296875 504.605469 134.351562 C 504.035156 134.410156 503.460938 134.4375 502.890625 134.4375 Z M 202.214844 134.4375 " fill-opacity="1" fill-rule="nonzero"/><path fill="#ffffff" d="M 202.214844 197.773438 C 201.640625 197.773438 201.070312 197.746094 200.5 197.691406 C 199.929688 197.632812 199.363281 197.550781 198.800781 197.4375 C 198.238281 197.328125 197.683594 197.1875 197.136719 197.019531 C 196.585938 196.855469 196.046875 196.660156 195.519531 196.441406 C 194.988281 196.222656 194.472656 195.980469 193.964844 195.707031 C 193.460938 195.4375 192.96875 195.144531 192.492188 194.824219 C 192.015625 194.507812 191.558594 194.167969 191.113281 193.804688 C 190.671875 193.441406 190.246094 193.054688 189.84375 192.648438 C 189.4375 192.246094 189.050781 191.820312 188.6875 191.378906 C 188.324219 190.933594 187.984375 190.476562 187.667969 190 C 187.347656 189.523438 187.054688 189.03125 186.785156 188.527344 C 186.511719 188.019531 186.269531 187.503906 186.050781 186.972656 C 185.832031 186.445312 185.636719 185.90625 185.472656 185.355469 C 185.304688 184.808594 185.164062 184.253906 185.054688 183.691406 C 184.941406 183.128906 184.859375 182.5625 184.800781 181.992188 C 184.746094 181.421875 184.71875 180.851562 184.71875 180.277344 C 184.71875 179.707031 184.746094 179.132812 184.800781 178.5625 C 184.859375 177.992188 184.941406 177.425781 185.054688 176.863281 C 185.164062 176.300781 185.304688 175.746094 185.472656 175.199219 C 185.636719 174.652344 185.832031 174.113281 186.050781 173.582031 C 186.269531 173.054688 186.511719 172.535156 186.785156 172.03125 C 187.054688 171.523438 187.347656 171.035156 187.667969 170.558594 C 187.984375 170.082031 188.324219 169.621094 188.6875 169.179688 C 189.050781 168.734375 189.4375 168.3125 189.84375 167.90625 C 190.246094 167.5 190.671875 167.117188 191.113281 166.753906 C 191.558594 166.390625 192.015625 166.046875 192.492188 165.730469 C 192.96875 165.410156 193.460938 165.117188 193.964844 164.847656 C 194.472656 164.578125 194.988281 164.332031 195.519531 164.113281 C 196.046875 163.894531 196.585938 163.703125 197.136719 163.535156 C 197.683594 163.367188 198.238281 163.230469 198.800781 163.117188 C 199.363281 163.007812 199.929688 162.921875 200.5 162.867188 C 201.070312 162.808594 201.640625 162.78125 202.214844 162.78125 L 502.890625 162.78125 C 503.460938 162.78125 504.035156 162.808594 504.605469 162.867188 C 505.175781 162.921875 505.742188 163.007812 506.300781 163.117188 C 506.863281 163.230469 507.417969 163.367188 507.96875 163.535156 C 508.515625 163.703125 509.054688 163.894531 509.585938 164.113281 C 510.113281 164.332031 510.632812 164.578125 511.136719 164.847656 C 511.640625 165.117188 512.132812 165.410156 512.609375 165.730469 C 513.085938 166.046875 513.546875 166.390625 513.988281 166.753906 C 514.433594 167.117188 514.855469 167.5 515.261719 167.90625 C 515.667969 168.3125 516.050781 168.734375 516.414062 169.179688 C 516.777344 169.621094 517.117188 170.082031 517.4375 170.558594 C 517.753906 171.035156 518.050781 171.523438 518.320312 172.03125 C 518.589844 172.535156 518.835938 173.054688 519.054688 173.582031 C 519.273438 174.113281 519.464844 174.652344 519.632812 175.199219 C 519.796875 175.746094 519.9375 176.300781 520.050781 176.863281 C 520.160156 177.425781 520.246094 177.992188 520.300781 178.5625 C 520.359375 179.132812 520.386719 179.707031 520.386719 180.277344 C 520.386719 180.851562 520.359375 181.421875 520.300781 181.992188 C 520.246094 182.5625 520.160156 183.128906 520.050781 183.691406 C 519.9375 184.253906 519.796875 184.808594 519.632812 185.355469 C 519.464844 185.90625 519.273438 186.445312 519.054688 186.972656 C 518.835938 187.503906 518.589844 188.019531 518.320312 188.527344 C 518.050781 189.03125 517.753906 189.523438 517.4375 190 C 517.117188 190.476562 516.777344 190.933594 516.414062 191.378906 C 516.050781 191.820312 515.667969 192.246094 515.261719 192.648438 C 514.855469 193.054688 514.433594 193.441406 513.988281 193.804688 C 513.546875 194.167969 513.085938 194.507812 512.609375 194.824219 C 512.132812 195.144531 511.640625 195.4375 511.136719 195.707031 C 510.632812 195.980469 510.113281 196.222656 509.585938 196.441406 C 509.054688 196.660156 508.515625 196.855469 507.96875 197.019531 C 507.417969 197.1875 506.863281 197.328125 506.300781 197.4375 C 505.742188 197.550781 505.175781 197.632812 504.605469 197.691406 C 504.035156 197.746094 503.460938 197.773438 502.890625 197.773438 Z M 202.214844 197.773438 " fill-opacity="1" fill-rule="nonzero"/><path fill="#ffffff" d="M 202.214844 197.773438 C 201.640625 197.773438 201.070312 197.746094 200.5 197.691406 C 199.929688 197.632812 199.363281 197.550781 198.800781 197.4375 C 198.238281 197.328125 197.683594 197.1875 197.136719 197.019531 C 196.585938 196.855469 196.046875 196.660156 195.519531 196.441406 C 194.988281 196.222656 194.472656 195.980469 193.964844 195.707031 C 193.460938 195.4375 192.96875 195.144531 192.492188 194.824219 C 192.015625 194.507812 191.558594 194.167969 191.113281 193.804688 C 190.671875 193.441406 190.246094 193.054688 189.84375 192.648438 C 189.4375 192.246094 189.050781 191.820312 188.6875 191.378906 C 188.324219 190.933594 187.984375 190.476562 187.667969 190 C 187.347656 189.523438 187.054688 189.03125 186.785156 188.527344 C 186.511719 188.019531 186.269531 187.503906 186.050781 186.972656 C 185.832031 186.445312 185.636719 185.90625 185.472656 185.355469 C 185.304688 184.808594 185.164062 184.253906 185.054688 183.691406 C 184.941406 183.128906 184.859375 182.5625 184.800781 181.992188 C 184.746094 181.421875 184.71875 180.851562 184.71875 180.277344 C 184.71875 179.707031 184.746094 179.132812 184.800781 178.5625 C 184.859375 177.992188 184.941406 177.425781 185.054688 176.863281 C 185.164062 176.300781 185.304688 175.746094 185.472656 175.199219 C 185.636719 174.652344 185.832031 174.113281 186.050781 173.582031 C 186.269531 173.054688 186.511719 172.535156 186.785156 172.03125 C 187.054688 171.523438 187.347656 171.035156 187.667969 170.558594 C 187.984375 170.082031 188.324219 169.621094 188.6875 169.179688 C 189.050781 168.734375 189.4375 168.3125 189.84375 167.90625 C 190.246094 167.5 190.671875 167.117188 191.113281 166.753906 C 191.558594 166.390625 192.015625 166.046875 192.492188 165.730469 C 192.96875 165.410156 193.460938 165.117188 193.964844 164.847656 C 194.472656 164.578125 194.988281 164.332031 195.519531 164.113281 C 196.046875 163.894531 196.585938 163.703125 197.136719 163.535156 C 197.683594 163.367188 198.238281 163.230469 198.800781 163.117188 C 199.363281 163.007812 199.929688 162.921875 200.5 162.867188 C 201.070312 162.808594 201.640625 162.78125 202.214844 162.78125 L 502.890625 162.78125 C 503.460938 162.78125 504.035156 162.808594 504.605469 162.867188 C 505.175781 162.921875 505.742188 163.007812 506.300781 163.117188 C 506.863281 163.230469 507.417969 163.367188 507.96875 163.535156 C 508.515625 163.703125 509.054688 163.894531 509.585938 164.113281 C 510.113281 164.332031 510.632812 164.578125 511.136719 164.847656 C 511.640625 165.117188 512.132812 165.410156 512.609375 165.730469 C 513.085938 166.046875 513.546875 166.390625 513.988281 166.753906 C 514.433594 167.117188 514.855469 167.5 515.261719 167.90625 C 515.667969 168.3125 516.050781 168.734375 516.414062 169.179688 C 516.777344 169.621094 517.117188 170.082031 517.4375 170.558594 C 517.753906 171.035156 518.050781 171.523438 518.320312 172.03125 C 518.589844 172.535156 518.835938 173.054688 519.054688 173.582031 C 519.273438 174.113281 519.464844 174.652344 519.632812 175.199219 C 519.796875 175.746094 519.9375 176.300781 520.050781 176.863281 C 520.160156 177.425781 520.246094 177.992188 520.300781 178.5625 C 520.359375 179.132812 520.386719 179.707031 520.386719 180.277344 C 520.386719 180.851562 520.359375 181.421875 520.300781 181.992188 C 520.246094 182.5625 520.160156 183.128906 520.050781 183.691406 C 519.9375 184.253906 519.796875 184.808594 519.632812 185.355469 C 519.464844 185.90625 519.273438 186.445312 519.054688 186.972656 C 518.835938 187.503906 518.589844 188.019531 518.320312 188.527344 C 518.050781 189.03125 517.753906 189.523438 517.4375 190 C 517.117188 190.476562 516.777344 190.933594 516.414062 191.378906 C 516.050781 191.820312 515.667969 192.246094 515.261719 192.648438 C 514.855469 193.054688 514.433594 193.441406 513.988281 193.804688 C 513.546875 194.167969 513.085938 194.507812 512.609375 194.824219 C 512.132812 195.144531 511.640625 195.4375 511.136719 195.707031 C 510.632812 195.980469 510.113281 196.222656 509.585938 196.441406 C 509.054688 196.660156 508.515625 196.855469 507.96875 197.019531 C 507.417969 197.1875 506.863281 197.328125 506.300781 197.4375 C 505.742188 197.550781 505.175781 197.632812 504.605469 197.691406 C 504.035156 197.746094 503.460938 197.773438 502.890625 197.773438 Z M 202.214844 197.773438 " fill-opacity="1" fill-rule="nonzero"/><path fill="#ffffff" d="M 202.214844 263.910156 C 201.640625 263.910156 201.070312 263.882812 200.5 263.828125 C 199.929688 263.769531 199.363281 263.6875 198.800781 263.574219 C 198.238281 263.460938 197.683594 263.324219 197.136719 263.15625 C 196.585938 262.992188 196.046875 262.796875 195.519531 262.578125 C 194.988281 262.359375 194.472656 262.113281 193.964844 261.84375 C 193.460938 261.574219 192.96875 261.28125 192.492188 260.960938 C 192.015625 260.644531 191.558594 260.304688 191.113281 259.9375 C 190.671875 259.574219 190.246094 259.191406 189.84375 258.785156 C 189.4375 258.382812 189.050781 257.957031 188.6875 257.515625 C 188.324219 257.070312 187.984375 256.609375 187.667969 256.136719 C 187.347656 255.660156 187.054688 255.167969 186.785156 254.664062 C 186.511719 254.15625 186.269531 253.640625 186.050781 253.109375 C 185.832031 252.582031 185.636719 252.042969 185.472656 251.492188 C 185.304688 250.945312 185.164062 250.390625 185.054688 249.828125 C 184.941406 249.265625 184.859375 248.699219 184.800781 248.128906 C 184.746094 247.558594 184.71875 246.988281 184.71875 246.414062 C 184.71875 245.839844 184.746094 245.269531 184.800781 244.699219 C 184.859375 244.128906 184.941406 243.5625 185.054688 243 C 185.164062 242.4375 185.304688 241.882812 185.472656 241.335938 C 185.636719 240.789062 185.832031 240.25 186.050781 239.71875 C 186.269531 239.1875 186.511719 238.671875 186.785156 238.167969 C 187.054688 237.660156 187.347656 237.171875 187.667969 236.695312 C 187.984375 236.21875 188.324219 235.757812 188.6875 235.316406 C 189.050781 234.871094 189.4375 234.449219 189.84375 234.042969 C 190.246094 233.636719 190.671875 233.253906 191.113281 232.890625 C 191.558594 232.527344 192.015625 232.183594 192.492188 231.867188 C 192.96875 231.546875 193.460938 231.253906 193.964844 230.984375 C 194.472656 230.714844 194.988281 230.46875 195.519531 230.25 C 196.046875 230.03125 196.585938 229.835938 197.136719 229.671875 C 197.683594 229.503906 198.238281 229.367188 198.800781 229.253906 C 199.363281 229.140625 199.929688 229.058594 200.5 229.003906 C 201.070312 228.945312 201.640625 228.917969 202.214844 228.917969 L 502.890625 228.917969 C 503.460938 228.917969 504.035156 228.945312 504.605469 229.003906 C 505.175781 229.058594 505.742188 229.140625 506.300781 229.253906 C 506.863281 229.367188 507.417969 229.503906 507.96875 229.671875 C 508.515625 229.835938 509.054688 230.03125 509.585938 230.25 C 510.113281 230.46875 510.632812 230.714844 511.136719 230.984375 C 511.640625 231.253906 512.132812 231.546875 512.609375 231.867188 C 513.085938 232.183594 513.546875 232.527344 513.988281 232.890625 C 514.433594 233.253906 514.855469 233.636719 515.261719 234.042969 C 515.667969 234.449219 516.050781 234.871094 516.414062 235.316406 C 516.777344 235.757812 517.117188 236.21875 517.4375 236.695312 C 517.753906 237.171875 518.050781 237.660156 518.320312 238.167969 C 518.589844 238.671875 518.835938 239.1875 519.054688 239.71875 C 519.273438 240.25 519.464844 240.789062 519.632812 241.335938 C 519.796875 241.882812 519.9375 242.4375 520.050781 243 C 520.160156 243.5625 520.246094 244.128906 520.300781 244.699219 C 520.359375 245.269531 520.386719 245.839844 520.386719 246.414062 C 520.386719 246.988281 520.359375 247.558594 520.300781 248.128906 C 520.246094 248.699219 520.160156 249.265625 520.050781 249.828125 C 519.9375 250.390625 519.796875 250.945312 519.632812 251.492188 C 519.464844 252.042969 519.273438 252.582031 519.054688 253.109375 C 518.835938 253.640625 518.589844 254.15625 518.320312 254.664062 C 518.050781 255.167969 517.753906 255.660156 517.4375 256.136719 C 517.117188 256.609375 516.777344 257.070312 516.414062 257.515625 C 516.050781 257.957031 515.667969 258.382812 515.261719 258.785156 C 514.855469 259.191406 514.433594 259.574219 513.988281 259.9375 C 513.546875 260.304688 513.085938 260.644531 512.609375 260.960938 C 512.132812 261.28125 511.640625 261.574219 511.136719 261.84375 C 510.632812 262.113281 510.113281 262.359375 509.585938 262.578125 C 509.054688 262.796875 508.515625 262.992188 507.96875 263.15625 C 507.417969 263.324219 506.863281 263.460938 506.300781 263.574219 C 505.742188 263.6875 505.175781 263.769531 504.605469 263.828125 C 504.035156 263.882812 503.460938 263.910156 502.890625 263.910156 Z M 202.214844 263.910156 " fill-opacity="1" fill-rule="nonzero"/><path fill="#ffffff" d="M 202.214844 330.746094 C 201.640625 330.746094 201.070312 330.71875 200.5 330.664062 C 199.929688 330.605469 199.363281 330.523438 198.800781 330.410156 C 198.238281 330.300781 197.683594 330.160156 197.136719 329.992188 C 196.585938 329.828125 196.046875 329.632812 195.519531 329.414062 C 194.988281 329.195312 194.472656 328.949219 193.964844 328.679688 C 193.460938 328.410156 192.96875 328.117188 192.492188 327.796875 C 192.015625 327.480469 191.558594 327.140625 191.113281 326.777344 C 190.671875 326.410156 190.246094 326.027344 189.84375 325.621094 C 189.4375 325.21875 189.050781 324.792969 188.6875 324.351562 C 188.324219 323.90625 187.984375 323.449219 187.667969 322.972656 C 187.347656 322.496094 187.054688 322.003906 186.785156 321.5 C 186.511719 320.992188 186.269531 320.476562 186.050781 319.945312 C 185.832031 319.417969 185.636719 318.878906 185.472656 318.328125 C 185.304688 317.78125 185.164062 317.226562 185.054688 316.664062 C 184.941406 316.101562 184.859375 315.535156 184.800781 314.964844 C 184.746094 314.394531 184.71875 313.824219 184.71875 313.25 C 184.71875 312.675781 184.746094 312.105469 184.800781 311.535156 C 184.859375 310.964844 184.941406 310.398438 185.054688 309.835938 C 185.164062 309.273438 185.304688 308.71875 185.472656 308.171875 C 185.636719 307.625 185.832031 307.085938 186.050781 306.554688 C 186.269531 306.027344 186.511719 305.507812 186.785156 305.003906 C 187.054688 304.496094 187.347656 304.007812 187.667969 303.53125 C 187.984375 303.054688 188.324219 302.59375 188.6875 302.152344 C 189.050781 301.707031 189.4375 301.285156 189.84375 300.878906 C 190.246094 300.472656 190.671875 300.089844 191.113281 299.726562 C 191.558594 299.363281 192.015625 299.019531 192.492188 298.703125 C 192.96875 298.382812 193.460938 298.089844 193.964844 297.820312 C 194.472656 297.550781 194.988281 297.304688 195.519531 297.085938 C 196.046875 296.867188 196.585938 296.675781 197.136719 296.507812 C 197.683594 296.339844 198.238281 296.203125 198.800781 296.089844 C 199.363281 295.980469 199.929688 295.894531 200.5 295.839844 C 201.070312 295.78125 201.640625 295.753906 202.214844 295.753906 L 374.289062 295.753906 C 374.863281 295.753906 375.433594 295.78125 376.003906 295.839844 C 376.574219 295.894531 377.140625 295.980469 377.703125 296.089844 C 378.265625 296.203125 378.820312 296.339844 379.371094 296.507812 C 379.917969 296.675781 380.457031 296.867188 380.988281 297.085938 C 381.515625 297.304688 382.03125 297.550781 382.539062 297.820312 C 383.042969 298.089844 383.535156 298.382812 384.011719 298.703125 C 384.488281 299.019531 384.949219 299.363281 385.390625 299.726562 C 385.832031 300.089844 386.257812 300.472656 386.664062 300.878906 C 387.066406 301.285156 387.453125 301.707031 387.816406 302.152344 C 388.179688 302.59375 388.519531 303.054688 388.839844 303.53125 C 389.15625 304.007812 389.449219 304.496094 389.722656 305.003906 C 389.992188 305.507812 390.234375 306.027344 390.457031 306.554688 C 390.675781 307.085938 390.867188 307.625 391.035156 308.171875 C 391.199219 308.71875 391.339844 309.273438 391.449219 309.835938 C 391.5625 310.398438 391.648438 310.964844 391.703125 311.535156 C 391.757812 312.105469 391.789062 312.675781 391.789062 313.25 C 391.789062 313.824219 391.757812 314.394531 391.703125 314.964844 C 391.648438 315.535156 391.5625 316.101562 391.449219 316.664062 C 391.339844 317.226562 391.199219 317.78125 391.035156 318.328125 C 390.867188 318.878906 390.675781 319.417969 390.457031 319.945312 C 390.234375 320.476562 389.992188 320.992188 389.722656 321.5 C 389.449219 322.003906 389.15625 322.496094 388.839844 322.972656 C 388.519531 323.449219 388.179688 323.90625 387.816406 324.351562 C 387.453125 324.792969 387.066406 325.21875 386.664062 325.621094 C 386.257812 326.027344 385.832031 326.410156 385.390625 326.777344 C 384.949219 327.140625 384.488281 327.480469 384.011719 327.796875 C 383.535156 328.117188 383.042969 328.410156 382.539062 328.679688 C 382.03125 328.949219 381.515625 329.195312 380.988281 329.414062 C 380.457031 329.632812 379.917969 329.828125 379.371094 329.992188 C 378.820312 330.160156 378.265625 330.300781 377.703125 330.410156 C 377.140625 330.523438 376.574219 330.605469 376.003906 330.664062 C 375.4375 330.71875 374.863281 330.746094 374.289062 330.746094 Z M 202.214844 330.746094 " fill-opacity="1" fill-rule="nonzero"/><path fill="#ffffff" d="M 202.214844 396.269531 C 201.640625 396.269531 201.070312 396.242188 200.5 396.1875 C 199.929688 396.128906 199.363281 396.046875 198.800781 395.933594 C 198.238281 395.824219 197.683594 395.683594 197.136719 395.515625 C 196.585938 395.351562 196.046875 395.160156 195.519531 394.9375 C 194.988281 394.71875 194.472656 394.476562 193.964844 394.203125 C 193.460938 393.933594 192.96875 393.640625 192.492188 393.320312 C 192.015625 393.003906 191.558594 392.664062 191.113281 392.300781 C 190.671875 391.9375 190.246094 391.550781 189.84375 391.144531 C 189.4375 390.742188 189.050781 390.316406 188.6875 389.875 C 188.324219 389.429688 187.984375 388.972656 187.667969 388.496094 C 187.347656 388.019531 187.054688 387.527344 186.785156 387.023438 C 186.511719 386.515625 186.269531 386 186.050781 385.46875 C 185.832031 384.941406 185.636719 384.402344 185.472656 383.851562 C 185.304688 383.304688 185.164062 382.75 185.054688 382.1875 C 184.941406 381.625 184.859375 381.058594 184.800781 380.488281 C 184.746094 379.917969 184.71875 379.347656 184.71875 378.773438 C 184.71875 378.203125 184.746094 377.628906 184.800781 377.058594 C 184.859375 376.488281 184.941406 375.921875 185.054688 375.359375 C 185.164062 374.800781 185.304688 374.242188 185.472656 373.695312 C 185.636719 373.148438 185.832031 372.609375 186.050781 372.078125 C 186.269531 371.550781 186.511719 371.03125 186.785156 370.527344 C 187.054688 370.019531 187.347656 369.53125 187.667969 369.054688 C 187.984375 368.578125 188.324219 368.117188 188.6875 367.675781 C 189.050781 367.230469 189.4375 366.808594 189.84375 366.402344 C 190.246094 365.996094 190.671875 365.613281 191.113281 365.25 C 191.558594 364.886719 192.015625 364.546875 192.492188 364.226562 C 192.96875 363.910156 193.460938 363.613281 193.964844 363.34375 C 194.472656 363.074219 194.988281 362.828125 195.519531 362.609375 C 196.046875 362.390625 196.585938 362.199219 197.136719 362.03125 C 197.683594 361.863281 198.238281 361.726562 198.800781 361.613281 C 199.363281 361.503906 199.929688 361.417969 200.5 361.363281 C 201.070312 361.304688 201.640625 361.277344 202.214844 361.277344 L 374.289062 361.277344 C 374.863281 361.277344 375.433594 361.304688 376.003906 361.363281 C 376.574219 361.417969 377.140625 361.503906 377.703125 361.613281 C 378.265625 361.726562 378.820312 361.863281 379.371094 362.03125 C 379.917969 362.199219 380.457031 362.390625 380.988281 362.609375 C 381.515625 362.828125 382.03125 363.074219 382.539062 363.34375 C 383.042969 363.613281 383.535156 363.910156 384.011719 364.226562 C 384.488281 364.546875 384.949219 364.886719 385.390625 365.25 C 385.832031 365.613281 386.257812 365.996094 386.664062 366.402344 C 387.066406 366.808594 387.453125 367.230469 387.816406 367.675781 C 388.179688 368.117188 388.519531 368.578125 388.839844 369.054688 C 389.15625 369.53125 389.449219 370.019531 389.722656 370.527344 C 389.992188 371.03125 390.234375 371.550781 390.457031 372.078125 C 390.675781 372.609375 390.867188 373.148438 391.035156 373.695312 C 391.199219 374.242188 391.339844 374.800781 391.449219 375.359375 C 391.5625 375.921875 391.648438 376.488281 391.703125 377.058594 C 391.757812 377.628906 391.789062 378.203125 391.789062 378.773438 C 391.789062 379.347656 391.757812 379.917969 391.703125 380.488281 C 391.648438 381.058594 391.5625 381.625 391.449219 382.1875 C 391.339844 382.75 391.199219 383.304688 391.035156 383.851562 C 390.867188 384.402344 390.675781 384.941406 390.457031 385.46875 C 390.234375 386 389.992188 386.515625 389.722656 387.023438 C 389.449219 387.527344 389.15625 388.019531 388.839844 388.496094 C 388.519531 388.972656 388.179688 389.429688 387.816406 389.875 C 387.453125 390.316406 387.066406 390.742188 386.664062 391.144531 C 386.257812 391.550781 385.832031 391.9375 385.390625 392.300781 C 384.949219 392.664062 384.488281 393.003906 384.011719 393.320312 C 383.535156 393.640625 383.042969 393.933594 382.539062 394.203125 C 382.03125 394.476562 381.515625 394.71875 380.988281 394.9375 C 380.457031 395.160156 379.917969 395.351562 379.371094 395.515625 C 378.820312 395.683594 378.265625 395.824219 377.703125 395.933594 C 377.140625 396.046875 376.574219 396.128906 376.003906 396.1875 C 375.4375 396.242188 374.863281 396.269531 374.289062 396.269531 Z M 202.214844 396.269531 " fill-opacity="1" fill-rule="nonzero"/><path fill="#ffffff" d="M 202.214844 464.15625 C 201.640625 464.15625 201.070312 464.128906 200.5 464.074219 C 199.929688 464.015625 199.363281 463.933594 198.800781 463.820312 C 198.238281 463.707031 197.683594 463.570312 197.136719 463.402344 C 196.585938 463.238281 196.046875 463.042969 195.519531 462.824219 C 194.988281 462.605469 194.472656 462.359375 193.964844 462.089844 C 193.460938 461.820312 192.96875 461.527344 192.492188 461.207031 C 192.015625 460.890625 191.558594 460.550781 191.113281 460.183594 C 190.671875 459.820312 190.246094 459.4375 189.84375 459.03125 C 189.4375 458.628906 189.050781 458.203125 188.6875 457.761719 C 188.324219 457.316406 187.984375 456.855469 187.667969 456.382812 C 187.347656 455.90625 187.054688 455.414062 186.785156 454.90625 C 186.511719 454.402344 186.269531 453.886719 186.050781 453.355469 C 185.832031 452.828125 185.636719 452.289062 185.472656 451.738281 C 185.304688 451.191406 185.164062 450.636719 185.054688 450.074219 C 184.941406 449.511719 184.859375 448.945312 184.800781 448.375 C 184.746094 447.804688 184.71875 447.234375 184.71875 446.660156 C 184.71875 446.085938 184.746094 445.515625 184.800781 444.945312 C 184.859375 444.375 184.941406 443.808594 185.054688 443.246094 C 185.164062 442.683594 185.304688 442.128906 185.472656 441.582031 C 185.636719 441.03125 185.832031 440.496094 186.050781 439.964844 C 186.269531 439.433594 186.511719 438.917969 186.785156 438.414062 C 187.054688 437.90625 187.347656 437.417969 187.667969 436.941406 C 187.984375 436.464844 188.324219 436.003906 188.6875 435.5625 C 189.050781 435.117188 189.4375 434.695312 189.84375 434.289062 C 190.246094 433.882812 190.671875 433.5 191.113281 433.136719 C 191.558594 432.773438 192.015625 432.429688 192.492188 432.113281 C 192.96875 431.792969 193.460938 431.5 193.964844 431.230469 C 194.472656 430.960938 194.988281 430.714844 195.519531 430.496094 C 196.046875 430.277344 196.585938 430.082031 197.136719 429.917969 C 197.683594 429.75 198.238281 429.613281 198.800781 429.5 C 199.363281 429.386719 199.929688 429.304688 200.5 429.25 C 201.070312 429.191406 201.640625 429.164062 202.214844 429.164062 L 374.289062 429.164062 C 374.863281 429.164062 375.433594 429.191406 376.003906 429.25 C 376.574219 429.304688 377.140625 429.386719 377.703125 429.5 C 378.265625 429.613281 378.820312 429.75 379.371094 429.917969 C 379.917969 430.082031 380.457031 430.277344 380.988281 430.496094 C 381.515625 430.714844 382.03125 430.960938 382.539062 431.230469 C 383.042969 431.5 383.535156 431.792969 384.011719 432.113281 C 384.488281 432.429688 384.949219 432.773438 385.390625 433.136719 C 385.832031 433.5 386.257812 433.882812 386.664062 434.289062 C 387.066406 434.695312 387.453125 435.117188 387.816406 435.5625 C 388.179688 436.003906 388.519531 436.464844 388.839844 436.941406 C 389.15625 437.417969 389.449219 437.90625 389.722656 438.414062 C 389.992188 438.917969 390.234375 439.433594 390.457031 439.964844 C 390.675781 440.496094 390.867188 441.03125 391.035156 441.582031 C 391.199219 442.128906 391.339844 442.683594 391.449219 443.246094 C 391.5625 443.808594 391.648438 444.375 391.703125 444.945312 C 391.757812 445.515625 391.789062 446.085938 391.789062 446.660156 C 391.789062 447.234375 391.757812 447.804688 391.703125 448.375 C 391.648438 448.945312 391.5625 449.511719 391.449219 450.074219 C 391.339844 450.636719 391.199219 451.191406 391.035156 451.738281 C 390.867188 452.289062 390.675781 452.828125 390.457031 453.355469 C 390.234375 453.886719 389.992188 454.402344 389.722656 454.90625 C 389.449219 455.414062 389.15625 455.90625 388.839844 456.382812 C 388.519531 456.855469 388.179688 457.316406 387.816406 457.761719 C 387.453125 458.203125 387.066406 458.628906 386.664062 459.03125 C 386.257812 459.4375 385.832031 459.820312 385.390625 460.183594 C 384.949219 460.546875 384.488281 460.890625 384.011719 461.207031 C 383.535156 461.527344 383.042969 461.820312 382.539062 462.089844 C 382.03125 462.359375 381.515625 462.605469 380.988281 462.824219 C 380.457031 463.042969 379.917969 463.238281 379.371094 463.402344 C 378.820312 463.570312 378.265625 463.707031 377.703125 463.820312 C 377.140625 463.933594 376.574219 464.015625 376.003906 464.074219 C 375.4375 464.128906 374.863281 464.15625 374.289062 464.15625 Z M 202.214844 464.15625 " fill-opacity="1" fill-rule="nonzero"/></svg>