<svg xmlns="http://www.w3.org/2000/svg" xmlns:xlink="http://www.w3.org/1999/xlink" width="1080" zoomAndPan="magnify" viewBox="0 0 810 809.999993" height="1080" preserveAspectRatio="xMidYMid meet" version="1.0"><defs><clipPath id="f4dee80fde"><path d="M 114 495 L 719 495 L 719 739.339844 L 114 739.339844 Z M 114 495 " clip-rule="nonzero"/></clipPath><clipPath id="e5c8eaf62c"><path d="M 194 45.589844 L 639 45.589844 L 639 407 L 194 407 Z M 194 45.589844 " clip-rule="nonzero"/></clipPath></defs><path fill="#002157" d="M 475.109375 427.527344 L 448.46875 427.527344 C 425.742188 427.527344 407.265625 409.03125 407.265625 386.304688 C 407.265625 363.589844 425.742188 345.125 448.46875 345.125 L 475.109375 345.125 C 484.125 345.125 492.707031 348.058594 499.734375 353.3125 C 517.84375 350.773438 534.78125 345.585938 548.449219 338.414062 C 548.429688 337.707031 548.414062 337.007812 548.414062 336.296875 L 548.414062 269.355469 C 548.414062 253.753906 554.929688 239.339844 566.039062 229.171875 C 556.515625 154.597656 492.871094 97.710938 416.441406 97.710938 C 340.035156 97.710938 276.394531 154.585938 266.84375 229.171875 C 277.980469 239.339844 284.496094 253.753906 284.496094 269.355469 L 284.496094 336.296875 C 284.496094 346.371094 281.570312 355.710938 276.785156 363.824219 C 289.714844 397.28125 309.535156 429.585938 333.953125 453.359375 C 348.199219 467.34375 364.039062 478.390625 380.886719 485.101562 C 392.5 489.683594 404.628906 492.253906 417.082031 492.253906 C 429.519531 492.253906 441.625 489.710938 453.230469 485.101562 C 470.703125 478.148438 487.058594 466.578125 501.722656 451.921875 C 513.96875 439.691406 525.066406 425.328125 534.675781 409.785156 C 524.75 412.304688 514.566406 414.425781 503.949219 415.675781 C 496.378906 423.167969 486.109375 427.527344 475.109375 427.527344 " fill-opacity="1" fill-rule="nonzero"/><g clip-path="url(#f4dee80fde)"><path fill="#002157" d="M 716.542969 627.273438 C 705.867188 590.367188 692.417969 565.007812 678.5625 547.132812 C 651.625 512.351562 623.308594 506.753906 611.25 504.441406 C 609.757812 504.167969 608.523438 503.933594 607.53125 503.707031 C 594.066406 500.546875 578.621094 499.644531 564.984375 498.855469 C 554.039062 498.199219 543.558594 497.640625 535.042969 495.929688 C 525.148438 522.140625 476.472656 541.195312 416.503906 541.195312 C 356.535156 541.195312 307.90625 522.140625 297.988281 495.929688 C 289.425781 497.640625 278.949219 498.238281 268 498.878906 C 254.386719 499.644531 238.941406 500.546875 225.496094 503.707031 C 224.484375 503.933594 223.226562 504.167969 221.761719 504.441406 C 210.378906 506.640625 184.5 511.613281 158.96875 541.421875 C 143.558594 559.386719 128.300781 586.339844 116.421875 627.210938 C 113.453125 637.414062 113.433594 648.152344 115.84375 658.171875 C 116.957031 662.714844 118.398438 667.222656 120.605469 671.371094 C 146.921875 721.234375 290.539062 739.011719 416.132812 739.011719 L 416.832031 739.011719 C 542.445312 739.011719 686 721.234375 712.375 671.371094 C 714.9375 666.589844 716.460938 661.347656 717.558594 655.949219 C 719.386719 646.601562 719.246094 636.730469 716.542969 627.273438 " fill-opacity="1" fill-rule="nonzero"/></g><g clip-path="url(#e5c8eaf62c)"><path fill="#002157" d="M 228.199219 369.847656 L 229.886719 369.847656 C 248.363281 369.847656 263.378906 354.835938 263.378906 336.296875 L 263.378906 269.355469 C 263.378906 256.195312 255.792969 244.875 244.734375 239.390625 C 249.519531 148.800781 324.691406 76.59375 416.441406 76.59375 C 508.179688 76.59375 583.390625 148.800781 588.152344 239.390625 C 577.113281 244.875 569.523438 256.195312 569.523438 269.355469 L 569.523438 336.296875 C 569.523438 340.753906 570.394531 344.875 571.917969 348.753906 C 552.390625 362.710938 523.96875 372.675781 491.960938 375.429688 C 488.351562 369.929688 482.191406 366.242188 475.109375 366.242188 L 448.46875 366.242188 C 437.347656 366.242188 428.382812 375.246094 428.382812 386.304688 C 428.382812 397.382812 437.347656 406.40625 448.46875 406.40625 L 475.109375 406.40625 C 482.890625 406.40625 489.511719 401.984375 492.828125 395.546875 C 529.996094 392.621094 562.304688 381.285156 584.992188 364.507812 C 590.191406 367.882812 596.359375 369.847656 603.015625 369.847656 L 604.6875 369.847656 C 623.210938 369.847656 638.183594 354.835938 638.183594 336.296875 L 638.183594 269.355469 C 638.183594 256.035156 630.363281 244.503906 619.082031 239.1875 C 614.175781 131.65625 525.164062 45.648438 416.441406 45.648438 C 307.71875 45.648438 218.710938 131.65625 213.820312 239.1875 C 202.542969 244.503906 194.703125 256.035156 194.703125 269.355469 L 194.703125 336.296875 C 194.703125 354.835938 209.71875 369.847656 228.199219 369.847656 " fill-opacity="1" fill-rule="nonzero"/></g></svg>