<svg xmlns="http://www.w3.org/2000/svg" xmlns:xlink="http://www.w3.org/1999/xlink" width="1080" zoomAndPan="magnify" viewBox="0 0 810 809.999993" height="1080" preserveAspectRatio="xMidYMid meet" version="1.0"><path fill="#ef4123" d="M 777.835938 55.777344 L 305.101562 55.777344 C 294.203125 55.777344 285.820312 64.160156 285.820312 75.054688 L 285.820312 312.261719 L 325.214844 359.199219 L 325.214844 95.171875 L 758.558594 95.171875 L 758.558594 486.605469 L 730.898438 464.8125 C 724.191406 458.945312 714.132812 458.945312 706.589844 464.8125 L 659.652344 501.691406 L 612.714844 464.8125 C 606.007812 458.945312 595.949219 458.945312 588.40625 464.8125 L 541.46875 501.691406 L 494.53125 464.8125 C 487.824219 458.945312 477.765625 458.945312 470.222656 464.8125 L 423.285156 501.691406 L 407.359375 489.121094 C 404.84375 492.472656 401.492188 495.824219 398.136719 499.175781 L 378.023438 515.941406 L 411.550781 541.925781 C 418.253906 547.792969 428.3125 547.792969 435.855469 541.925781 L 482.796875 505.042969 L 529.734375 541.925781 C 536.4375 547.792969 546.496094 547.792969 554.039062 541.925781 L 600.980469 505.042969 L 647.917969 541.925781 C 654.625 547.792969 664.679688 547.792969 672.226562 541.925781 L 719.164062 505.042969 L 766.101562 541.925781 C 771.96875 546.117188 780.351562 546.953125 787.054688 544.441406 C 793.761719 541.085938 797.953125 534.382812 797.953125 526.835938 L 797.953125 75.054688 C 797.113281 64.160156 788.734375 55.777344 777.835938 55.777344 Z M 777.835938 55.777344 " fill-opacity="1" fill-rule="nonzero"/><path fill="#ef4123" d="M 437.53125 300.527344 L 466.871094 300.527344 C 472.738281 300.527344 478.605469 303.042969 482.796875 307.234375 C 486.984375 311.425781 489.5 317.292969 489.5 323.160156 C 489.5 335.730469 479.441406 345.789062 466.871094 345.789062 L 437.53125 345.789062 C 428.3125 345.789062 419.929688 339.921875 416.578125 330.703125 C 412.386719 320.644531 401.492188 315.613281 391.433594 318.96875 C 381.375 323.160156 376.34375 334.054688 379.699219 344.113281 C 388.082031 366.746094 409.035156 381.832031 432.503906 383.507812 L 432.503906 405.300781 C 432.503906 416.195312 441.722656 419.550781 451.78125 419.550781 C 461.839844 419.550781 471.058594 416.195312 471.058594 405.300781 L 471.058594 383.507812 C 502.910156 380.992188 528.058594 355.007812 528.058594 322.320312 C 528.058594 305.554688 521.351562 290.46875 510.457031 278.734375 C 498.71875 267 483.632812 260.292969 466.871094 260.292969 L 437.53125 260.292969 C 424.960938 260.292969 414.902344 250.234375 414.902344 237.664062 C 414.902344 231.796875 417.417969 225.929688 421.609375 221.738281 C 425.796875 217.546875 431.664062 215.03125 437.53125 215.03125 L 466.871094 215.03125 C 476.089844 215.03125 484.472656 220.898438 487.824219 230.121094 C 491.175781 240.179688 502.910156 245.207031 512.96875 241.855469 C 523.027344 238.5 528.058594 226.765625 524.703125 216.707031 C 516.324219 194.078125 495.367188 178.992188 471.898438 176.476562 L 471.898438 154.683594 C 471.898438 143.785156 462.679688 140.433594 452.621094 140.433594 C 442.5625 140.433594 433.34375 143.785156 433.34375 154.683594 L 433.34375 176.476562 C 419.09375 177.3125 404.84375 183.179688 394.785156 194.078125 C 383.050781 205.8125 376.34375 220.898438 376.34375 237.664062 C 376.34375 272.867188 404.003906 300.527344 437.53125 300.527344 Z M 437.53125 300.527344 " fill-opacity="1" fill-rule="nonzero"/><path fill="#ef4123" d="M 585.890625 207.488281 L 687.3125 207.488281 C 698.210938 207.488281 706.589844 199.105469 706.589844 188.210938 C 706.589844 177.3125 698.210938 168.933594 687.3125 168.933594 L 585.890625 168.933594 C 574.996094 168.933594 566.613281 177.3125 566.613281 188.210938 C 565.777344 198.269531 574.996094 207.488281 585.890625 207.488281 Z M 585.890625 207.488281 " fill-opacity="1" fill-rule="nonzero"/><path fill="#ef4123" d="M 585.890625 300.527344 L 687.3125 300.527344 C 698.210938 300.527344 706.589844 292.144531 706.589844 281.25 C 706.589844 270.351562 698.210938 261.972656 687.3125 261.972656 L 585.890625 261.972656 C 574.996094 261.972656 566.613281 270.351562 566.613281 281.25 C 566.613281 292.144531 574.996094 300.527344 585.890625 300.527344 Z M 585.890625 300.527344 " fill-opacity="1" fill-rule="nonzero"/><path fill="#ef4123" d="M 585.890625 394.402344 L 687.3125 394.402344 C 698.210938 394.402344 706.589844 386.023438 706.589844 375.125 C 706.589844 364.230469 698.210938 355.847656 687.3125 355.847656 L 585.890625 355.847656 C 574.996094 355.847656 566.613281 364.230469 566.613281 375.125 C 566.613281 386.023438 574.996094 394.402344 585.890625 394.402344 Z M 585.890625 394.402344 " fill-opacity="1" fill-rule="nonzero"/><path fill="#ef4123" d="M 269.894531 556.175781 C 259.835938 564.554688 245.589844 562.878906 238.042969 553.660156 L 231.339844 545.277344 C 222.957031 535.21875 224.632812 520.96875 233.855469 513.425781 L 336.949219 427.09375 C 347.007812 418.710938 361.257812 420.386719 368.800781 429.609375 L 375.507812 437.988281 C 383.890625 448.046875 382.210938 462.296875 372.992188 469.839844 Z M 269.894531 556.175781 " fill-opacity="1" fill-rule="nonzero"/><path fill="#ef4123" d="M 95.554688 347.464844 C 85.496094 355.847656 71.246094 354.171875 63.703125 344.953125 L 56.996094 336.570312 C 48.613281 326.511719 50.292969 312.261719 59.511719 304.71875 L 162.609375 218.386719 C 172.667969 210.003906 186.914062 211.679688 194.460938 220.898438 L 201.164062 229.28125 C 209.546875 239.339844 207.871094 253.589844 198.648438 261.132812 Z M 95.554688 347.464844 " fill-opacity="1" fill-rule="nonzero"/><path fill="#ef4123" d="M 0.839844 528.515625 C 2.515625 517.617188 8.382812 507.558594 16.765625 500.855469 L 147.519531 403.625 L 117.347656 367.582031 L 214.574219 286.277344 L 315.15625 406.140625 L 218.765625 486.605469 L 188.59375 450.5625 L 69.570312 562.878906 C 61.1875 570.421875 50.292969 574.613281 39.394531 573.777344 L 38.554688 573.777344 C 27.660156 572.9375 17.601562 567.910156 10.894531 559.527344 C 3.351562 551.144531 0 539.410156 0.839844 528.515625 Z M 0.839844 528.515625 " fill-opacity="1" fill-rule="nonzero"/><path fill="#ef4123" d="M 127.402344 632.449219 L 159.253906 632.449219 L 159.253906 619.875 C 159.253906 608.140625 168.476562 598.921875 180.210938 598.921875 L 370.476562 598.921875 C 382.210938 598.921875 391.433594 608.140625 391.433594 619.875 L 391.433594 632.449219 L 423.285156 632.449219 C 429.988281 632.449219 435.855469 638.316406 435.855469 645.023438 L 435.855469 670.167969 C 435.855469 676.871094 429.988281 682.742188 423.285156 682.742188 L 127.402344 682.742188 C 120.699219 682.742188 114.832031 676.871094 114.832031 670.167969 L 114.832031 645.023438 C 114.832031 638.316406 119.859375 632.449219 127.402344 632.449219 Z M 127.402344 632.449219 " fill-opacity="1" fill-rule="nonzero"/></svg>