<svg xmlns="http://www.w3.org/2000/svg" xmlns:xlink="http://www.w3.org/1999/xlink" width="1080" zoomAndPan="magnify" viewBox="0 0 810 809.999993" height="1080" preserveAspectRatio="xMidYMid meet" version="1.0"><defs><clipPath id="c96671a697"><path d="M 18.539062 53.117188 L 210.539062 53.117188 L 210.539062 245.117188 L 18.539062 245.117188 Z M 18.539062 53.117188 " clip-rule="nonzero"/></clipPath><clipPath id="75b1d83457"><path d="M 183.253906 165.066406 L 775.074219 165.066406 L 775.074219 756.882812 L 183.253906 756.882812 Z M 183.253906 165.066406 " clip-rule="nonzero"/></clipPath><clipPath id="9fcd7eef61"><path d="M 479.164062 165.066406 C 315.738281 165.066406 183.253906 297.546875 183.253906 460.972656 C 183.253906 624.402344 315.738281 756.882812 479.164062 756.882812 C 642.589844 756.882812 775.074219 624.402344 775.074219 460.972656 C 775.074219 297.546875 642.589844 165.066406 479.164062 165.066406 Z M 479.164062 165.066406 " clip-rule="nonzero"/></clipPath><clipPath id="13fc09b3de"><path d="M 315.582031 314 L 543 314 L 543 646 L 315.582031 646 Z M 315.582031 314 " clip-rule="nonzero"/></clipPath><clipPath id="c802b0dd6d"><path d="M 494 317 L 668.832031 317 L 668.832031 492 L 494 492 Z M 494 317 " clip-rule="nonzero"/></clipPath></defs><g clip-path="url(#c96671a697)"><path fill="#002157" d="M 114.699219 53.117188 C 61.8125 53.117188 18.539062 96.386719 18.539062 149.273438 C 18.539062 202.160156 61.8125 245.433594 114.699219 245.433594 C 167.585938 245.433594 210.855469 202.160156 210.855469 149.273438 C 210.855469 96.386719 167.585938 53.117188 114.699219 53.117188 Z M 127.199219 193.507812 L 109.890625 193.507812 L 109.890625 125.234375 L 88.734375 131.964844 L 88.734375 117.542969 L 125.277344 104.078125 L 127.199219 104.078125 Z M 127.199219 193.507812 " fill-opacity="1" fill-rule="nonzero"/></g><g clip-path="url(#75b1d83457)"><g clip-path="url(#9fcd7eef61)"><path fill="#002157" d="M 183.253906 165.066406 L 775.074219 165.066406 L 775.074219 756.882812 L 183.253906 756.882812 Z M 183.253906 165.066406 " fill-opacity="1" fill-rule="nonzero"/></g></g><path fill="#fffefe" d="M 401.59375 579.507812 C 402.132812 579.507812 402.664062 579.5625 403.191406 579.667969 C 403.71875 579.769531 404.230469 579.925781 404.726562 580.132812 C 405.226562 580.339844 405.695312 580.589844 406.144531 580.890625 C 406.589844 581.1875 407.003906 581.527344 407.386719 581.90625 C 407.765625 582.289062 408.105469 582.703125 408.402344 583.148438 C 408.703125 583.597656 408.957031 584.070312 409.160156 584.566406 C 409.367188 585.0625 409.523438 585.574219 409.628906 586.101562 C 409.730469 586.628906 409.785156 587.164062 409.785156 587.699219 C 409.785156 588.238281 409.730469 588.769531 409.628906 589.296875 C 409.523438 589.824219 409.367188 590.339844 409.160156 590.835938 C 408.957031 591.332031 408.703125 591.804688 408.402344 592.25 C 408.105469 592.699219 407.765625 593.113281 407.386719 593.492188 C 407.003906 593.871094 406.589844 594.210938 406.144531 594.511719 C 405.695312 594.808594 405.226562 595.0625 404.726562 595.269531 C 404.230469 595.472656 403.71875 595.628906 403.191406 595.734375 C 402.664062 595.839844 402.132812 595.890625 401.59375 595.890625 C 398.835938 595.875 396.105469 595.597656 393.402344 595.054688 C 390.699219 594.507812 388.070312 593.710938 385.523438 592.65625 C 382.976562 591.605469 380.550781 590.316406 378.253906 588.792969 C 375.953125 587.269531 373.820312 585.539062 371.859375 583.605469 C 369.90625 581.667969 368.164062 579.5625 366.632812 577.28125 C 365.097656 575 363.804688 572.589844 362.75 570.050781 C 361.695312 567.511719 360.902344 564.894531 360.367188 562.199219 C 359.832031 559.503906 359.566406 556.78125 359.570312 554.035156 L 359.570312 287.195312 C 359.570312 286.660156 359.625 286.125 359.730469 285.597656 C 359.832031 285.070312 359.988281 284.558594 360.195312 284.0625 C 360.402344 283.566406 360.652344 283.09375 360.953125 282.644531 C 361.25 282.199219 361.589844 281.785156 361.96875 281.40625 C 362.351562 281.023438 362.765625 280.683594 363.210938 280.386719 C 363.660156 280.085938 364.132812 279.835938 364.628906 279.628906 C 365.125 279.421875 365.636719 279.269531 366.164062 279.164062 C 366.691406 279.058594 367.226562 279.003906 367.761719 279.003906 L 567.757812 279.003906 C 568.292969 279.003906 568.828125 279.058594 569.355469 279.164062 C 569.882812 279.269531 570.394531 279.421875 570.890625 279.628906 C 571.386719 279.835938 571.859375 280.085938 572.308594 280.386719 C 572.753906 280.683594 573.167969 281.023438 573.550781 281.40625 C 573.929688 281.785156 574.269531 282.199219 574.566406 282.644531 C 574.867188 283.09375 575.117188 283.566406 575.324219 284.0625 C 575.53125 284.558594 575.6875 285.070312 575.789062 285.597656 C 575.894531 286.125 575.949219 286.660156 575.949219 287.195312 L 575.949219 360.265625 C 575.949219 360.800781 575.894531 361.335938 575.789062 361.863281 C 575.6875 362.390625 575.53125 362.902344 575.324219 363.398438 C 575.117188 363.894531 574.867188 364.367188 574.566406 364.816406 C 574.269531 365.261719 573.929688 365.675781 573.550781 366.058594 C 573.167969 366.4375 572.753906 366.777344 572.308594 367.074219 C 571.859375 367.375 571.386719 367.625 570.890625 367.832031 C 570.394531 368.039062 569.882812 368.195312 569.355469 368.296875 C 568.828125 368.402344 568.292969 368.457031 567.757812 368.457031 C 567.21875 368.457031 566.6875 368.402344 566.160156 368.296875 C 565.632812 368.195312 565.117188 368.039062 564.621094 367.832031 C 564.125 367.625 563.652344 367.375 563.207031 367.074219 C 562.757812 366.777344 562.34375 366.4375 561.964844 366.058594 C 561.585938 365.675781 561.246094 365.261719 560.945312 364.816406 C 560.648438 364.367188 560.394531 363.894531 560.1875 363.398438 C 559.984375 362.902344 559.828125 362.390625 559.722656 361.863281 C 559.617188 361.335938 559.566406 360.800781 559.566406 360.265625 L 559.566406 295.46875 L 376.078125 295.46875 L 376.078125 554.035156 C 376.070312 555.707031 376.226562 557.363281 376.550781 559.003906 C 376.875 560.644531 377.359375 562.238281 378.003906 563.78125 C 378.648438 565.328125 379.4375 566.792969 380.375 568.175781 C 381.3125 569.5625 382.378906 570.839844 383.570312 572.011719 C 384.753906 573.203125 386.039062 574.261719 387.429688 575.195312 C 388.820312 576.128906 390.289062 576.917969 391.832031 577.5625 C 393.378906 578.203125 394.976562 578.691406 396.617188 579.019531 C 398.257812 579.34375 399.917969 579.507812 401.59375 579.507812 Z M 559.441406 443.039062 C 559.441406 442.5 559.496094 441.96875 559.601562 441.441406 C 559.703125 440.914062 559.859375 440.402344 560.066406 439.90625 C 560.273438 439.40625 560.523438 438.933594 560.824219 438.488281 C 561.121094 438.042969 561.460938 437.628906 561.839844 437.246094 C 562.222656 436.867188 562.636719 436.527344 563.082031 436.226562 C 563.53125 435.929688 564.003906 435.675781 564.5 435.472656 C 564.996094 435.265625 565.507812 435.109375 566.035156 435.003906 C 566.5625 434.898438 567.097656 434.847656 567.632812 434.847656 C 568.171875 434.847656 568.703125 434.898438 569.230469 435.003906 C 569.757812 435.109375 570.273438 435.265625 570.769531 435.472656 C 571.265625 435.675781 571.738281 435.929688 572.183594 436.226562 C 572.632812 436.527344 573.046875 436.867188 573.425781 437.246094 C 573.804688 437.628906 574.144531 438.042969 574.445312 438.488281 C 574.742188 438.933594 574.996094 439.40625 575.203125 439.90625 C 575.40625 440.402344 575.5625 440.914062 575.667969 441.441406 C 575.773438 441.96875 575.824219 442.5 575.824219 443.039062 L 575.824219 504.804688 C 575.824219 505.339844 575.773438 505.875 575.667969 506.402344 C 575.5625 506.929688 575.40625 507.441406 575.203125 507.9375 C 574.996094 508.433594 574.742188 508.90625 574.445312 509.355469 C 574.144531 509.800781 573.804688 510.214844 573.425781 510.59375 C 573.046875 510.976562 572.632812 511.316406 572.183594 511.613281 C 571.738281 511.914062 571.265625 512.164062 570.769531 512.371094 C 570.273438 512.578125 569.757812 512.730469 569.230469 512.835938 C 568.703125 512.941406 568.171875 512.996094 567.632812 512.996094 C 567.097656 512.996094 566.5625 512.941406 566.035156 512.835938 C 565.507812 512.730469 564.996094 512.578125 564.5 512.371094 C 564.003906 512.164062 563.53125 511.914062 563.082031 511.613281 C 562.636719 511.316406 562.222656 510.976562 561.839844 510.59375 C 561.460938 510.214844 561.121094 509.800781 560.824219 509.355469 C 560.523438 508.90625 560.273438 508.433594 560.066406 507.9375 C 559.859375 507.441406 559.703125 506.929688 559.601562 506.402344 C 559.496094 505.875 559.441406 505.339844 559.441406 504.804688 Z M 559.441406 443.039062 " fill-opacity="1" fill-rule="nonzero"/><path fill="#fffefe" d="M 430.386719 521.964844 L 601.464844 521.964844 C 602.003906 521.964844 602.535156 522.015625 603.0625 522.121094 C 603.589844 522.226562 604.101562 522.382812 604.597656 522.585938 C 605.097656 522.792969 605.566406 523.046875 606.015625 523.34375 C 606.460938 523.644531 606.875 523.984375 607.257812 524.363281 C 607.636719 524.742188 607.976562 525.15625 608.277344 525.605469 C 608.574219 526.050781 608.828125 526.523438 609.03125 527.019531 C 609.238281 527.515625 609.394531 528.03125 609.5 528.558594 C 609.601562 529.085938 609.65625 529.617188 609.65625 530.15625 L 609.65625 558.824219 C 609.679688 561.28125 609.457031 563.714844 608.992188 566.125 C 608.53125 568.535156 607.832031 570.878906 606.898438 573.148438 C 605.96875 575.421875 604.820312 577.578125 603.457031 579.621094 C 602.09375 581.664062 600.542969 583.550781 598.800781 585.285156 C 597.074219 586.996094 595.199219 588.527344 593.171875 589.875 C 591.148438 591.21875 589.011719 592.359375 586.765625 593.289062 C 584.515625 594.21875 582.199219 594.925781 579.816406 595.40625 C 577.429688 595.882812 575.023438 596.128906 572.589844 596.136719 L 401.59375 596.136719 L 401.59375 579.753906 C 402.941406 579.75 404.277344 579.617188 405.597656 579.351562 C 406.921875 579.082031 408.203125 578.691406 409.449219 578.167969 C 410.691406 577.648438 411.871094 577.011719 412.992188 576.257812 C 414.109375 575.507812 415.144531 574.652344 416.09375 573.691406 L 416.460938 573.324219 C 418.300781 571.433594 419.71875 569.265625 420.710938 566.820312 C 421.703125 564.375 422.195312 561.832031 422.195312 559.195312 L 422.195312 530.523438 C 422.195312 529.984375 422.246094 529.453125 422.351562 528.925781 C 422.457031 528.398438 422.613281 527.886719 422.816406 527.390625 C 423.023438 526.890625 423.277344 526.421875 423.574219 525.972656 C 423.875 525.527344 424.214844 525.113281 424.59375 524.730469 C 424.972656 524.351562 425.386719 524.011719 425.835938 523.714844 C 426.28125 523.414062 426.753906 523.160156 427.25 522.957031 C 427.75 522.75 428.261719 522.59375 428.789062 522.488281 C 429.316406 522.386719 429.847656 522.332031 430.386719 522.332031 Z M 593.273438 538.347656 L 438.863281 538.347656 L 438.863281 558.824219 C 438.851562 562.476562 438.304688 566.042969 437.230469 569.53125 C 436.15625 573.019531 434.597656 576.277344 432.558594 579.304688 L 572.671875 579.304688 C 574.023438 579.296875 575.359375 579.160156 576.683594 578.890625 C 578.007812 578.621094 579.292969 578.226562 580.539062 577.707031 C 581.785156 577.1875 582.972656 576.554688 584.09375 575.800781 C 585.214844 575.050781 586.253906 574.195312 587.210938 573.242188 C 588.175781 572.296875 589.035156 571.265625 589.792969 570.148438 C 590.550781 569.03125 591.191406 567.851562 591.710938 566.605469 C 592.230469 565.363281 592.625 564.078125 592.886719 562.753906 C 593.148438 561.429688 593.277344 560.09375 593.273438 558.742188 Z M 593.273438 538.347656 " fill-opacity="1" fill-rule="nonzero"/><g clip-path="url(#13fc09b3de)"><path fill="#fffefe" d="M 526.0625 611.003906 C 526.0625 610.46875 526.113281 609.933594 526.21875 609.40625 C 526.324219 608.878906 526.480469 608.367188 526.6875 607.871094 C 526.890625 607.375 527.144531 606.902344 527.441406 606.453125 C 527.742188 606.007812 528.082031 605.59375 528.460938 605.210938 C 528.84375 604.832031 529.253906 604.492188 529.703125 604.195312 C 530.148438 603.894531 530.621094 603.644531 531.117188 603.4375 C 531.617188 603.230469 532.128906 603.074219 532.65625 602.972656 C 533.183594 602.867188 533.714844 602.8125 534.253906 602.8125 C 534.792969 602.8125 535.324219 602.867188 535.851562 602.972656 C 536.378906 603.074219 536.890625 603.230469 537.386719 603.4375 C 537.886719 603.644531 538.355469 603.894531 538.804688 604.195312 C 539.25 604.492188 539.664062 604.832031 540.046875 605.210938 C 540.425781 605.59375 540.765625 606.007812 541.066406 606.453125 C 541.363281 606.902344 541.617188 607.375 541.820312 607.871094 C 542.027344 608.367188 542.183594 608.878906 542.289062 609.40625 C 542.394531 609.933594 542.445312 610.46875 542.445312 611.003906 L 542.445312 637.503906 C 542.445312 638.042969 542.394531 638.574219 542.289062 639.101562 C 542.183594 639.628906 542.027344 640.140625 541.820312 640.640625 C 541.617188 641.136719 541.363281 641.609375 541.066406 642.054688 C 540.765625 642.503906 540.425781 642.917969 540.046875 643.296875 C 539.664062 643.675781 539.25 644.015625 538.804688 644.316406 C 538.355469 644.613281 537.886719 644.867188 537.386719 645.070312 C 536.890625 645.277344 536.378906 645.433594 535.851562 645.539062 C 535.324219 645.644531 534.792969 645.695312 534.253906 645.695312 L 323.609375 645.695312 C 323.074219 645.695312 322.539062 645.644531 322.011719 645.539062 C 321.484375 645.433594 320.972656 645.277344 320.476562 645.070312 C 319.980469 644.867188 319.507812 644.613281 319.058594 644.316406 C 318.613281 644.015625 318.199219 643.675781 317.820312 643.296875 C 317.4375 642.917969 317.097656 642.503906 316.800781 642.054688 C 316.5 641.609375 316.25 641.136719 316.042969 640.640625 C 315.835938 640.140625 315.679688 639.628906 315.578125 639.101562 C 315.472656 638.574219 315.417969 638.042969 315.417969 637.503906 L 315.417969 323.15625 C 315.417969 322.621094 315.472656 322.085938 315.578125 321.558594 C 315.679688 321.03125 315.835938 320.519531 316.042969 320.023438 C 316.25 319.527344 316.5 319.054688 316.800781 318.605469 C 317.097656 318.160156 317.4375 317.746094 317.820312 317.363281 C 318.199219 316.984375 318.613281 316.644531 319.058594 316.347656 C 319.507812 316.046875 319.980469 315.796875 320.476562 315.589844 C 320.972656 315.382812 321.484375 315.226562 322.011719 315.125 C 322.539062 315.019531 323.074219 314.964844 323.609375 314.964844 L 367.761719 314.964844 C 368.300781 314.964844 368.832031 315.019531 369.359375 315.125 C 369.886719 315.226562 370.398438 315.382812 370.898438 315.589844 C 371.394531 315.796875 371.867188 316.046875 372.3125 316.347656 C 372.761719 316.644531 373.175781 316.984375 373.554688 317.363281 C 373.933594 317.746094 374.273438 318.160156 374.574219 318.605469 C 374.871094 319.054688 375.125 319.527344 375.332031 320.023438 C 375.535156 320.519531 375.691406 321.03125 375.796875 321.558594 C 375.902344 322.085938 375.953125 322.621094 375.953125 323.15625 C 375.953125 323.695312 375.902344 324.226562 375.796875 324.753906 C 375.691406 325.28125 375.535156 325.796875 375.332031 326.292969 C 375.125 326.789062 374.871094 327.261719 374.574219 327.707031 C 374.273438 328.15625 373.933594 328.570312 373.554688 328.949219 C 373.175781 329.328125 372.761719 329.667969 372.3125 329.96875 C 371.867188 330.265625 371.394531 330.519531 370.898438 330.726562 C 370.398438 330.929688 369.886719 331.085938 369.359375 331.191406 C 368.832031 331.296875 368.300781 331.347656 367.761719 331.347656 L 331.925781 331.347656 L 331.925781 629.355469 L 526.0625 629.355469 Z M 526.0625 611.003906 " fill-opacity="1" fill-rule="nonzero"/></g><g clip-path="url(#c802b0dd6d)"><path fill="#fffefe" d="M 649.710938 338.3125 L 647.746094 336.222656 C 647.402344 335.890625 647.03125 335.59375 646.632812 335.332031 C 646.234375 335.074219 645.8125 334.851562 645.371094 334.675781 C 644.925781 334.496094 644.472656 334.359375 644.003906 334.269531 C 643.535156 334.175781 643.0625 334.132812 642.585938 334.132812 C 642.109375 334.132812 641.636719 334.175781 641.167969 334.269531 C 640.699219 334.359375 640.242188 334.496094 639.800781 334.675781 C 639.359375 334.851562 638.9375 335.074219 638.539062 335.332031 C 638.140625 335.59375 637.769531 335.890625 637.425781 336.222656 L 520.777344 452.253906 L 515.042969 470.808594 L 533.558594 465.113281 L 650.203125 348.960938 C 650.855469 348.289062 651.355469 347.515625 651.695312 346.640625 C 652.035156 345.765625 652.195312 344.859375 652.167969 343.921875 C 652.199219 342.972656 652.042969 342.054688 651.703125 341.164062 C 651.359375 340.277344 650.863281 339.488281 650.203125 338.804688 C 649.957031 338.804688 649.835938 338.433594 649.710938 338.3125 Z M 659.214844 324.550781 L 661.425781 326.761719 L 661.792969 327.089844 C 662.902344 328.195312 663.890625 329.394531 664.761719 330.695312 C 665.632812 331.996094 666.367188 333.367188 666.96875 334.808594 C 667.570312 336.253906 668.023438 337.742188 668.332031 339.277344 C 668.640625 340.808594 668.796875 342.359375 668.796875 343.921875 C 668.800781 345.476562 668.648438 347.019531 668.34375 348.542969 C 668.039062 350.070312 667.585938 351.550781 666.984375 352.984375 C 666.382812 354.421875 665.644531 355.78125 664.769531 357.070312 C 663.898438 358.355469 662.90625 359.542969 661.792969 360.632812 L 544 478.179688 C 542.992188 479.046875 541.855469 479.703125 540.601562 480.148438 L 505.09375 491.082031 C 503.496094 491.625 501.898438 491.625 500.300781 491.082031 C 499.785156 490.921875 499.292969 490.710938 498.820312 490.453125 C 498.347656 490.195312 497.90625 489.894531 497.492188 489.546875 C 497.078125 489.203125 496.703125 488.820312 496.367188 488.398438 C 496.027344 487.980469 495.734375 487.53125 495.484375 487.054688 C 495.234375 486.578125 495.035156 486.082031 494.886719 485.5625 C 494.734375 485.046875 494.632812 484.519531 494.585938 483.984375 C 494.539062 483.445312 494.546875 482.910156 494.605469 482.375 C 494.664062 481.839844 494.773438 481.316406 494.933594 480.800781 L 505.582031 446.027344 C 505.878906 444.425781 506.613281 443.058594 507.796875 441.933594 L 625.589844 324.386719 C 626.707031 323.296875 627.917969 322.324219 629.226562 321.46875 C 630.53125 320.613281 631.910156 319.890625 633.355469 319.300781 C 634.800781 318.710938 636.289062 318.265625 637.820312 317.960938 C 639.355469 317.660156 640.902344 317.507812 642.460938 317.503906 C 644.015625 317.503906 645.554688 317.652344 647.078125 317.953125 C 648.601562 318.25 650.082031 318.695312 651.519531 319.285156 C 652.957031 319.875 654.324219 320.601562 655.617188 321.460938 C 656.910156 322.316406 658.109375 323.292969 659.214844 324.386719 Z M 659.214844 324.550781 " fill-opacity="1" fill-rule="nonzero"/></g><path fill="#fffefe" d="M 635.664062 375.089844 L 611.210938 350.558594 L 622.925781 339.007812 L 647.378906 363.417969 Z M 635.664062 375.089844 " fill-opacity="1" fill-rule="nonzero"/><path fill="#fffefe" d="M 397.375 331.0625 C 396.835938 331.0625 396.304688 331.007812 395.777344 330.90625 C 395.25 330.800781 394.738281 330.644531 394.238281 330.4375 C 393.742188 330.234375 393.269531 329.980469 392.824219 329.679688 C 392.375 329.382812 391.960938 329.042969 391.582031 328.664062 C 391.203125 328.28125 390.863281 327.867188 390.5625 327.421875 C 390.265625 326.972656 390.011719 326.503906 389.808594 326.003906 C 389.601562 325.507812 389.445312 324.996094 389.339844 324.46875 C 389.234375 323.941406 389.183594 323.410156 389.183594 322.871094 C 389.183594 322.332031 389.234375 321.800781 389.339844 321.273438 C 389.445312 320.746094 389.601562 320.234375 389.808594 319.734375 C 390.011719 319.238281 390.265625 318.765625 390.5625 318.320312 C 390.863281 317.871094 391.203125 317.457031 391.582031 317.078125 C 391.960938 316.699219 392.375 316.359375 392.824219 316.058594 C 393.269531 315.761719 393.742188 315.507812 394.238281 315.304688 C 394.738281 315.097656 395.25 314.941406 395.777344 314.835938 C 396.304688 314.730469 396.835938 314.679688 397.375 314.679688 L 538.144531 314.679688 C 538.683594 314.679688 539.214844 314.730469 539.742188 314.835938 C 540.269531 314.941406 540.78125 315.097656 541.28125 315.304688 C 541.777344 315.507812 542.25 315.761719 542.695312 316.058594 C 543.144531 316.359375 543.554688 316.699219 543.9375 317.078125 C 544.316406 317.457031 544.65625 317.871094 544.957031 318.320312 C 545.253906 318.765625 545.507812 319.238281 545.710938 319.734375 C 545.917969 320.234375 546.074219 320.746094 546.179688 321.273438 C 546.285156 321.800781 546.335938 322.332031 546.335938 322.871094 C 546.335938 323.410156 546.285156 323.941406 546.179688 324.46875 C 546.074219 324.996094 545.917969 325.507812 545.710938 326.003906 C 545.507812 326.503906 545.253906 326.972656 544.957031 327.421875 C 544.65625 327.867188 544.316406 328.28125 543.9375 328.664062 C 543.554688 329.042969 543.144531 329.382812 542.695312 329.679688 C 542.25 329.980469 541.777344 330.234375 541.28125 330.4375 C 540.78125 330.644531 540.269531 330.800781 539.742188 330.90625 C 539.214844 331.007812 538.683594 331.0625 538.144531 331.0625 Z M 397.375 331.0625 " fill-opacity="1" fill-rule="nonzero"/><path fill="#fffefe" d="M 397.375 360.714844 C 396.835938 360.714844 396.304688 360.664062 395.777344 360.558594 C 395.25 360.453125 394.738281 360.296875 394.238281 360.089844 C 393.742188 359.886719 393.269531 359.632812 392.824219 359.335938 C 392.375 359.035156 391.960938 358.695312 391.582031 358.316406 C 391.203125 357.9375 390.863281 357.523438 390.5625 357.074219 C 390.265625 356.628906 390.011719 356.15625 389.808594 355.660156 C 389.601562 355.160156 389.445312 354.648438 389.339844 354.121094 C 389.234375 353.59375 389.183594 353.0625 389.183594 352.523438 C 389.183594 351.984375 389.234375 351.453125 389.339844 350.925781 C 389.445312 350.398438 389.601562 349.886719 389.808594 349.390625 C 390.011719 348.890625 390.265625 348.421875 390.5625 347.972656 C 390.863281 347.527344 391.203125 347.113281 391.582031 346.730469 C 391.960938 346.351562 392.375 346.011719 392.824219 345.710938 C 393.269531 345.414062 393.742188 345.160156 394.238281 344.957031 C 394.738281 344.75 395.25 344.59375 395.777344 344.488281 C 396.304688 344.386719 396.835938 344.332031 397.375 344.332031 L 538.144531 344.332031 C 538.683594 344.332031 539.214844 344.386719 539.742188 344.488281 C 540.269531 344.59375 540.78125 344.75 541.28125 344.957031 C 541.777344 345.160156 542.25 345.414062 542.695312 345.710938 C 543.144531 346.011719 543.554688 346.351562 543.9375 346.730469 C 544.316406 347.113281 544.65625 347.527344 544.957031 347.972656 C 545.253906 348.421875 545.507812 348.890625 545.710938 349.390625 C 545.917969 349.886719 546.074219 350.398438 546.179688 350.925781 C 546.285156 351.453125 546.335938 351.984375 546.335938 352.523438 C 546.335938 353.0625 546.285156 353.59375 546.179688 354.121094 C 546.074219 354.648438 545.917969 355.160156 545.710938 355.660156 C 545.507812 356.15625 545.253906 356.628906 544.957031 357.074219 C 544.65625 357.523438 544.316406 357.9375 543.9375 358.316406 C 543.554688 358.695312 543.144531 359.035156 542.695312 359.335938 C 542.25 359.632812 541.777344 359.886719 541.28125 360.089844 C 540.78125 360.296875 540.269531 360.453125 539.742188 360.558594 C 539.214844 360.664062 538.683594 360.714844 538.144531 360.714844 Z M 397.375 360.714844 " fill-opacity="1" fill-rule="nonzero"/><path fill="#fffefe" d="M 397.375 360.714844 C 396.835938 360.714844 396.304688 360.664062 395.777344 360.558594 C 395.25 360.453125 394.738281 360.296875 394.238281 360.089844 C 393.742188 359.886719 393.269531 359.632812 392.824219 359.335938 C 392.375 359.035156 391.960938 358.695312 391.582031 358.316406 C 391.203125 357.9375 390.863281 357.523438 390.5625 357.074219 C 390.265625 356.628906 390.011719 356.15625 389.808594 355.660156 C 389.601562 355.160156 389.445312 354.648438 389.339844 354.121094 C 389.234375 353.59375 389.183594 353.0625 389.183594 352.523438 C 389.183594 351.984375 389.234375 351.453125 389.339844 350.925781 C 389.445312 350.398438 389.601562 349.886719 389.808594 349.390625 C 390.011719 348.890625 390.265625 348.421875 390.5625 347.972656 C 390.863281 347.527344 391.203125 347.113281 391.582031 346.730469 C 391.960938 346.351562 392.375 346.011719 392.824219 345.710938 C 393.269531 345.414062 393.742188 345.160156 394.238281 344.957031 C 394.738281 344.75 395.25 344.59375 395.777344 344.488281 C 396.304688 344.386719 396.835938 344.332031 397.375 344.332031 L 538.144531 344.332031 C 538.683594 344.332031 539.214844 344.386719 539.742188 344.488281 C 540.269531 344.59375 540.78125 344.75 541.28125 344.957031 C 541.777344 345.160156 542.25 345.414062 542.695312 345.710938 C 543.144531 346.011719 543.554688 346.351562 543.9375 346.730469 C 544.316406 347.113281 544.65625 347.527344 544.957031 347.972656 C 545.253906 348.421875 545.507812 348.890625 545.710938 349.390625 C 545.917969 349.886719 546.074219 350.398438 546.179688 350.925781 C 546.285156 351.453125 546.335938 351.984375 546.335938 352.523438 C 546.335938 353.0625 546.285156 353.59375 546.179688 354.121094 C 546.074219 354.648438 545.917969 355.160156 545.710938 355.660156 C 545.507812 356.15625 545.253906 356.628906 544.957031 357.074219 C 544.65625 357.523438 544.316406 357.9375 543.9375 358.316406 C 543.554688 358.695312 543.144531 359.035156 542.695312 359.335938 C 542.25 359.632812 541.777344 359.886719 541.28125 360.089844 C 540.78125 360.296875 540.269531 360.453125 539.742188 360.558594 C 539.214844 360.664062 538.683594 360.714844 538.144531 360.714844 Z M 397.375 360.714844 " fill-opacity="1" fill-rule="nonzero"/><path fill="#fffefe" d="M 397.375 391.679688 C 396.835938 391.679688 396.304688 391.625 395.777344 391.519531 C 395.25 391.417969 394.738281 391.261719 394.238281 391.054688 C 393.742188 390.847656 393.269531 390.597656 392.824219 390.296875 C 392.375 390 391.960938 389.660156 391.582031 389.28125 C 391.203125 388.898438 390.863281 388.484375 390.5625 388.039062 C 390.265625 387.589844 390.011719 387.117188 389.808594 386.621094 C 389.601562 386.125 389.445312 385.613281 389.339844 385.085938 C 389.234375 384.558594 389.183594 384.023438 389.183594 383.488281 C 389.183594 382.949219 389.234375 382.417969 389.339844 381.890625 C 389.445312 381.363281 389.601562 380.847656 389.808594 380.351562 C 390.011719 379.855469 390.265625 379.382812 390.5625 378.9375 C 390.863281 378.488281 391.203125 378.074219 391.582031 377.695312 C 391.960938 377.316406 392.375 376.976562 392.824219 376.675781 C 393.269531 376.378906 393.742188 376.125 394.238281 375.917969 C 394.738281 375.714844 395.25 375.558594 395.777344 375.453125 C 396.304688 375.347656 396.835938 375.296875 397.375 375.296875 L 538.144531 375.296875 C 538.683594 375.296875 539.214844 375.347656 539.742188 375.453125 C 540.269531 375.558594 540.78125 375.714844 541.28125 375.917969 C 541.777344 376.125 542.25 376.378906 542.695312 376.675781 C 543.144531 376.976562 543.554688 377.316406 543.9375 377.695312 C 544.316406 378.074219 544.65625 378.488281 544.957031 378.9375 C 545.253906 379.382812 545.507812 379.855469 545.710938 380.351562 C 545.917969 380.847656 546.074219 381.363281 546.179688 381.890625 C 546.285156 382.417969 546.335938 382.949219 546.335938 383.488281 C 546.335938 384.023438 546.285156 384.558594 546.179688 385.085938 C 546.074219 385.613281 545.917969 386.125 545.710938 386.621094 C 545.507812 387.117188 545.253906 387.589844 544.957031 388.039062 C 544.65625 388.484375 544.316406 388.898438 543.9375 389.28125 C 543.554688 389.660156 543.144531 390 542.695312 390.296875 C 542.25 390.597656 541.777344 390.847656 541.28125 391.054688 C 540.78125 391.261719 540.269531 391.417969 539.742188 391.519531 C 539.214844 391.625 538.683594 391.679688 538.144531 391.679688 Z M 397.375 391.679688 " fill-opacity="1" fill-rule="nonzero"/><path fill="#fffefe" d="M 397.375 422.96875 C 396.835938 422.96875 396.304688 422.917969 395.777344 422.8125 C 395.25 422.707031 394.738281 422.550781 394.238281 422.347656 C 393.742188 422.140625 393.269531 421.886719 392.824219 421.589844 C 392.375 421.289062 391.960938 420.953125 391.582031 420.570312 C 391.203125 420.191406 390.863281 419.777344 390.5625 419.328125 C 390.265625 418.882812 390.011719 418.410156 389.808594 417.914062 C 389.601562 417.417969 389.445312 416.90625 389.339844 416.375 C 389.234375 415.847656 389.183594 415.316406 389.183594 414.777344 C 389.183594 414.242188 389.234375 413.707031 389.339844 413.179688 C 389.445312 412.652344 389.601562 412.140625 389.808594 411.644531 C 390.011719 411.148438 390.265625 410.675781 390.5625 410.226562 C 390.863281 409.78125 391.203125 409.367188 391.582031 408.988281 C 391.960938 408.605469 392.375 408.265625 392.824219 407.96875 C 393.269531 407.667969 393.742188 407.417969 394.238281 407.210938 C 394.738281 407.003906 395.25 406.851562 395.777344 406.746094 C 396.304688 406.640625 396.835938 406.585938 397.375 406.585938 L 477.9375 406.585938 C 478.476562 406.585938 479.007812 406.640625 479.535156 406.746094 C 480.0625 406.851562 480.574219 407.003906 481.070312 407.210938 C 481.570312 407.417969 482.042969 407.667969 482.488281 407.96875 C 482.9375 408.265625 483.347656 408.605469 483.730469 408.988281 C 484.109375 409.367188 484.449219 409.78125 484.75 410.226562 C 485.046875 410.675781 485.300781 411.148438 485.503906 411.644531 C 485.710938 412.140625 485.867188 412.652344 485.972656 413.179688 C 486.078125 413.707031 486.128906 414.242188 486.128906 414.777344 C 486.128906 415.316406 486.078125 415.847656 485.972656 416.375 C 485.867188 416.90625 485.710938 417.417969 485.503906 417.914062 C 485.300781 418.410156 485.046875 418.882812 484.75 419.328125 C 484.449219 419.777344 484.109375 420.191406 483.730469 420.570312 C 483.347656 420.953125 482.9375 421.289062 482.488281 421.589844 C 482.042969 421.886719 481.570312 422.140625 481.070312 422.347656 C 480.574219 422.550781 480.0625 422.707031 479.535156 422.8125 C 479.007812 422.917969 478.476562 422.96875 477.9375 422.96875 Z M 397.375 422.96875 " fill-opacity="1" fill-rule="nonzero"/><path fill="#fffefe" d="M 397.375 453.648438 C 396.835938 453.648438 396.304688 453.59375 395.777344 453.488281 C 395.25 453.386719 394.738281 453.230469 394.238281 453.023438 C 393.742188 452.816406 393.269531 452.566406 392.824219 452.265625 C 392.375 451.96875 391.960938 451.628906 391.582031 451.246094 C 391.203125 450.867188 390.863281 450.453125 390.5625 450.007812 C 390.265625 449.558594 390.011719 449.085938 389.808594 448.589844 C 389.601562 448.09375 389.445312 447.582031 389.339844 447.054688 C 389.234375 446.527344 389.183594 445.992188 389.183594 445.457031 C 389.183594 444.917969 389.234375 444.386719 389.339844 443.859375 C 389.445312 443.332031 389.601562 442.816406 389.808594 442.320312 C 390.011719 441.824219 390.265625 441.351562 390.5625 440.90625 C 390.863281 440.457031 391.203125 440.042969 391.582031 439.664062 C 391.960938 439.28125 392.375 438.945312 392.824219 438.644531 C 393.269531 438.347656 393.742188 438.09375 394.238281 437.886719 C 394.738281 437.683594 395.25 437.527344 395.777344 437.421875 C 396.304688 437.316406 396.835938 437.265625 397.375 437.265625 L 477.9375 437.265625 C 478.476562 437.265625 479.007812 437.316406 479.535156 437.421875 C 480.0625 437.527344 480.574219 437.683594 481.070312 437.886719 C 481.570312 438.09375 482.042969 438.347656 482.488281 438.644531 C 482.9375 438.945312 483.347656 439.28125 483.730469 439.664062 C 484.109375 440.042969 484.449219 440.457031 484.75 440.90625 C 485.046875 441.351562 485.300781 441.824219 485.503906 442.320312 C 485.710938 442.816406 485.867188 443.332031 485.972656 443.859375 C 486.078125 444.386719 486.128906 444.917969 486.128906 445.457031 C 486.128906 445.992188 486.078125 446.527344 485.972656 447.054688 C 485.867188 447.582031 485.710938 448.09375 485.503906 448.589844 C 485.300781 449.085938 485.046875 449.558594 484.75 450.007812 C 484.449219 450.453125 484.109375 450.867188 483.730469 451.246094 C 483.347656 451.628906 482.9375 451.96875 482.488281 452.265625 C 482.042969 452.566406 481.570312 452.816406 481.070312 453.023438 C 480.574219 453.230469 480.0625 453.386719 479.535156 453.488281 C 479.007812 453.59375 478.476562 453.648438 477.9375 453.648438 Z M 397.375 453.648438 " fill-opacity="1" fill-rule="nonzero"/><path fill="#fffefe" d="M 397.375 485.429688 C 396.835938 485.429688 396.304688 485.378906 395.777344 485.273438 C 395.25 485.167969 394.738281 485.011719 394.238281 484.804688 C 393.742188 484.601562 393.269531 484.347656 392.824219 484.050781 C 392.375 483.75 391.960938 483.410156 391.582031 483.03125 C 391.203125 482.652344 390.863281 482.238281 390.5625 481.789062 C 390.265625 481.34375 390.011719 480.871094 389.808594 480.375 C 389.601562 479.875 389.445312 479.363281 389.339844 478.835938 C 389.234375 478.308594 389.183594 477.777344 389.183594 477.238281 C 389.183594 476.699219 389.234375 476.167969 389.339844 475.640625 C 389.445312 475.113281 389.601562 474.601562 389.808594 474.105469 C 390.011719 473.605469 390.265625 473.136719 390.5625 472.6875 C 390.863281 472.242188 391.203125 471.828125 391.582031 471.445312 C 391.960938 471.066406 392.375 470.726562 392.824219 470.425781 C 393.269531 470.128906 393.742188 469.875 394.238281 469.671875 C 394.738281 469.464844 395.25 469.308594 395.777344 469.203125 C 396.304688 469.097656 396.835938 469.046875 397.375 469.046875 L 477.9375 469.046875 C 478.476562 469.046875 479.007812 469.097656 479.535156 469.203125 C 480.0625 469.308594 480.574219 469.464844 481.070312 469.671875 C 481.570312 469.875 482.042969 470.128906 482.488281 470.425781 C 482.9375 470.726562 483.347656 471.066406 483.730469 471.445312 C 484.109375 471.828125 484.449219 472.242188 484.75 472.6875 C 485.046875 473.136719 485.300781 473.605469 485.503906 474.105469 C 485.710938 474.601562 485.867188 475.113281 485.972656 475.640625 C 486.078125 476.167969 486.128906 476.699219 486.128906 477.238281 C 486.128906 477.777344 486.078125 478.308594 485.972656 478.835938 C 485.867188 479.363281 485.710938 479.875 485.503906 480.375 C 485.300781 480.871094 485.046875 481.34375 484.75 481.789062 C 484.449219 482.238281 484.109375 482.652344 483.730469 483.03125 C 483.347656 483.410156 482.9375 483.75 482.488281 484.050781 C 482.042969 484.347656 481.570312 484.601562 481.070312 484.804688 C 480.574219 485.011719 480.0625 485.167969 479.535156 485.273438 C 479.007812 485.378906 478.476562 485.429688 477.9375 485.429688 Z M 397.375 485.429688 " fill-opacity="1" fill-rule="nonzero"/></svg>