<svg xmlns="http://www.w3.org/2000/svg" xmlns:xlink="http://www.w3.org/1999/xlink" width="1080" zoomAndPan="magnify" viewBox="0 0 810 809.999993" height="1080" preserveAspectRatio="xMidYMid meet" version="1.0"><defs><clipPath id="ad4851a2de"><path d="M 183.253906 165.0625 L 775.074219 165.0625 L 775.074219 756.882812 L 183.253906 756.882812 Z M 183.253906 165.0625 " clip-rule="nonzero"/></clipPath><clipPath id="3a9b37d199"><path d="M 479.164062 165.0625 C 315.738281 165.0625 183.253906 297.546875 183.253906 460.972656 C 183.253906 624.402344 315.738281 756.882812 479.164062 756.882812 C 642.589844 756.882812 775.074219 624.402344 775.074219 460.972656 C 775.074219 297.546875 642.589844 165.0625 479.164062 165.0625 Z M 479.164062 165.0625 " clip-rule="nonzero"/></clipPath><clipPath id="e166c5cffd"><path d="M 18.539062 46.558594 L 212.789062 46.558594 L 212.789062 240.808594 L 18.539062 240.808594 Z M 18.539062 46.558594 " clip-rule="nonzero"/></clipPath><clipPath id="3df7654531"><path d="M 362 428 L 694.617188 428 L 694.617188 594 L 362 594 Z M 362 428 " clip-rule="nonzero"/></clipPath><clipPath id="a4cfcbd945"><path d="M 272.367188 472 L 348 472 L 348 608.203125 L 272.367188 608.203125 Z M 272.367188 472 " clip-rule="nonzero"/></clipPath></defs><g clip-path="url(#ad4851a2de)"><g clip-path="url(#3a9b37d199)"><path fill="#002157" d="M 183.253906 165.0625 L 775.074219 165.0625 L 775.074219 756.882812 L 183.253906 756.882812 Z M 183.253906 165.0625 " fill-opacity="1" fill-rule="nonzero"/></g></g><g clip-path="url(#e166c5cffd)"><path fill="#00194c" d="M 115.699219 46.558594 C 62.042969 46.558594 18.539062 90.0625 18.539062 143.71875 C 18.539062 197.375 62.042969 240.878906 115.699219 240.878906 C 169.359375 240.878906 212.859375 197.375 212.859375 143.71875 C 212.859375 90.0625 169.359375 46.558594 115.699219 46.558594 Z M 115.3125 185.703125 C 97.492188 185.703125 85.425781 175.847656 84.707031 160.796875 L 100.707031 160.796875 C 101.207031 167.546875 106.90625 171.808594 115.480469 171.808594 C 123.839844 171.808594 129.652344 167.101562 129.652344 160.292969 C 129.652344 153.324219 124.171875 149 115.207031 149 L 105.296875 149 L 105.296875 136.546875 L 115.035156 136.546875 C 122.625 136.546875 127.765625 132.117188 127.765625 125.582031 C 127.765625 119.164062 122.785156 115.066406 114.980469 115.066406 C 107.230469 115.066406 102.082031 119.4375 101.644531 126.359375 L 86.203125 126.359375 C 86.753906 111.253906 97.992188 101.730469 115.425781 101.730469 C 131.804688 101.730469 143.59375 110.695312 143.59375 123.261719 C 143.59375 132.507812 137.78125 139.695312 128.875 141.527344 L 128.875 142.523438 C 139.835938 143.738281 146.695312 151.046875 146.695312 161.566406 C 146.695312 175.574219 133.523438 185.703125 115.3125 185.703125 Z M 115.3125 185.703125 " fill-opacity="1" fill-rule="nonzero"/></g><g clip-path="url(#3df7654531)"><path fill="#ffffff" d="M 672.078125 428.085938 C 669.339844 428.085938 666.753906 428.644531 664.320312 429.507812 L 560.109375 494.660156 C 553.0625 499.042969 540.617188 502.644531 532.257812 502.644531 L 445.777344 502.644531 C 441.617188 502.644531 438.242188 499.269531 438.242188 495.109375 C 438.242188 490.949219 441.617188 487.574219 445.777344 487.574219 L 528.734375 487.574219 C 541.214844 487.574219 551.335938 477.414062 551.335938 464.933594 C 551.335938 452.449219 541.214844 442.328125 528.734375 442.328125 L 423.171875 442.328125 C 414.851562 442.328125 403.304688 447.089844 397.421875 452.976562 L 362.859375 487.574219 L 362.859375 593.132812 L 517.1875 593.132812 C 533.832031 593.132812 557.410156 584.0625 569.742188 572.929688 L 687.972656 466.542969 L 687.972656 466.507812 C 692.058594 462.457031 694.605469 456.796875 694.605469 450.574219 C 694.605469 438.167969 684.523438 428.085938 672.078125 428.085938 " fill-opacity="1" fill-rule="nonzero"/></g><path fill="#ffffff" d="M 581.511719 306.59375 L 581.511719 309.480469 C 585.449219 310.679688 589.085938 312.742188 592.082031 315.738281 C 594.371094 318.027344 596.246094 320.761719 597.519531 323.761719 C 599.132812 327.621094 597.292969 332.046875 593.46875 333.65625 C 589.683594 335.230469 585.222656 333.46875 583.574219 329.648438 C 583.125 328.410156 582.335938 327.359375 581.4375 326.421875 C 579.375 324.363281 576.191406 323.386719 573.941406 323.3125 C 569.742188 323.3125 565.992188 325.9375 564.605469 329.835938 C 563.667969 332.347656 563.78125 335.042969 564.90625 337.445312 C 566.03125 339.84375 568.019531 341.640625 570.53125 342.578125 L 582.5625 346.929688 C 595.53125 351.6875 602.203125 366.046875 597.519531 378.976562 C 594.78125 386.398438 588.785156 391.984375 581.511719 394.273438 L 581.511719 397.082031 C 581.511719 401.246094 578.101562 404.617188 573.976562 404.617188 C 569.78125 404.617188 566.445312 401.246094 566.445312 397.082031 L 566.445312 394.195312 C 562.507812 392.996094 558.871094 390.9375 555.835938 387.9375 C 553.585938 385.6875 551.75 382.988281 550.4375 379.988281 C 548.789062 376.128906 550.550781 371.707031 554.410156 370.054688 C 558.234375 368.371094 562.65625 370.207031 564.269531 373.992188 C 564.832031 375.265625 565.582031 376.355469 566.519531 377.253906 C 568.503906 379.277344 571.167969 380.402344 573.976562 380.402344 C 578.140625 380.402344 581.925781 377.742188 583.347656 373.84375 C 584.25 371.332031 584.136719 368.667969 583.011719 366.234375 C 581.886719 363.832031 579.902344 362.035156 577.390625 361.097656 L 565.355469 356.75 C 552.386719 351.988281 545.675781 337.632812 550.4375 324.699219 C 553.136719 317.277344 559.132812 311.691406 566.445312 309.40625 L 566.445312 306.59375 C 566.445312 302.433594 569.78125 299.058594 573.976562 299.058594 C 578.101562 299.058594 581.511719 302.433594 581.511719 306.59375 Z M 498.558594 351.839844 C 498.558594 393.484375 532.332031 427.257812 573.976562 427.257812 C 615.625 427.257812 649.363281 393.484375 649.363281 351.839844 C 649.363281 310.230469 615.625 276.453125 573.976562 276.453125 C 532.332031 276.453125 498.558594 310.230469 498.558594 351.839844 " fill-opacity="1" fill-rule="nonzero"/><g clip-path="url(#a4cfcbd945)"><path fill="#ffffff" d="M 332.683594 472.46875 L 287.4375 472.46875 C 279.117188 472.46875 272.367188 479.214844 272.367188 487.574219 L 272.367188 593.132812 C 272.367188 601.457031 279.117188 608.203125 287.4375 608.203125 L 332.683594 608.203125 C 341.042969 608.203125 347.789062 601.457031 347.789062 593.132812 L 347.789062 487.574219 C 347.753906 479.214844 341.042969 472.46875 332.683594 472.46875 " fill-opacity="1" fill-rule="nonzero"/></g></svg>