<?xml version="1.0" encoding="UTF-8"?>
<svg xmlns="http://www.w3.org/2000/svg" xmlns:xlink="http://www.w3.org/1999/xlink" width="1080px" height="1080px" viewBox="0 0 1080 1080" version="1.1">
<g id="surface1">
<path style=" stroke:none;fill-rule:nonzero;fill:rgb(234,64,36);fill-opacity:1;" d="M 895.101562 692.601562 C 923.101562 692.601562 950.800781 692.601562 979.398438 692.601562 C 979.398438 689.398438 979.398438 686.101562 979.398438 682.898438 C 979.398438 678.398438 979.398438 673.898438 979.398438 669.398438 C 979.5 662.199219 982.199219 659.300781 989.398438 659.300781 C 1010.398438 659.199219 1031.300781 659.300781 1052.300781 659.300781 C 1052.601562 659.300781 1053 659.300781 1053.300781 659.300781 C 1059.300781 659.601562 1062.101562 662.300781 1062.199219 668.300781 C 1062.300781 681.601562 1062.300781 694.898438 1062.199219 708.199219 C 1062.199219 714.5 1059.300781 717.398438 1053.101562 717.398438 C 1044.5 717.5 1035.800781 717.398438 1027.199219 717.398438 C 1025.398438 717.398438 1023.601562 717.398438 1021 717.398438 C 1021 724.800781 1021 731.699219 1021 738.601562 C 1021 748.398438 1018.5 750.898438 1008.5 750.898438 C 987.199219 750.898438 965.898438 750.898438 944.601562 750.898438 C 942.601562 750.898438 940.699219 750.898438 937.800781 750.898438 C 939.199219 763.601562 935.800781 775.699219 940.300781 787.800781 C 944.699219 799.601562 940.199219 813.101562 930.398438 820.300781 C 919.699219 828.101562 906 828.101562 895.601562 820.300781 C 885.699219 812.898438 881.898438 799.601562 885.601562 787.601562 C 887.101562 782.800781 887.800781 777.699219 888.101562 772.601562 C 888.5 765.699219 888.199219 758.699219 888.199219 751.101562 C 886.101562 751 884.300781 750.800781 882.601562 750.800781 C 725.601562 750.800781 568.5 750.800781 411.5 750.699219 C 407.199219 750.699219 405.898438 752 405.300781 756.101562 C 399.699219 798.199219 357.5 830.601562 315.398438 825.5 C 276.5 820.800781 247.898438 793.398438 241.800781 754.601562 C 241.101562 750.199219 238.601562 750.800781 235.800781 750.800781 C 191.101562 750.800781 146.300781 750.601562 101.601562 750.898438 C 84 751 68 746.601562 54.101562 735.699219 C 36.398438 721.800781 26.199219 703.601562 25.5 681 C 24.898438 661.699219 25.300781 642.398438 25.300781 623.101562 C 25.300781 539.101562 24.5 455.101562 25.601562 371.101562 C 26.101562 327 49.199219 295.699219 88.398438 276.199219 C 103.300781 268.800781 119.300781 266.101562 135.800781 266.101562 C 308.5 266.101562 481.101562 265.800781 653.800781 266.300781 C 712 266.5 757 292.601562 786.300781 342.898438 C 816.699219 395.199219 845.601562 448.398438 874.800781 501.398438 C 889.898438 528.898438 896.5 558.800781 896.601562 590.101562 C 896.699219 618.898438 896.699219 647.601562 896.601562 676.398438 C 896.300781 681.898438 895.601562 687 895.101562 692.601562 Z M 41.300781 575.398438 C 43.601562 575.5 45.199219 575.601562 46.898438 575.601562 C 159.398438 575.601562 271.800781 575.601562 384.300781 575.699219 C 389.199219 575.699219 390.300781 574.300781 390.300781 569.5 C 390.101562 507.800781 390.199219 446.101562 390.199219 384.398438 C 390.199219 354.898438 411.398438 333.5 440.699219 333.300781 C 473.5 333.101562 506.199219 333 539 333.5 C 546.101562 333.601562 553.800781 335.101562 560.199219 338.101562 C 580.199219 347.398438 589.199219 364 589.199219 385.800781 C 589.199219 447 589.199219 508.199219 589.199219 569.398438 C 589.199219 571.300781 589.199219 573.199219 589.199219 575.101562 C 686.300781 575.101562 782.699219 575.101562 879 575.101562 C 878 552.300781 870.199219 526.800781 857.101562 503.300781 C 829.800781 454.398438 802.5 405.398438 775.101562 356.601562 C 747.699219 307.800781 706.199219 282.898438 650 282.898438 C 479.5 282.898438 309 282.898438 138.398438 282.898438 C 132.898438 282.898438 127.398438 283.199219 122 283.699219 C 78.601562 287.898438 41.398438 328.800781 41.398438 372.199219 C 41.398438 438.101562 41.398438 503.898438 41.398438 569.800781 C 41.300781 571.5 41.300781 573.101562 41.300781 575.398438 Z M 589.398438 734.601562 C 591.300781 734.601562 592.699219 734.601562 594 734.601562 C 669.699219 734.601562 745.398438 734.601562 821 734.5 C 825.800781 734.5 830.699219 734.101562 835.300781 733 C 861.300781 727.300781 879.300781 704.199219 879.699219 676.398438 C 879.898438 663.601562 879.699219 650.800781 879.699219 638 C 879.699219 634.101562 879.699219 630.101562 879.699219 626 C 782.601562 626 686 626 589.300781 626 C 589.398438 662.300781 589.398438 698.101562 589.398438 734.601562 Z M 41.601562 626.101562 C 41.5 627.101562 41.199219 627.898438 41.199219 628.699219 C 41.199219 645.699219 40.800781 662.699219 41.398438 679.601562 C 42.5 710.398438 67.101562 734.300781 98.101562 734.5 C 144.300781 734.898438 190.601562 734.601562 236.800781 734.699219 C 240 734.699219 241 733.699219 241.5 730.601562 C 247.5 696.300781 266.898438 672.898438 300.199219 663 C 333.601562 653.101562 362.5 662.5 386 688.300781 C 387 689.398438 387.898438 690.398438 389.601562 692.101562 C 389.601562 669.5 389.601562 647.898438 389.601562 626.101562 C 273.601562 626.101562 157.699219 626.101562 41.601562 626.101562 Z M 406.5 575.199219 C 407.898438 575.398438 408.5 575.601562 409.199219 575.601562 C 462.398438 575.601562 515.699219 575.601562 568.898438 575.699219 C 572 575.699219 572.898438 574.601562 572.800781 571.601562 C 572.699219 559.101562 572.800781 546.699219 572.800781 534.199219 C 572.800781 485 572.800781 435.699219 572.800781 386.5 C 572.800781 363.601562 559.199219 349.898438 536.601562 349.898438 C 505.300781 349.898438 474.101562 349.898438 442.800781 349.898438 C 420 349.898438 406.601562 363.5 406.601562 386.398438 C 406.601562 447.398438 406.601562 508.5 406.601562 569.5 C 406.5 571.300781 406.5 573.101562 406.5 575.199219 Z M 572.5 626.101562 C 517 626.101562 462 626.101562 406.898438 626.101562 C 406.898438 662.398438 406.898438 698.300781 406.898438 734.300781 C 462.300781 734.300781 517.199219 734.300781 572.5 734.300781 C 572.5 698.101562 572.5 662.300781 572.5 626.101562 Z M 323.601562 675.898438 C 287.101562 675.898438 257.199219 705.800781 257.199219 742.300781 C 257.199219 779.800781 286.601562 809.699219 323.5 809.800781 C 359.699219 809.898438 389.699219 779.898438 390 743.398438 C 390.300781 706.398438 360.300781 675.898438 323.601562 675.898438 Z M 390.101562 592.5 C 273.398438 592.5 157.601562 592.5 41.601562 592.5 C 41.601562 598.101562 41.601562 603.398438 41.601562 608.800781 C 157.800781 608.800781 273.601562 608.800781 389.699219 608.800781 C 389.898438 607.398438 390.101562 606.300781 390.101562 605.199219 C 390.101562 601.101562 390.101562 597 390.101562 592.5 Z M 589.398438 608.699219 C 686.300781 608.699219 782.898438 608.699219 879.398438 608.699219 C 879.398438 603 879.398438 597.800781 879.398438 592.5 C 782.5 592.5 686 592.5 589.398438 592.5 C 589.398438 598.101562 589.398438 603.300781 589.398438 608.699219 Z M 1004.101562 734.5 C 1004.101562 725.898438 1004.101562 717.898438 1004.101562 709.601562 C 1002.800781 709.398438 1001.699219 709.199219 1000.601562 709.199219 C 964.601562 709.199219 928.5 709.101562 892.5 709.300781 C 890.699219 709.300781 888.5 711 887.199219 712.5 C 881.898438 718.800781 876.898438 725.398438 871.800781 731.898438 C 871.300781 732.601562 870.800781 733.398438 870.101562 734.5 C 914.898438 734.5 959.199219 734.5 1004.101562 734.5 Z M 572.5 592.398438 C 517 592.398438 462 592.398438 406.898438 592.398438 C 406.898438 598.101562 406.898438 603.398438 406.898438 608.800781 C 462.300781 608.800781 517.199219 608.800781 572.5 608.800781 C 572.5 603.300781 572.5 598 572.5 592.398438 Z M 996.101562 692.898438 C 1001.699219 692.898438 1006.601562 692.898438 1011.601562 692.898438 C 1015.898438 692.898438 1018.898438 694.5 1020.5 698.699219 C 1020.898438 699.699219 1022.101562 701.199219 1022.898438 701.199219 C 1030.5 701.398438 1038 701.300781 1045.699219 701.300781 C 1045.699219 692.5 1045.699219 684.5 1045.699219 676.300781 C 1029.101562 676.300781 1012.800781 676.300781 996.199219 676.300781 C 996.199219 678 996.199219 679.398438 996.199219 680.699219 C 996.101562 684.5 996.101562 688.300781 996.101562 692.898438 Z M 912.898438 809.800781 C 919.699219 809.800781 925.300781 804.398438 925.398438 797.601562 C 925.5 790.601562 920 784.699219 913.199219 784.5 C 906.199219 784.300781 900.5 789.898438 900.5 797 C 900.5 804.101562 905.898438 809.699219 912.898438 809.800781 Z M 904.898438 751.5 C 904.898438 757.398438 904.898438 762.898438 904.898438 768.5 C 910.601562 768.5 915.898438 768.5 921.101562 768.5 C 921.101562 762.699219 921.101562 757.101562 921.101562 751.5 C 915.5 751.5 910.300781 751.5 904.898438 751.5 Z M 904.898438 751.5 "/>
<path style=" stroke:none;fill-rule:nonzero;fill:rgb(234,64,36);fill-opacity:1;" d="M 223.601562 525.199219 C 190.699219 525.199219 157.699219 525.300781 124.800781 525.199219 C 108.5 525.199219 96.199219 516.101562 92.398438 501.5 C 91.5 498 91.199219 494.300781 91.199219 490.601562 C 91.101562 463.199219 91.101562 435.699219 91.199219 408.300781 C 91.199219 389 104.800781 375.199219 124.101562 375.101562 C 190.601562 375 257.199219 375 323.699219 375.101562 C 343.101562 375.101562 356.398438 388.898438 356.601562 408.898438 C 356.800781 429.398438 356.601562 449.800781 356.601562 470.300781 C 356.601562 477.101562 356.601562 483.898438 356.601562 490.800781 C 356.5 511.800781 343.199219 525.199219 322.300781 525.199219 C 289.5 525.300781 256.601562 525.199219 223.601562 525.199219 Z M 149.300781 508.800781 C 161.101562 508.800781 171.699219 508.699219 182.300781 508.898438 C 185.5 509 187.5 507.800781 189.300781 505.300781 C 216.5 468.601562 243.898438 432 271.199219 395.300781 C 271.898438 394.300781 272.398438 393.199219 273.300781 391.601562 C 262.101562 391.601562 251.601562 391.800781 241.199219 391.5 C 237.601562 391.398438 235.5 392.699219 233.398438 395.5 C 206.601562 431.699219 179.601562 467.800781 152.699219 503.898438 C 151.800781 505.199219 150.898438 506.5 149.300781 508.800781 Z M 207.199219 508.800781 C 218.601562 508.800781 228.601562 508.601562 238.5 508.898438 C 242.898438 509 245.699219 507.699219 248.398438 504.101562 C 274.800781 468.398438 301.398438 432.898438 327.898438 397.300781 C 328.800781 396 329.601562 394.699219 331 392.5 C 327.800781 392.101562 325.601562 391.699219 323.398438 391.601562 C 315.800781 391.5 308.101562 391.800781 300.5 391.5 C 296.300781 391.300781 293.601562 392.601562 291 396.101562 C 271.199219 423 251.101562 449.800781 231.199219 476.601562 C 223.5 487 215.699219 497.300781 207.199219 508.800781 Z M 215.898438 391.601562 C 204.101562 391.601562 193.699219 391.699219 183.199219 391.5 C 179.699219 391.398438 177.5 392.601562 175.398438 395.398438 C 154.101562 424.300781 132.699219 453.199219 111.101562 481.800781 C 106.398438 488.101562 107 494.199219 109.800781 500.398438 C 112.300781 505.800781 117.300781 507.800781 123.101562 508.800781 C 128.699219 509.699219 130.699219 505.898438 133.199219 502.5 C 151.601562 477.800781 170 453.199219 188.300781 428.5 C 197.300781 416.601562 206.199219 404.601562 215.898438 391.601562 Z M 340.300781 410.300781 C 339.898438 410.101562 339.5 410 339.199219 409.800781 C 314.800781 442.398438 290.5 475.101562 265.898438 508 C 267.101562 508.398438 267.601562 508.699219 268 508.699219 C 286.800781 508.699219 305.601562 508.898438 324.300781 508.601562 C 334.101562 508.5 340.199219 501.898438 340.300781 491.898438 C 340.398438 478.800781 340.300781 465.601562 340.300781 452.5 C 340.300781 438.5 340.300781 424.398438 340.300781 410.300781 Z M 157.800781 391.601562 C 146 391.601562 135.699219 391.5 125.300781 391.601562 C 114 391.699219 107.800781 397.898438 107.800781 409.300781 C 107.699219 424.101562 107.800781 438.800781 107.800781 453.601562 C 107.800781 454.800781 108 456 108.300781 458.300781 C 124.898438 435.800781 140.898438 414.300781 157.800781 391.601562 Z M 157.800781 391.601562 "/>
<path style=" stroke:none;fill-rule:nonzero;fill:rgb(234,64,36);fill-opacity:1;" d="M 714.398438 525.199219 C 695.601562 525.199219 676.800781 525.199219 658 525.199219 C 636.199219 525.101562 622.601562 511.5 622.601562 489.601562 C 622.601562 462.800781 622.601562 436.101562 622.601562 409.300781 C 622.601562 389.101562 636.5 375.199219 656.800781 375.101562 C 681.601562 375 706.300781 375 731.101562 375.101562 C 744.199219 375.199219 754.5 380.800781 760.398438 392.398438 C 775 421.101562 789.601562 449.898438 803.300781 479 C 813.199219 500.101562 797.5 524.5 774.199219 525 C 754.300781 525.5 734.300781 525.199219 714.398438 525.199219 Z M 721.898438 392.101562 C 720.398438 391.800781 719.800781 391.601562 719.199219 391.601562 C 697.898438 391.601562 676.699219 391.5 655.398438 391.699219 C 645.699219 391.800781 639.101562 398.898438 639.101562 408.800781 C 639 436.398438 639 463.898438 639.101562 491.5 C 639.101562 494.199219 640 496.800781 640.800781 501 C 668.300781 464.101562 694.800781 428.5 721.898438 392.101562 Z M 741.101562 394 C 712.300781 432.601562 684.300781 470.199219 655.5 508.800781 C 668.300781 508.800781 679.699219 508.898438 691.199219 508.699219 C 692.5 508.699219 694.101562 507.300781 695 506.101562 C 715.101562 479.199219 735.199219 452.300781 755.101562 425.300781 C 756.101562 424 756.300781 421.199219 755.601562 419.601562 C 752.898438 413.398438 749.800781 407.300781 746.5 401.300781 C 745.300781 398.898438 743.300781 396.898438 741.101562 394 Z M 713.800781 508.5 C 716.601562 508.601562 718.199219 508.800781 719.898438 508.800781 C 737 508.800781 754.101562 508.800781 771.199219 508.800781 C 786.5 508.800781 794 496.601562 787.199219 482.898438 C 780.800781 469.898438 774.398438 457 767.898438 444.101562 C 767.199219 442.699219 766.398438 441.398438 765.398438 439.5 C 748 462.699219 731.300781 485.101562 713.800781 508.5 Z M 713.800781 508.5 "/>
<path style=" stroke:none;fill-rule:nonzero;fill:rgb(234,64,36);fill-opacity:1;" d="M 423.300781 450.199219 C 423.300781 431.398438 423.300781 412.601562 423.300781 393.898438 C 423.300781 386.199219 426 383.398438 433.800781 383.398438 C 471 383.398438 508.300781 383.398438 545.5 383.398438 C 553.199219 383.398438 555.898438 386.199219 556 394 C 556 431.398438 556 468.800781 556 506.199219 C 556 514.300781 553.300781 516.898438 545.101562 516.898438 C 508 516.898438 471 516.898438 433.898438 516.898438 C 425.898438 516.898438 423.300781 514.300781 423.300781 506.101562 C 423.300781 487.5 423.300781 468.800781 423.300781 450.199219 Z M 439.300781 500.800781 C 448.699219 500.800781 456.800781 500.601562 464.898438 500.898438 C 468.199219 501 469.898438 499.800781 471.601562 497.101562 C 489.300781 468.898438 507.101562 440.898438 524.800781 412.699219 C 527.300781 408.800781 529.699219 404.898438 532.601562 400.101562 C 523.199219 400.101562 514.800781 400.199219 506.5 400 C 503.398438 399.898438 501.699219 401.101562 500.101562 403.601562 C 480.699219 434.398438 461.199219 465.199219 441.800781 495.898438 C 441.101562 497.101562 440.5 498.398438 439.300781 500.800781 Z M 489 500.300781 C 506.398438 500.300781 522.800781 500.300781 539.101562 500.300781 C 539.101562 474 539.101562 448.101562 539.101562 420.800781 C 522 447.898438 505.699219 473.699219 489 500.300781 Z M 440.101562 466.101562 C 440.398438 466.199219 440.800781 466.300781 441.101562 466.300781 C 454.898438 444.5 468.601562 422.699219 482.601562 400.5 C 467.800781 400.5 453.898438 400.5 440.101562 400.5 C 440.101562 422.601562 440.101562 444.300781 440.101562 466.101562 Z M 440.101562 466.101562 "/>
<path style=" stroke:none;fill-rule:nonzero;fill:rgb(234,64,36);fill-opacity:1;" d="M 323.398438 792.699219 C 295.699219 792.601562 273.800781 770.300781 273.898438 742.101562 C 274 715.199219 296.800781 692.699219 323.898438 692.898438 C 351.101562 693.101562 373.398438 715.898438 373.300781 743.398438 C 373.199219 770.398438 350.601562 792.800781 323.398438 792.699219 Z M 323.398438 709.199219 C 305.199219 709.398438 290.199219 724.300781 290.300781 742.199219 C 290.398438 761.5 305.398438 776.601562 323.898438 776.199219 C 342.101562 775.800781 357 760.699219 356.800781 742.898438 C 356.800781 724.101562 341.800781 709.101562 323.398438 709.199219 Z M 323.398438 709.199219 "/>
</g>
</svg>
