<svg xmlns="http://www.w3.org/2000/svg" xmlns:xlink="http://www.w3.org/1999/xlink" width="1080" zoomAndPan="magnify" viewBox="0 0 810 809.999993" height="1080" preserveAspectRatio="xMidYMid meet" version="1.0"><defs><clipPath id="09847c4d20"><path d="M 183.253906 165.0625 L 775.074219 165.0625 L 775.074219 756.882812 L 183.253906 756.882812 Z M 183.253906 165.0625 " clip-rule="nonzero"/></clipPath><clipPath id="fdf50f5351"><path d="M 479.164062 165.0625 C 315.738281 165.0625 183.253906 297.546875 183.253906 460.972656 C 183.253906 624.402344 315.738281 756.882812 479.164062 756.882812 C 642.589844 756.882812 775.074219 624.402344 775.074219 460.972656 C 775.074219 297.546875 642.589844 165.0625 479.164062 165.0625 Z M 479.164062 165.0625 " clip-rule="nonzero"/></clipPath><clipPath id="905964ddc7"><path d="M 282.007812 407 L 486 407 L 486 545 L 282.007812 545 Z M 282.007812 407 " clip-rule="nonzero"/></clipPath><clipPath id="bbce272125"><path d="M 473 407 L 676.507812 407 L 676.507812 545 L 473 545 Z M 473 407 " clip-rule="nonzero"/></clipPath><clipPath id="c495c05dec"><path d="M 335 496 L 623 496 L 623 652.230469 L 335 652.230469 Z M 335 496 " clip-rule="nonzero"/></clipPath><clipPath id="d6145600ce"><path d="M 473 472 L 486 472 L 486 652.230469 L 473 652.230469 Z M 473 472 " clip-rule="nonzero"/></clipPath><clipPath id="5a09155b63"><path d="M 407 269.730469 L 551 269.730469 L 551 414 L 407 414 Z M 407 269.730469 " clip-rule="nonzero"/></clipPath><clipPath id="c245148e82"><path d="M 17.59375 49.832031 L 220 49.832031 L 220 252.332031 L 17.59375 252.332031 Z M 17.59375 49.832031 " clip-rule="nonzero"/></clipPath></defs><g clip-path="url(#09847c4d20)"><g clip-path="url(#fdf50f5351)"><path fill="#002157" d="M 183.253906 165.0625 L 775.074219 165.0625 L 775.074219 756.882812 L 183.253906 756.882812 Z M 183.253906 165.0625 " fill-opacity="1" fill-rule="nonzero"/></g></g><path fill="#ffffff" d="M 479.164062 484.867188 C 478.257812 484.867188 477.398438 484.671875 476.582031 484.28125 L 339.171875 418.5625 C 338.664062 418.324219 338.199219 418.019531 337.777344 417.648438 C 337.355469 417.277344 336.996094 416.855469 336.691406 416.382812 C 336.390625 415.910156 336.160156 415.402344 336 414.867188 C 335.839844 414.328125 335.757812 413.777344 335.753906 413.21875 C 335.746094 412.65625 335.820312 412.105469 335.96875 411.5625 C 336.121094 411.023438 336.34375 410.515625 336.636719 410.035156 C 336.929688 409.558594 337.285156 409.128906 337.699219 408.75 C 338.113281 408.371094 338.570312 408.058594 339.074219 407.808594 L 385.855469 384.425781 C 386.207031 384.25 386.574219 384.109375 386.953125 384.007812 C 387.335938 383.902344 387.722656 383.839844 388.117188 383.8125 C 388.507812 383.785156 388.902344 383.796875 389.292969 383.84375 C 389.683594 383.894531 390.066406 383.984375 390.441406 384.109375 C 390.816406 384.234375 391.171875 384.394531 391.515625 384.589844 C 391.855469 384.785156 392.175781 385.011719 392.472656 385.273438 C 392.773438 385.53125 393.042969 385.816406 393.28125 386.128906 C 393.523438 386.441406 393.730469 386.773438 393.90625 387.125 C 394.082031 387.480469 394.222656 387.847656 394.328125 388.226562 C 394.429688 388.605469 394.496094 388.996094 394.523438 389.386719 C 394.550781 389.78125 394.539062 390.171875 394.488281 390.566406 C 394.4375 390.957031 394.351562 391.339844 394.226562 391.710938 C 394.101562 392.085938 393.941406 392.445312 393.742188 392.785156 C 393.546875 393.128906 393.320312 393.449219 393.0625 393.746094 C 392.800781 394.042969 392.515625 394.3125 392.207031 394.554688 C 391.894531 394.796875 391.5625 395.003906 391.207031 395.179688 L 355.359375 413.101562 L 479.164062 472.273438 L 602.976562 413.054688 L 565.300781 394.222656 C 564.9375 394.054688 564.597656 393.855469 564.273438 393.617188 C 563.953125 393.378906 563.65625 393.113281 563.386719 392.816406 C 563.117188 392.523438 562.878906 392.203125 562.675781 391.859375 C 562.472656 391.515625 562.300781 391.15625 562.171875 390.777344 C 562.039062 390.398438 561.945312 390.011719 561.890625 389.617188 C 561.835938 389.21875 561.820312 388.820312 561.84375 388.421875 C 561.871094 388.023438 561.933594 387.628906 562.039062 387.246094 C 562.144531 386.859375 562.285156 386.484375 562.464844 386.128906 C 562.644531 385.769531 562.855469 385.433594 563.101562 385.117188 C 563.347656 384.804688 563.625 384.515625 563.929688 384.257812 C 564.234375 383.996094 564.558594 383.769531 564.910156 383.574219 C 565.257812 383.382812 565.625 383.222656 566.007812 383.105469 C 566.386719 382.984375 566.777344 382.902344 567.175781 382.859375 C 567.574219 382.816406 567.972656 382.816406 568.371094 382.851562 C 568.769531 382.890625 569.160156 382.964844 569.542969 383.082031 C 569.925781 383.199219 570.292969 383.351562 570.644531 383.542969 L 619.25 407.832031 C 619.753906 408.082031 620.214844 408.398438 620.628906 408.773438 C 621.042969 409.152344 621.394531 409.582031 621.691406 410.058594 C 621.984375 410.539062 622.207031 411.046875 622.355469 411.585938 C 622.507812 412.128906 622.578125 412.679688 622.574219 413.242188 C 622.570312 413.800781 622.488281 414.351562 622.328125 414.890625 C 622.167969 415.425781 621.9375 415.933594 621.632812 416.40625 C 621.332031 416.878906 620.96875 417.300781 620.546875 417.671875 C 620.128906 418.042969 619.664062 418.347656 619.15625 418.585938 L 481.742188 484.304688 C 480.925781 484.6875 480.066406 484.875 479.164062 484.867188 Z M 479.164062 484.867188 " fill-opacity="1" fill-rule="nonzero"/><g clip-path="url(#905964ddc7)"><path fill="#ffffff" d="M 419.417969 544.613281 C 418.40625 544.613281 417.453125 544.367188 416.5625 543.882812 L 285.125 472.191406 C 284.296875 471.738281 283.613281 471.128906 283.074219 470.355469 C 282.539062 469.578125 282.199219 468.726562 282.066406 467.792969 C 281.929688 466.859375 282.011719 465.949219 282.308594 465.054688 C 282.605469 464.160156 283.085938 463.382812 283.75 462.714844 L 337.519531 408.945312 C 337.800781 408.667969 338.101562 408.421875 338.429688 408.203125 C 338.753906 407.984375 339.097656 407.800781 339.460938 407.648438 C 339.824219 407.5 340.199219 407.386719 340.582031 407.3125 C 340.96875 407.234375 341.359375 407.195312 341.75 407.195312 C 342.144531 407.195312 342.53125 407.234375 342.917969 407.3125 C 343.300781 407.386719 343.675781 407.5 344.039062 407.652344 C 344.402344 407.800781 344.746094 407.988281 345.070312 408.203125 C 345.398438 408.421875 345.699219 408.671875 345.976562 408.949219 C 346.253906 409.226562 346.503906 409.527344 346.722656 409.855469 C 346.941406 410.179688 347.125 410.523438 347.273438 410.886719 C 347.425781 411.25 347.539062 411.625 347.613281 412.007812 C 347.691406 412.394531 347.730469 412.785156 347.730469 413.175781 C 347.730469 413.570312 347.691406 413.957031 347.617188 414.34375 C 347.539062 414.726562 347.425781 415.101562 347.277344 415.464844 C 347.125 415.828125 346.941406 416.171875 346.722656 416.5 C 346.507812 416.824219 346.257812 417.128906 345.980469 417.40625 L 297.851562 465.523438 L 418.355469 531.242188 L 474.933594 474.652344 C 475.210938 474.375 475.511719 474.125 475.839844 473.90625 C 476.167969 473.691406 476.511719 473.503906 476.875 473.355469 C 477.238281 473.203125 477.609375 473.089844 477.996094 473.015625 C 478.382812 472.9375 478.769531 472.898438 479.164062 472.898438 C 479.554688 472.898438 479.945312 472.9375 480.332031 473.015625 C 480.714844 473.089844 481.089844 473.203125 481.453125 473.355469 C 481.816406 473.503906 482.160156 473.691406 482.488281 473.90625 C 482.8125 474.125 483.117188 474.375 483.394531 474.652344 C 483.671875 474.929688 483.917969 475.230469 484.136719 475.558594 C 484.355469 475.886719 484.539062 476.230469 484.691406 476.59375 C 484.839844 476.957031 484.953125 477.328125 485.03125 477.714844 C 485.105469 478.101562 485.144531 478.488281 485.144531 478.882812 C 485.144531 479.273438 485.105469 479.664062 485.03125 480.046875 C 484.953125 480.433594 484.839844 480.808594 484.691406 481.171875 C 484.539062 481.535156 484.355469 481.878906 484.136719 482.207031 C 483.917969 482.53125 483.671875 482.832031 483.394531 483.113281 L 423.648438 542.855469 C 423.089844 543.417969 422.441406 543.851562 421.707031 544.15625 C 420.976562 544.460938 420.210938 544.613281 419.417969 544.613281 Z M 419.417969 544.613281 " fill-opacity="1" fill-rule="nonzero"/></g><g clip-path="url(#bbce272125)"><path fill="#ffffff" d="M 538.90625 544.613281 C 538.113281 544.613281 537.351562 544.464844 536.617188 544.160156 C 535.886719 543.859375 535.238281 543.429688 534.675781 542.867188 L 474.933594 483.125 C 474.65625 482.847656 474.40625 482.542969 474.1875 482.21875 C 473.972656 481.890625 473.785156 481.546875 473.636719 481.183594 C 473.484375 480.820312 473.371094 480.445312 473.296875 480.0625 C 473.21875 479.675781 473.179688 479.285156 473.179688 478.894531 C 473.179688 478.5 473.21875 478.113281 473.296875 477.726562 C 473.371094 477.339844 473.484375 476.96875 473.636719 476.605469 C 473.785156 476.242188 473.972656 475.898438 474.1875 475.570312 C 474.40625 475.242188 474.65625 474.941406 474.933594 474.664062 C 475.210938 474.386719 475.511719 474.136719 475.839844 473.917969 C 476.167969 473.703125 476.511719 473.515625 476.875 473.367188 C 477.238281 473.214844 477.609375 473.101562 477.996094 473.027344 C 478.382812 472.949219 478.769531 472.910156 479.164062 472.910156 C 479.554688 472.910156 479.945312 472.949219 480.332031 473.027344 C 480.714844 473.101562 481.089844 473.214844 481.453125 473.367188 C 481.816406 473.515625 482.160156 473.703125 482.488281 473.917969 C 482.8125 474.136719 483.117188 474.386719 483.394531 474.664062 L 539.972656 531.253906 L 660.476562 465.535156 L 612.34375 417.417969 C 612.066406 417.140625 611.820312 416.835938 611.601562 416.511719 C 611.382812 416.183594 611.199219 415.839844 611.046875 415.476562 C 610.898438 415.113281 610.785156 414.738281 610.707031 414.355469 C 610.632812 413.96875 610.59375 413.578125 610.59375 413.1875 C 610.59375 412.792969 610.632812 412.40625 610.707031 412.019531 C 610.785156 411.632812 610.898438 411.261719 611.046875 410.898438 C 611.199219 410.535156 611.382812 410.191406 611.601562 409.863281 C 611.820312 409.535156 612.066406 409.234375 612.34375 408.957031 C 612.621094 408.679688 612.925781 408.429688 613.25 408.214844 C 613.578125 407.996094 613.921875 407.808594 614.285156 407.660156 C 614.648438 407.511719 615.023438 407.394531 615.40625 407.320312 C 615.792969 407.242188 616.183594 407.203125 616.574219 407.203125 C 616.96875 407.203125 617.355469 407.242188 617.742188 407.320312 C 618.128906 407.394531 618.5 407.511719 618.863281 407.660156 C 619.226562 407.8125 619.570312 407.996094 619.898438 408.214844 C 620.226562 408.429688 620.527344 408.679688 620.804688 408.957031 L 674.574219 462.726562 C 674.902344 463.054688 675.191406 463.417969 675.433594 463.8125 C 675.679688 464.207031 675.875 464.628906 676.019531 465.066406 C 676.167969 465.507812 676.261719 465.960938 676.300781 466.425781 C 676.34375 466.886719 676.328125 467.347656 676.261719 467.808594 C 676.195312 468.269531 676.078125 468.714844 675.90625 469.148438 C 675.734375 469.578125 675.515625 469.988281 675.25 470.367188 C 674.984375 470.75 674.679688 471.09375 674.332031 471.40625 C 673.988281 471.714844 673.609375 471.980469 673.199219 472.203125 L 541.761719 543.894531 C 540.871094 544.375 539.921875 544.617188 538.90625 544.613281 Z M 538.90625 544.613281 " fill-opacity="1" fill-rule="nonzero"/></g><g clip-path="url(#c495c05dec)"><path fill="#ffffff" d="M 479.164062 652.152344 C 478.1875 652.152344 477.265625 651.921875 476.402344 651.472656 L 338.992188 579.777344 C 338.507812 579.527344 338.066406 579.214844 337.667969 578.839844 C 337.269531 578.464844 336.929688 578.046875 336.644531 577.582031 C 336.359375 577.113281 336.144531 576.617188 336 576.09375 C 335.851562 575.566406 335.777344 575.03125 335.777344 574.484375 L 335.777344 502.792969 C 335.777344 502.398438 335.816406 502.011719 335.890625 501.625 C 335.96875 501.242188 336.082031 500.867188 336.230469 500.503906 C 336.382812 500.144531 336.566406 499.796875 336.785156 499.472656 C 337 499.144531 337.25 498.84375 337.527344 498.566406 C 337.804688 498.289062 338.105469 498.042969 338.433594 497.824219 C 338.757812 497.605469 339.101562 497.421875 339.464844 497.273438 C 339.828125 497.121094 340.199219 497.007812 340.585938 496.933594 C 340.96875 496.855469 341.359375 496.816406 341.75 496.816406 C 342.144531 496.816406 342.53125 496.855469 342.917969 496.933594 C 343.300781 497.007812 343.675781 497.121094 344.039062 497.273438 C 344.398438 497.421875 344.746094 497.605469 345.070312 497.824219 C 345.398438 498.042969 345.699219 498.289062 345.976562 498.566406 C 346.253906 498.84375 346.5 499.144531 346.71875 499.472656 C 346.9375 499.796875 347.121094 500.144531 347.269531 500.503906 C 347.421875 500.867188 347.535156 501.242188 347.609375 501.625 C 347.6875 502.011719 347.726562 502.398438 347.726562 502.792969 L 347.726562 570.898438 L 479.164062 639.472656 L 610.601562 570.898438 L 610.601562 502.792969 C 610.601562 502.398438 610.640625 502.011719 610.714844 501.625 C 610.792969 501.242188 610.90625 500.867188 611.054688 500.503906 C 611.207031 500.144531 611.390625 499.796875 611.609375 499.472656 C 611.824219 499.144531 612.074219 498.84375 612.351562 498.566406 C 612.628906 498.289062 612.929688 498.042969 613.253906 497.824219 C 613.582031 497.605469 613.925781 497.421875 614.289062 497.273438 C 614.652344 497.121094 615.023438 497.007812 615.410156 496.933594 C 615.792969 496.855469 616.183594 496.816406 616.574219 496.816406 C 616.96875 496.816406 617.355469 496.855469 617.742188 496.933594 C 618.125 497.007812 618.5 497.121094 618.863281 497.273438 C 619.222656 497.421875 619.566406 497.605469 619.894531 497.824219 C 620.21875 498.042969 620.523438 498.289062 620.800781 498.566406 C 621.078125 498.84375 621.324219 499.144531 621.542969 499.472656 C 621.761719 499.796875 621.945312 500.144531 622.09375 500.503906 C 622.246094 500.867188 622.359375 501.242188 622.433594 501.625 C 622.511719 502.011719 622.550781 502.398438 622.550781 502.792969 L 622.550781 574.484375 C 622.550781 575.03125 622.476562 575.566406 622.328125 576.09375 C 622.179688 576.617188 621.964844 577.113281 621.683594 577.582031 C 621.398438 578.046875 621.058594 578.464844 620.660156 578.839844 C 620.261719 579.214844 619.820312 579.527344 619.335938 579.777344 L 481.921875 651.472656 C 481.058594 651.921875 480.140625 652.152344 479.164062 652.152344 Z M 479.164062 652.152344 " fill-opacity="1" fill-rule="nonzero"/></g><g clip-path="url(#d6145600ce)"><path fill="#ffffff" d="M 479.164062 652.152344 C 478.769531 652.152344 478.382812 652.113281 477.996094 652.039062 C 477.613281 651.960938 477.238281 651.847656 476.875 651.699219 C 476.515625 651.546875 476.171875 651.363281 475.84375 651.144531 C 475.519531 650.925781 475.214844 650.679688 474.9375 650.402344 C 474.660156 650.125 474.414062 649.824219 474.195312 649.496094 C 473.976562 649.171875 473.792969 648.828125 473.644531 648.464844 C 473.492188 648.101562 473.378906 647.726562 473.304688 647.34375 C 473.226562 646.957031 473.1875 646.570312 473.1875 646.179688 L 473.1875 478.894531 C 473.1875 478.5 473.226562 478.113281 473.304688 477.726562 C 473.378906 477.34375 473.492188 476.96875 473.644531 476.605469 C 473.792969 476.246094 473.976562 475.902344 474.195312 475.574219 C 474.414062 475.25 474.660156 474.945312 474.9375 474.667969 C 475.214844 474.390625 475.519531 474.144531 475.84375 473.925781 C 476.171875 473.707031 476.515625 473.523438 476.875 473.375 C 477.238281 473.222656 477.613281 473.109375 477.996094 473.035156 C 478.382812 472.957031 478.769531 472.917969 479.164062 472.917969 C 479.554688 472.917969 479.945312 472.957031 480.328125 473.035156 C 480.714844 473.109375 481.085938 473.222656 481.449219 473.375 C 481.8125 473.523438 482.15625 473.707031 482.480469 473.925781 C 482.808594 474.144531 483.109375 474.390625 483.386719 474.667969 C 483.664062 474.945312 483.914062 475.25 484.128906 475.574219 C 484.347656 475.902344 484.53125 476.246094 484.683594 476.605469 C 484.832031 476.96875 484.945312 477.34375 485.023438 477.726562 C 485.097656 478.113281 485.136719 478.5 485.136719 478.894531 L 485.136719 646.179688 C 485.136719 646.570312 485.097656 646.957031 485.023438 647.34375 C 484.945312 647.726562 484.832031 648.101562 484.683594 648.464844 C 484.53125 648.828125 484.347656 649.171875 484.128906 649.496094 C 483.914062 649.824219 483.664062 650.125 483.386719 650.402344 C 483.109375 650.679688 482.808594 650.925781 482.480469 651.144531 C 482.15625 651.363281 481.8125 651.546875 481.449219 651.699219 C 481.085938 651.847656 480.714844 651.960938 480.328125 652.039062 C 479.945312 652.113281 479.554688 652.152344 479.164062 652.152344 Z M 479.164062 652.152344 " fill-opacity="1" fill-rule="nonzero"/></g><g clip-path="url(#5a09155b63)"><path fill="#ffffff" d="M 479.164062 413.175781 C 477.988281 413.175781 476.816406 413.144531 475.644531 413.089844 C 474.472656 413.03125 473.304688 412.945312 472.136719 412.828125 C 470.96875 412.714844 469.804688 412.570312 468.644531 412.398438 C 467.484375 412.226562 466.328125 412.027344 465.175781 411.796875 C 464.027344 411.570312 462.882812 411.3125 461.742188 411.027344 C 460.605469 410.742188 459.472656 410.429688 458.351562 410.085938 C 457.230469 409.746094 456.113281 409.378906 455.011719 408.984375 C 453.90625 408.589844 452.8125 408.167969 451.726562 407.71875 C 450.644531 407.269531 449.570312 406.792969 448.511719 406.292969 C 447.449219 405.789062 446.402344 405.261719 445.367188 404.710938 C 444.332031 404.15625 443.3125 403.578125 442.304688 402.976562 C 441.300781 402.371094 440.308594 401.746094 439.332031 401.09375 C 438.355469 400.441406 437.398438 399.765625 436.457031 399.066406 C 435.511719 398.367188 434.589844 397.644531 433.679688 396.902344 C 432.773438 396.15625 431.886719 395.390625 431.015625 394.601562 C 430.148438 393.816406 429.296875 393.007812 428.46875 392.175781 C 427.640625 391.347656 426.828125 390.496094 426.042969 389.628906 C 425.253906 388.757812 424.488281 387.871094 423.742188 386.964844 C 423 386.054688 422.277344 385.132812 421.578125 384.1875 C 420.878906 383.246094 420.203125 382.289062 419.550781 381.3125 C 418.902344 380.335938 418.273438 379.347656 417.667969 378.339844 C 417.066406 377.332031 416.488281 376.3125 415.933594 375.277344 C 415.382812 374.242188 414.855469 373.195312 414.351562 372.132812 C 413.851562 371.074219 413.375 370 412.925781 368.917969 C 412.476562 367.832031 412.054688 366.738281 411.660156 365.632812 C 411.265625 364.53125 410.898438 363.414062 410.558594 362.292969 C 410.214844 361.171875 409.902344 360.039062 409.617188 358.902344 C 409.332031 357.761719 409.078125 356.621094 408.847656 355.46875 C 408.617188 354.316406 408.417969 353.160156 408.246094 352 C 408.074219 350.839844 407.929688 349.675781 407.816406 348.507812 C 407.699219 347.339844 407.613281 346.171875 407.554688 345 C 407.5 343.828125 407.46875 342.65625 407.46875 341.480469 C 407.46875 340.308594 407.5 339.136719 407.554688 337.964844 C 407.613281 336.792969 407.699219 335.621094 407.816406 334.453125 C 407.929688 333.285156 408.074219 332.121094 408.246094 330.960938 C 408.417969 329.800781 408.617188 328.644531 408.847656 327.496094 C 409.078125 326.34375 409.332031 325.199219 409.617188 324.0625 C 409.902344 322.921875 410.214844 321.792969 410.558594 320.671875 C 410.898438 319.546875 411.265625 318.433594 411.660156 317.328125 C 412.054688 316.222656 412.476562 315.128906 412.925781 314.046875 C 413.375 312.960938 413.851562 311.890625 414.351562 310.828125 C 414.855469 309.769531 415.382812 308.71875 415.933594 307.6875 C 416.488281 306.652344 417.066406 305.628906 417.667969 304.625 C 418.273438 303.617188 418.902344 302.625 419.550781 301.652344 C 420.203125 300.675781 420.878906 299.714844 421.578125 298.773438 C 422.277344 297.832031 423 296.90625 423.742188 296 C 424.488281 295.09375 425.253906 294.203125 426.042969 293.335938 C 426.828125 292.464844 427.640625 291.617188 428.46875 290.785156 C 429.296875 289.957031 430.148438 289.148438 431.015625 288.359375 C 431.886719 287.574219 432.773438 286.804688 433.679688 286.0625 C 434.589844 285.316406 435.511719 284.597656 436.457031 283.898438 C 437.398438 283.199219 438.355469 282.523438 439.332031 281.871094 C 440.308594 281.21875 441.300781 280.589844 442.304688 279.988281 C 443.3125 279.386719 444.332031 278.808594 445.367188 278.253906 C 446.402344 277.699219 447.449219 277.171875 448.511719 276.671875 C 449.570312 276.171875 450.644531 275.695312 451.726562 275.246094 C 452.8125 274.796875 453.90625 274.375 455.011719 273.980469 C 456.113281 273.585938 457.230469 273.214844 458.351562 272.875 C 459.472656 272.535156 460.605469 272.222656 461.742188 271.9375 C 462.882812 271.652344 464.027344 271.394531 465.175781 271.167969 C 466.328125 270.9375 467.484375 270.738281 468.644531 270.566406 C 469.804688 270.390625 470.96875 270.25 472.136719 270.132812 C 473.304688 270.019531 474.472656 269.933594 475.644531 269.875 C 476.816406 269.816406 477.988281 269.789062 479.164062 269.789062 C 480.335938 269.789062 481.507812 269.816406 482.679688 269.875 C 483.851562 269.933594 485.023438 270.019531 486.191406 270.132812 C 487.359375 270.25 488.523438 270.390625 489.683594 270.566406 C 490.84375 270.738281 492 270.9375 493.148438 271.167969 C 494.300781 271.394531 495.445312 271.652344 496.582031 271.9375 C 497.722656 272.222656 498.851562 272.535156 499.972656 272.875 C 501.097656 273.214844 502.210938 273.585938 503.316406 273.980469 C 504.421875 274.375 505.515625 274.796875 506.597656 275.246094 C 507.683594 275.695312 508.753906 276.171875 509.816406 276.671875 C 510.875 277.171875 511.925781 277.699219 512.960938 278.253906 C 513.992188 278.808594 515.015625 279.386719 516.019531 279.988281 C 517.027344 280.589844 518.019531 281.21875 518.992188 281.871094 C 519.96875 282.523438 520.929688 283.199219 521.871094 283.898438 C 522.8125 284.597656 523.738281 285.316406 524.644531 286.0625 C 525.550781 286.804688 526.441406 287.574219 527.308594 288.359375 C 528.179688 289.148438 529.027344 289.957031 529.859375 290.785156 C 530.6875 291.617188 531.496094 292.464844 532.285156 293.335938 C 533.074219 294.203125 533.839844 295.09375 534.582031 296 C 535.328125 296.90625 536.046875 297.832031 536.746094 298.773438 C 537.445312 299.714844 538.121094 300.675781 538.773438 301.652344 C 539.425781 302.625 540.054688 303.617188 540.65625 304.625 C 541.257812 305.628906 541.835938 306.652344 542.390625 307.6875 C 542.945312 308.71875 543.472656 309.769531 543.972656 310.828125 C 544.476562 311.890625 544.949219 312.960938 545.398438 314.046875 C 545.847656 315.128906 546.269531 316.222656 546.664062 317.328125 C 547.0625 318.433594 547.429688 319.546875 547.769531 320.671875 C 548.109375 321.792969 548.421875 322.921875 548.707031 324.0625 C 548.992188 325.199219 549.25 326.34375 549.480469 327.496094 C 549.707031 328.644531 549.910156 329.800781 550.082031 330.960938 C 550.253906 332.121094 550.394531 333.285156 550.511719 334.453125 C 550.625 335.621094 550.710938 336.792969 550.769531 337.964844 C 550.828125 339.136719 550.855469 340.308594 550.855469 341.480469 C 550.855469 342.65625 550.824219 343.828125 550.765625 345 C 550.707031 346.171875 550.621094 347.339844 550.503906 348.507812 C 550.390625 349.675781 550.242188 350.835938 550.070312 351.996094 C 549.898438 353.15625 549.695312 354.3125 549.46875 355.464844 C 549.238281 356.613281 548.980469 357.757812 548.695312 358.894531 C 548.40625 360.03125 548.09375 361.164062 547.753906 362.285156 C 547.410156 363.40625 547.042969 364.519531 546.648438 365.625 C 546.25 366.730469 545.828125 367.824219 545.378906 368.90625 C 544.929688 369.988281 544.453125 371.0625 543.953125 372.121094 C 543.449219 373.183594 542.921875 374.230469 542.371094 375.261719 C 541.816406 376.296875 541.238281 377.316406 540.632812 378.324219 C 540.03125 379.328125 539.402344 380.320312 538.75 381.296875 C 538.101562 382.269531 537.425781 383.230469 536.726562 384.171875 C 536.027344 385.113281 535.304688 386.039062 534.5625 386.945312 C 533.816406 387.851562 533.050781 388.738281 532.261719 389.609375 C 531.476562 390.476562 530.667969 391.324219 529.835938 392.15625 C 529.007812 392.984375 528.160156 393.792969 527.289062 394.582031 C 526.421875 395.367188 525.53125 396.136719 524.625 396.878906 C 523.71875 397.625 522.792969 398.34375 521.851562 399.042969 C 520.910156 399.742188 519.953125 400.417969 518.976562 401.070312 C 518 401.722656 517.011719 402.351562 516.003906 402.953125 C 515 403.558594 513.980469 404.136719 512.945312 404.6875 C 511.910156 405.242188 510.863281 405.769531 509.804688 406.269531 C 508.742188 406.773438 507.671875 407.25 506.585938 407.699219 C 505.503906 408.148438 504.410156 408.570312 503.304688 408.964844 C 502.203125 409.363281 501.089844 409.730469 499.964844 410.070312 C 498.84375 410.414062 497.714844 410.726562 496.578125 411.011719 C 495.4375 411.296875 494.296875 411.554688 493.144531 411.785156 C 491.996094 412.015625 490.839844 412.214844 489.679688 412.390625 C 488.519531 412.5625 487.355469 412.707031 486.1875 412.824219 C 485.019531 412.9375 483.851562 413.027344 482.679688 413.085938 C 481.507812 413.144531 480.335938 413.171875 479.164062 413.175781 Z M 479.164062 281.738281 C 477.207031 281.738281 475.253906 281.832031 473.308594 282.023438 C 471.359375 282.21875 469.425781 282.503906 467.507812 282.886719 C 465.589844 283.265625 463.691406 283.742188 461.820312 284.308594 C 459.949219 284.878906 458.109375 285.535156 456.300781 286.285156 C 454.492188 287.035156 452.726562 287.871094 451 288.792969 C 449.273438 289.714844 447.597656 290.71875 445.972656 291.804688 C 444.34375 292.894531 442.773438 294.058594 441.261719 295.296875 C 439.75 296.539062 438.300781 297.851562 436.917969 299.234375 C 435.535156 300.621094 434.222656 302.066406 432.980469 303.582031 C 431.738281 305.09375 430.574219 306.664062 429.488281 308.289062 C 428.402344 309.917969 427.394531 311.59375 426.472656 313.320312 C 425.550781 315.042969 424.714844 316.8125 423.964844 318.617188 C 423.21875 320.425781 422.558594 322.265625 421.992188 324.140625 C 421.421875 326.011719 420.949219 327.90625 420.566406 329.828125 C 420.183594 331.746094 419.898438 333.679688 419.707031 335.625 C 419.515625 337.574219 419.417969 339.523438 419.417969 341.480469 C 419.417969 343.4375 419.515625 345.390625 419.707031 347.335938 C 419.898438 349.285156 420.183594 351.21875 420.566406 353.136719 C 420.949219 355.054688 421.421875 356.953125 421.992188 358.824219 C 422.558594 360.695312 423.21875 362.539062 423.964844 364.34375 C 424.714844 366.152344 425.550781 367.917969 426.472656 369.644531 C 427.394531 371.371094 428.402344 373.046875 429.488281 374.675781 C 430.574219 376.300781 431.738281 377.871094 432.980469 379.382812 C 434.222656 380.894531 435.535156 382.34375 436.917969 383.726562 C 438.300781 385.109375 439.75 386.421875 441.261719 387.664062 C 442.773438 388.90625 444.34375 390.070312 445.972656 391.15625 C 447.597656 392.246094 449.273438 393.25 451 394.171875 C 452.726562 395.09375 454.492188 395.929688 456.300781 396.679688 C 458.109375 397.425781 459.949219 398.085938 461.820312 398.652344 C 463.691406 399.222656 465.589844 399.695312 467.507812 400.078125 C 469.425781 400.460938 471.359375 400.746094 473.308594 400.9375 C 475.253906 401.128906 477.207031 401.226562 479.164062 401.226562 C 481.121094 401.226562 483.070312 401.128906 485.019531 400.9375 C 486.964844 400.746094 488.898438 400.460938 490.820312 400.078125 C 492.738281 399.695312 494.632812 399.222656 496.507812 398.652344 C 498.378906 398.085938 500.21875 397.425781 502.027344 396.679688 C 503.835938 395.929688 505.601562 395.09375 507.328125 394.171875 C 509.050781 393.25 510.726562 392.246094 512.355469 391.15625 C 513.980469 390.070312 515.550781 388.90625 517.066406 387.664062 C 518.578125 386.421875 520.023438 385.109375 521.410156 383.726562 C 522.792969 382.34375 524.105469 380.894531 525.347656 379.382812 C 526.585938 377.871094 527.75 376.300781 528.839844 374.675781 C 529.925781 373.046875 530.929688 371.371094 531.851562 369.644531 C 532.773438 367.917969 533.609375 366.152344 534.359375 364.34375 C 535.109375 362.539062 535.765625 360.695312 536.335938 358.824219 C 536.902344 356.953125 537.378906 355.054688 537.757812 353.136719 C 538.140625 351.21875 538.429688 349.285156 538.621094 347.335938 C 538.8125 345.390625 538.90625 343.4375 538.90625 341.480469 C 538.90625 339.527344 538.808594 337.574219 538.613281 335.628906 C 538.417969 333.679688 538.132812 331.75 537.746094 329.832031 C 537.363281 327.914062 536.886719 326.019531 536.320312 324.148438 C 535.75 322.277344 535.089844 320.4375 534.339844 318.628906 C 533.589844 316.824219 532.753906 315.058594 531.832031 313.332031 C 530.910156 311.609375 529.902344 309.933594 528.816406 308.304688 C 527.730469 306.679688 526.566406 305.113281 525.324219 303.597656 C 524.082031 302.085938 522.769531 300.640625 521.386719 299.257812 C 520.003906 297.875 518.558594 296.5625 517.046875 295.320312 C 515.535156 294.078125 513.964844 292.914062 512.339844 291.828125 C 510.710938 290.742188 509.035156 289.734375 507.3125 288.8125 C 505.585938 287.890625 503.820312 287.054688 502.015625 286.304688 C 500.207031 285.554688 498.371094 284.894531 496.496094 284.324219 C 494.625 283.757812 492.730469 283.28125 490.8125 282.898438 C 488.894531 282.515625 486.964844 282.226562 485.015625 282.03125 C 483.070312 281.835938 481.121094 281.738281 479.164062 281.738281 Z M 479.164062 281.738281 " fill-opacity="1" fill-rule="nonzero"/></g><path fill="#ffffff" d="M 468.195312 365.378906 L 467.992188 365.378906 C 467.1875 365.351562 466.421875 365.171875 465.691406 364.835938 C 464.964844 364.5 464.328125 364.035156 463.785156 363.445312 L 444.882812 342.738281 C 444.632812 342.445312 444.414062 342.132812 444.222656 341.796875 C 444.035156 341.464844 443.878906 341.113281 443.757812 340.75 C 443.636719 340.386719 443.550781 340.011719 443.5 339.632812 C 443.449219 339.25 443.4375 338.871094 443.460938 338.484375 C 443.484375 338.101562 443.542969 337.726562 443.640625 337.351562 C 443.738281 336.980469 443.867188 336.621094 444.035156 336.277344 C 444.199219 335.929688 444.398438 335.601562 444.625 335.292969 C 444.855469 334.984375 445.109375 334.703125 445.394531 334.441406 C 445.679688 334.183594 445.984375 333.953125 446.3125 333.753906 C 446.640625 333.554688 446.984375 333.386719 447.34375 333.253906 C 447.703125 333.121094 448.074219 333.023438 448.453125 332.960938 C 448.832031 332.898438 449.210938 332.871094 449.597656 332.882812 C 449.980469 332.894531 450.359375 332.941406 450.734375 333.027344 C 451.109375 333.109375 451.472656 333.230469 451.824219 333.382812 C 452.175781 333.539062 452.507812 333.722656 452.824219 333.941406 C 453.140625 334.160156 453.433594 334.40625 453.699219 334.683594 L 468.46875 350.851562 L 504.902344 315.933594 C 505.183594 315.664062 505.492188 315.421875 505.820312 315.210938 C 506.152344 315 506.5 314.820312 506.867188 314.679688 C 507.230469 314.535156 507.609375 314.429688 507.996094 314.363281 C 508.382812 314.292969 508.769531 314.261719 509.164062 314.273438 C 509.554688 314.28125 509.945312 314.324219 510.328125 314.410156 C 510.710938 314.496094 511.082031 314.617188 511.441406 314.773438 C 511.800781 314.933594 512.140625 315.125 512.460938 315.347656 C 512.785156 315.574219 513.082031 315.828125 513.351562 316.109375 C 513.625 316.394531 513.867188 316.703125 514.078125 317.03125 C 514.289062 317.363281 514.464844 317.710938 514.605469 318.078125 C 514.75 318.441406 514.855469 318.820312 514.921875 319.207031 C 514.992188 319.59375 515.019531 319.980469 515.011719 320.375 C 515.003906 320.765625 514.957031 321.15625 514.871094 321.539062 C 514.789062 321.921875 514.664062 322.292969 514.507812 322.652344 C 514.351562 323.011719 514.15625 323.351562 513.933594 323.671875 C 513.707031 323.996094 513.453125 324.289062 513.167969 324.5625 L 472.328125 363.707031 C 471.773438 364.242188 471.136719 364.652344 470.421875 364.941406 C 469.707031 365.234375 468.964844 365.378906 468.195312 365.378906 Z M 468.195312 365.378906 " fill-opacity="1" fill-rule="nonzero"/><g clip-path="url(#c245148e82)"><path fill="#00194c" d="M 118.699219 49.832031 C 62.863281 49.832031 17.59375 95.097656 17.59375 150.933594 C 17.59375 206.769531 62.863281 252.039062 118.699219 252.039062 C 174.53125 252.039062 219.800781 206.769531 219.800781 150.933594 C 219.800781 95.097656 174.53125 49.832031 118.699219 49.832031 Z M 113.300781 109.382812 L 137.671875 109.382812 L 137.671875 163.523438 L 148.550781 163.523438 L 148.550781 177.96875 L 137.671875 177.96875 L 137.671875 192.484375 L 121.066406 192.484375 L 121.066406 177.96875 L 80.40625 177.96875 L 80.40625 162.601562 C 87.894531 148.488281 98.734375 131.324219 113.300781 109.382812 Z M 120.558594 122.910156 C 112.957031 134.257812 105.527344 145.890625 96.023438 163.109375 L 96.023438 164.03125 L 121.480469 164.03125 L 121.480469 122.910156 Z M 120.558594 122.910156 " fill-opacity="1" fill-rule="nonzero"/></g></svg>