<svg xmlns="http://www.w3.org/2000/svg" xmlns:xlink="http://www.w3.org/1999/xlink" width="1080" zoomAndPan="magnify" viewBox="0 0 810 809.999993" height="1080" preserveAspectRatio="xMidYMid meet" version="1.0"><defs><clipPath id="c6f4b4272c"><path d="M 9.273438 22.941406 L 800.523438 22.941406 L 800.523438 787 L 9.273438 787 Z M 9.273438 22.941406 " clip-rule="nonzero"/></clipPath></defs><g clip-path="url(#c6f4b4272c)"><path fill="#ffffff" d="M 800.601562 721.261719 C 800.601562 728.285156 794.902344 733.980469 787.882812 733.980469 C 780.34375 733.980469 773.898438 736.117188 768.0625 739.679688 C 761.574219 743.632812 755.5 749.46875 749.507812 756.214844 C 742.566406 764.007812 734.730469 771.425781 725.574219 777.082031 C 715.78125 783.136719 704.765625 786.992188 692.164062 786.992188 C 679.585938 786.992188 668.84375 783.433594 659.132812 777.5 C 650.09375 771.980469 642.261719 764.542969 634.824219 756.195312 C 629.226562 749.90625 623.132812 744.070312 616.546875 739.996094 C 610.589844 736.316406 603.945312 733.960938 596.449219 733.960938 C 588.914062 733.960938 582.464844 736.117188 576.628906 739.679688 C 570.140625 743.632812 564.070312 749.46875 558.074219 756.195312 C 551.132812 763.988281 543.300781 771.40625 534.140625 777.0625 C 524.351562 783.117188 513.332031 786.972656 500.734375 786.972656 C 488.152344 786.972656 477.410156 783.394531 467.699219 777.476562 C 458.660156 771.960938 450.828125 764.523438 443.390625 756.175781 C 437.792969 749.886719 431.71875 744.050781 425.113281 739.976562 C 419.160156 736.296875 412.511719 733.941406 405.015625 733.941406 C 397.5 733.941406 391.03125 736.097656 385.195312 739.660156 C 378.628906 743.675781 372.578125 749.488281 366.601562 756.15625 C 359.679688 763.96875 351.867188 771.40625 342.707031 777.0625 C 332.917969 783.117188 321.878906 786.972656 309.28125 786.972656 C 296.699219 786.972656 285.960938 783.414062 276.246094 777.480469 C 267.207031 771.960938 259.375 764.523438 251.9375 756.175781 C 246.339844 749.886719 240.246094 744.050781 233.660156 739.976562 C 227.707031 736.296875 221.058594 733.941406 213.5625 733.941406 C 206.046875 733.941406 199.578125 736.097656 193.742188 739.660156 C 187.175781 743.675781 181.125 749.488281 175.148438 756.15625 C 168.246094 763.96875 160.414062 771.40625 151.253906 777.0625 C 141.464844 783.117188 130.425781 786.972656 117.828125 786.972656 C 105.246094 786.972656 94.507812 783.394531 84.792969 777.480469 C 75.734375 771.960938 67.921875 764.523438 60.484375 756.175781 C 54.886719 749.886719 48.8125 744.050781 42.207031 739.976562 C 36.253906 736.296875 29.609375 733.941406 22.109375 733.941406 C 15.089844 733.941406 9.390625 728.246094 9.390625 721.222656 C 9.390625 714.203125 15.089844 708.503906 22.109375 708.503906 C 34.710938 708.503906 45.726562 712.363281 55.519531 718.414062 C 64.679688 724.070312 72.492188 731.488281 79.453125 739.28125 C 85.464844 746.007812 91.519531 751.863281 98.007812 755.820312 C 103.84375 759.378906 110.289062 761.535156 117.828125 761.535156 C 125.324219 761.535156 131.96875 759.183594 137.925781 755.503906 C 144.511719 751.429688 150.601562 745.59375 156.199219 739.304688 L 156.261719 739.304688 C 163.738281 730.917969 171.570312 723.480469 180.53125 718.019531 C 190.222656 712.105469 200.984375 708.523438 213.5625 708.523438 C 226.164062 708.523438 237.179688 712.382812 246.972656 718.433594 C 256.128906 724.09375 263.964844 731.507812 270.90625 739.304688 C 276.898438 746.027344 282.972656 751.882812 289.460938 755.839844 C 295.296875 759.398438 301.742188 761.554688 309.28125 761.554688 C 316.777344 761.554688 323.421875 759.203125 329.394531 755.523438 C 335.984375 751.449219 342.054688 745.613281 347.671875 739.324219 L 347.734375 739.324219 C 355.210938 730.9375 363.042969 723.5 372.003906 718.039062 C 381.695312 712.125 392.457031 708.542969 405.035156 708.542969 C 417.636719 708.542969 428.652344 712.402344 438.445312 718.453125 C 447.601562 724.113281 455.417969 731.53125 462.378906 739.324219 C 468.390625 746.046875 474.464844 751.902344 480.933594 755.859375 C 486.769531 759.417969 493.214844 761.574219 500.753906 761.574219 C 508.25 761.574219 514.875 759.222656 520.847656 755.542969 C 527.4375 751.46875 533.527344 745.632812 539.125 739.34375 C 546.5625 730.996094 554.375 723.578125 563.4375 718.058594 C 573.128906 712.144531 583.886719 708.566406 596.46875 708.566406 C 609.070312 708.566406 620.085938 712.421875 629.878906 718.472656 C 639.035156 724.132812 646.867188 731.550781 653.8125 739.34375 C 659.804688 746.066406 665.878906 751.921875 672.367188 755.878906 C 678.199219 759.4375 684.648438 761.59375 692.183594 761.59375 C 699.683594 761.59375 706.328125 759.242188 712.28125 755.5625 C 718.867188 751.488281 724.960938 745.652344 730.558594 739.363281 C 737.996094 731.015625 745.828125 723.578125 754.867188 718.058594 C 764.5625 712.144531 775.339844 708.566406 787.902344 708.566406 C 794.902344 708.542969 800.601562 714.242188 800.601562 721.261719 Z M 9.390625 587.804688 C 9.390625 580.785156 15.089844 575.085938 22.109375 575.085938 C 34.710938 575.085938 45.726562 578.945312 55.519531 584.996094 C 64.679688 590.652344 72.492188 598.070312 79.453125 605.867188 C 85.46875 612.589844 91.539062 618.445312 98.007812 622.402344 C 103.84375 625.960938 110.289062 628.117188 117.828125 628.117188 C 125.324219 628.117188 131.96875 625.765625 137.925781 622.085938 C 142.613281 619.195312 147.023438 615.398438 151.195312 611.1875 L 63.433594 357.269531 C 61.214844 350.800781 64.519531 343.777344 70.828125 341.34375 L 160.652344 306.570312 L 160.652344 189.078125 C 160.652344 182.054688 166.347656 176.359375 173.371094 176.359375 L 208.164062 176.359375 L 208.164062 130.171875 C 208.164062 123.148438 213.859375 117.453125 220.882812 117.453125 L 359.796875 117.453125 L 359.796875 35.660156 C 359.796875 28.640625 365.496094 22.941406 372.515625 22.941406 L 437.457031 22.941406 C 444.476562 22.941406 450.175781 28.640625 450.175781 35.660156 L 450.175781 117.453125 L 589.089844 117.453125 C 596.113281 117.453125 601.808594 123.148438 601.808594 130.171875 L 601.808594 176.359375 L 636.601562 176.359375 C 643.625 176.359375 649.320312 182.054688 649.320312 189.078125 L 649.320312 305.621094 L 742.328125 341.265625 C 748.875 343.757812 752.179688 351.097656 749.667969 357.664062 L 661.191406 613.578125 C 664.808594 617.042969 668.507812 620.066406 672.34375 622.402344 C 678.179688 625.960938 684.628906 628.117188 692.164062 628.117188 C 699.660156 628.117188 706.308594 625.765625 712.261719 622.085938 C 718.847656 618.011719 724.941406 612.175781 730.539062 605.886719 C 737.976562 597.539062 745.808594 590.121094 754.847656 584.582031 C 764.542969 578.667969 775.300781 575.085938 787.882812 575.085938 C 794.902344 575.085938 800.601562 580.785156 800.601562 587.804688 C 800.601562 594.828125 794.902344 600.523438 787.882812 600.523438 C 780.34375 600.523438 773.898438 602.679688 768.0625 606.242188 C 761.574219 610.195312 755.5 616.050781 749.507812 622.777344 C 742.566406 630.570312 734.730469 637.988281 725.574219 643.644531 C 715.78125 649.699219 704.765625 653.554688 692.164062 653.554688 C 679.585938 653.554688 668.84375 649.976562 659.132812 644.0625 C 650.09375 638.542969 642.261719 631.125 634.824219 622.757812 C 629.226562 616.46875 623.132812 610.632812 616.546875 606.558594 C 610.570312 602.878906 603.945312 600.523438 596.449219 600.523438 C 588.933594 600.523438 582.464844 602.679688 576.628906 606.242188 C 570.140625 610.195312 564.070312 616.050781 558.074219 622.777344 C 551.132812 630.570312 543.300781 637.988281 534.140625 643.644531 C 524.351562 649.699219 513.332031 653.554688 500.734375 653.554688 C 488.152344 653.554688 477.410156 649.976562 467.699219 644.0625 C 458.660156 638.542969 450.828125 631.125 443.390625 622.757812 C 437.792969 616.46875 431.71875 610.632812 425.113281 606.558594 C 420.007812 603.394531 414.390625 601.238281 408.179688 600.683594 C 407.171875 600.941406 406.105469 601.097656 405.015625 601.097656 C 403.910156 601.097656 402.839844 600.941406 401.8125 600.683594 C 395.640625 601.199219 390.179688 603.195312 385.195312 606.242188 C 378.628906 610.238281 372.578125 616.070312 366.601562 622.738281 C 359.679688 630.550781 351.867188 637.988281 342.707031 643.625 C 332.917969 649.679688 321.878906 653.535156 309.28125 653.535156 C 296.699219 653.535156 285.960938 649.957031 276.246094 644.042969 C 267.207031 638.523438 259.375 631.105469 251.9375 622.738281 C 246.339844 616.449219 240.246094 610.613281 233.660156 606.539062 C 227.6875 602.859375 221.058594 600.503906 213.5625 600.503906 C 206.046875 600.503906 199.578125 602.660156 193.742188 606.222656 C 187.175781 610.21875 181.125 616.050781 175.148438 622.71875 C 175.128906 622.738281 175.128906 622.738281 175.109375 622.757812 C 175.050781 622.816406 175.011719 622.875 174.953125 622.9375 C 168.089844 630.667969 160.335938 638.007812 151.253906 643.605469 C 141.464844 649.660156 130.425781 653.515625 117.828125 653.515625 C 105.246094 653.515625 94.507812 649.9375 84.792969 644.023438 C 75.753906 638.503906 67.921875 631.085938 60.484375 622.71875 C 54.886719 616.429688 48.8125 610.59375 42.207031 606.519531 C 36.234375 602.839844 29.609375 600.484375 22.109375 600.484375 C 15.089844 600.523438 9.390625 594.828125 9.390625 587.804688 Z M 721.835938 360.609375 L 632.566406 326.390625 C 632.210938 326.273438 631.855469 326.132812 631.519531 325.996094 L 417.734375 244.027344 L 417.734375 576.472656 C 425.210938 578.09375 432.074219 581.082031 438.425781 584.996094 C 447.582031 590.652344 455.394531 598.070312 462.359375 605.867188 C 468.351562 612.589844 474.445312 618.445312 480.914062 622.402344 C 486.746094 625.960938 493.195312 628.117188 500.734375 628.117188 C 508.230469 628.117188 514.855469 625.765625 520.828125 622.085938 C 527.414062 618.011719 533.507812 612.175781 539.105469 605.886719 C 546.542969 597.539062 554.355469 590.121094 563.414062 584.582031 C 573.109375 578.667969 583.867188 575.085938 596.449219 575.085938 C 609.050781 575.085938 620.066406 578.945312 629.859375 584.996094 C 633.933594 587.507812 637.75 590.398438 641.332031 593.503906 Z M 385.234375 117.453125 L 424.757812 117.453125 L 424.757812 48.378906 L 385.234375 48.378906 Z M 233.601562 176.359375 L 576.390625 176.359375 L 576.390625 142.890625 L 233.621094 142.890625 L 233.621094 176.359375 Z M 186.109375 296.699219 L 399.617188 214.039062 C 401.238281 213.269531 403.078125 212.832031 404.996094 212.832031 C 406.914062 212.832031 408.734375 213.269531 410.355469 214.039062 L 623.882812 295.890625 L 623.882812 201.796875 L 186.109375 201.796875 Z M 91.363281 360.550781 L 171.136719 591.308594 C 174.140625 588.835938 177.246094 586.578125 180.53125 584.582031 C 190.222656 578.667969 200.984375 575.085938 213.5625 575.085938 C 226.164062 575.085938 237.179688 578.945312 246.972656 584.996094 C 256.128906 590.652344 263.964844 598.070312 270.90625 605.867188 C 276.898438 612.589844 282.992188 618.445312 289.460938 622.402344 C 295.296875 625.960938 301.742188 628.117188 309.28125 628.117188 C 316.777344 628.117188 323.421875 625.765625 329.394531 622.085938 C 335.984375 618.011719 342.074219 612.175781 347.671875 605.886719 L 347.734375 605.886719 C 355.210938 597.5 363.042969 590.0625 372.003906 584.582031 C 378.253906 580.765625 384.980469 577.9375 392.316406 576.394531 L 392.316406 244.066406 L 178.789062 326.707031 C 178.214844 326.984375 177.644531 327.203125 177.03125 327.398438 Z M 511.414062 333.414062 C 504.390625 333.414062 498.695312 339.109375 498.695312 346.132812 L 498.695312 346.960938 C 498.695312 353.984375 504.390625 359.679688 511.414062 359.679688 C 518.4375 359.679688 524.132812 353.984375 524.132812 346.960938 L 524.132812 346.132812 C 524.132812 339.109375 518.4375 333.414062 511.414062 333.414062 Z M 564.367188 353.371094 C 557.34375 353.371094 551.648438 359.066406 551.648438 366.089844 L 551.648438 366.921875 C 551.648438 373.941406 557.34375 379.640625 564.367188 379.640625 C 571.386719 379.640625 577.085938 373.941406 577.085938 366.921875 L 577.085938 366.089844 C 577.085938 359.066406 571.386719 353.371094 564.367188 353.371094 Z M 617.316406 374.179688 C 610.296875 374.179688 604.597656 379.875 604.597656 386.898438 L 604.597656 387.730469 C 604.597656 394.75 610.296875 400.449219 617.316406 400.449219 C 624.339844 400.449219 630.035156 394.75 630.035156 387.730469 L 630.035156 386.898438 C 630.035156 379.875 624.339844 374.179688 617.316406 374.179688 Z M 298.578125 359.679688 C 305.601562 359.679688 311.296875 353.984375 311.296875 346.960938 L 311.296875 346.132812 C 311.296875 339.109375 305.601562 333.414062 298.578125 333.414062 C 291.558594 333.414062 285.859375 339.109375 285.859375 346.132812 L 285.859375 346.960938 C 285.859375 353.984375 291.558594 359.679688 298.578125 359.679688 Z M 245.628906 379.640625 C 252.648438 379.640625 258.347656 373.941406 258.347656 366.921875 L 258.347656 366.089844 C 258.347656 359.066406 252.648438 353.371094 245.628906 353.371094 C 238.605469 353.371094 232.910156 359.066406 232.910156 366.089844 L 232.910156 366.921875 C 232.910156 373.941406 238.605469 379.640625 245.628906 379.640625 Z M 192.675781 400.429688 C 199.699219 400.429688 205.394531 394.730469 205.394531 387.710938 L 205.394531 386.898438 C 205.394531 379.875 199.699219 374.179688 192.675781 374.179688 C 185.652344 374.179688 179.957031 379.875 179.957031 386.898438 L 179.957031 387.730469 C 179.957031 394.730469 185.652344 400.429688 192.675781 400.429688 Z M 192.675781 400.429688 " fill-opacity="1" fill-rule="nonzero"/></g></svg>