<svg xmlns="http://www.w3.org/2000/svg" xmlns:xlink="http://www.w3.org/1999/xlink" width="1080" zoomAndPan="magnify" viewBox="0 0 810 809.999993" height="1080" preserveAspectRatio="xMidYMid meet" version="1.0"><defs><clipPath id="43e6bf6205"><path d="M 313.160156 7.710938 L 522.890625 7.710938 L 522.890625 567 L 313.160156 567 Z M 313.160156 7.710938 " clip-rule="nonzero"/></clipPath><clipPath id="a8738e3088"><path d="M 338 645 L 498 645 L 498 804.960938 L 338 804.960938 Z M 338 645 " clip-rule="nonzero"/></clipPath></defs><g clip-path="url(#43e6bf6205)"><path fill="#ef4123" d="M 417.882812 7.710938 C 354.652344 7.710938 305.652344 63.4375 314.152344 126.242188 L 372.847656 526.441406 C 375.824219 549.03125 395.152344 566.023438 418.023438 566.023438 C 440.824219 566.023438 460.152344 549.03125 463.269531 526.441406 L 521.96875 126.242188 C 530.109375 63.4375 481.183594 7.710938 417.882812 7.710938 " fill-opacity="1" fill-rule="nonzero"/></g><g clip-path="url(#a8738e3088)"><path fill="#ef4123" d="M 417.882812 645.75 C 373.769531 645.75 338.152344 681.4375 338.152344 725.550781 C 338.152344 769.59375 373.769531 805.277344 417.882812 805.277344 C 461.996094 805.277344 497.609375 769.59375 497.609375 725.550781 C 497.609375 681.4375 461.996094 645.75 417.882812 645.75 " fill-opacity="1" fill-rule="nonzero"/></g></svg>