<svg xmlns="http://www.w3.org/2000/svg" xmlns:xlink="http://www.w3.org/1999/xlink" width="1080" zoomAndPan="magnify" viewBox="0 0 810 809.999993" height="1080" preserveAspectRatio="xMidYMid meet" version="1.0"><defs><clipPath id="e70a228c46"><path d="M 95.417969 40.289062 L 500 40.289062 L 500 583 L 95.417969 583 Z M 95.417969 40.289062 " clip-rule="nonzero"/></clipPath><clipPath id="bdacf5a04e"><path d="M 279 523 L 743.417969 523 L 743.417969 742.289062 L 279 742.289062 Z M 279 523 " clip-rule="nonzero"/></clipPath><clipPath id="5ac44dc814"><path d="M 477 600 L 546 600 L 546 742.289062 L 477 742.289062 Z M 477 600 " clip-rule="nonzero"/></clipPath><clipPath id="17a8ed732f"><path d="M 574 602 L 696 602 L 696 742.289062 L 574 742.289062 Z M 574 602 " clip-rule="nonzero"/></clipPath></defs><g clip-path="url(#e70a228c46)"><path fill="#00194c" d="M 451.222656 582.261719 L 103.65625 582.261719 C 99.125 582.261719 95.417969 578.554688 95.417969 574.027344 L 95.417969 48.554688 C 95.417969 44.027344 99.125 40.320312 103.65625 40.320312 L 491.582031 40.320312 C 496.109375 40.320312 499.816406 44.027344 499.816406 48.554688 L 499.816406 283.699219 C 499.816406 288.230469 496.109375 291.9375 491.582031 291.9375 C 487.050781 291.9375 483.34375 288.230469 483.34375 283.699219 L 483.34375 56.792969 L 111.890625 56.792969 L 111.890625 565.789062 L 451.222656 565.789062 C 455.753906 565.789062 459.460938 569.496094 459.460938 574.027344 C 459.460938 578.554688 455.753906 582.261719 451.222656 582.261719 Z M 451.222656 582.261719 " fill-opacity="1" fill-rule="evenodd"/></g><path fill="#00194c" d="M 242.4375 219.867188 L 151.835938 219.867188 C 147.308594 219.867188 143.601562 216.164062 143.601562 211.632812 L 143.601562 117.328125 C 143.601562 112.796875 147.308594 109.09375 151.835938 109.09375 L 242.4375 109.09375 C 246.964844 109.09375 250.671875 112.796875 250.671875 117.328125 L 250.671875 211.632812 C 250.671875 216.164062 246.964844 219.867188 242.4375 219.867188 Z M 160.074219 203.398438 L 234.199219 203.398438 L 234.199219 125.566406 L 160.074219 125.566406 Z M 160.074219 203.398438 " fill-opacity="1" fill-rule="evenodd"/><path fill="#00194c" d="M 242.4375 376.355469 L 151.835938 376.355469 C 147.308594 376.355469 143.601562 372.652344 143.601562 368.121094 L 143.601562 273.816406 C 143.601562 269.285156 147.308594 265.578125 151.835938 265.578125 L 242.4375 265.578125 C 246.964844 265.578125 250.671875 269.285156 250.671875 273.816406 L 250.671875 368.121094 C 250.671875 372.652344 246.964844 376.355469 242.4375 376.355469 Z M 160.074219 359.882812 L 234.199219 359.882812 L 234.199219 282.050781 L 160.074219 282.050781 Z M 160.074219 359.882812 " fill-opacity="1" fill-rule="evenodd"/><path fill="#00194c" d="M 242.4375 532.84375 L 151.835938 532.84375 C 147.308594 532.84375 143.601562 529.136719 143.601562 524.609375 L 143.601562 430.304688 C 143.601562 425.773438 147.308594 422.066406 151.835938 422.066406 L 242.4375 422.066406 C 246.964844 422.066406 250.671875 425.773438 250.671875 430.304688 L 250.671875 524.609375 C 250.671875 529.136719 246.964844 532.84375 242.4375 532.84375 Z M 160.074219 516.371094 L 234.199219 516.371094 L 234.199219 438.539062 L 160.074219 438.539062 Z M 160.074219 516.371094 " fill-opacity="1" fill-rule="evenodd"/><path fill="#00194c" d="M 410.867188 150.273438 L 290.207031 150.273438 C 285.675781 150.273438 281.96875 146.566406 281.96875 142.035156 C 281.96875 137.507812 285.675781 133.800781 290.207031 133.800781 L 410.867188 133.800781 C 415.394531 133.800781 419.101562 137.507812 419.101562 142.035156 C 419.101562 146.566406 415.394531 150.273438 410.867188 150.273438 Z M 410.867188 150.273438 " fill-opacity="1" fill-rule="evenodd"/><path fill="#00194c" d="M 379.570312 195.160156 L 290.207031 195.160156 C 285.675781 195.160156 281.96875 191.453125 281.96875 186.925781 C 281.96875 182.394531 285.675781 178.6875 290.207031 178.6875 L 379.570312 178.6875 C 384.097656 178.6875 387.804688 182.394531 387.804688 186.925781 C 387.804688 191.453125 384.097656 195.160156 379.570312 195.160156 Z M 379.570312 195.160156 " fill-opacity="1" fill-rule="evenodd"/><path fill="#00194c" d="M 379.570312 306.761719 L 290.207031 306.761719 C 285.675781 306.761719 281.96875 303.054688 281.96875 298.523438 C 281.96875 293.996094 285.675781 290.289062 290.207031 290.289062 L 379.570312 290.289062 C 384.097656 290.289062 387.804688 293.996094 387.804688 298.523438 C 387.804688 303.054688 384.097656 306.761719 379.570312 306.761719 Z M 379.570312 306.761719 " fill-opacity="1" fill-rule="evenodd"/><path fill="#00194c" d="M 356.507812 351.648438 L 290.207031 351.648438 C 285.675781 351.648438 281.96875 347.941406 281.96875 343.410156 C 281.96875 338.882812 285.675781 335.175781 290.207031 335.175781 L 356.507812 335.175781 C 361.039062 335.175781 364.742188 338.882812 364.742188 343.410156 C 364.742188 347.941406 361.039062 351.648438 356.507812 351.648438 Z M 356.507812 351.648438 " fill-opacity="1" fill-rule="evenodd"/><path fill="#00194c" d="M 394.804688 463.25 L 290.207031 463.25 C 285.675781 463.25 281.96875 459.542969 281.96875 455.011719 C 281.96875 450.484375 285.675781 446.777344 290.207031 446.777344 L 394.804688 446.777344 C 399.335938 446.777344 403.042969 450.484375 403.042969 455.011719 C 403.042969 459.542969 399.335938 463.25 394.804688 463.25 Z M 394.804688 463.25 " fill-opacity="1" fill-rule="evenodd"/><path fill="#00194c" d="M 379.570312 508.136719 L 290.207031 508.136719 C 285.675781 508.136719 281.96875 504.429688 281.96875 499.898438 C 281.96875 495.371094 285.675781 491.664062 290.207031 491.664062 L 379.570312 491.664062 C 384.097656 491.664062 387.804688 495.371094 387.804688 499.898438 C 387.804688 504.429688 384.097656 508.136719 379.570312 508.136719 Z M 379.570312 508.136719 " fill-opacity="1" fill-rule="evenodd"/><g clip-path="url(#bdacf5a04e)"><path fill="#00194c" d="M 734.960938 742.042969 L 288.148438 742.042969 C 283.617188 742.042969 279.910156 738.339844 279.910156 733.808594 C 279.910156 697.570312 289.792969 666.269531 308.324219 642.796875 C 327.269531 618.914062 355.683594 602.851562 389.863281 596.675781 C 397.277344 595.441406 403.867188 594.203125 409.21875 593.378906 C 428.574219 590.085938 437.222656 588.4375 440.105469 583.910156 C 443.8125 578.144531 443.8125 563.320312 443.8125 538.609375 L 443.8125 532.019531 C 443.8125 527.492188 447.515625 523.785156 452.046875 523.785156 C 456.578125 523.785156 460.285156 527.492188 460.285156 532.019531 L 460.285156 538.609375 C 460.285156 569.085938 460.285156 583.085938 453.695312 592.96875 C 446.695312 603.675781 434.339844 605.734375 412.101562 609.441406 C 406.335938 610.675781 400.160156 611.5 393.160156 612.734375 C 334.269531 623.855469 299.265625 664.625 296.382812 725.570312 L 726.726562 725.570312 C 723.84375 664.625 688.839844 623.855469 629.949219 612.734375 C 622.949219 611.5 616.359375 610.675781 611.007812 609.441406 C 588.355469 605.734375 576.414062 603.675781 569 592.96875 C 562.414062 583.085938 562.414062 569.085938 562.414062 538.609375 L 562.824219 531.609375 C 562.824219 527.078125 566.117188 523.375 570.648438 523.375 C 575.589844 523.375 578.886719 526.667969 578.886719 531.199219 L 578.886719 538.609375 C 578.886719 563.320312 578.886719 578.144531 583.003906 583.910156 C 585.886719 588.4375 594.535156 590.085938 613.476562 593.378906 C 619.242188 594.203125 625.832031 595.441406 632.832031 596.675781 C 667.425781 602.851562 695.425781 618.914062 714.371094 642.796875 C 733.3125 666.269531 743.195312 697.570312 743.195312 733.808594 C 743.195312 738.339844 739.492188 742.042969 734.960938 742.042969 Z M 734.960938 742.042969 " fill-opacity="1" fill-rule="evenodd"/></g><g clip-path="url(#5ac44dc814)"><path fill="#00194c" d="M 529.46875 742.042969 C 525.347656 742.042969 521.644531 738.75 521.644531 734.632812 L 515.464844 658.035156 C 515.464844 655.976562 516.289062 653.917969 517.523438 652.269531 L 526.171875 641.972656 L 511.761719 622.207031 L 496.523438 642.386719 L 504.757812 652.269531 C 505.996094 653.917969 506.816406 655.976562 506.40625 658.035156 L 500.640625 734.632812 C 500.230469 739.160156 496.523438 742.457031 491.992188 742.042969 C 487.464844 741.632812 484.167969 737.925781 484.167969 733.394531 L 489.933594 660.507812 L 479.640625 648.152344 C 477.167969 645.269531 476.757812 641.152344 479.226562 637.855469 L 505.171875 603.675781 C 506.816406 601.617188 509.289062 600.382812 511.761719 600.382812 C 514.230469 600.382812 516.703125 601.617188 518.347656 603.675781 L 543.46875 637.445312 C 545.941406 640.738281 545.527344 644.855469 543.058594 647.738281 L 532.351562 660.507812 L 537.703125 733.394531 C 538.117188 737.925781 534.820312 741.632812 530.292969 742.042969 C 530.292969 742.042969 529.878906 742.042969 529.46875 742.042969 Z M 529.46875 742.042969 " fill-opacity="1" fill-rule="evenodd"/></g><path fill="#00194c" d="M 479.226562 659.683594 C 476.757812 659.683594 474.285156 658.445312 472.636719 656.386719 L 431.046875 600.382812 C 428.574219 596.675781 429.398438 591.734375 433.105469 588.851562 C 436.808594 585.96875 441.753906 586.792969 444.636719 590.5 L 479.226562 637.855469 L 499.816406 610.265625 L 447.105469 575.671875 C 443.398438 573.203125 442.164062 568.261719 444.636719 564.140625 C 447.105469 560.4375 452.460938 559.613281 456.164062 562.082031 L 515.878906 601.207031 C 517.9375 602.441406 519.171875 604.5 519.585938 606.558594 C 519.996094 609.03125 519.585938 611.089844 517.9375 613.148438 L 485.816406 656.386719 C 484.582031 658.445312 482.109375 659.683594 479.226562 659.683594 Z M 479.226562 659.683594 " fill-opacity="1" fill-rule="evenodd"/><path fill="#00194c" d="M 543.46875 659.683594 C 541 659.683594 538.527344 658.445312 536.878906 656.386719 L 504.757812 613.148438 C 503.523438 611.089844 503.113281 609.03125 503.523438 606.558594 C 503.933594 604.5 505.171875 602.441406 506.816406 601.207031 L 566.941406 562.082031 C 570.648438 559.613281 575.589844 560.4375 578.0625 564.140625 C 580.53125 568.261719 579.707031 573.203125 576.003906 575.671875 L 523.289062 610.265625 L 543.46875 637.855469 L 578.472656 590.5 L 591.652344 600.382812 L 550.058594 656.386719 C 548.824219 658.445312 546.351562 659.683594 543.46875 659.683594 Z M 543.46875 659.683594 " fill-opacity="1" fill-rule="evenodd"/><path fill="#00194c" d="M 601.121094 416.714844 C 600.300781 416.714844 599.476562 416.714844 598.652344 416.300781 C 569.414062 405.59375 540.175781 400.242188 511.347656 400.242188 C 482.519531 400.242188 453.28125 405.59375 424.457031 416.300781 C 421.984375 417.125 419.101562 416.714844 417.042969 415.480469 C 414.574219 413.832031 413.335938 411.359375 413.335938 408.476562 L 413.335938 359.882812 C 413.335938 356.589844 415.394531 353.296875 418.691406 352.058594 C 452.871094 338.882812 485.816406 331.882812 516.703125 331.882812 C 548 331.882812 577.648438 338.882812 604.828125 352.472656 C 607.710938 353.707031 609.359375 356.589844 609.359375 359.882812 L 609.359375 408.476562 C 609.359375 411.359375 608.125 413.832031 606.0625 415.480469 C 604.417969 416.300781 602.769531 416.714844 601.121094 416.714844 Z M 511.347656 383.769531 C 538.527344 383.769531 566.117188 388.300781 592.886719 396.949219 L 592.886719 364.828125 C 569.414062 354.121094 543.46875 348.355469 516.703125 348.355469 C 489.523438 348.355469 460.285156 354.121094 429.808594 365.648438 L 429.808594 396.949219 C 456.988281 388.300781 484.167969 383.769531 511.347656 383.769531 Z M 511.347656 383.769531 " fill-opacity="1" fill-rule="evenodd"/><path fill="#00194c" d="M 516.703125 438.539062 C 491.167969 438.539062 464.402344 434.011719 436.808594 424.949219 C 432.28125 423.714844 430.222656 418.773438 431.457031 414.65625 C 432.691406 410.125 437.632812 408.066406 441.753906 409.300781 C 492.40625 426.1875 539.351562 426.597656 580.945312 410.949219 C 585.0625 409.300781 589.59375 411.359375 591.238281 415.480469 C 592.886719 420.007812 590.828125 424.539062 586.710938 426.1875 C 564.472656 434.421875 541 438.539062 516.703125 438.539062 Z M 516.703125 438.539062 " fill-opacity="1" fill-rule="evenodd"/><path fill="#00194c" d="M 625.832031 385.828125 L 601.121094 385.828125 C 596.59375 385.828125 592.886719 382.121094 592.886719 377.59375 C 592.886719 372.652344 596.59375 369.355469 601.121094 369.355469 L 617.59375 369.355469 L 617.59375 342.175781 C 588.355469 308.820312 550.882812 290.289062 511.347656 290.289062 C 472.226562 290.289062 434.339844 308.820312 405.101562 342.175781 L 405.101562 369.355469 L 421.574219 369.355469 C 426.101562 369.355469 429.808594 372.652344 429.808594 377.59375 C 429.808594 382.121094 426.101562 385.828125 421.574219 385.828125 L 396.863281 385.828125 C 392.335938 385.828125 388.628906 382.121094 388.628906 377.59375 L 388.628906 339.292969 C 388.628906 337.234375 389.453125 335.585938 390.6875 333.941406 C 423.632812 295.230469 466.460938 273.816406 511.347656 273.816406 C 556.648438 273.816406 599.476562 295.230469 632.421875 333.941406 C 633.65625 335.585938 634.066406 337.234375 634.066406 339.292969 L 634.066406 377.59375 C 634.066406 382.121094 630.359375 385.828125 625.832031 385.828125 Z M 625.832031 385.828125 " fill-opacity="1" fill-rule="evenodd"/><path fill="#00194c" d="M 519.585938 570.320312 L 503.523438 570.320312 C 503.113281 570.320312 502.289062 570.320312 501.875 570.320312 C 477.578125 564.964844 431.046875 537.375 431.046875 505.253906 L 431.046875 480.132812 L 430.222656 480.132812 C 425.691406 480.132812 421.984375 476.425781 421.984375 471.898438 L 421.984375 448.835938 C 421.984375 444.304688 425.691406 440.597656 430.222656 440.597656 L 431.046875 440.597656 L 431.046875 402.710938 C 431.046875 398.183594 434.75 394.476562 439.28125 394.476562 C 443.8125 394.476562 447.515625 398.183594 447.515625 402.710938 L 447.515625 448.835938 C 447.515625 453.367188 443.8125 457.070312 439.28125 457.070312 L 438.457031 457.070312 L 438.457031 463.660156 L 439.28125 463.660156 C 443.8125 463.660156 447.515625 467.367188 447.515625 471.898438 L 447.515625 505.253906 C 447.515625 525.84375 484.582031 549.316406 504.347656 554.257812 L 518.347656 554.257812 C 536.878906 549.730469 575.589844 522.960938 575.589844 508.960938 L 575.589844 471.898438 C 575.589844 467.367188 579.296875 463.660156 583.828125 463.660156 L 584.238281 463.660156 L 584.238281 457.070312 L 583.828125 457.070312 C 579.296875 457.070312 575.589844 453.367188 575.589844 448.835938 L 575.589844 402.710938 C 575.589844 398.183594 579.296875 394.476562 583.828125 394.476562 C 588.355469 394.476562 592.0625 398.183594 592.0625 402.710938 L 592.0625 440.597656 L 592.476562 440.597656 C 597.003906 440.597656 600.710938 444.304688 600.710938 448.835938 L 600.710938 471.898438 C 600.710938 476.425781 597.003906 480.132812 592.476562 480.132812 L 592.0625 480.132812 L 592.0625 508.960938 C 592.0625 536.960938 539.351562 566.203125 521.230469 570.320312 C 520.40625 570.320312 519.996094 570.320312 519.585938 570.320312 Z M 519.585938 570.320312 " fill-opacity="1" fill-rule="evenodd"/><g clip-path="url(#17a8ed732f)"><path fill="#00194c" d="M 626.242188 742.457031 C 625.007812 742.457031 623.773438 742.042969 622.125 741.21875 C 618.417969 739.160156 617.183594 734.21875 619.242188 730.101562 L 680.601562 623.855469 C 682.660156 620.148438 688.015625 618.914062 691.722656 620.972656 C 695.839844 623.441406 697.074219 628.382812 694.605469 632.089844 L 633.65625 738.339844 C 632.007812 740.808594 629.125 742.457031 626.242188 742.457031 Z M 582.179688 742.042969 C 580.945312 742.042969 579.296875 741.632812 578.0625 740.808594 C 574.355469 738.75 572.707031 733.808594 575.179688 729.691406 L 646.421875 606.558594 C 648.480469 602.441406 653.835938 601.207031 657.539062 603.265625 C 661.660156 605.734375 662.894531 610.675781 660.421875 614.796875 L 589.59375 737.925781 C 587.945312 740.398438 585.0625 742.042969 582.179688 742.042969 Z M 582.179688 742.042969 " fill-opacity="1" fill-rule="evenodd"/></g><path fill="#00194c" d="M 188.902344 186.925781 C 186.839844 186.925781 184.78125 186.101562 183.136719 184.453125 L 171.191406 172.511719 C 168.308594 169.214844 168.308594 163.863281 171.191406 160.980469 C 174.488281 157.6875 179.839844 157.6875 183.136719 160.980469 L 188.902344 166.746094 L 211.136719 144.507812 C 214.433594 141.625 219.785156 141.625 223.082031 144.507812 C 225.964844 147.800781 225.964844 153.15625 223.082031 156.449219 L 195.078125 184.453125 C 193.429688 186.101562 191.371094 186.925781 188.902344 186.925781 Z M 188.902344 186.925781 " fill-opacity="1" fill-rule="evenodd"/><path fill="#00194c" d="M 188.902344 343 C 186.839844 343 184.78125 342.175781 183.136719 340.941406 L 171.191406 329 C 168.308594 325.703125 168.308594 320.351562 171.191406 317.054688 C 174.488281 314.171875 179.839844 314.171875 183.136719 317.054688 L 188.902344 323.234375 L 211.136719 300.996094 C 214.433594 297.699219 219.785156 297.699219 223.082031 300.996094 C 225.964844 304.289062 225.964844 309.644531 223.082031 312.9375 L 195.078125 340.941406 C 193.429688 342.175781 191.371094 343 188.902344 343 Z M 188.902344 343 " fill-opacity="1" fill-rule="evenodd"/></svg>