<svg xmlns="http://www.w3.org/2000/svg" xmlns:xlink="http://www.w3.org/1999/xlink" width="1080" zoomAndPan="magnify" viewBox="0 0 810 809.999993" height="1080" preserveAspectRatio="xMidYMid meet" version="1.0"><defs><clipPath id="50e3adf086"><path d="M 101.523438 6 L 775 6 L 775 799 L 101.523438 799 Z M 101.523438 6 " clip-rule="nonzero"/></clipPath></defs><g clip-path="url(#50e3adf086)"><path fill="#ef4123" d="M 320.355469 6.953125 C 318.839844 6.953125 317.328125 6.988281 315.8125 7.0625 C 314.300781 7.136719 312.789062 7.25 311.28125 7.398438 C 309.773438 7.546875 308.269531 7.730469 306.773438 7.953125 C 305.273438 8.175781 303.78125 8.433594 302.292969 8.730469 C 300.808594 9.027344 299.332031 9.359375 297.859375 9.726562 C 296.390625 10.09375 294.929688 10.5 293.480469 10.9375 C 292.03125 11.378906 290.59375 11.855469 289.164062 12.363281 C 287.738281 12.875 286.324219 13.417969 284.925781 14 C 283.527344 14.578125 282.140625 15.191406 280.773438 15.839844 C 279.402344 16.488281 278.050781 17.167969 276.710938 17.882812 C 275.375 18.597656 274.058594 19.34375 272.757812 20.125 C 271.460938 20.902344 270.179688 21.714844 268.917969 22.554688 C 267.660156 23.398438 266.421875 24.269531 265.203125 25.171875 C 263.988281 26.074219 262.792969 27.007812 261.621094 27.96875 C 260.449219 28.929688 259.304688 29.917969 258.179688 30.9375 C 257.058594 31.953125 255.960938 32.996094 254.890625 34.070312 C 253.820312 35.140625 252.773438 36.238281 251.757812 37.359375 C 250.738281 38.484375 249.75 39.628906 248.789062 40.800781 C 247.828125 41.972656 246.894531 43.167969 245.992188 44.382812 C 245.089844 45.601562 244.21875 46.839844 243.375 48.097656 C 242.535156 49.359375 241.722656 50.636719 240.945312 51.9375 C 240.164062 53.238281 239.417969 54.554688 238.703125 55.890625 C 237.992188 57.226562 237.308594 58.582031 236.660156 59.949219 C 236.015625 61.320312 235.398438 62.707031 234.820312 64.105469 C 234.242188 65.503906 233.695312 66.917969 233.183594 68.34375 C 232.675781 69.773438 232.199219 71.210938 231.757812 72.660156 C 231.320312 74.109375 230.914062 75.570312 230.546875 77.039062 C 230.179688 78.507812 229.847656 79.988281 229.550781 81.472656 C 229.257812 82.960938 228.996094 84.453125 228.773438 85.949219 C 228.550781 87.449219 228.367188 88.953125 228.21875 90.460938 C 228.070312 91.96875 227.957031 93.480469 227.882812 94.992188 C 227.808594 96.507812 227.773438 98.019531 227.773438 99.535156 C 227.773438 101.050781 227.808594 102.566406 227.882812 104.078125 C 227.957031 105.59375 228.070312 107.101562 228.21875 108.609375 C 228.367188 110.117188 228.550781 111.621094 228.773438 113.121094 C 228.996094 114.621094 229.257812 116.113281 229.550781 117.597656 C 229.847656 119.085938 230.179688 120.5625 230.546875 122.03125 C 230.914062 123.5 231.320312 124.960938 231.757812 126.410156 C 232.199219 127.863281 232.675781 129.300781 233.183594 130.726562 C 233.695312 132.152344 234.242188 133.566406 234.820312 134.964844 C 235.398438 136.367188 236.015625 137.75 236.660156 139.121094 C 237.308594 140.488281 237.992188 141.84375 238.703125 143.179688 C 239.417969 144.515625 240.164062 145.832031 240.945312 147.132812 C 241.722656 148.433594 242.535156 149.710938 243.375 150.972656 C 244.21875 152.230469 245.089844 153.472656 245.992188 154.6875 C 246.894531 155.90625 247.828125 157.097656 248.789062 158.269531 C 249.75 159.441406 250.738281 160.589844 251.757812 161.710938 C 252.773438 162.832031 253.820312 163.929688 254.890625 165.003906 C 255.960938 166.074219 257.058594 167.117188 258.179688 168.136719 C 259.304688 169.152344 260.449219 170.144531 261.621094 171.105469 C 262.792969 172.066406 263.988281 172.996094 265.203125 173.898438 C 266.421875 174.800781 267.660156 175.675781 268.917969 176.515625 C 270.179688 177.359375 271.460938 178.167969 272.757812 178.949219 C 274.058594 179.726562 275.375 180.472656 276.710938 181.1875 C 278.050781 181.902344 279.402344 182.582031 280.773438 183.230469 C 282.140625 183.878906 283.527344 184.492188 284.925781 185.070312 C 286.324219 185.652344 287.738281 186.195312 289.164062 186.707031 C 290.59375 187.21875 292.03125 187.691406 293.480469 188.132812 C 294.929688 188.574219 296.390625 188.976562 297.859375 189.34375 C 299.332031 189.714844 300.808594 190.046875 302.292969 190.339844 C 303.78125 190.636719 305.273438 190.894531 306.773438 191.117188 C 308.269531 191.339844 309.773438 191.523438 311.28125 191.671875 C 312.789062 191.820312 314.300781 191.933594 315.8125 192.007812 C 317.328125 192.082031 318.839844 192.121094 320.355469 192.121094 C 321.871094 192.121094 323.386719 192.082031 324.898438 192.007812 C 326.414062 191.933594 327.921875 191.820312 329.429688 191.671875 C 330.9375 191.523438 332.441406 191.339844 333.941406 191.117188 C 335.441406 190.894531 336.933594 190.636719 338.417969 190.339844 C 339.90625 190.046875 341.382812 189.714844 342.851562 189.34375 C 344.324219 188.976562 345.78125 188.574219 347.230469 188.132812 C 348.683594 187.691406 350.121094 187.21875 351.546875 186.707031 C 352.972656 186.195312 354.386719 185.652344 355.785156 185.070312 C 357.1875 184.492188 358.570312 183.878906 359.941406 183.230469 C 361.3125 182.582031 362.664062 181.902344 364 181.1875 C 365.335938 180.472656 366.65625 179.726562 367.953125 178.949219 C 369.253906 178.167969 370.535156 177.359375 371.792969 176.515625 C 373.054688 175.675781 374.292969 174.800781 375.507812 173.898438 C 376.726562 172.996094 377.917969 172.066406 379.089844 171.105469 C 380.261719 170.144531 381.410156 169.152344 382.53125 168.136719 C 383.65625 167.117188 384.75 166.074219 385.824219 165.003906 C 386.894531 163.929688 387.9375 162.832031 388.957031 161.710938 C 389.972656 160.589844 390.964844 159.441406 391.925781 158.269531 C 392.886719 157.097656 393.816406 155.90625 394.71875 154.6875 C 395.625 153.472656 396.496094 152.230469 397.335938 150.972656 C 398.179688 149.710938 398.988281 148.433594 399.769531 147.132812 C 400.546875 145.832031 401.292969 144.515625 402.007812 143.179688 C 402.722656 141.84375 403.402344 140.488281 404.050781 139.121094 C 404.699219 137.75 405.3125 136.367188 405.894531 134.964844 C 406.472656 133.566406 407.019531 132.152344 407.527344 130.726562 C 408.039062 129.300781 408.515625 127.863281 408.953125 126.410156 C 409.394531 124.960938 409.796875 123.5 410.164062 122.03125 C 410.535156 120.5625 410.867188 119.085938 411.160156 117.597656 C 411.457031 116.113281 411.714844 114.621094 411.9375 113.121094 C 412.160156 111.621094 412.347656 110.117188 412.496094 108.609375 C 412.644531 107.101562 412.753906 105.59375 412.828125 104.078125 C 412.902344 102.566406 412.941406 101.050781 412.941406 99.535156 C 412.941406 98.019531 412.902344 96.507812 412.828125 94.992188 C 412.753906 93.480469 412.644531 91.96875 412.496094 90.460938 C 412.347656 88.953125 412.160156 87.449219 411.9375 85.949219 C 411.714844 84.453125 411.457031 82.960938 411.160156 81.472656 C 410.867188 79.988281 410.535156 78.507812 410.164062 77.039062 C 409.796875 75.570312 409.394531 74.109375 408.953125 72.660156 C 408.515625 71.210938 408.039062 69.773438 407.527344 68.34375 C 407.019531 66.917969 406.472656 65.503906 405.894531 64.105469 C 405.3125 62.707031 404.699219 61.320312 404.050781 59.949219 C 403.402344 58.582031 402.722656 57.226562 402.007812 55.890625 C 401.292969 54.554688 400.546875 53.238281 399.769531 51.9375 C 398.988281 50.636719 398.179688 49.359375 397.335938 48.097656 C 396.496094 46.839844 395.625 45.601562 394.71875 44.382812 C 393.816406 43.167969 392.886719 41.972656 391.925781 40.800781 C 390.964844 39.628906 389.972656 38.484375 388.957031 37.359375 C 387.9375 36.238281 386.894531 35.140625 385.824219 34.070312 C 384.75 32.996094 383.65625 31.953125 382.53125 30.9375 C 381.410156 29.917969 380.261719 28.929688 379.089844 27.96875 C 377.917969 27.007812 376.726562 26.074219 375.507812 25.171875 C 374.292969 24.269531 373.054688 23.398438 371.792969 22.554688 C 370.535156 21.714844 369.253906 20.902344 367.953125 20.125 C 366.65625 19.34375 365.335938 18.597656 364 17.882812 C 362.664062 17.167969 361.3125 16.488281 359.941406 15.839844 C 358.570312 15.191406 357.1875 14.578125 355.785156 14 C 354.386719 13.417969 352.972656 12.875 351.546875 12.363281 C 350.121094 11.855469 348.683594 11.378906 347.230469 10.9375 C 345.78125 10.5 344.324219 10.09375 342.851562 9.726562 C 341.382812 9.359375 339.90625 9.027344 338.417969 8.730469 C 336.933594 8.433594 335.441406 8.175781 333.941406 7.953125 C 332.441406 7.730469 330.9375 7.546875 329.429688 7.398438 C 327.921875 7.25 326.414062 7.136719 324.898438 7.0625 C 323.386719 6.988281 321.871094 6.953125 320.355469 6.953125 Z M 446.277344 92.960938 C 446.613281 95.148438 446.605469 97.347656 446.605469 99.535156 C 446.605469 123.101562 440.203125 144.992188 428.753906 163.84375 L 428.820312 163.878906 C 428.804688 163.910156 428.789062 163.976562 428.753906 164.007812 L 464.097656 190.441406 L 411.164062 225.785156 L 252.628906 225.785156 L 191.410156 187.582031 L 214.128906 167.722656 C 201.503906 148.027344 194.105469 124.617188 194.105469 99.535156 C 194.105469 98.1875 194.101562 96.839844 194.269531 95.492188 L 112.964844 166.703125 C 105.050781 173.773438 100.84375 184.210938 101.6875 194.816406 C 102.527344 205.421875 108.246094 215 117.335938 220.722656 L 246.546875 301.472656 L 246.480469 302.226562 L 349.320312 503.867188 C 370.867188 545.613281 387.691406 562.453125 438.191406 562.453125 C 488.691406 562.453125 604.15625 484.863281 604.15625 484.863281 L 702.988281 583.824219 C 711.238281 592.074219 722 596.121094 732.773438 596.121094 C 743.546875 596.121094 754.3125 592.074219 762.5625 583.824219 C 778.890625 567.328125 778.890625 540.746094 762.5625 524.25 L 644.730469 406.417969 C 633.113281 394.800781 615.957031 391.097656 600.640625 396.652344 L 505.523438 427.789062 L 438.191406 291.609375 L 536.789062 222.894531 C 554.667969 213.046875 566.464844 182.835938 542.542969 165.191406 Z M 239.542969 362.820312 L 286.691406 614.171875 L 286.691406 781.289062 C 286.691406 790.597656 294.230469 798.121094 303.523438 798.121094 C 312.816406 798.121094 320.355469 790.597656 320.355469 781.289062 L 320.355469 629.789062 L 505.523438 629.789062 L 505.523438 781.289062 C 505.523438 790.597656 513.046875 798.121094 522.359375 798.121094 C 531.667969 798.121094 539.191406 790.597656 539.191406 781.289062 L 539.191406 612.953125 C 539.191406 603.644531 531.667969 596.121094 522.359375 596.121094 L 317.429688 596.121094 L 293.59375 468.6875 Z M 598.960938 527.441406 C 581.625 537.707031 558.875 550.503906 535.476562 562.453125 L 572.859375 562.453125 L 572.859375 756.039062 C 572.859375 779.269531 591.710938 798.121094 614.941406 798.121094 C 638.171875 798.121094 657.023438 779.269531 657.023438 756.039062 L 657.023438 585.503906 Z M 598.960938 527.441406 " fill-opacity="1" fill-rule="nonzero"/></g></svg>