<?xml version="1.0" encoding="UTF-8" standalone="no"?>
<!-- Created with Inkscape (http://www.inkscape.org/) -->

<svg
   width="150"
   height="150"
   viewBox="0 0 39.687515 39.687501"
   version="1.1"
   id="svg5"
   inkscape:version="1.1.2 (b8e25be833, 2022-02-05)"
   sodipodi:docname="map.svg"
   xmlns:inkscape="http://www.inkscape.org/namespaces/inkscape"
   xmlns:sodipodi="http://sodipodi.sourceforge.net/DTD/sodipodi-0.dtd"
   xmlns="http://www.w3.org/2000/svg"
   xmlns:svg="http://www.w3.org/2000/svg">
  <sodipodi:namedview
     id="namedview7"
     pagecolor="#ffffff"
     bordercolor="#666666"
     borderopacity="1.0"
     inkscape:pageshadow="2"
     inkscape:pageopacity="0.0"
     inkscape:pagecheckerboard="0"
     inkscape:document-units="mm"
     showgrid="false"
     units="px"
     inkscape:zoom="3.0855962"
     inkscape:cx="66.437727"
     inkscape:cy="93.336904"
     inkscape:window-width="2240"
     inkscape:window-height="1294"
     inkscape:window-x="-11"
     inkscape:window-y="-11"
     inkscape:window-maximized="1"
     inkscape:current-layer="layer1" />
  <defs
     id="defs2">
    <clipPath
       clipPathUnits="userSpaceOnUse"
       id="clipPath26008">
      <path
         d="M 0,6310.195 H 1657 V 0 H 0 Z"
         id="path26006" />
    </clipPath>
  </defs>
  <g
     inkscape:label="Layer 1"
     inkscape:groupmode="layer"
     id="layer1">
    <g
       id="g26002"
       transform="matrix(0.5255438,0,0,-0.5255438,-171.2888,2054.9651)">
      <g
         id="g26004"
         clip-path="url(#clipPath26008)">
        <g
           id="g26010"
           transform="translate(382.5833,3905.7625)">
          <path
             d="m 0,0 h 0.82 c 0.034,-0.102 0.068,-0.205 0.102,-0.307 0.389,-0.632 0.251,-1.503 0.512,-2.255 0.471,-1.352 1.036,-3.048 1.128,-4.61 0.475,-0.126 1.455,-0.46 1.741,-0.82 0.453,-0.698 0.418,-1.602 0.718,-2.459 0.433,-1.24 1.014,-2.657 1.332,-3.996 0.18,-0.762 -0.267,-1.986 0.102,-2.562 0.344,-0.965 2.137,-2.225 2.869,-2.971 0.233,-0.237 0.37,-0.598 0.615,-0.82 0.407,-0.369 1.038,-0.662 1.332,-1.127 0.441,-0.699 0.104,-2.247 0.512,-2.971 0.328,-0.581 1.124,-1.29 1.537,-1.845 v -0.307 c 0.672,-0.904 1.539,-1.816 2.152,-2.766 v -0.308 c 0.26,-0.333 0.772,-0.685 0.922,-1.127 v -2.357 -4.815 c -0.117,-0.417 -0.467,-1.036 -0.615,-1.435 -0.565,-1.527 -0.779,-3.445 -1.537,-4.816 -0.809,-1.464 -2.123,-2.836 -3.074,-4.201 -0.339,-0.487 -0.343,-0.977 -0.614,-1.536 -0.777,-1.604 -1.758,-3.267 -2.562,-4.919 H 4.816 c -0.374,-0.162 -2.251,-1.612 -2.562,-1.946 -1.074,0.224 -1.954,1.01 -2.971,1.229 -0.625,0.134 -1.591,-0.534 -2.357,-0.205 -1.11,0.476 -2.214,1.559 -3.279,2.152 -0.484,0.27 -0.99,0.312 -1.229,0.819 -0.309,0.441 -0.585,2.289 -0.615,2.972 -0.612,0.203 -1.801,1.06 -2.049,1.639 -0.344,0.802 -0.284,1.859 -0.82,2.46 -0.508,-0.376 -2.465,-0.664 -3.176,-0.82 -0.439,0.706 -2.705,3.827 -3.484,3.893 -0.668,0.434 -1.61,0.269 -2.459,0.513 -0.636,0.182 -2.641,0.897 -3.381,0.717 -1.2,-0.292 -2.635,-0.786 -3.791,-1.127 -1.17,-0.345 -2.869,-0.339 -3.792,-0.922 -1.1,-0.696 -2.379,-2.889 -3.893,-2.972 -1.81,-0.136 -3.621,-0.273 -5.431,-0.41 -0.205,-0.204 -0.41,-0.41 -0.614,-0.614 -1.312,-0.824 -1.915,-1.64 -4.099,-1.64 -0.522,0 -1.398,-0.109 -1.742,0.103 -0.179,0.063 -1.481,1.105 -1.537,1.229 v 1.947 c -0.382,0.649 -0.051,1.806 -0.307,2.562 -0.39,1.149 -0.717,2.571 -1.23,3.996 -0.29,0.806 -0.953,1.601 -1.434,2.254 -0.684,0.927 -1.005,2.006 -1.64,2.971 -0.396,0.603 -0.978,1.087 -1.127,1.947 0.228,0.251 0.175,0.546 0.308,0.922 0.119,0.337 0.423,0.939 0.512,1.23 0.253,0.829 -0.689,3.315 -0.82,4.201 0.983,0.732 2.07,3.301 2.972,3.791 0.669,0.363 1.35,0.305 2.049,0.615 1.355,0.6 2.917,1.311 4.303,1.844 0.637,0.245 2.334,0.583 2.767,0.922 0.416,0.326 0.688,1.016 1.025,1.434 0.681,0.847 1.744,1.227 1.741,2.767 -0.245,0.382 -0.206,1.526 -0.205,2.049 2.809,1.321 5.406,3.936 7.378,6.148 1.298,-0.171 2.596,-0.341 3.893,-0.512 0.826,0.18 1.484,0.664 2.459,0.717 0.415,0.642 1.964,3.264 2.562,3.484 0.542,0.41 1.411,0.3 2.152,0.512 0.533,0.153 1.4,0.479 1.947,0.615 1.019,0.252 2.241,-0.143 2.971,-0.308 h 1.434 c 0.388,-0.086 0.818,-0.19 1.332,-0.204 0.467,-0.723 1.207,-1.1 1.23,-2.255 -0.396,-0.516 -0.985,-3.4 -0.922,-3.996 0.547,-0.183 0.904,-0.638 1.332,-0.922 1.358,-0.9 2.745,-1.564 4.098,-2.459 0.39,-0.258 0.888,-0.871 1.332,-1.025 0.82,0.034 1.64,0.069 2.459,0.103 0.463,1.044 1.105,2.198 1.435,3.279 0.102,1.707 0.205,3.415 0.307,5.123 C -1.793,-3.128 -0.7,-1.225 0,0 Z"
             style="fill:none;stroke:#31b2ba;stroke-width:2.416;stroke-linecap:round;stroke-linejoin:round;stroke-miterlimit:10;stroke-dasharray:none;stroke-opacity:1"
             id="path26012" />
        </g>
        <g
           id="g26014"
           transform="translate(382.2759,3845.0022)">
          <path
             d="m 0,0 c 1.054,-0.079 1.927,-0.475 2.766,-0.717 0.46,-0.133 2.727,0.261 3.177,0.41 V -2.869 C 4.217,-4.083 4.752,-5.983 1.639,-5.943 1.376,-5.072 0.701,-4.316 0.41,-3.484 0.061,-2.485 0.091,-1.122 0,0 Z"
             style="fill:none;stroke:#31b2ba;stroke-width:2.416;stroke-linecap:round;stroke-linejoin:round;stroke-miterlimit:10;stroke-dasharray:none;stroke-opacity:1"
             id="path26016" />
        </g>
      </g>
    </g>
  </g>
</svg>
