<?xml version="1.0" encoding="UTF-8" standalone="no"?>
<!-- Created with Inkscape (http://www.inkscape.org/) -->

<svg
   width="150"
   height="150"
   viewBox="0 0 39.687515 39.687501"
   version="1.1"
   id="svg5"
   inkscape:version="1.1.2 (b8e25be833, 2022-02-05)"
   sodipodi:docname="star.svg"
   xmlns:inkscape="http://www.inkscape.org/namespaces/inkscape"
   xmlns:sodipodi="http://sodipodi.sourceforge.net/DTD/sodipodi-0.dtd"
   xmlns="http://www.w3.org/2000/svg"
   xmlns:svg="http://www.w3.org/2000/svg">
  <sodipodi:namedview
     id="namedview7"
     pagecolor="#ffffff"
     bordercolor="#666666"
     borderopacity="1.0"
     inkscape:pageshadow="2"
     inkscape:pageopacity="0.0"
     inkscape:pagecheckerboard="0"
     inkscape:document-units="mm"
     showgrid="false"
     units="px"
     inkscape:zoom="3.0855962"
     inkscape:cx="66.59977"
     inkscape:cy="93.336904"
     inkscape:window-width="2218"
     inkscape:window-height="1272"
     inkscape:window-x="1625"
     inkscape:window-y="-1620"
     inkscape:window-maximized="1"
     inkscape:current-layer="layer1" />
  <defs
     id="defs2">
    <clipPath
       clipPathUnits="userSpaceOnUse"
       id="clipPath26008">
      <path
         d="M 0,6310.195 H 1657 V 0 H 0 Z"
         id="path26006" />
    </clipPath>
    <clipPath
       clipPathUnits="userSpaceOnUse"
       id="clipPath20908">
      <path
         d="m 471.452,6262.02 h 27.27 v -37.82 h -27.27 z"
         id="path20906" />
    </clipPath>
  </defs>
  <g
     inkscape:label="Layer 1"
     inkscape:groupmode="layer"
     id="layer1">
    <path
       d="m -152.7232,-390.97966 h 0.84455 v 4.20582 h -0.84455 z"
       style="fill:#fa2900;fill-opacity:1;fill-rule:nonzero;stroke:none;stroke-width:0.352778"
       id="path20846" />
    <g
       id="g20848"
       transform="matrix(0.35277777,0,0,-0.35277777,-149.00305,-386.77363)">
      <path
         d="M 0,0 V 11.922 H 2.394 L 8.93,3.867 h 0.046 v 8.055 H 11.37 V 0 H 8.976 L 2.44,8.056 H 2.394 V 0 Z"
         style="fill:#fa2900;fill-opacity:1;fill-rule:nonzero;stroke:none"
         id="path20850" />
    </g>
    <g
       id="g20852"
       transform="matrix(0.35277777,0,0,-0.35277777,-142.70294,-390.97955)">
      <path
         d="M 0,0 H 11.186 V -2.394 H 6.79 v -9.528 H 4.396 v 9.528 H 0 Z"
         style="fill:#fa2900;fill-opacity:1;fill-rule:nonzero;stroke:none"
         id="path20854" />
    </g>
    <g
       id="g20856"
       transform="matrix(0.35277777,0,0,-0.35277777,-136.5349,-390.97955)">
      <path
         d="M 0,0 H 10.587 V -2.394 H 2.394 V -4.557 H 6.72 V -6.951 H 2.394 v -2.578 h 8.469 v -2.393 H 0 Z"
         style="fill:#fa2900;fill-opacity:1;fill-rule:nonzero;stroke:none"
         id="path20858" />
    </g>
    <g
       id="g20860"
       transform="matrix(0.35277777,0,0,-0.35277777,-129.42121,-390.13518)">
      <path
         d="m 0,0 v -2.279 h 5.202 c 0.713,0 1.91,0.092 1.91,1.151 C 7.112,-0.023 6.03,0 5.202,0 Z m -2.394,2.394 h 7.596 c 2.209,0 4.304,-0.829 4.304,-3.522 0,-2.278 -1.542,-3.107 -2.67,-3.521 l 3.015,-4.88 H 6.836 L 3.82,-4.672 H 0 v -4.857 h -2.394 z"
         style="fill:#fa2900;fill-opacity:1;fill-rule:nonzero;stroke:none"
         id="path20862" />
    </g>
    <g
       id="g20864"
       transform="matrix(0.35277777,0,0,-0.35277777,-123.52121,-386.77363)">
      <path
         d="M 0,0 V 11.922 H 2.394 L 8.93,3.867 h 0.046 v 8.055 h 2.393 V 0 H 8.976 L 2.44,8.056 H 2.394 V 0 Z"
         style="fill:#fa2900;fill-opacity:1;fill-rule:nonzero;stroke:none"
         id="path20866" />
    </g>
    <g
       id="g20868"
       transform="matrix(0.35277777,0,0,-0.35277777,-114.76738,-390.15945)">
      <path
         d="M 0,0 -2.302,-4.695 H 2.302 Z M -7.388,-9.598 -1.611,2.325 H 1.565 L 7.411,-9.598 H 4.695 l -1.197,2.509 h -6.973 l -1.197,-2.509 z"
         style="fill:#fa2900;fill-opacity:1;fill-rule:nonzero;stroke:none"
         id="path20870" />
    </g>
    <g
       id="g20872"
       transform="matrix(0.35277777,0,0,-0.35277777,-111.05969,-390.97955)">
      <path
         d="M 0,0 H 11.186 V -2.394 H 6.79 v -9.528 H 4.396 v 9.528 H 0 Z"
         style="fill:#fa2900;fill-opacity:1;fill-rule:nonzero;stroke:none"
         id="path20874" />
    </g>
    <path
       d="m -104.85937,-390.97966 h 0.84455 v 4.20582 h -0.84455 z"
       style="fill:#fa2900;fill-opacity:1;fill-rule:nonzero;stroke:none;stroke-width:0.352778"
       id="path20876" />
    <g
       id="g20878"
       transform="matrix(0.35277777,0,0,-0.35277777,-97.145285,-388.8765)">
      <path
         d="m 0,0 c 0,2.072 -1.957,3.936 -4.925,3.936 -2.969,0 -4.926,-1.887 -4.926,-3.936 0,-2.071 1.957,-3.935 4.926,-3.935 C -1.957,-3.935 0,-2.071 0,0 m -12.244,0 c 0,3.337 2.623,6.33 7.319,6.33 4.718,0 7.319,-2.969 7.319,-6.33 0,-3.337 -2.647,-6.329 -7.319,-6.329 -4.672,0 -7.319,2.992 -7.319,6.329"
         style="fill:#fa2900;fill-opacity:1;fill-rule:nonzero;stroke:none"
         id="path20880" />
    </g>
    <g
       id="g20882"
       transform="matrix(0.35277777,0,0,-0.35277777,-93.71124,-386.77363)">
      <path
         d="M 0,0 V 11.922 H 2.394 L 8.93,3.867 h 0.046 v 8.055 h 2.393 V 0 H 8.976 L 2.44,8.056 H 2.394 V 0 Z"
         style="fill:#fa2900;fill-opacity:1;fill-rule:nonzero;stroke:none"
         id="path20884" />
    </g>
    <g
       id="g20886"
       transform="matrix(0.35277777,0,0,-0.35277777,-84.957448,-390.15945)">
      <path
         d="M 0,0 -2.302,-4.695 H 2.302 Z M -7.388,-9.598 -1.611,2.325 H 1.565 L 7.411,-9.598 H 4.695 l -1.197,2.509 h -6.973 l -1.197,-2.509 z"
         style="fill:#fa2900;fill-opacity:1;fill-rule:nonzero;stroke:none"
         id="path20888" />
    </g>
    <g
       id="g20890"
       transform="matrix(0.35277777,0,0,-0.35277777,-80.36728,-390.97955)">
      <path
         d="m 0,0 h 2.394 v -9.529 h 6.859 v -2.393 H 0 Z"
         style="fill:#fa2900;fill-opacity:1;fill-rule:nonzero;stroke:none"
         id="path20892" />
    </g>
    <g
       id="g20894"
       transform="matrix(0.35277777,0,0,-0.35277777,-71.813724,-409.52056)">
      <path
         d="M 0,0 H 40.37 L 60.929,-36.632 41.118,-73.638 Z"
         style="fill:#ffffff;fill-opacity:1;fill-rule:nonzero;stroke:none"
         id="path20896" />
    </g>
    <g
       id="g20898"
       transform="matrix(0.35277777,0,0,-0.35277777,-57.308314,-383.54264)">
      <path
         d="M 0,0 H -42.239 L -21.12,37.823 Z"
         style="fill:#fa2900;fill-opacity:1;fill-rule:nonzero;stroke:none"
         id="path20900" />
    </g>
    <g
       id="g20902"
       transform="matrix(0.35277777,0,0,-0.35277777,-233.24649,1812.217)">
      <g
         id="g20904" />
      <g
         id="g20916">
        <g
           clip-path="url(#clipPath20908)"
           opacity="0.5"
           id="g20914">
          <g
             transform="translate(498.7224,6224.2007)"
             id="g20912">
            <path
               d="m 0,0 -27.27,26.809 6.15,11.014 z"
               style="fill:#002862;fill-opacity:1;fill-rule:nonzero;stroke:none"
               id="path20910" />
          </g>
        </g>
      </g>
    </g>
    <g
       id="g20918"
       transform="matrix(0.35277777,0,0,-0.35277777,-182.0511,-405.54472)">
      <path
         d="m 0,0 h 5.804 l 6.233,-20.42 h 0.107 L 17.787,0 h 7.2 l 5.482,-20.42 h 0.107 L 36.971,0 h 5.803 l -8.652,-27.835 h -7.469 l -5.32,20.419 h -0.107 l -5.32,-20.419 H 8.544 Z"
         style="fill:#ffffff;fill-opacity:1;fill-rule:nonzero;stroke:none"
         id="path20920" />
    </g>
    <path
       d="m -162.01254,-405.54479 h 1.97132 v 9.81957 h -1.97132 z"
       style="fill:#ffffff;fill-opacity:1;fill-rule:nonzero;stroke:none;stroke-width:0.352778"
       id="path20922" />
    <g
       id="g20924"
       transform="matrix(0.35277777,0,0,-0.35277777,-153.40604,-405.54472)">
      <path
         d="m 0,0 h 5.589 v -22.247 h 16.013 v -5.588 H 0 Z"
         style="fill:#ffffff;fill-opacity:1;fill-rule:nonzero;stroke:none"
         id="path20926" />
    </g>
    <g
       id="g20928"
       transform="matrix(0.35277777,0,0,-0.35277777,-140.62846,-405.54472)">
      <path
         d="m 0,0 h 5.589 v -22.247 h 16.013 v -5.588 H 0 Z"
         style="fill:#ffffff;fill-opacity:1;fill-rule:nonzero;stroke:none"
         id="path20930" />
    </g>
    <g
       id="g20932"
       transform="matrix(0.35277777,0,0,-0.35277777,-127.81307,-398.89087)">
      <path
         d="m 0,0 c 4.836,-3.117 9.458,-4.245 14.348,-4.245 2.794,0 7.523,0.698 7.523,3.815 0,2.257 -2.472,2.848 -4.192,2.902 L 9.35,2.74 c -6.824,0.215 -10.156,4.138 -10.156,8.437 0,4.137 3.063,8.544 13.058,8.544 7.308,0 11.768,-2.794 13.434,-3.654 L 23.16,11.123 c -2.203,1.128 -6.233,3.009 -11.768,3.009 -2.955,0 -6.61,-0.644 -6.61,-3.116 0,-2.15 3.064,-2.634 4.944,-2.687 L 16.981,8.06 c 6.394,-0.215 10.478,-2.901 10.478,-8.759 0,-4.997 -3.923,-9.135 -13.111,-9.135 -7.523,0 -13.058,1.881 -16.927,4.836 z"
         style="fill:#ffffff;fill-opacity:1;fill-rule:nonzero;stroke:none"
         id="path20934" />
    </g>
    <g
       id="g20936"
       transform="matrix(0.35277777,0,0,-0.35277777,-112.059,-405.54472)">
      <path
         d="M 0,0 H 5.588 V -10.532 H 20.527 V 0 h 5.589 v -27.835 h -5.589 v 11.714 H 5.588 V -27.835 H 0 Z"
         style="fill:#ffffff;fill-opacity:1;fill-rule:nonzero;stroke:none"
         id="path20938" />
    </g>
    <path
       d="m -95.319201,-405.54479 h 1.971322 v 9.81957 h -1.971322 z"
       style="fill:#ffffff;fill-opacity:1;fill-rule:nonzero;stroke:none;stroke-width:0.352778"
       id="path20940" />
    <g
       id="g20942"
       transform="matrix(0.35277777,0,0,-0.35277777,-83.963708,-403.57312)">
      <path
         d="m 0,0 v -6.609 h 11.123 c 2.15,0 4.46,0.268 4.46,3.385 0,2.955 -2.471,3.224 -4.46,3.224 z m -5.588,5.589 h 16.711 c 5.428,0 10.049,-2.365 10.049,-8.813 0,-6.234 -4.299,-8.974 -10.049,-8.974 H 0 v -10.049 h -5.588 z"
         style="fill:#ffffff;fill-opacity:1;fill-rule:nonzero;stroke:none"
         id="path20944" />
    </g>
    <g
       id="g20946"
       transform="matrix(0.35277777,0,0,-0.35277777,220.14025,445.83507)">
      <path
         d="m 0,0 -2.615,1.964 c -2.213,1.764 -3.319,3.593 -3.319,5.486 0,1.206 0.251,2.062 0.752,2.566 0.499,0.508 1.25,0.759 2.252,0.759 1.001,0 1.707,-0.415 2.119,-1.253 0.413,-0.836 0.618,-2.104 0.618,-3.803 V 3.696 H 4.53 v 1.401 c 0,4.344 -1.114,7.1 -3.342,8.267 -0.678,0.349 -1.494,0.59 -2.447,0.721 v 4.629 h -3.027 v -4.572 c -4.328,-0.402 -6.493,-2.672 -6.493,-6.808 0,-2.919 1.576,-5.584 4.724,-7.997 0.21,-0.168 0.646,-0.501 1.307,-1.001 0.662,-0.499 1.083,-0.818 1.26,-0.963 2.422,-1.906 3.634,-3.918 3.634,-6.03 0,-1.347 -0.23,-2.296 -0.69,-2.84 -0.461,-0.546 -1.215,-0.817 -2.264,-0.817 -1.906,0 -2.859,1.688 -2.859,5.056 v 2.179 h -4.821 v -2.198 c 0,-2.956 0.599,-5.045 1.793,-6.263 1.195,-1.218 2.785,-1.926 4.772,-2.121 v -4.649 h 3.029 v 4.689 c 4.02,0.492 6.03,2.819 6.03,6.982 C 5.136,-5.513 3.425,-2.634 0,0"
         style="fill:#31b2ba;fill-opacity:1;fill-rule:nonzero;stroke:none"
         id="path20948" />
    </g>
    <g
       id="g21042"
       transform="matrix(0.35277777,0,0,-0.35277777,211.64875,438.1363)">
      <path
         d="m 0,0 c 5.487,5.051 12.783,8.165 20.81,8.165 16.976,0 30.786,-13.812 30.786,-30.786 0,-8.028 -3.112,-15.323 -8.162,-20.81 l -1.817,-1.814 c -5.487,-5.051 -12.78,-8.163 -20.807,-8.163 -16.977,0 -30.786,13.81 -30.786,30.787 0,8.027 3.111,15.32 8.162,20.807 z M 20.81,10.73 C 12.061,10.73 4.124,7.336 -1.824,1.824 -2.453,1.243 -3.057,0.639 -3.638,0.01 c -5.509,-5.948 -8.904,-13.882 -8.904,-22.631 0,-18.42 14.932,-33.352 33.352,-33.352 8.746,0 16.681,3.392 22.631,8.904 0.629,0.581 1.233,1.185 1.817,1.814 5.509,5.948 8.904,13.885 8.904,22.634 0,18.419 -14.933,33.351 -33.352,33.351"
         style="fill:#31b2ba;fill-opacity:1;fill-rule:nonzero;stroke:none"
         id="path21044" />
    </g>
    <g
       id="g21014"
       transform="matrix(0.58301699,0,0,-0.61384883,31.376709,38.359849)">
      <path
         d="m 0,0 -19.781,10.401 -19.781,-10.4 3.777,22.027 -16.003,15.599 22.116,3.215 9.891,20.039 L -9.89,40.84 12.225,37.626 -3.778,22.028 Z"
         style="fill:none;stroke:#31b2ba;stroke-width:2.5;stroke-linecap:round;stroke-linejoin:round;stroke-miterlimit:10;stroke-dasharray:none;stroke-opacity:1"
         id="path21016" />
    </g>
  </g>
</svg>
