<?xml version="1.0" encoding="utf-8"?>
<!-- Generator: Adobe Illustrator 16.0.3, SVG Export Plug-In . SVG Version: 6.00 Build 0)  -->
<!DOCTYPE svg PUBLIC "-//W3C//DTD SVG 1.1//EN" "http://www.w3.org/Graphics/SVG/1.1/DTD/svg11.dtd">
<svg version="1.1" id="Layer_1" xmlns="http://www.w3.org/2000/svg" xmlns:xlink="http://www.w3.org/1999/xlink" x="0px" y="0px"
	 width="1235px" height="650px" viewBox="0 0 1235 650" enable-background="new 0 0 1235 650" xml:space="preserve">
<rect x="0" y="0" fill="#B22234" width="1235" height="650"/>
<path stroke="#FFFFFF" stroke-width="50" d="M0,75h1235 M0,175h1235 M0,275h1235 M0,375h1235 M0,475h1235 M0,575h1235"/>
<rect x="0" y="0" fill="#3C3B6E" width="494" height="350"/>
<g>
	<polygon fill-rule="evenodd" clip-rule="evenodd" fill="#FFFFFF" points="37.059,329.2 41.099,341.632 30.52,333.948 
		19.941,341.632 23.981,329.2 13.402,321.52 26.477,321.52 30.52,309.087 34.56,321.52 47.636,321.52 37.059,329.2 	"/>
	<polygon fill-rule="evenodd" clip-rule="evenodd" fill="#FFFFFF" points="99.057,329.2 103.098,341.632 92.519,333.948 
		81.939,341.632 85.982,329.2 75.402,321.52 88.478,321.52 92.519,309.087 96.561,321.52 109.637,321.52 99.057,329.2 	"/>
	<polygon fill-rule="evenodd" clip-rule="evenodd" fill="#FFFFFF" points="161.058,329.2 165.098,341.632 154.519,333.948 
		143.94,341.632 147.98,329.2 137.401,321.52 150.479,321.52 154.519,309.087 158.56,321.52 171.635,321.52 161.058,329.2 	"/>
	<polygon fill-rule="evenodd" clip-rule="evenodd" fill="#FFFFFF" points="224.058,329.2 228.099,341.632 217.519,333.948 
		206.94,341.632 210.981,329.2 200.401,321.52 213.479,321.52 217.519,309.087 221.56,321.52 234.636,321.52 224.058,329.2 	"/>
	<polygon fill-rule="evenodd" clip-rule="evenodd" fill="#FFFFFF" points="285.057,329.2 289.1,341.632 278.52,333.948 
		267.942,341.632 271.981,329.2 261.403,321.52 274.479,321.52 278.52,309.087 282.561,321.52 295.637,321.52 285.057,329.2 	"/>
	<polygon fill-rule="evenodd" clip-rule="evenodd" fill="#FFFFFF" points="347.057,329.2 351.098,341.632 340.52,333.948 
		329.94,341.632 333.981,329.2 323.403,321.52 336.479,321.52 340.52,309.087 344.561,321.52 357.637,321.52 347.057,329.2 	"/>
	<polygon fill-rule="evenodd" clip-rule="evenodd" fill="#FFFFFF" points="409.059,329.2 413.098,341.632 402.52,333.948 
		391.94,341.632 395.981,329.2 385.401,321.52 398.479,321.52 402.52,309.087 406.561,321.52 419.635,321.52 409.059,329.2 	"/>
	<polygon fill-rule="evenodd" clip-rule="evenodd" fill="#FFFFFF" points="471.057,329.2 475.1,341.632 464.52,333.948 
		453.94,341.632 457.981,329.2 447.403,321.52 460.477,321.52 464.52,309.087 468.561,321.52 481.637,321.52 471.057,329.2 	"/>
	<polygon fill-rule="evenodd" clip-rule="evenodd" fill="#FFFFFF" points="68.057,279.2 72.1,291.632 61.52,283.948 50.941,291.632 
		54.981,279.202 44.402,271.518 57.478,271.518 61.52,259.089 65.561,271.518 78.636,271.518 68.057,279.2 	"/>
	<polygon fill-rule="evenodd" clip-rule="evenodd" fill="#FFFFFF" points="130.058,279.2 134.098,291.632 123.519,283.948 
		112.94,291.632 116.982,279.202 106.403,271.518 119.478,271.518 123.519,259.089 127.561,271.518 140.637,271.518 130.058,279.2 	
		"/>
	<polygon fill-rule="evenodd" clip-rule="evenodd" fill="#FFFFFF" points="192.058,279.2 196.099,291.632 185.519,283.948 
		174.94,291.632 178.981,279.202 168.401,271.518 181.479,271.518 185.519,259.089 189.56,271.518 202.636,271.518 192.058,279.2 	
		"/>
	<polygon fill-rule="evenodd" clip-rule="evenodd" fill="#FFFFFF" points="255.059,279.2 259.1,291.632 248.52,283.948 
		237.94,291.632 241.981,279.202 231.402,271.518 244.479,271.518 248.52,259.089 252.561,271.518 265.637,271.518 255.059,279.2 	
		"/>
	<polygon fill-rule="evenodd" clip-rule="evenodd" fill="#FFFFFF" points="316.057,279.2 320.098,291.632 309.518,283.948 
		298.94,291.632 302.983,279.202 292.403,271.518 305.479,271.518 309.518,259.089 313.561,271.518 326.637,271.518 316.057,279.2 	
		"/>
	<polygon fill-rule="evenodd" clip-rule="evenodd" fill="#FFFFFF" points="378.059,279.2 382.098,291.632 371.52,283.948 
		360.94,291.632 364.981,279.202 354.401,271.518 367.479,271.518 371.52,259.089 375.559,271.518 388.635,271.518 378.059,279.2 	
		"/>
	<polygon fill-rule="evenodd" clip-rule="evenodd" fill="#FFFFFF" points="440.059,279.2 444.1,291.632 433.52,283.948 
		422.94,291.632 426.981,279.202 416.401,271.518 429.479,271.518 433.52,259.089 437.561,271.518 450.637,271.518 440.059,279.2 	
		"/>
	<polygon fill-rule="evenodd" clip-rule="evenodd" fill="#FFFFFF" points="37.059,229.202 41.099,241.632 30.52,233.95 
		19.941,241.632 23.981,229.202 13.402,221.518 26.477,221.518 30.52,209.089 34.56,221.518 47.636,221.518 37.059,229.202 	"/>
	<polygon fill-rule="evenodd" clip-rule="evenodd" fill="#FFFFFF" points="99.057,229.202 103.098,241.632 92.519,233.95 
		81.939,241.632 85.982,229.202 75.402,221.518 88.478,221.518 92.519,209.089 96.561,221.518 109.637,221.518 99.057,229.202 	"/>
	<polygon fill-rule="evenodd" clip-rule="evenodd" fill="#FFFFFF" points="161.058,229.202 165.098,241.632 154.519,233.95 
		143.94,241.632 147.98,229.202 137.401,221.518 150.479,221.518 154.519,209.089 158.56,221.518 171.635,221.518 161.058,229.202 	
		"/>
	<polygon fill-rule="evenodd" clip-rule="evenodd" fill="#FFFFFF" points="224.058,229.202 228.099,241.632 217.519,233.95 
		206.94,241.632 210.981,229.202 200.401,221.518 213.479,221.518 217.519,209.089 221.56,221.518 234.636,221.518 224.058,229.202 
			"/>
	<polygon fill-rule="evenodd" clip-rule="evenodd" fill="#FFFFFF" points="285.057,229.202 289.1,241.632 278.52,233.95 
		267.942,241.632 271.981,229.202 261.403,221.518 274.479,221.518 278.52,209.089 282.561,221.518 295.637,221.518 
		285.057,229.202 	"/>
	<polygon fill-rule="evenodd" clip-rule="evenodd" fill="#FFFFFF" points="347.057,229.202 351.098,241.632 340.52,233.95 
		329.94,241.632 333.981,229.202 323.403,221.518 336.479,221.518 340.52,209.089 344.561,221.518 357.637,221.518 347.057,229.202 
			"/>
	<polygon fill-rule="evenodd" clip-rule="evenodd" fill="#FFFFFF" points="409.059,229.202 413.098,241.632 402.52,233.95 
		391.94,241.632 395.981,229.202 385.401,221.518 398.479,221.518 402.52,209.089 406.561,221.518 419.635,221.518 409.059,229.202 
			"/>
	<polygon fill-rule="evenodd" clip-rule="evenodd" fill="#FFFFFF" points="471.057,229.202 475.1,241.632 464.52,233.95 
		453.94,241.632 457.981,229.202 447.403,221.518 460.477,221.518 464.52,209.089 468.561,221.518 481.637,221.518 471.057,229.202 
			"/>
	<polygon fill-rule="evenodd" clip-rule="evenodd" fill="#FFFFFF" points="68.057,179.202 72.1,191.632 61.52,183.95 
		50.941,191.632 54.981,179.202 44.402,171.518 57.478,171.518 61.52,159.088 65.561,171.518 78.636,171.518 68.057,179.202 	"/>
	<polygon fill-rule="evenodd" clip-rule="evenodd" fill="#FFFFFF" points="130.058,179.202 134.098,191.632 123.519,183.95 
		112.94,191.632 116.982,179.202 106.403,171.518 119.478,171.518 123.519,159.088 127.561,171.518 140.637,171.518 
		130.058,179.202 	"/>
	<polygon fill-rule="evenodd" clip-rule="evenodd" fill="#FFFFFF" points="192.058,179.202 196.099,191.632 185.519,183.95 
		174.94,191.632 178.981,179.202 168.401,171.518 181.479,171.518 185.519,159.088 189.56,171.518 202.636,171.518 192.058,179.202 
			"/>
	<polygon fill-rule="evenodd" clip-rule="evenodd" fill="#FFFFFF" points="255.059,179.202 259.1,191.632 248.52,183.95 
		237.94,191.632 241.981,179.202 231.402,171.518 244.479,171.518 248.52,159.088 252.561,171.518 265.637,171.518 255.059,179.202 
			"/>
	<polygon fill-rule="evenodd" clip-rule="evenodd" fill="#FFFFFF" points="316.057,179.202 320.098,191.632 309.518,183.95 
		298.94,191.632 302.983,179.202 292.403,171.518 305.479,171.518 309.518,159.088 313.561,171.518 326.637,171.518 
		316.057,179.202 	"/>
	<polygon fill-rule="evenodd" clip-rule="evenodd" fill="#FFFFFF" points="378.059,179.202 382.098,191.632 371.52,183.95 
		360.94,191.632 364.981,179.202 354.401,171.518 367.479,171.518 371.52,159.088 375.559,171.518 388.635,171.518 378.059,179.202 
			"/>
	<polygon fill-rule="evenodd" clip-rule="evenodd" fill="#FFFFFF" points="440.059,179.202 444.1,191.632 433.52,183.95 
		422.94,191.632 426.981,179.202 416.401,171.518 429.479,171.518 433.52,159.088 437.561,171.518 450.637,171.518 440.059,179.202 
			"/>
	<polygon fill-rule="evenodd" clip-rule="evenodd" fill="#FFFFFF" points="37.059,129.201 41.099,141.632 30.52,133.949 
		19.941,141.632 23.981,129.201 13.402,121.518 26.477,121.518 30.52,109.087 34.56,121.518 47.636,121.518 37.059,129.201 	"/>
	<polygon fill-rule="evenodd" clip-rule="evenodd" fill="#FFFFFF" points="99.057,129.201 103.098,141.632 92.519,133.949 
		81.939,141.632 85.982,129.201 75.402,121.518 88.478,121.518 92.519,109.087 96.561,121.518 109.637,121.518 99.057,129.201 	"/>
	<polygon fill-rule="evenodd" clip-rule="evenodd" fill="#FFFFFF" points="161.058,129.201 165.098,141.632 154.519,133.949 
		143.94,141.632 147.98,129.201 137.401,121.518 150.479,121.518 154.519,109.087 158.56,121.518 171.635,121.518 161.058,129.201 	
		"/>
	<polygon fill-rule="evenodd" clip-rule="evenodd" fill="#FFFFFF" points="224.058,129.201 228.099,141.632 217.519,133.949 
		206.94,141.632 210.981,129.201 200.401,121.518 213.479,121.518 217.519,109.087 221.56,121.518 234.636,121.518 224.058,129.201 
			"/>
	<polygon fill-rule="evenodd" clip-rule="evenodd" fill="#FFFFFF" points="285.057,129.201 289.1,141.632 278.52,133.949 
		267.942,141.632 271.981,129.201 261.403,121.518 274.479,121.518 278.52,109.087 282.561,121.518 295.637,121.518 
		285.057,129.201 	"/>
	<polygon fill-rule="evenodd" clip-rule="evenodd" fill="#FFFFFF" points="347.057,129.201 351.098,141.632 340.52,133.949 
		329.94,141.632 333.981,129.201 323.403,121.518 336.479,121.518 340.52,109.087 344.561,121.518 357.637,121.518 347.057,129.201 
			"/>
	<polygon fill-rule="evenodd" clip-rule="evenodd" fill="#FFFFFF" points="409.059,129.201 413.098,141.632 402.52,133.949 
		391.94,141.632 395.981,129.201 385.401,121.518 398.479,121.518 402.52,109.087 406.561,121.518 419.635,121.518 409.059,129.201 
			"/>
	<polygon fill-rule="evenodd" clip-rule="evenodd" fill="#FFFFFF" points="471.057,129.201 475.1,141.632 464.52,133.949 
		453.94,141.632 457.981,129.201 447.403,121.518 460.477,121.518 464.52,109.087 468.561,121.518 481.637,121.518 471.057,129.201 
			"/>
	<polygon fill-rule="evenodd" clip-rule="evenodd" fill="#FFFFFF" points="68.057,79.2 72.1,91.631 61.52,83.948 50.941,91.631 
		54.981,79.2 44.402,71.518 57.478,71.518 61.52,59.087 65.561,71.518 78.636,71.518 68.057,79.2 	"/>
	<polygon fill-rule="evenodd" clip-rule="evenodd" fill="#FFFFFF" points="130.058,79.2 134.098,91.631 123.519,83.948 
		112.94,91.631 116.982,79.2 106.403,71.518 119.478,71.518 123.519,59.087 127.561,71.518 140.637,71.518 130.058,79.2 	"/>
	<polygon fill-rule="evenodd" clip-rule="evenodd" fill="#FFFFFF" points="192.058,79.2 196.099,91.631 185.519,83.948 
		174.94,91.631 178.981,79.2 168.401,71.518 181.479,71.518 185.519,59.087 189.56,71.518 202.636,71.518 192.058,79.2 	"/>
	<polygon fill-rule="evenodd" clip-rule="evenodd" fill="#FFFFFF" points="255.059,79.2 259.1,91.631 248.52,83.948 237.94,91.631 
		241.981,79.2 231.402,71.518 244.479,71.518 248.52,59.087 252.561,71.518 265.637,71.518 255.059,79.2 	"/>
	<polygon fill-rule="evenodd" clip-rule="evenodd" fill="#FFFFFF" points="316.057,79.2 320.098,91.631 309.518,83.948 
		298.94,91.631 302.983,79.2 292.403,71.518 305.479,71.518 309.518,59.087 313.561,71.518 326.637,71.518 316.057,79.2 	"/>
	<polygon fill-rule="evenodd" clip-rule="evenodd" fill="#FFFFFF" points="378.059,79.2 382.098,91.631 371.52,83.948 
		360.94,91.631 364.981,79.2 354.401,71.518 367.479,71.518 371.52,59.087 375.559,71.518 388.635,71.518 378.059,79.2 	"/>
	<polygon fill-rule="evenodd" clip-rule="evenodd" fill="#FFFFFF" points="440.059,79.2 444.1,91.631 433.52,83.948 422.94,91.631 
		426.981,79.2 416.401,71.518 429.479,71.518 433.52,59.087 437.561,71.518 450.637,71.518 440.059,79.2 	"/>
	<polygon fill-rule="evenodd" clip-rule="evenodd" fill="#FFFFFF" points="37.059,29.2 41.099,41.631 30.52,33.948 19.941,41.631 
		23.981,29.2 13.402,21.519 26.477,21.519 30.52,9.087 34.56,21.519 47.636,21.519 37.059,29.2 	"/>
	<polygon fill-rule="evenodd" clip-rule="evenodd" fill="#FFFFFF" points="99.057,29.2 103.098,41.631 92.519,33.948 81.939,41.631 
		85.982,29.2 75.402,21.519 88.478,21.519 92.519,9.087 96.561,21.519 109.637,21.519 99.057,29.2 	"/>
	<polygon fill-rule="evenodd" clip-rule="evenodd" fill="#FFFFFF" points="161.058,29.2 165.098,41.631 154.519,33.948 
		143.94,41.631 147.98,29.2 137.401,21.519 150.479,21.519 154.519,9.087 158.56,21.519 171.635,21.519 161.058,29.2 	"/>
	<polygon fill-rule="evenodd" clip-rule="evenodd" fill="#FFFFFF" points="224.058,29.2 228.099,41.631 217.519,33.948 
		206.94,41.631 210.981,29.2 200.401,21.519 213.479,21.519 217.519,9.087 221.56,21.519 234.636,21.519 224.058,29.2 	"/>
	<polygon fill-rule="evenodd" clip-rule="evenodd" fill="#FFFFFF" points="285.057,29.2 289.1,41.631 278.52,33.948 267.942,41.631 
		271.981,29.2 261.403,21.519 274.479,21.519 278.52,9.087 282.561,21.519 295.637,21.519 285.057,29.2 	"/>
	<polygon fill-rule="evenodd" clip-rule="evenodd" fill="#FFFFFF" points="347.057,29.2 351.098,41.631 340.52,33.948 
		329.94,41.631 333.981,29.2 323.403,21.519 336.479,21.519 340.52,9.087 344.561,21.519 357.637,21.519 347.057,29.2 	"/>
	<polygon fill-rule="evenodd" clip-rule="evenodd" fill="#FFFFFF" points="409.059,29.2 413.098,41.631 402.52,33.948 
		391.94,41.631 395.981,29.2 385.401,21.519 398.479,21.519 402.52,9.087 406.561,21.519 419.635,21.519 409.059,29.2 	"/>
	<polygon fill-rule="evenodd" clip-rule="evenodd" fill="#FFFFFF" points="471.057,29.2 475.1,41.631 464.52,33.948 453.94,41.631 
		457.981,29.2 447.403,21.519 460.477,21.519 464.52,9.087 468.561,21.519 481.637,21.519 471.057,29.2 	"/>
</g>
</svg>
