<svg xmlns="http://www.w3.org/2000/svg" xmlns:xlink="http://www.w3.org/1999/xlink" width="1080" zoomAndPan="magnify" viewBox="0 0 810 809.999993" height="1080" preserveAspectRatio="xMidYMid meet" version="1.0"><path fill="#eb4024" d="M 805.699219 378.339844 L 796.242188 351.683594 C 791.082031 337.066406 774.746094 325.027344 760.128906 325.027344 L 726.59375 325.027344 C 701.65625 255.378906 671.558594 171.109375 662.101562 151.332031 C 648.34375 120.378906 604.492188 106.621094 580.414062 99.742188 C 580.414062 99.742188 540 84.265625 405 84.265625 C 270 84.265625 230.445312 99.742188 230.445312 99.742188 C 202.070312 109.199219 162.515625 122.957031 147.039062 152.195312 C 139.300781 166.8125 108.34375 252.796875 83.40625 325.027344 L 50.734375 325.027344 C 36.113281 325.027344 19.777344 337.066406 14.617188 351.683594 L 5.160156 378.339844 C 0 392.957031 7.738281 404.996094 22.355469 404.996094 L 55.890625 404.996094 C 51.59375 417.035156 49.011719 423.914062 49.011719 423.914062 C 46.433594 428.210938 44.714844 447.988281 44.714844 454.007812 L 44.714844 697.351562 C 44.714844 712.832031 57.613281 725.730469 73.089844 725.730469 L 176.273438 725.730469 C 191.75 725.730469 204.648438 712.832031 204.648438 697.351562 L 204.648438 645.761719 L 606.210938 645.761719 L 606.210938 697.351562 C 606.210938 712.832031 619.109375 725.730469 634.585938 725.730469 L 738.628906 725.730469 C 754.109375 725.730469 767.007812 712.832031 767.007812 697.351562 L 767.007812 454.007812 C 767.007812 448.851562 765.285156 428.210938 762.707031 423.914062 C 762.707031 423.914062 760.128906 417.035156 755.828125 404.996094 L 788.503906 404.996094 C 802.261719 404.996094 810 392.957031 805.699219 378.339844 Z M 204.648438 527.957031 L 170.253906 504.742188 C 106.625 499.582031 98.886719 521.9375 85.128906 497.863281 L 85.128906 468.625 C 85.128906 440.25 101.464844 439.390625 119.523438 439.390625 C 136.71875 439.390625 171.113281 454.007812 194.332031 464.328125 C 219.265625 475.503906 237.324219 466.046875 246.785156 503.023438 C 245.921875 520.21875 236.464844 527.957031 204.648438 527.957031 Z M 144.457031 336.207031 C 165.957031 248.5 202.070312 187.449219 207.230469 172.832031 C 210.667969 162.511719 202.070312 143.59375 405.859375 143.59375 C 609.648438 143.59375 598.472656 171.109375 599.332031 171.972656 C 608.789062 191.746094 646.625 256.238281 666.402344 336.207031 C 666.402344 336.207031 589.871094 346.523438 415.320312 346.523438 C 240.765625 346.523438 144.457031 336.207031 144.457031 336.207031 Z M 564.9375 503.023438 C 605.351562 453.148438 592.453125 475.503906 617.386719 464.328125 C 639.746094 454.007812 675 439.390625 692.199219 439.390625 C 710.253906 439.390625 726.59375 440.25 726.59375 468.625 L 726.59375 497.863281 C 713.695312 521.078125 702.515625 500.441406 638.023438 506.460938 L 606.210938 527.097656 C 574.394531 527.957031 553.757812 515.917969 564.9375 503.023438 Z M 564.9375 503.023438 " fill-opacity="1" fill-rule="nonzero"/></svg>