<svg xmlns="http://www.w3.org/2000/svg" xmlns:xlink="http://www.w3.org/1999/xlink" width="1080" zoomAndPan="magnify" viewBox="0 0 810 809.999993" height="1080" preserveAspectRatio="xMidYMid meet" version="1.0"><path fill="#9b1b1b" d="M 588.683594 203.035156 C 587.933594 177.84375 591.363281 153.1875 598.867188 129.925781 C 601.546875 121.5625 605.085938 112.882812 610.125 102.695312 L 616.769531 105.914062 C 611.945312 115.882812 608.515625 124.246094 605.941406 132.175781 C 598.652344 154.6875 595.332031 178.488281 596.082031 202.820312 Z M 588.683594 203.035156 " fill-opacity="1" fill-rule="nonzero"/><path fill="#eb4024" d="M 697.0625 390.957031 L 679.695312 192.101562 C 677.980469 172.589844 662.542969 157.261719 642.925781 155.546875 L 443.105469 138.289062 C 431.207031 137.214844 419.523438 141.503906 411.054688 149.863281 L 38.214844 521.097656 C 22.457031 536.855469 22.457031 562.261719 38.214844 578.019531 L 255.402344 794.242188 C 271.160156 810 296.78125 810 312.539062 794.242188 L 685.484375 423.007812 C 693.847656 414.433594 698.136719 402.75 697.0625 390.957031 Z M 573.355469 261.351562 C 563.492188 251.597656 563.492188 235.625 573.355469 225.871094 C 583.21875 216.113281 599.191406 216.113281 609.050781 225.871094 C 618.914062 235.625 618.914062 251.597656 609.050781 261.351562 C 599.082031 271.214844 583.21875 271.214844 573.355469 261.351562 Z M 573.355469 261.351562 " fill-opacity="1" fill-rule="nonzero"/><path fill="#ffdede" d="M 284.023438 791.347656 C 277.054688 791.347656 270.621094 788.667969 265.691406 783.84375 L 258.082031 776.339844 L 260.011719 774.515625 L 267.621094 782.019531 C 272.015625 786.417969 277.804688 788.773438 284.023438 788.773438 L 284.128906 788.773438 L 284.128906 791.347656 Z M 309.75 776.230469 L 307.820312 774.410156 L 329.046875 753.292969 L 330.976562 755.113281 Z M 236.960938 755.222656 L 215.738281 734.101562 L 217.667969 732.28125 L 238.890625 753.398438 Z M 352.09375 734.101562 L 350.164062 732.28125 L 371.390625 711.160156 L 373.320312 712.984375 Z M 194.511719 713.089844 L 173.285156 691.972656 L 175.214844 690.152344 L 196.441406 711.269531 Z M 394.546875 691.972656 L 392.617188 690.152344 L 413.839844 669.03125 L 415.769531 670.855469 Z M 152.167969 670.960938 L 130.941406 649.84375 L 132.871094 648.019531 L 154.097656 669.140625 Z M 436.890625 649.738281 L 434.960938 647.914062 L 456.183594 626.796875 L 458.113281 628.617188 Z M 109.824219 628.726562 L 88.597656 607.605469 L 90.527344 605.785156 L 111.753906 626.902344 Z M 479.234375 607.605469 L 477.304688 605.785156 L 498.527344 584.667969 L 500.457031 586.488281 Z M 67.480469 586.597656 L 48.503906 567.730469 C 47.753906 566.980469 47.003906 566.121094 46.363281 565.261719 L 48.503906 563.65625 C 49.148438 564.40625 49.792969 565.15625 50.433594 565.800781 L 69.410156 584.667969 Z M 521.578125 565.476562 L 519.648438 563.65625 L 540.875 542.535156 L 542.800781 544.359375 Z M 47.21875 537.175781 L 44.96875 535.785156 C 45.933594 534.175781 47.21875 532.675781 48.503906 531.386719 L 65.871094 514.128906 L 67.800781 515.953125 L 50.433594 533.210938 C 49.148438 534.390625 48.078125 535.785156 47.21875 537.175781 Z M 563.921875 523.242188 L 561.992188 521.417969 L 583.21875 500.300781 L 585.148438 502.121094 Z M 88.917969 494.832031 L 86.988281 493.011719 L 108.214844 471.890625 L 110.144531 473.714844 Z M 606.265625 481.113281 L 604.335938 479.289062 L 625.5625 458.171875 L 627.492188 459.992188 Z M 131.261719 452.703125 L 129.332031 450.882812 L 150.558594 429.761719 L 152.488281 431.585938 Z M 648.609375 438.980469 L 646.679688 437.160156 L 667.90625 416.042969 L 669.835938 417.863281 Z M 173.605469 410.574219 L 171.679688 408.753906 L 192.902344 387.632812 L 194.832031 389.457031 Z M 679.804688 391.386719 L 677.230469 361.691406 L 679.910156 361.476562 L 682.484375 391.171875 Z M 215.949219 368.335938 L 214.023438 366.515625 L 235.246094 345.398438 L 237.175781 347.21875 Z M 674.65625 331.890625 L 672.085938 302.195312 L 674.765625 301.980469 L 677.339844 331.675781 Z M 258.402344 326.207031 L 256.472656 324.386719 L 277.699219 303.269531 L 279.628906 305.089844 Z M 300.746094 284.078125 L 298.816406 282.257812 L 320.042969 261.136719 L 321.972656 262.960938 Z M 669.40625 272.5 L 666.832031 242.808594 L 669.511719 242.59375 L 672.085938 272.285156 Z M 343.089844 241.84375 L 341.160156 240.019531 L 362.386719 218.902344 L 364.316406 220.722656 Z M 664.261719 213.113281 L 662.542969 193.601562 C 662.222656 190.386719 661.367188 187.277344 659.757812 184.492188 L 662.117188 183.203125 C 663.832031 186.3125 664.902344 189.742188 665.226562 193.386719 L 666.941406 212.898438 Z M 385.433594 199.710938 L 383.503906 197.890625 L 404.730469 176.773438 L 406.660156 178.59375 Z M 635.53125 172.054688 L 605.730469 169.484375 L 605.941406 166.800781 L 635.746094 169.375 Z M 575.820312 166.910156 L 546.019531 164.335938 L 546.234375 161.65625 L 576.035156 164.230469 Z M 516.21875 161.765625 L 486.414062 159.191406 L 486.628906 156.511719 L 516.429688 159.085938 Z M 427.992188 158.332031 L 426.597656 156.082031 C 431.207031 153.402344 436.566406 152.222656 441.820312 152.652344 L 456.613281 153.9375 L 456.398438 156.617188 L 441.605469 155.332031 C 436.890625 154.902344 432.066406 155.976562 427.992188 158.332031 Z M 427.992188 158.332031 " fill-opacity="1" fill-rule="nonzero"/><path fill="#9b1b1b" d="M 255.402344 794.132812 C 257.007812 795.636719 258.617188 797.027344 260.332031 798.207031 C 262.046875 799.496094 263.976562 800.460938 265.90625 801.425781 C 266.871094 801.851562 267.835938 802.28125 268.800781 802.710938 C 269.765625 803.03125 270.835938 803.460938 271.800781 803.78125 C 273.839844 804.425781 275.984375 804.855469 278.019531 805.070312 C 286.488281 806.140625 295.277344 804.53125 302.675781 800.460938 C 304.496094 799.496094 306.320312 798.207031 307.929688 796.921875 C 308.785156 796.277344 309.535156 795.527344 310.394531 794.886719 C 311.144531 794.132812 311.894531 793.382812 312.644531 792.632812 L 321.648438 783.414062 L 339.765625 765.082031 L 376 728.421875 L 412.339844 691.867188 L 430.457031 673.535156 L 485.128906 618.863281 L 558.132812 545.96875 L 631.242188 473.285156 L 667.90625 437.054688 L 677.125 427.941406 L 681.734375 423.4375 L 683.984375 421.1875 C 684.628906 420.4375 685.378906 419.792969 686.019531 418.9375 C 691.382812 412.824219 694.597656 404.894531 695.132812 396.851562 C 695.347656 394.816406 695.242188 392.78125 695.132812 390.742188 L 694.597656 384.3125 L 693.523438 371.445312 L 691.488281 345.824219 L 687.414062 294.585938 C 684.84375 260.386719 682.160156 226.191406 679.804688 191.996094 C 683.339844 226.085938 686.664062 260.28125 690.09375 294.371094 L 695.027344 345.613281 L 697.492188 371.230469 L 698.671875 383.988281 L 699.3125 390.421875 C 699.527344 392.671875 699.636719 394.921875 699.421875 397.175781 C 698.886719 406.179688 695.347656 414.96875 689.558594 421.9375 C 688.808594 422.796875 688.058594 423.652344 687.308594 424.402344 L 685.054688 426.65625 L 680.554688 431.265625 L 671.441406 440.375 L 634.992188 476.929688 L 561.992188 549.71875 L 488.558594 622.402344 L 451.898438 658.632812 L 415.234375 694.867188 L 378.464844 730.992188 L 341.589844 767.011719 L 323.152344 785.023438 L 313.929688 794.027344 C 313.179688 794.777344 312.324219 795.527344 311.574219 796.277344 C 310.714844 797.027344 309.859375 797.671875 309 798.316406 C 307.285156 799.601562 305.355469 800.78125 303.425781 801.851562 C 295.707031 805.925781 286.59375 807.320312 278.019531 805.925781 C 275.875 805.605469 273.730469 805.070312 271.695312 804.425781 C 270.621094 804.105469 269.65625 803.675781 268.691406 803.246094 C 267.730469 802.816406 266.765625 802.390625 265.800781 801.851562 C 263.871094 800.886719 262.046875 799.707031 260.332031 798.421875 C 258.507812 797.136719 256.902344 795.636719 255.402344 794.132812 Z M 255.402344 794.132812 " fill-opacity="1" fill-rule="nonzero"/><path fill="#9b1b1b" d="M 608.625 251.0625 C 603.15625 251.0625 597.6875 249.773438 593.617188 245.914062 C 591.363281 243.773438 589.757812 240.984375 588.683594 237.445312 C 587.074219 231.660156 586.539062 224.796875 587.398438 218.152344 L 594.792969 219.117188 C 594.042969 224.796875 594.472656 230.695312 595.867188 235.515625 C 596.507812 237.769531 597.472656 239.484375 598.761719 240.664062 C 605.191406 246.773438 619.34375 242.378906 625.453125 240.449219 C 634.03125 237.769531 643.140625 233.910156 654.289062 228.121094 C 659.4375 225.441406 664.6875 222.546875 670.15625 219.222656 C 691.917969 206.253906 763.632812 159.40625 775.320312 100.769531 C 779.929688 77.828125 774.460938 55.636719 759.132812 35.054688 C 745.300781 16.402344 729.652344 7.71875 712.714844 9.328125 C 695.347656 10.828125 676.050781 23.261719 656.648438 45.238281 C 635.53125 69.25 621.703125 95.621094 616.769531 105.914062 L 610.125 102.695312 C 627.277344 67.214844 668.011719 6.003906 711.964844 1.824219 C 731.6875 0 749.484375 9.648438 765.027344 30.550781 C 781.644531 52.957031 787.539062 77.078125 782.609375 102.160156 C 777.890625 125.746094 763.632812 149.863281 740.265625 173.878906 C 722.363281 192.316406 698.777344 210.539062 673.90625 225.441406 C 668.226562 228.765625 662.972656 231.765625 657.613281 234.550781 C 646.144531 240.554688 636.601562 244.628906 627.597656 247.417969 C 623.417969 248.703125 616.019531 251.0625 608.625 251.0625 Z M 608.625 251.0625 " fill-opacity="1" fill-rule="nonzero"/><path fill="#9b1b1b" d="M 573.355469 261.351562 C 570.566406 259.421875 568.316406 256.742188 566.707031 253.742188 C 565.101562 250.632812 564.136719 247.203125 563.921875 243.664062 C 563.707031 240.128906 564.351562 236.480469 565.636719 233.050781 C 565.957031 232.195312 566.386719 231.335938 566.707031 230.585938 C 567.136719 229.835938 567.566406 228.976562 568.101562 228.226562 C 568.636719 227.476562 569.171875 226.726562 569.710938 226.082031 L 571.53125 224.046875 L 573.570312 222.226562 C 574.320312 221.6875 575.070312 221.152344 575.820312 220.617188 C 576.570312 220.1875 577.429688 219.757812 578.179688 219.222656 C 579.035156 218.792969 579.785156 218.472656 580.644531 218.152344 C 584.074219 216.863281 587.71875 216.222656 591.257812 216.4375 C 594.792969 216.652344 598.332031 217.613281 601.441406 219.222656 C 604.550781 220.832031 607.230469 223.082031 609.160156 225.871094 C 606.371094 223.941406 603.476562 222.546875 600.476562 221.582031 C 597.472656 220.722656 594.367188 220.402344 591.363281 220.507812 C 585.253906 220.9375 579.570312 223.511719 575.390625 227.691406 C 571.210938 231.871094 568.636719 237.554688 568.210938 243.558594 C 567.996094 246.558594 568.316406 249.667969 569.28125 252.667969 C 569.925781 255.777344 571.425781 258.671875 573.355469 261.351562 Z M 573.355469 261.351562 " fill-opacity="1" fill-rule="nonzero"/></svg>