<svg xmlns="http://www.w3.org/2000/svg" xmlns:xlink="http://www.w3.org/1999/xlink" width="1080" zoomAndPan="magnify" viewBox="0 0 810 809.999993" height="1080" preserveAspectRatio="xMidYMid meet" version="1.0"><path fill="#eb4024" d="M 405 810 C 628.714844 810 810 628.714844 810 405 C 810 181.285156 628.714844 0 405 0 C 181.285156 0 0 181.285156 0 405 C 0 628.714844 181.285156 810 405 810 Z M 230.464844 571.820312 L 250.714844 527.464844 C 253.605469 521.679688 257.464844 517.820312 263.25 515.894531 C 265.179688 514.929688 268.070312 514.929688 270 514.929688 C 273.855469 514.929688 276.75 515.894531 280.605469 517.820312 C 310.5 534.214844 351.964844 543.855469 389.570312 543.855469 C 433.929688 543.855469 466.714844 525.535156 466.714844 500.464844 C 466.714844 484.070312 457.070312 464.785156 388.605469 442.605469 C 313.394531 419.464844 237.214844 384.75 237.214844 307.605469 C 237.214844 248.785156 279.644531 203.464844 351 185.144531 L 361.605469 182.25 L 361.605469 134.035156 C 361.605469 122.464844 371.25 112.820312 382.820312 112.820312 L 433.929688 112.820312 C 445.5 112.820312 455.144531 122.464844 455.144531 134.035156 L 455.144531 177.429688 L 467.679688 179.355469 C 498.535156 183.214844 525.535156 190.929688 549.644531 202.5 C 554.464844 205.394531 559.285156 209.25 561.214844 215.035156 C 563.144531 220.820312 563.144531 226.605469 560.25 231.429688 L 540 273.855469 C 536.144531 281.570312 528.429688 286.394531 520.714844 286.394531 C 517.820312 286.394531 514.929688 285.429688 512.035156 284.464844 C 498.535156 278.679688 466.714844 264.214844 416.570312 264.214844 C 371.25 264.214844 351 281.570312 351 299.894531 C 351 319.179688 372.214844 332.679688 438.75 354.855469 C 509.144531 378 581.464844 412.714844 581.464844 496.605469 C 581.464844 541.929688 549.644531 602.679688 461.894531 624.855469 L 450.320312 626.785156 L 450.320312 676.929688 C 450.320312 688.5 440.679688 698.144531 429.105469 698.144531 L 377.035156 698.144531 C 365.464844 698.144531 355.820312 688.5 355.820312 676.929688 L 355.820312 630.644531 L 343.285156 629.679688 C 303.75 624.855469 266.144531 614.25 241.070312 599.785156 C 229.5 594 225.644531 582.429688 230.464844 571.820312 Z M 230.464844 571.820312 " fill-opacity="1" fill-rule="nonzero"/></svg>