<svg xmlns="http://www.w3.org/2000/svg" xmlns:xlink="http://www.w3.org/1999/xlink" width="1080" zoomAndPan="magnify" viewBox="0 0 810 809.999993" height="1080" preserveAspectRatio="xMidYMid meet" version="1.0"><defs><clipPath id="f41f69cdad"><path d="M 132 3.75 L 678 3.75 L 678 574 L 132 574 Z M 132 3.75 " clip-rule="nonzero"/></clipPath><clipPath id="e8ab179ecb"><path d="M 709 332 L 757.445312 332 L 757.445312 434 L 709 434 Z M 709 332 " clip-rule="nonzero"/></clipPath><clipPath id="0dabe2c8c6"><path d="M 52.445312 446 L 757.445312 446 L 757.445312 804.75 L 52.445312 804.75 Z M 52.445312 446 " clip-rule="nonzero"/></clipPath><clipPath id="e88b694678"><path d="M 52.445312 331 L 101 331 L 101 434 L 52.445312 434 Z M 52.445312 331 " clip-rule="nonzero"/></clipPath></defs><path fill="#eb4024" d="M 565.25 13.140625 L 565.25 115.925781 L 668.035156 115.925781 Z M 565.25 13.140625 " fill-opacity="1" fill-rule="nonzero"/><path fill="#eb4024" d="M 389.636719 372.328125 L 408.339844 372.328125 L 398.988281 349.886719 Z M 389.636719 372.328125 " fill-opacity="1" fill-rule="nonzero"/><path fill="#eb4024" d="M 533.199219 99.902344 L 228.71875 99.902344 L 228.71875 228.101562 L 581.273438 228.101562 L 581.273438 147.976562 L 549.222656 147.976562 C 540.375 147.976562 533.199219 140.808594 533.199219 131.953125 Z M 533.199219 99.902344 " fill-opacity="1" fill-rule="nonzero"/><g clip-path="url(#f41f69cdad)"><path fill="#eb4024" d="M 425.667969 569.117188 L 677.425781 449.25 L 677.425781 147.976562 L 613.324219 147.976562 L 613.324219 244.128906 C 613.324219 252.941406 606.113281 260.152344 597.296875 260.152344 L 212.695312 260.152344 C 203.882812 260.152344 196.671875 252.941406 196.671875 244.128906 L 196.671875 83.875 C 196.671875 75.0625 203.882812 67.851562 212.695312 67.851562 L 533.199219 67.851562 L 533.199219 3.75 L 148.59375 3.75 C 139.78125 3.75 132.570312 10.960938 132.570312 19.777344 L 132.570312 449.25 L 384.324219 569.117188 C 397.464844 575.367188 412.527344 575.367188 425.667969 569.117188 Z M 478.390625 317.84375 C 472.941406 310.792969 474.386719 300.695312 481.4375 295.410156 C 488.648438 290.121094 498.585938 291.5625 503.871094 298.613281 L 527.109375 329.539062 L 550.503906 298.613281 C 555.792969 291.5625 565.730469 290.121094 572.941406 295.410156 C 579.992188 300.695312 581.433594 310.792969 575.984375 317.84375 L 547.140625 356.304688 L 575.984375 394.761719 C 581.433594 401.8125 579.992188 411.910156 572.941406 417.199219 C 565.730469 422.488281 555.472656 420.722656 550.503906 413.992188 C 550.34375 413.992188 527.109375 383.066406 527.109375 383.066406 L 503.871094 413.992188 C 498.742188 421.042969 488.167969 422.167969 481.4375 417.199219 C 474.386719 411.910156 472.941406 401.8125 478.390625 394.761719 L 507.238281 356.304688 Z M 326.792969 324.253906 L 302.757812 324.253906 L 302.757812 404.378906 C 302.757812 413.191406 295.707031 420.402344 286.730469 420.402344 C 277.917969 420.402344 270.707031 413.191406 270.707031 404.378906 L 270.707031 324.253906 L 246.667969 324.253906 C 237.855469 324.253906 230.644531 317.042969 230.644531 308.226562 C 230.644531 299.414062 237.855469 292.203125 246.667969 292.203125 L 326.792969 292.203125 C 335.769531 292.203125 342.820312 299.414062 342.820312 308.226562 C 342.820312 317.042969 335.769531 324.253906 326.792969 324.253906 Z M 373.746094 410.46875 C 370.382812 418.640625 360.929688 422.648438 352.753906 419.121094 C 344.582031 415.757812 340.734375 406.300781 344.101562 398.289062 L 384.164062 302.136719 C 386.726562 296.050781 392.496094 292.203125 398.90625 292.203125 C 405.476562 292.203125 411.246094 296.050781 413.808594 302.136719 L 453.875 398.289062 C 457.238281 406.300781 453.394531 415.757812 445.21875 419.121094 C 437.367188 422.488281 427.59375 418.480469 424.226562 410.46875 L 421.664062 404.378906 L 376.3125 404.378906 Z M 373.746094 410.46875 " fill-opacity="1" fill-rule="nonzero"/></g><g clip-path="url(#e8ab179ecb)"><path fill="#eb4024" d="M 727.214844 343 L 709.472656 332.003906 L 709.472656 433.9375 L 757.550781 411.046875 L 757.550781 397.492188 C 757.550781 375.253906 746.234375 354.894531 727.214844 343 Z M 727.214844 343 " fill-opacity="1" fill-rule="nonzero"/></g><g clip-path="url(#0dabe2c8c6)"><path fill="#eb4024" d="M 370.542969 598.011719 C 370.375 597.929688 158.007812 496.8125 52.445312 446.550781 L 52.445312 740.90625 C 52.445312 776.257812 81.199219 805.007812 116.542969 805.007812 L 693.449219 805.007812 C 728.792969 805.007812 757.550781 776.257812 757.550781 740.90625 L 757.550781 446.554688 L 439.441406 598.027344 C 417.738281 608.363281 391.367188 607.925781 370.542969 598.011719 Z M 581.273438 708.855469 L 677.425781 708.855469 C 686.273438 708.855469 693.449219 716.023438 693.449219 724.882812 C 693.449219 733.738281 686.273438 740.90625 677.425781 740.90625 L 581.273438 740.90625 C 572.421875 740.90625 565.25 733.738281 565.25 724.882812 C 565.25 716.023438 572.421875 708.855469 581.273438 708.855469 Z M 581.273438 708.855469 " fill-opacity="1" fill-rule="nonzero"/></g><g clip-path="url(#e88b694678)"><path fill="#eb4024" d="M 100.519531 331.996094 L 82.71875 343.03125 C 63.757812 354.894531 52.445312 375.253906 52.445312 397.492188 L 52.445312 411.042969 L 100.519531 433.9375 Z M 100.519531 331.996094 " fill-opacity="1" fill-rule="nonzero"/></g></svg>