<svg width="2300" height="704" viewBox="0 0 2300 704" fill="none" xmlns="http://www.w3.org/2000/svg">
<path d="M1710 0V150H1490V250H1710V390H1490V530H1710V680H1330V0H1710ZM1910 680H1710L1900 460L1710 250H1910L2010 350L2100 250H2300L2100 460L2300 680H2090L2000 570L1910 680Z" fill="#FF6600"/>
<path d="M1174 0V278H1173C1138 238 1094 224 1042 224C938 224 859 295 832 389C800 285 719 222 598 222C500 222 423 265 383 337V248H180V151H401V0H0V679H180V394H360C355 415 352 437 352 461C352 602 460 702 598 702C714 702 791 647 831 548H677C656 578 640 587 598 587C550 587 508 544 508 494H823C836 607 924 704 1044 704C1096 704 1144 678 1173 635H1174V679H1333V0H1174ZM513 396C523 353 556 324 598 324C644 324 676 352 684 396H513ZM1078 576C1019 576 983 521 983 464C983 403 1015 345 1078 345C1144 345 1170 403 1170 464C1170 522 1142 576 1078 576Z" fill="#652C8F"/>
</svg>
