<svg id="Layer_1" data-name="Layer 1" xmlns="http://www.w3.org/2000/svg" viewBox="0 0 123.35 198.64"><defs><style>.cls-1{fill:#6b5da0;}.cls-2{fill:#524186;}.cls-3{fill:#f8c662;}.cls-4{fill:#fbe580;}.cls-5{fill:#fae380;}.cls-6{fill:#f2b04f;}</style></defs><polygon class="cls-1" points="68.62 0 41.63 48.65 78.23 48.65 104.66 0 68.62 0"/><polygon class="cls-1" points="15.21 0 50.04 0 59.25 19.82 41.63 48.65 15.21 0"/><polygon class="cls-2" points="52.77 30.43 47.22 39.52 26.97 0 37.23 0 52.77 30.43"/><polygon class="cls-2" points="63.81 48.65 52.77 48.65 78.86 0 89.12 0 63.81 48.65"/><rect class="cls-3" x="41.63" y="66.62" width="36.45" height="20.78"/><rect class="cls-4" x="31.58" y="48.65" width="55.35" height="21.35" rx="10.05"/><ellipse class="cls-5" cx="61.68" cy="139.13" rx="61.68" ry="59.5"/><ellipse class="cls-3" cx="61.68" cy="139.13" rx="48.59" ry="46.88"/><path class="cls-6" d="M76.64,163.38,63,156.45a2.19,2.19,0,0,0-2.05,0l-13.43,7.29a2.2,2.2,0,0,1-3.22-2.28l2.38-15.09a2.2,2.2,0,0,0-.66-1.94L35,133.94a2.2,2.2,0,0,1,1.17-3.77l15.09-2.4a2.2,2.2,0,0,0,1.64-1.22l6.57-13.79a2.2,2.2,0,0,1,4-.05l7,13.6A2.21,2.21,0,0,0,72,127.5l15.15,2a2.2,2.2,0,0,1,1.27,3.74L77.63,144a2.2,2.2,0,0,0-.61,2l2.79,15A2.2,2.2,0,0,1,76.64,163.38Z"/></svg>