<svg width="30" height="30" viewBox="0 0 30 30" fill="none" xmlns="http://www.w3.org/2000/svg">
<circle cx="15" cy="15" r="15" fill="#002157"/>
<path d="M19.4614 12.3592L18.3439 11.2385C18.3064 11.2008 18.2554 11.1797 18.2022 11.1797C18.1491 11.1797 18.0981 11.2008 18.0606 11.2385L13.3408 15.9614C13.3033 15.9991 13.2523 16.0202 13.1991 16.0202C13.146 16.0202 13.095 15.9991 13.0574 15.9614L11.9399 14.8407C11.9024 14.8031 11.8514 14.7819 11.7982 14.7819C11.7451 14.7819 11.6941 14.8031 11.6566 14.8407L10.5391 15.9614C10.4609 16.0396 10.4609 16.1663 10.5391 16.2444L13.0574 18.7632C13.095 18.8008 13.146 18.822 13.1991 18.822C13.2523 18.822 13.3033 18.8008 13.3408 18.7632L19.4614 12.6394C19.5377 12.5615 19.5377 12.437 19.4614 12.3592Z" fill="white"/>
<mask id="mask0" mask-type="alpha" maskUnits="userSpaceOnUse" x="10" y="11" width="10" height="8">
<path d="M19.4614 12.3592L18.3439 11.2385C18.3064 11.2008 18.2554 11.1797 18.2022 11.1797C18.1491 11.1797 18.0981 11.2008 18.0606 11.2385L13.3408 15.9614C13.3033 15.9991 13.2523 16.0202 13.1991 16.0202C13.146 16.0202 13.095 15.9991 13.0574 15.9614L11.9399 14.8407C11.9024 14.8031 11.8514 14.7819 11.7982 14.7819C11.7451 14.7819 11.6941 14.8031 11.6566 14.8407L10.5391 15.9614C10.4609 16.0396 10.4609 16.1663 10.5391 16.2444L13.0574 18.7632C13.095 18.8008 13.146 18.822 13.1991 18.822C13.2523 18.822 13.3033 18.8008 13.3408 18.7632L19.4614 12.6394C19.5377 12.5615 19.5377 12.437 19.4614 12.3592Z" fill="white"/>
</mask>
<g mask="url(#mask0)">
</g>
</svg>
