<svg id="Layer_1" data-name="Layer 1" xmlns="http://www.w3.org/2000/svg" viewBox="0 0 708.66 708.66"><defs><style>.cls-1{fill:#012157;}.cls-2{fill:#fff;}</style></defs><path class="cls-1" d="M636.25,498.89c-33.22-3.64-66.66-3.21-100.82-4.36a37,37,0,0,0,10.45-29.22h4.56q38.2,0,76.42,0c5,0,9.39-1,12.3-5.58a3.31,3.31,0,0,1,2.46-1.17c14.47-.07,28.94,0,43.47,0C663.38,574.05,552.8,676.18,411.73,667.37c-153.54-9.6-262.41-144.13-245.85-291.85,17.24-153.87,157.3-255.59,303.9-231.45,152.23,25.07,241,166.83,217.61,303.7h-8.71c-.1-1.15-.21-2.33-.31-3.44,5.31-1.66,7.07-3.72,6.54-7.39a6.15,6.15,0,0,0-5.89-5.29,5.72,5.72,0,0,0-5.76,5.28c-.22,3.46,0,7,0,10.74H640.58c0-1.32,0-2.76,0-4.19-.45-18-.58-36-1.46-54-.7-14.37-3.67-28.44-7.81-42.25a13.5,13.5,0,0,1-.25-6.5c1.34-6.15.21-12-2-17.61-10.95-27.77-31.56-44.61-60-52A81.33,81.33,0,0,0,549.74,269c-25.47-.24-50.95-.1-76.42-.1h-4c-1.74-4-3-7.79-4.94-11.2a14.18,14.18,0,0,0-12.62-7.53q-23.6-.28-47.2-.06c-8.21.09-12.82,5.3-15.68,12.4-.79,1.95-1.28,4-2,6.39h-4.27c-21.11,0-42.22-.47-63.31.11-33.3.93-59.64,14.84-76.74,44.12-3.16,5.4-4.94,11.67-6.85,17.7a13.78,13.78,0,0,0-.18,8.11c1.52,4.37.6,8.19-.6,12.31a192.54,192.54,0,0,0-7.76,44.92c-1.2,25.54,7.93,46.19,29.6,60.5,9.07,6,19.31,8.6,30.15,8.67,10.49.06,21,0,31.47,0h4.49c-1.08,11.38,2.45,20.9,10.16,29.07l-90.92,3.92-.06,1.78c3.37.42,6.73,1.11,10.11,1.22,32.82,1,65.64,2.5,98.47,2.83q76.79.76,153.58.15c39.2-.36,78.39-1.84,117.57-2.9,4.82-.13,9.63-.76,14.44-1.15C636.21,499.78,636.23,499.34,636.25,498.89Z"/><path class="cls-1" d="M465.54,415.4v-4.57q.06-46.5.11-93c0-5.38,0-10.75-3.28-15.5-3.76-5.52-8.87-8.87-15.53-9.11a201.34,201.34,0,0,0-21.7.2c-11.3.83-18.64,8.94-18.86,20.29-.12,6.25,0,12.5.07,18.75,0,2-.15,3.52-2.36,4.47a4.46,4.46,0,0,0-2.21,3.16,59.52,59.52,0,0,0,0,9.72c.07,1.12.84,2.84,1.68,3.13,3.58,1.23,3.05,4,3,6.69-.06,17.25-.16,34.5-.06,51.74,0,3.09-.89,4.06-4,4.06q-80.18,0-160.34.24c-2.22,0-3.26-.81-3.55-2.82-.57-4.05-1.08-8.1-1.71-12.79h5.37q78.48,0,157,0c1.62,0,4.48,1.15,3.7-2.93H237c.68-6.2,1.16-12,2-17.71,2.51-17.24,6.75-34,14.15-49.87,13.13-28.11,35.1-42.8,66.21-42.86,75.8-.13,151.6.15,227.4-.13,31.1-.12,52.84,14,66.36,41.39,10.39,21,14.32,43.76,16.14,66.94a16.66,16.66,0,0,1-.13,2.12h-164c1.07,1.42,1.47,2.47,2.15,2.71a10,10,0,0,0,3.34.18l154.34.2h4.74V415.4Zm73.19-95v.12c-13.23,0-26.45-.06-39.68,0s-20.9,7.67-21.06,20.9c-.11,8.62,0,17.24,0,25.85,0,13.31,7.31,20.6,20.61,20.61q38.92,0,77.86,0c1.74,0,3.49-.11,5.22-.28,10.35-1,16.92-8.1,17.08-18.62q.21-14.24,0-28.47c-.16-12.11-8.29-20.07-20.37-20.11C565.18,320.34,552,320.37,538.73,320.37Zm-239.1,59.44H326.2c8.67-.29,13.91-5.56,14-14.19q.07-11,0-22.1c-.08-7.77-5.27-13.52-13-13.61q-26.94-.31-53.88,0c-7.81.08-12.82,5.25-13,13s-.26,15.48-.1,23.22c.19,8.56,5.5,13.62,14,13.66S291.15,379.81,299.63,379.81ZM354.1,350h.06c0,5.49-.07,11,0,16.47.12,7.89,5.28,13.14,13.1,13.29,5.73.1,11.47.09,17.2,0,6.51-.09,12.32-5.14,12.46-11.56q.39-17.78-.14-35.55a12.45,12.45,0,0,0-11.61-12.08c-6.1-.23-12.22-.25-18.32,0-7.56.32-12.62,5.74-12.74,13.34C354,339.3,354.1,344.67,354.1,350Zm265.71,57.44v.06c1.24,0,2.62.33,3.7-.09s1.88-1.58,2.8-2.42c-.8-.77-1.54-2.13-2.41-2.22a36.5,36.5,0,0,0-8.16,0,3.17,3.17,0,0,0-2,2.36c.12.85,1.41,1.85,2.4,2.18A12,12,0,0,0,619.81,407.47Z"/><path class="cls-1" d="M17.58,125.88c-.81-42.77,34.3-82.08,79.88-84.94,49.44-3.11,89.42,35.59,91.22,82.84,1.82,47.82-37.77,87.85-84.56,88.49C58,212.91,16.67,174.55,17.58,125.88ZM99,105.07v60.67h15.22V86.29c-.5-.17-.78-.38-1-.32-10.66,3.82-21.32,7.63-31.94,11.54A2.56,2.56,0,0,0,80,99.43c-.13,3.69-.06,7.38-.06,11.55,3.52-1.08,6.48-2,9.43-2.89S95.26,106.24,99,105.07Z"/><path class="cls-1" d="M629.93,420.6v25.73c-1.3.07-2.5.18-3.7.18-28.33,0-56.66.05-85-.1a9.78,9.78,0,0,1-5.86-2.29c-14-12.28-33.54-12-47.2.73a5,5,0,0,1-2.76,1.58c-6.46.14-12.93.07-19.64.07V420.6Z"/><path class="cls-1" d="M406.16,420.54v25.52c-7.89,0-15.57.08-23.25-.09-1,0-2.13-1.17-3-2-14.12-12.33-33.09-12.11-46.88.45a8,8,0,0,1-4.84,2c-18,.14-35.93.12-53.9.07-14.17,0-29.15-11.87-32.84-26Z"/><path class="cls-1" d="M457.43,352.59H414.34V338.72c0-8,0-16,0-24,.06-8.74,5-13.61,13.78-13.65,5.62,0,11.24-.07,16.85,0,6.56.1,12.13,4.63,12.33,11.18C457.72,325.6,457.43,339,457.43,352.59Z"/><path class="cls-1" d="M478.63,465.65c-1.13,10.47,1.79,19.59,8.9,27.74H381.35c7-8.25,10-17.34,9.26-27.8h16.56l.11.61-3.56.94c.16,2.9-.13,6.08.7,8.93.39,1.32,3,2.81,4.58,2.83,17.46.16,34.92.05,52.39,0,3.2,0,5-1.74,4.95-4.82,0-2.8,1.75-6.26-2.81-8.44Z"/><path class="cls-1" d="M620.65,323.31c-6.42-11.28-14.39-21.3-24.89-29.07a74.54,74.54,0,0,0-45.35-15.09c-76.65,0-153.3-.3-229.94.22-34.2.24-58.71,17.42-74.72,47.27-.53,1-1,2-1.53,3a8.35,8.35,0,0,1-.91,1,54.28,54.28,0,0,1,9.08-20c15.34-21.8,36.59-33.68,63-34,54.55-.7,109.11-.41,163.66-.45,24.59,0,49.18,0,73.76.31C582,276.88,610.29,296.5,620.65,323.31Z"/><path class="cls-1" d="M457.48,420.66v25.61H414.62V420.66Z"/><path class="cls-1" d="M414.52,358.52h42.91v20.26H414.52Z"/><path class="cls-1" d="M457.4,398.54H414.55v-13.7H457.4Z"/><path class="cls-1" d="M357,448.82c11-.16,20.31,9.1,20.5,20.47a21.17,21.17,0,0,1-21.26,21.46c-10.72.05-19.86-9.38-20-20.64C336.09,458,344.85,449,357,448.82Zm0,36.95a15.74,15.74,0,0,0,15.77-16,16.06,16.06,0,0,0-16.18-16.11,15.7,15.7,0,0,0-15.73,16A15.92,15.92,0,0,0,356.93,485.77Z"/><path class="cls-1" d="M512.18,448.66c11.27-.09,20.65,9.56,20.64,21.21a21,21,0,0,1-20.45,20.68c-11,.25-20.65-9.4-20.82-20.72A20.82,20.82,0,0,1,512.18,448.66Zm.63,37c8.36.07,15.24-6.9,15.36-15.57.12-9.33-7.1-16.5-16.62-16.51-8.3,0-15.09,7.11-15.12,15.83C496.4,478.69,503.34,485.58,512.81,485.66Z"/><path class="cls-1" d="M457.41,404.7v10.66H414.62V404.7Z"/><path class="cls-1" d="M456.42,260.36h-57.2c-.08-.22-.15-.44-.23-.67a17.07,17.07,0,0,1,4.09-1.08q24.87-.11,49.75,0a18.14,18.14,0,0,1,3.79.79Z"/><path class="cls-1" d="M460.42,265.5H394.74C397.28,263.84,456.43,263.47,460.42,265.5Z"/><path class="cls-1" d="M412.42,465.6h47.11v.65h-47.1Z"/><path class="cls-2" d="M538.73,320.37c13.22,0,26.45,0,39.68,0,12.08,0,20.21,8,20.37,20.11q.19,14.24,0,28.47c-.16,10.52-6.73,17.58-17.08,18.62-1.73.17-3.48.28-5.22.28q-38.93,0-77.86,0c-13.3,0-20.58-7.3-20.61-20.61,0-8.61-.12-17.23,0-25.85.16-13.23,7.83-20.83,21.06-20.9s26.45,0,39.68,0Zm51.62,21-40.16,37.88c11.21,0,21.41.13,31.6-.06,4.35-.09,8.38-3.82,8.48-8.05C590.52,360.56,590.35,350,590.35,341.34Z"/><path class="cls-2" d="M299.63,379.81c-8.48,0-17,0-25.44,0s-13.84-5.1-14-13.66q-.24-11.61.1-23.22c.22-7.78,5.23-12.95,13-13q26.94-.28,53.88,0c7.69.09,12.88,5.84,13,13.61q.12,11.06,0,22.1c-.06,8.63-5.3,13.9-14,14.19H299.63Zm3.6-9c8,0,15.86,0,23.7,0,3.18,0,4.33-2.17,4.44-4.94.15-3.74.12-7.5.14-11.24,0-3.92,0-7.84,0-12.07Z"/><path class="cls-2" d="M354.1,350c0-5.36-.06-10.73,0-16.09.12-7.6,5.18-13,12.74-13.34,6.1-.25,12.22-.23,18.32,0a12.45,12.45,0,0,1,11.61,12.08q.54,17.76.14,35.55c-.14,6.42-5.95,11.47-12.46,11.56-5.73.09-11.47.1-17.2,0-7.82-.15-13-5.4-13.1-13.29-.08-5.49,0-11,0-16.47Zm10.43,19.69c1.06.53,1.59,1,2.13,1,5.86.1,11.72.25,17.58.12,2.7-.05,3.85-2,3.86-4.58v-19Z"/><path class="cls-2" d="M619.81,407.47a12,12,0,0,1-3.71-.09c-1-.33-2.28-1.33-2.4-2.18a3.17,3.17,0,0,1,2-2.36,36.5,36.5,0,0,1,8.16,0c.87.09,1.61,1.45,2.41,2.22-.92.84-1.71,2-2.8,2.42s-2.46.09-3.7.09Z"/><path class="cls-2" d="M99,105.07c-3.71,1.17-6.66,2.11-9.61,3s-5.91,1.81-9.43,2.89c0-4.17-.07-7.86.06-11.55a2.56,2.56,0,0,1,1.3-1.92C91.91,93.6,102.57,89.79,113.23,86c.18-.06.46.15,1,.32v79.45H99Z"/><path class="cls-2" d="M356.93,485.77a15.92,15.92,0,0,1-16.14-16.08,15.7,15.7,0,0,1,15.73-16,16.06,16.06,0,0,1,16.18,16.11A15.74,15.74,0,0,1,356.93,485.77Zm-.09-3.71a12.23,12.23,0,0,0,12.35-12.28,12.44,12.44,0,0,0-12.57-12.59,12,12,0,0,0-12.15,12C344.43,477,349.34,482.08,356.84,482.06Z"/><path class="cls-2" d="M512.81,485.66c-9.47-.08-16.41-7-16.38-16.25,0-8.72,6.82-15.83,15.12-15.83,9.52,0,16.74,7.18,16.62,16.51C528.05,478.76,521.17,485.73,512.81,485.66Zm-.41-3.6c7-.05,12.06-5.26,12.07-12.41a12.33,12.33,0,1,0-12.07,12.41Z"/><path class="cls-1" d="M590.35,341.34c0,8.66.17,19.22-.08,29.77-.1,4.23-4.13,8-8.48,8.05-10.19.19-20.39.06-31.6.06Z"/><path class="cls-1" d="M303.23,370.85l28.28-28.27c0,4.23,0,8.15,0,12.07,0,3.74,0,7.5-.14,11.24-.11,2.77-1.26,4.92-4.44,4.94C319.09,370.89,311.24,370.85,303.23,370.85Z"/><path class="cls-1" d="M364.53,369.72l23.57-22.46v19c0,2.62-1.16,4.53-3.86,4.58-5.86.13-11.72,0-17.58-.12C366.12,370.75,365.59,370.25,364.53,369.72Z"/><path class="cls-1" d="M356.84,482.06c-7.5,0-12.41-5.08-12.37-12.84a12,12,0,0,1,12.15-12,12.44,12.44,0,0,1,12.57,12.59A12.23,12.23,0,0,1,356.84,482.06Zm-5-13.72c0,.6,0,1.2,0,1.79,1.58,1.16,3,3,4.77,3.3,2.42.44,4.27-1.3,4.38-3.92.12-2.8-1.69-4.71-4.3-4.38C354.94,465.34,353.43,467.21,351.83,468.34Z"/><path class="cls-1" d="M512.4,482.06a12.44,12.44,0,1,1,12.07-12.41C524.46,476.8,519.4,482,512.4,482.06ZM517.5,470c0-.59,0-1.17,0-1.75-1.63-1.17-3.18-3.15-4.92-3.34-2.57-.28-4.45,1.75-4.41,4.48a3.76,3.76,0,0,0,4.46,3.91C514.38,473,515.88,471.16,517.5,470Z"/><path class="cls-2" d="M351.83,468.34c1.6-1.13,3.11-3,4.83-3.21,2.61-.33,4.42,1.58,4.3,4.38-.11,2.62-2,4.36-4.38,3.92-1.73-.31-3.19-2.14-4.77-3.3C351.82,469.54,351.82,468.94,351.83,468.34Z"/><path class="cls-2" d="M517.5,470c-1.62,1.15-3.12,3-4.89,3.3a3.76,3.76,0,0,1-4.46-3.91c0-2.73,1.84-4.76,4.41-4.48,1.74.19,3.29,2.17,4.92,3.34C517.48,468.84,517.49,469.42,517.5,470Z"/></svg>