<svg id="Layer_1" data-name="Layer 1" xmlns="http://www.w3.org/2000/svg" viewBox="0 0 708.66 708.66"><defs><style>.cls-1{fill:#012157;}.cls-2{fill:#fff;}</style></defs><path class="cls-1" d="M433.89,131.45c148.06.17,268,120.34,267.76,268.3A267.71,267.71,0,0,1,433.88,667.5c-147.89.13-268.32-120-268-267.94C166.16,251.87,284,132.37,433.89,131.45ZM512.57,268v-4.71q0-21.91,0-43.84c0-5.44-1.08-6.48-6.61-6.48q-72.3,0-144.61,0c-5.63,0-6.58.9-6.59,6.47,0,15-.07,30,0,45,0,2.75-.75,3.71-3.59,3.66-8.74-.16-17.48-.06-26.22-.06-6.48,0-7.42.93-7.42,7.28,0,30.85-.07,61.7.09,92.54,0,3.47-1.15,4.76-4.29,5.51-5.57,1.32-11,3.17-16.6,4.5-3.85.92-5.29,3.12-5.22,6.95.13,7.62-.11,15.24.1,22.85a31.63,31.63,0,0,0,1.52,9.12c7.93,23.5,16,46.95,24.08,70.42,3.14,9.15,6.26,18.3,9.56,27.95-5.27-1.24-8.59-4.33-11.81-7.6-6.77-6.88-16-7-22.47,0a30.07,30.07,0,0,1-20.79,9.74c-3,.19-4.75,1.52-4.75,4.58,0,2.79,2.17,4.29,5.48,4.1a37.86,37.86,0,0,0,25.36-11.35c4.26-4.24,7.51-4.16,11.91.07,15.68,15.08,37.51,15.08,53,0,4.34-4.23,7.55-4.24,11.9,0,15.62,15.1,37.51,15.13,53,.08,4.39-4.26,7.62-4.3,11.93-.15,15.84,15.27,37.24,15.24,53.24-.06,4.2-4,7.45-4,11.66,0,16,15.3,37.46,15.33,53.25.07,4.21-4.08,7.51-4.17,11.62-.09a37.92,37.92,0,0,0,25.31,11.45c3.52.2,5.52-1.07,5.63-3.88.12-3.33-1.82-4.59-4.9-4.8a29.77,29.77,0,0,1-20.19-9.35c-7.32-7.59-16-7.22-23.58.27-2.91,2.88-6.54,5-9.85,7.5l-.93-.91c.4-1.39.74-2.8,1.21-4.16q16.18-47.24,32.38-94.45a18,18,0,0,0,1.15-5.43c.12-8.87,0-17.74.1-26.6.05-3.46-1.43-5.3-4.7-6.15-5.79-1.51-11.5-3.32-17.32-4.7-3-.7-3.83-2.07-3.82-5.12.13-30.85.08-61.7.08-92.55,0-6.48-1.11-7.56-7.67-7.57Zm18.36,292.38a35.93,35.93,0,0,0,26.28-10.71c5.13-5.09,7.52-5,12.82.08,7,6.75,15.3,10.61,25.19,10.62,2.68,0,4.78-.74,5-3.77s-1.43-4.67-4.4-4.85a31,31,0,0,1-21.39-10.1c-6.44-6.75-15.58-6.33-22.24.35a33.93,33.93,0,0,1-6.59,5.46c-12.24,7.23-25.09,5.19-35.7-5.43-6.86-6.87-15.83-6.93-22.51-.14C474.53,555,458,555,444.83,541.89c-6.81-6.8-15.7-6.7-22.54.08a34.55,34.55,0,0,1-7.23,5.85c-12.22,6.79-24.56,4.64-35-5.82-6.85-6.84-16.12-7.11-22.48-.1a28.47,28.47,0,0,1-42.67,0c-6.51-7.1-15.85-6.91-22.42.09A29.9,29.9,0,0,1,272,551.68c-3.08.21-5.19,1.42-5,4.7s2.6,4,5.6,4c9.88-.21,18.08-4.17,25-11,4.67-4.59,7.43-4.63,12-.11,15.26,15,37.85,15.08,53,.06,4.6-4.56,7.44-4.56,12,0,15.14,15,37.83,15,53,0,4.58-4.53,7.37-4.51,12,.09,15.06,14.88,37.76,14.92,52.73.1,4.82-4.77,7.47-4.75,12.28,0C512,556.55,520.62,560.51,530.93,560.37Z"/><path class="cls-1" d="M94.4,219.35c-47,.47-89-39-87.35-91.62,1.35-43.95,39.49-86.58,92.68-84,45.39,2.23,85.22,40.49,83,92.54C180.77,182.1,141.78,220,94.4,219.35Zm-3-63.83c4.45-5,9.12-10.12,13.72-15.34,4-4.58,8.47-8.9,11.88-13.91a19.78,19.78,0,0,0-4-26.88c-10.24-8.16-29.12-7.24-38.39,2a20.25,20.25,0,0,0-6.06,16.18H82.3c.22-1.07.35-1.93.56-2.77,1.25-4.86,4.38-7.75,9.33-8.46,4.76-.68,9,.39,11.82,4.63s1.71,8.35-1,12.2A29.37,29.37,0,0,1,99.93,127c-8.89,8.93-17.51,18.17-26.87,26.59-5,4.5-3.75,9.3-3.62,14.41h51.88V155.52Z"/><path class="cls-2" d="M512.57,268h29.64c6.56,0,7.67,1.09,7.67,7.57,0,30.85,0,61.7-.08,92.55,0,3.05.85,4.42,3.82,5.12,5.82,1.38,11.53,3.19,17.32,4.7,3.27.85,4.75,2.69,4.7,6.15-.13,8.86,0,17.73-.1,26.6a18,18,0,0,1-1.15,5.43Q558.24,463.35,542,510.56c-.47,1.36-.81,2.77-1.21,4.16l.93.91c3.31-2.48,6.94-4.62,9.85-7.5,7.59-7.49,16.26-7.86,23.58-.27a29.77,29.77,0,0,0,20.19,9.35c3.08.21,5,1.47,4.9,4.8-.11,2.81-2.11,4.08-5.63,3.88a37.92,37.92,0,0,1-25.31-11.45c-4.11-4.08-7.41-4-11.62.09-15.79,15.26-37.24,15.23-53.25-.07-4.21-4-7.46-4-11.66,0-16,15.3-37.4,15.33-53.24.06-4.31-4.15-7.54-4.11-11.93.15-15.48,15.05-37.37,15-53-.08-4.35-4.2-7.56-4.19-11.9,0-15.48,15.08-37.31,15.08-53,0-4.4-4.23-7.65-4.31-11.91-.07a37.86,37.86,0,0,1-25.36,11.35c-3.31.19-5.48-1.31-5.48-4.1,0-3.06,1.8-4.39,4.75-4.58a30.07,30.07,0,0,0,20.79-9.74c6.51-7,15.7-6.86,22.47,0,3.22,3.27,6.54,6.36,11.81,7.6-3.3-9.65-6.42-18.8-9.56-27.95-8-23.47-16.15-46.92-24.08-70.42a31.63,31.63,0,0,1-1.52-9.12c-.21-7.61,0-15.23-.1-22.85-.07-3.83,1.37-6,5.22-6.95,5.58-1.33,11-3.18,16.6-4.5,3.14-.75,4.31-2,4.29-5.51-.16-30.84-.1-61.69-.09-92.54,0-6.35.94-7.27,7.42-7.28,8.74,0,17.48-.1,26.22.06,2.84.05,3.61-.91,3.59-3.66-.11-15-.06-30,0-45,0-5.57,1-6.47,6.59-6.47q72.3,0,144.61,0c5.53,0,6.61,1,6.61,6.48q0,21.92,0,43.84ZM301.77,414.92c11.58,33.71,23,66.82,34.29,100,.77,2.27,2.11,2.39,4,2.08,6.24-1,12-3.36,16-8.22,6.51-7.84,17.3-8.56,25.35-.07,10.93,11.53,28.1,11.27,39.56.25,1.61-1.55,3.2-3.4,5.16-4.24,2.68-1.14,3.22-2.71,3.21-5.41q-.13-58.26-.06-116.53v-4.12Zm263.78,0-127.4-36.26v5.47q0,57,0,113.9c0,3.15,0,5.79,3.72,7.05,1.64.55,2.9,2.3,4.25,3.59,12,11.5,28.8,11.35,40.49-.39,7.92-7.93,16.23-8,24.08,0a30,30,0,0,0,15.48,8.51c3.3.71,4.62-.21,5.67-3.31,7.73-22.91,15.61-45.77,23.45-68.65C558.64,435,562.05,425.09,565.55,414.92Zm-265-9.17c1.83-.44,3.16-.71,4.46-1.07Q367.56,387,430.18,369.4a13.41,13.41,0,0,1,6.86,0q62.64,17.52,125.21,35.28c1.38.39,2.79.68,4.6,1.12,0-5.51-.17-10.49.06-15.46.14-3.09-.73-4.54-3.93-5.44C520.87,373,478.81,361,436.71,349.19a12,12,0,0,0-6.14,0c-22.68,6.31-45.33,12.77-68,19.21-19.66,5.58-39.31,11.16-58.93,16.87-1.22.35-3,1.77-3,2.77C300.37,393.77,300.51,399.51,300.51,405.75Zm128.62-184H363.84v45.93h65.29ZM391.59,323.06v-46H326.66v46Zm74.63-.1V277h-65V323Zm74.41,0V277H475.45V323ZM438.42,221.71v46h64.89v-46Zm36.84,110.55c0,5.34.14,10.43-.06,15.51-.09,2.52.9,3.38,3.19,4,12.86,3.55,25.66,7.3,38.48,10.95,7.9,2.25,15.81,4.44,23.78,6.67V332.26Zm-83.34.3a5.74,5.74,0,0,0-1.21-.44c-20.58-.05-41.16-.05-61.74-.14-2.68,0-2.64,1.56-2.63,3.41,0,7.74,0,15.47,0,23.21v10.26a5,5,0,0,0,1.22.22q31.28-8.81,62.54-17.72a3.11,3.11,0,0,0,1.74-2.3C392,343.59,391.92,338.12,391.92,332.56Zm74.63,15.75c0-4.54-.2-8.49.06-12.42.21-3.18-1-4-4-3.95-19.32.12-38.63.06-58,.07-1.19,0-2.37.17-3.55.26v16l10.67-3c7.31-2,14.63-5.58,21.94-5.57s14.62,3.6,21.94,5.61C459.08,346.28,462.52,347.21,466.55,348.31Z"/><path class="cls-2" d="M530.93,560.37c-10.31.14-18.92-3.82-26.19-11-4.81-4.72-7.46-4.74-12.28,0-15,14.82-37.67,14.78-52.73-.1-4.65-4.6-7.44-4.62-12-.09-15.18,15-37.87,15.06-53,0-4.58-4.55-7.42-4.55-12,0-15.16,15-37.75,15-53-.06-4.59-4.52-7.35-4.48-12,.11-6.95,6.83-15.15,10.79-25,11-3,.06-5.41-.6-5.6-4s1.91-4.49,5-4.7A29.9,29.9,0,0,0,292.45,542c6.57-7,15.91-7.19,22.42-.09a28.47,28.47,0,0,0,42.67,0c6.36-7,15.63-6.74,22.48.1,10.48,10.46,22.82,12.61,35,5.82a34.55,34.55,0,0,0,7.23-5.85c6.84-6.78,15.73-6.88,22.54-.08,13.12,13.1,29.7,13.1,42.58,0,6.68-6.79,15.65-6.73,22.51.14,10.61,10.62,23.46,12.66,35.7,5.43a33.93,33.93,0,0,0,6.59-5.46c6.66-6.68,15.8-7.1,22.24-.35a31,31,0,0,0,21.39,10.1c3,.18,4.64,1.79,4.4,4.85s-2.34,3.77-5,3.77c-9.89,0-18.17-3.87-25.19-10.62-5.3-5.1-7.69-5.17-12.82-.08A35.93,35.93,0,0,1,530.93,560.37Z"/><path class="cls-2" d="M91.44,155.52h29.88V168H69.44c-.13-5.11-1.38-9.91,3.62-14.41,9.36-8.42,18-17.66,26.87-26.59a29.37,29.37,0,0,0,3.07-3.77c2.72-3.85,3.78-8,1-12.2S97,105.7,92.19,106.38c-5,.71-8.08,3.6-9.33,8.46-.21.84-.34,1.7-.56,2.77H68.55a20.25,20.25,0,0,1,6.06-16.18c9.27-9.28,28.15-10.2,38.39-2a19.78,19.78,0,0,1,4,26.88c-3.41,5-7.84,9.33-11.88,13.91C100.56,145.4,95.89,150.55,91.44,155.52Z"/><path class="cls-1" d="M301.77,414.92l127.5-36.29v4.12q0,58.28.06,116.53c0,2.7-.53,4.27-3.21,5.41-2,.84-3.55,2.69-5.16,4.24-11.46,11-28.63,11.28-39.56-.25-8-8.49-18.84-7.77-25.35.07-4,4.86-9.75,7.22-16,8.22-1.89.31-3.23.19-4-2.08C324.75,481.74,313.35,448.63,301.77,414.92Z"/><path class="cls-1" d="M565.55,414.92c-3.5,10.17-6.91,20-10.3,29.92-7.84,22.88-15.72,45.74-23.45,68.65-1,3.1-2.37,4-5.67,3.31a30,30,0,0,1-15.48-8.51c-7.85-8-16.16-7.94-24.08,0-11.69,11.74-28.5,11.89-40.49.39-1.35-1.29-2.61-3-4.25-3.59-3.76-1.26-3.73-3.9-3.72-7.05q.09-57,0-113.9v-5.47Z"/><path class="cls-1" d="M300.51,405.75c0-6.24-.14-12,.14-17.7.05-1,1.79-2.42,3-2.77,19.62-5.71,39.27-11.29,58.93-16.87,22.65-6.44,45.3-12.9,68-19.21a12,12,0,0,1,6.14,0C478.81,361,520.87,373,563,384.86c3.2.9,4.07,2.35,3.93,5.44-.23,5-.06,9.95-.06,15.46-1.81-.44-3.22-.73-4.6-1.12Q499.66,387,437,369.36a13.41,13.41,0,0,0-6.86,0Q367.54,386.93,305,404.68C303.67,405,302.34,405.31,300.51,405.75Z"/><path class="cls-1" d="M429.13,221.75v45.93H363.84V221.75Z"/><path class="cls-1" d="M391.59,323.06H326.66v-46h64.93Z"/><path class="cls-1" d="M466.22,323h-65V277h65Z"/><path class="cls-1" d="M540.63,323H475.45V277h65.18Z"/><path class="cls-1" d="M438.42,221.71h64.89v46H438.42Z"/><path class="cls-1" d="M475.26,332.26h65.39v37.15c-8-2.23-15.88-4.42-23.78-6.67-12.82-3.65-25.62-7.4-38.48-10.95-2.29-.64-3.28-1.5-3.19-4C475.4,342.69,475.26,337.6,475.26,332.26Z"/><path class="cls-1" d="M391.92,332.56c0,5.56.07,11-.08,16.5a3.11,3.11,0,0,1-1.74,2.3q-31.25,9-62.54,17.72a5,5,0,0,1-1.22-.22V358.6c0-7.74,0-15.47,0-23.21,0-1.85,0-3.42,2.63-3.41,20.58.09,41.16.09,61.74.14A5.74,5.74,0,0,1,391.92,332.56Z"/><path class="cls-1" d="M466.55,348.31c-4-1.1-7.47-2-10.9-3-7.32-2-14.62-5.6-21.94-5.61s-14.63,3.56-21.94,5.57l-10.67,3v-16c1.18-.09,2.36-.26,3.55-.26,19.32,0,38.63.05,58-.07,3,0,4.22.77,4,3.95C466.35,339.82,466.55,343.77,466.55,348.31Z"/></svg>