<svg id="Layer_1" data-name="Layer 1" xmlns="http://www.w3.org/2000/svg" viewBox="0 0 708.66 708.66"><defs><style>.cls-1{fill:#012157;}.cls-2{fill:#fff;}</style></defs><path class="cls-1" d="M427.7,128.47c148.26.46,268.18,120.74,267.61,268.42-.57,148.38-120,267.72-267.85,267.63C280.77,664.43,158.73,547,158.85,393,159,245.75,276.87,130,427.7,128.47ZM401.29,580.56c0,3.43-.06,6.3,0,9.16.34,12.7,10.57,26.14,27.61,25.37a26.06,26.06,0,0,0,24.89-25.83c.05-2.82,0-5.64,0-8.8H574.26c.07-1.45.17-2.54.17-3.64q0-165-.09-330.07a7.62,7.62,0,0,0-2.29-5q-22.84-20.81-46-41.28a8.69,8.69,0,0,0-5.35-1.77q-117.81-.13-235.61-.07c-1.33,0-2.66.12-4,.18V580.56Z"/><path class="cls-1" d="M98,44.15C146,44.32,182.92,82,182.32,131,181.76,177.23,142.07,214,96,213.18c-41.86-.78-84-35.24-82.6-87.9C14.56,80.57,52.5,43.5,98,44.15ZM70.92,143.52a20.64,20.64,0,0,0,8.71,16.41c10.06,7.39,28.32,7,38-.91,6-4.92,8.58-11.32,6.86-19-1.66-7.44-6.86-11.26-14.11-12.63-.13,0-.2-.35-.35-.62a4.16,4.16,0,0,1,.85-.56c6.86-2.32,10.81-7.1,11.33-14.29.49-7-2.61-12.35-8.53-16-9.12-5.55-18.8-5.37-28.45-1.9-6.86,2.48-13.79,10.13-12.53,19.17H85.56c2.36-8.67,11-12.34,18.47-8.07a8,8,0,0,1,4.24,7c.28,5.49-3.39,9.23-10,9.84-3,.28-6.14,0-9.52,0,0,3,0,5.31,0,7.66,0,1,.09,1.94.16,3.35,2.29,0,4.37-.1,6.45,0a42.48,42.48,0,0,1,7,.76c4.48,1,7.11,4.13,7.39,8.27.31,4.53-1.75,7.8-6.11,9.67-7.88,3.39-15.53.08-19.27-8.29Z"/><path class="cls-2" d="M401.29,580.56H281.06V198.8c1.37-.06,2.7-.18,4-.18q117.8,0,235.61.07a8.69,8.69,0,0,1,5.35,1.77q23.16,20.47,46,41.28a7.62,7.62,0,0,1,2.29,5q.17,165,.09,330.07c0,1.1-.1,2.19-.17,3.64H453.81c0,3.16,0,6,0,8.8a26.06,26.06,0,0,1-24.89,25.83c-17,.77-27.27-12.67-27.61-25.37C401.23,586.86,401.29,584,401.29,580.56Zm-.2-69.52C346,497.49,308.81,445.31,316.69,387A111.86,111.86,0,0,1,535.3,373c7,25.56,5.51,50.76-5.66,74.95-15.21,33-41,53.58-75.51,63.06v58.52H563.48V251.37H516.23V209.51H291.75v360H401.09Zm26.58-7.74c55.66-.22,101.08-45.34,101-100.3-.12-56.11-45.36-101.6-101.14-101.38-58.14.23-100.34,47.24-101.07,98.69C325.59,458.55,372.48,503.75,427.67,503.3Zm-15.6,10.33v6q0,33.9,0,67.79c0,6.61,2.09,12.1,8.19,15.27,10.77,5.58,22.76-1.87,22.82-14.26.12-24.22,0-48.44,0-72.66a18.44,18.44,0,0,0-.2-2.12ZM527.52,216.22v24.22h27.13Z"/><path class="cls-2" d="M70.92,143.52H84.46c3.74,8.37,11.39,11.68,19.27,8.29,4.36-1.87,6.42-5.14,6.11-9.67-.28-4.14-2.91-7.25-7.39-8.27a42.48,42.48,0,0,0-7-.76c-2.08-.12-4.16,0-6.45,0-.07-1.41-.16-2.38-.16-3.35,0-2.35,0-4.69,0-7.66,3.38,0,6.47.24,9.52,0,6.58-.61,10.25-4.35,10-9.84a8,8,0,0,0-4.24-7c-7.48-4.27-16.11-.6-18.47,8.07H72.69c-1.26-9,5.67-16.69,12.53-19.17,9.65-3.47,19.33-3.65,28.45,1.9,5.92,3.6,9,9,8.53,16-.52,7.19-4.47,12-11.33,14.29a4.16,4.16,0,0,0-.85.56c.15.27.22.6.35.62,7.25,1.37,12.45,5.19,14.11,12.63,1.72,7.66-.86,14.06-6.86,19-9.67,7.91-27.93,8.3-38,.91A20.64,20.64,0,0,1,70.92,143.52Z"/><path class="cls-1" d="M401.09,511v58.48H291.75v-360H516.23v41.86h47.25V569.54H454.13V511c34.54-9.48,60.3-30.1,75.51-63.06,11.17-24.19,12.64-49.39,5.66-74.95A111.86,111.86,0,0,0,316.69,387C308.81,445.31,346,497.49,401.09,511Z"/><path class="cls-1" d="M427.67,503.3c-55.19.45-102.08-44.75-101.24-103,.73-51.45,42.93-98.46,101.07-98.69,55.78-.22,101,45.27,101.14,101.38C528.75,458,483.33,503.08,427.67,503.3Zm-78.5-99.05a78.2,78.2,0,0,0,83.06,76.39c42-2.51,74.58-37.62,73.72-78.68-1-47.73-39.66-79-80.37-77.85C379.47,325.41,347.4,364.66,349.17,404.25Z"/><path class="cls-1" d="M412.07,513.63H442.9a18.44,18.44,0,0,1,.2,2.12c0,24.22.09,48.44,0,72.66C443,600.8,431,608.25,420.25,602.67c-6.1-3.17-8.2-8.66-8.19-15.27q0-33.89,0-67.79Z"/><path class="cls-1" d="M527.52,216.22l27.13,24.22H527.52Z"/><path class="cls-2" d="M349.17,404.25c-1.77-39.59,30.3-78.84,76.41-80.14C466.29,323,505,354.23,506,402c.86,41.06-31.76,76.17-73.72,78.68A78.2,78.2,0,0,1,349.17,404.25ZM427.49,335c-36.47,0-67.16,30.16-67.66,65.33-.56,39.85,31.18,69.75,67.48,69.73,37.06,0,67.86-30.27,67.87-66.7C495.18,365.34,465.14,335,427.49,335Z"/><path class="cls-1" d="M427.49,335c37.65,0,67.69,30.33,67.69,68.36,0,36.43-30.81,66.67-67.87,66.7-36.3,0-68-29.88-67.48-69.73C360.33,365.17,391,335,427.49,335Zm38.42,40.7c-12.91,13.19-25.53,26.13-38.21,39-5.65,5.73-4.4,5.47-9.65-.27-6-6.59-11.93-13.27-18.08-20.11l-8,7.27c7.62,8.37,14.77,16.52,22.26,24.36,4.89,5.12,12,5.24,17.08.26,14.1-13.76,28-27.73,42-41.63a4.33,4.33,0,0,0,.56-1C471.43,381.24,469.07,378.88,465.91,375.71Z"/><path class="cls-2" d="M465.91,375.71c3.16,3.17,5.52,5.53,7.91,7.91a4.33,4.33,0,0,1-.56,1c-14,13.9-27.86,27.87-42,41.63-5.11,5-12.19,4.86-17.08-.26-7.49-7.84-14.64-16-22.26-24.36l8-7.27c6.15,6.84,12.06,13.52,18.08,20.11,5.25,5.74,4,6,9.65.27C440.38,401.84,453,388.9,465.91,375.71Z"/></svg>