<svg id="Layer_1" data-name="Layer 1" xmlns="http://www.w3.org/2000/svg" viewBox="0 0 708.66 708.66"><defs><style>.cls-1{fill:#012157;}.cls-2{fill:#fff;}</style></defs><path class="cls-1" d="M423.71,142.69c151.9.24,274.06,123.31,273.75,275.77-.31,150.31-123,272.16-273.93,272.3-153.19.14-274.32-124.94-273.93-274.54C150,266.9,270.83,143.15,423.71,142.69ZM351.57,305.74l1.15.84c-3.49,5.23-6.87,10.54-10.5,15.68-2.39,3.38-2.62,5.9-.18,7.9s5,1.45,7.67-1.75c14.06-16.63,18.32-35.58,13.43-56.7-.25-1.06-.47-2.13-.7-3.16,7.64-2.72,21.35-3.22,31.73-1.23,50,9.56,75.79,66.8,49.9,110.6-3.13,5.31-2.84,6.67,2.24,10.07q35.15,23.55,70.31,47.08a24.1,24.1,0,0,0,2.21,1.39c2.58,1.35,5,1.05,6.55-1.44s1-4.79-1.33-6.6c-.79-.62-1.64-1.14-2.47-1.69l-64.37-43.17c-1.12-.75-2.23-1.53-3.57-2.46.67-1.4,1.25-2.62,1.84-3.82a81.07,81.07,0,0,0,7.33-50.65c-8.16-47.18-51.46-77.33-98.46-68.77-6,1.08-6,1.08-9.27-4.09C336.11,224.31,296.75,216,268,236c-21.34,14.8-30.08,35.66-26.66,61.38a58.59,58.59,0,0,0,11.24,27c2.31,3.16,5.61,3.57,7.92,1s1.18-5-.52-7.42c-8.71-12.54-11.92-26.44-8.49-41.28,4.85-21,18-34.9,39-40.06,20.61-5,38.25,1.1,52.23,17,10.39,11.82,13.79,25.86,12.1,41.49-1.16.14-2,.27-2.85.34-19.44,1.74-33.49,20.66-29.55,39.78,3.65,17.71,20,29.49,37.48,26.95a33.57,33.57,0,0,0,28.84-36.08,30.44,30.44,0,0,0-9.51-20.58,6.76,6.76,0,0,0-5.92-1.21c-1.34.54-2.23,3.3-2.43,5.18-.12,1.12,1.35,2.52,2.3,3.63a23.85,23.85,0,0,1-26.7,37.9c-10.21-4.1-16.08-14.36-14.67-25.61C333.09,315.52,341.59,307.05,351.57,305.74Zm208.7,179.17c3.21,1.94,6.47,4,9.79,5.93,7.54,4.4,15.26,4.6,22.73.13,13.88-8.31,14.2-27.42.7-37q-57.9-41-115.85-81.94c-4.61-3.26-7.46-3.46-9.41-.65s-.89,5.37,3.78,8.67q57.83,40.8,115.63,81.6c6.18,4.37,7.78,11.61,4,17.31s-10.8,6.82-17.21,3c-3.65-2.16-7.25-4.41-10.87-6.61-5.82-3.55-7-3.29-10.81,2.39-2.21,3.25-4.54,3.87-8,2-2.07-1.14-4.06-2.43-6.09-3.67-5.28-3.22-5.68-4.77-2.63-10.21,2.27-4.06,1.75-6.3-2.19-8.75-5.72-3.56-11.48-7.05-17.23-10.56-6.48-3.95-7.31-3.77-11.67,2.42-2.26,3.22-4.16,3.71-7.64,1.81-2.08-1.14-4.07-2.44-6.1-3.67-5.67-3.45-6-4.59-2.7-10.44,2.32-4.15,1.83-6.09-2.28-8.66-3.91-2.45-7.86-4.85-11.79-7.26-8.18-5-8.18-5-14.19,2.44-2.4,3-4.52,3.34-7.79,1.3-1.8-1.13-3.53-2.36-5.29-3.54-6.06-4.07-6.26-5-2.41-11.37,2.06-3.4,1.57-5.77-1.71-7.94-1.66-1.1-3.4-2.09-5.1-3.13-6.69-4.07-6.61-4-12.74.62-18.21,13.61-38.69,18.8-60.79,13.62-30.82-7.23-50.11-27-56.91-57.92-6.45-29.33,6.23-59.07,31.17-76.09,1-.7,2.49-1.44,2.73-2.41.46-1.87.82-4.22.07-5.81-1.05-2.22-3.49-2.65-5.85-1.46a23.91,23.91,0,0,0-2.55,1.57c-28.32,18.9-42,53.09-35,87.38,7.32,35.71,38.68,63.23,75,66,20.91,1.59,39.73-3.89,56.74-16a11.67,11.67,0,0,1,3.23-1.06,10.58,10.58,0,0,1,.11,3.21c-1.86,6.52-.07,12.46,5.4,16.65,3,2.28,6,4.41,9.21,6.42,5.54,3.54,11.14,3.14,16.52-.36a36.9,36.9,0,0,0,4.5-4.11,76,76,0,0,1,7.28,4.55,4.2,4.2,0,0,1,1.32,3.45c-1.72,7.47.37,13.32,6.73,17.52,2.91,1.92,5.94,3.67,9,5.42,5.31,3.09,10.54,2.44,15.57-.66a36.07,36.07,0,0,0,4-3.36c2.26,1.38,4.39,2.67,6.5,4s4.4,2.76,6.53,4.1c-3,10-.84,15.38,7.91,20.74l3.84,2.33C546.79,492.47,551.74,492.09,560.27,484.91ZM391.14,550.45c-8.73,8.62-9.39,12.41-4.26,23.73.67,1.48,1.29,3,2,4.44,3.47,7.2,8.63,10,16.62,9.41a4.19,4.19,0,0,1,3.29,1.78c1.87,3.36,3.17,7.06,5.06,10.41a21.57,21.57,0,0,0,23.3,10.45c13.38-3.15,20.54-16.21,15.68-29.27q-26.2-70.47-52.64-140.84a10.88,10.88,0,0,0-1.07-2.38c-1.39-2.07-3.52-3.46-5.66-1.89-1.52,1.11-2.38,3.37-3.06,5.29-.3.83.57,2.1,1,3.14q12.76,34.17,25.56,68.31,13.17,35.21,26.34,70.41c2.87,7.67.48,14.32-6,17s-12.89-.24-16.29-7.64c-1.66-3.63-3.33-7.25-5-10.89-3-6.58-3.56-6.81-10.5-4.25-3.74,1.38-5.88.56-7.61-3-1.09-2.25-2.06-4.55-3.08-6.82-2.38-5.28-1.8-6.88,3.41-9.37,4.55-2.18,5.34-4.3,3.24-9-2.81-6.26-5.66-12.49-8.48-18.74s-4-6.59-10.35-3.91c-3.58,1.51-6,.69-7.71-2.79-.95-1.89-1.74-3.87-2.61-5.8-3.08-6.82-2.81-7.62,3.79-10.94,2.77-1.38,4.56-3.38,3.2-6.57-2.77-6.54-5.66-13-8.72-19.46-1.29-2.69-3.64-3.64-6.6-2.41-1.26.53-2.55,1-3.85,1.44-3.9,1.23-5.85.37-7.49-3.35-.91-2.06-1.7-4.16-2.52-6.25-2.41-6.13-1.69-7.79,4.4-10.2,3.9-1.55,4.89-3.75,3.3-7.66-1.08-2.66-2.41-5.21-3.47-7.88-1.41-3.55-3.8-4.74-7.64-4.34a70.48,70.48,0,0,1-34.1-5c-49.71-20.14-62.36-84.48-24.1-122.07,1.07-1.05,2.65-2,2.95-3.29.44-1.84.66-4.55-.37-5.68s-3.7-1.08-5.64-1c-.9,0-1.82,1.2-2.64,2C249.64,336.15,247.43,389.77,278,423c17.49,19,39.32,28,65.07,27.8,1.18,0,2.37.72,3.56,1.11a17,17,0,0,1-2.15,2.66,14.81,14.81,0,0,0-4.65,16.24,103.21,103.21,0,0,0,4.49,11.49c2.74,5.7,7.42,8.6,13.85,8.25,1.83-.09,3.64-.46,5.62-.72,1.52,3.46,3,6.83,4.52,10.24-6.55,4.36-9.08,10.16-6.85,17.33a66.1,66.1,0,0,0,5.68,12.58c3.13,5.53,8.18,7.81,14.52,7.15l3.29-.34Zm19.28-27.27c-.71-2.11-1.12-3.54-1.67-4.91Q398,491.57,387.28,464.9q-5.37-13.35-10.77-26.68c-1.19-3-3.25-4.44-6.46-3.41-2.88.93-3.76,3.63-2.51,7.13.13.35.24.71.38,1.05q16,39.67,32,79.33c.46,1.14.83,2.74,1.72,3.21,1.61.83,3.75,1.61,5.36,1.2C408.41,526.38,409.38,524.34,410.42,523.18Z"/><path class="cls-1" d="M108,17.91c53.67-.22,96.74,42.86,97.11,97.12.35,52.1-43.38,95.84-95.49,96.61-53.09.79-98.34-42-98.44-96.91C11.11,61.12,54,18.12,108,17.91ZM126.58,74.7c-7.85,0-15.07-.08-22.28.09-.94,0-2.14,1.18-2.74,2.12C93.17,90,85,103.34,76.46,116.36a32.54,32.54,0,0,0-5.31,20.85c.21,3,1.14,3.74,3.95,3.7,10.23-.13,20.47-.06,30.7,0,1.44,0,2.87.13,4.74.22v13.33h16V141.07l10.14-.46V126.79H126.58Z"/><path class="cls-2" d="M351.57,305.74c-10,1.31-18.48,9.78-19.71,19.63-1.41,11.25,4.46,21.51,14.67,25.61a23.85,23.85,0,0,0,26.7-37.9c-1-1.11-2.42-2.51-2.3-3.63.2-1.88,1.09-4.64,2.43-5.18a6.76,6.76,0,0,1,5.92,1.21,30.44,30.44,0,0,1,9.51,20.58A33.57,33.57,0,0,1,360,362.14c-17.45,2.54-33.83-9.24-37.48-26.95-3.94-19.12,10.11-38,29.55-39.78.85-.07,1.69-.2,2.85-.34,1.69-15.63-1.71-29.67-12.1-41.49-14-15.91-31.62-22.06-52.23-17-21,5.16-34.19,19-39,40.06-3.43,14.84-.22,28.74,8.49,41.28,1.7,2.44,2.83,4.85.52,7.42s-5.61,2.19-7.92-1a58.59,58.59,0,0,1-11.24-27c-3.42-25.72,5.32-46.58,26.66-61.38,28.74-19.94,68.1-11.64,87.07,17.82,3.32,5.17,3.32,5.17,9.27,4.09,47-8.56,90.3,21.59,98.46,68.77a81.07,81.07,0,0,1-7.33,50.65c-.59,1.2-1.17,2.42-1.84,3.82,1.34.93,2.45,1.71,3.57,2.46l64.37,43.17c.83.55,1.68,1.07,2.47,1.69,2.32,1.81,2.86,4.17,1.33,6.6s-4,2.79-6.55,1.44a24.1,24.1,0,0,1-2.21-1.39Q481.46,411.54,446.31,388c-5.08-3.4-5.37-4.76-2.24-10.07,25.89-43.8.06-101-49.9-110.6-10.38-2-24.09-1.49-31.73,1.23.23,1,.45,2.1.7,3.16,4.89,21.12.63,40.07-13.43,56.7-2.7,3.2-5.24,3.74-7.67,1.75s-2.21-4.52.18-7.9c3.63-5.14,7-10.45,10.5-15.68Z"/><path class="cls-2" d="M560.27,484.91c-8.53,7.18-13.48,7.56-22.79,1.9l-3.84-2.33c-8.75-5.36-10.86-10.76-7.91-20.74-2.13-1.34-4.32-2.73-6.53-4.1s-4.24-2.6-6.5-4a36.07,36.07,0,0,1-4,3.36c-5,3.1-10.26,3.75-15.57.66-3-1.75-6.05-3.5-9-5.42-6.36-4.2-8.45-10.05-6.73-17.52a4.2,4.2,0,0,0-1.32-3.45,76,76,0,0,0-7.28-4.55,36.9,36.9,0,0,1-4.5,4.11c-5.38,3.5-11,3.9-16.52.36-3.16-2-6.24-4.14-9.21-6.42-5.47-4.19-7.26-10.13-5.4-16.65a10.58,10.58,0,0,0-.11-3.21,11.67,11.67,0,0,0-3.23,1.06c-17,12.12-35.83,17.6-56.74,16-36.31-2.76-67.67-30.28-75-66-7-34.29,6.64-68.48,35-87.38a23.91,23.91,0,0,1,2.55-1.57c2.36-1.19,4.8-.76,5.85,1.46.75,1.59.39,3.94-.07,5.81-.24,1-1.71,1.71-2.73,2.41-24.94,17-37.62,46.76-31.17,76.09,6.8,30.89,26.09,50.69,56.91,57.92,22.1,5.18,42.58,0,60.79-13.62,6.13-4.58,6-4.69,12.74-.62,1.7,1,3.44,2,5.1,3.13,3.28,2.17,3.77,4.54,1.71,7.94-3.85,6.36-3.65,7.3,2.41,11.37,1.76,1.18,3.49,2.41,5.29,3.54,3.27,2,5.39,1.66,7.79-1.3,6-7.44,6-7.44,14.19-2.44,3.93,2.41,7.88,4.81,11.79,7.26,4.11,2.57,4.6,4.51,2.28,8.66-3.26,5.85-3,7,2.7,10.44,2,1.23,4,2.53,6.1,3.67,3.48,1.9,5.38,1.41,7.64-1.81,4.36-6.19,5.19-6.37,11.67-2.42,5.75,3.51,11.51,7,17.23,10.56,3.94,2.45,4.46,4.69,2.19,8.75-3,5.44-2.65,7,2.63,10.21,2,1.24,4,2.53,6.09,3.67,3.42,1.9,5.75,1.28,8-2,3.85-5.68,5-5.94,10.81-2.39,3.62,2.2,7.22,4.45,10.87,6.61,6.41,3.81,13.51,2.55,17.21-3s2.2-12.94-4-17.31Q529.85,420.85,472,380.07c-4.67-3.3-5.76-5.81-3.78-8.67s4.8-2.61,9.41.65Q535.57,413,593.49,454c13.5,9.56,13.18,28.67-.7,37-7.47,4.47-15.19,4.27-22.73-.13C566.74,488.9,563.48,486.85,560.27,484.91Z"/><path class="cls-2" d="M391.14,550.45,385,536.75l-3.29.34c-6.34.66-11.39-1.62-14.52-7.15a66.1,66.1,0,0,1-5.68-12.58c-2.23-7.17.3-13,6.85-17.33-1.51-3.41-3-6.78-4.52-10.24-2,.26-3.79.63-5.62.72-6.43.35-11.11-2.55-13.85-8.25a103.21,103.21,0,0,1-4.49-11.49,14.81,14.81,0,0,1,4.65-16.24,17,17,0,0,0,2.15-2.66c-1.19-.39-2.38-1.12-3.56-1.11-25.75.2-47.58-8.83-65.07-27.8-30.61-33.19-28.4-86.81,4.74-117.51.82-.76,1.74-1.94,2.64-2,1.94-.05,4.61-.12,5.64,1s.81,3.84.37,5.68c-.3,1.26-1.88,2.24-2.95,3.29-38.26,37.59-25.61,101.93,24.1,122.07a70.48,70.48,0,0,0,34.1,5c3.84-.4,6.23.79,7.64,4.34,1.06,2.67,2.39,5.22,3.47,7.88,1.59,3.91.6,6.11-3.3,7.66-6.09,2.41-6.81,4.07-4.4,10.2.82,2.09,1.61,4.19,2.52,6.25,1.64,3.72,3.59,4.58,7.49,3.35,1.3-.41,2.59-.91,3.85-1.44,3-1.23,5.31-.28,6.6,2.41,3.06,6.42,5.95,12.92,8.72,19.46,1.36,3.19-.43,5.19-3.2,6.57-6.6,3.32-6.87,4.12-3.79,10.94.87,1.93,1.66,3.91,2.61,5.8,1.76,3.48,4.13,4.3,7.71,2.79,6.34-2.68,7.59-2.2,10.35,3.91s5.67,12.48,8.48,18.74c2.1,4.69,1.31,6.81-3.24,9-5.21,2.49-5.79,4.09-3.41,9.37,1,2.27,2,4.57,3.08,6.82,1.73,3.59,3.87,4.41,7.61,3,6.94-2.56,7.51-2.33,10.5,4.25,1.65,3.64,3.32,7.26,5,10.89,3.4,7.4,9.7,10.35,16.29,7.64s8.88-9.32,6-17Q430.11,548.24,416.91,513q-12.78-34.15-25.56-68.31c-.39-1-1.26-2.31-1-3.14.68-1.92,1.54-4.18,3.06-5.29,2.14-1.57,4.27-.18,5.66,1.89a10.88,10.88,0,0,1,1.07,2.38Q426.52,511,452.82,581.4c4.86,13.06-2.3,26.12-15.68,29.27a21.57,21.57,0,0,1-23.3-10.45c-1.89-3.35-3.19-7.05-5.06-10.41a4.19,4.19,0,0,0-3.29-1.78c-8,.59-13.15-2.21-16.62-9.41-.7-1.46-1.32-3-2-4.44C381.75,562.86,382.41,559.07,391.14,550.45Z"/><path class="cls-2" d="M410.42,523.18c-1,1.16-2,3.2-3.4,3.55-1.61.41-3.75-.37-5.36-1.2-.89-.47-1.26-2.07-1.72-3.21q-16-39.66-32-79.33c-.14-.34-.25-.7-.38-1.05-1.25-3.5-.37-6.2,2.51-7.13,3.21-1,5.27.46,6.46,3.41q5.39,13.33,10.77,26.68,10.74,26.67,21.47,53.37C409.3,519.64,409.71,521.07,410.42,523.18Z"/><path class="cls-2" d="M126.58,74.7v52.09h10.14v13.82l-10.14.46v13.35h-16V141.09c-1.87-.09-3.3-.22-4.74-.22-10.23,0-20.47-.09-30.7,0-2.81,0-3.74-.65-3.95-3.7a32.54,32.54,0,0,1,5.31-20.85c8.56-13,16.71-26.32,25.1-39.45.6-.94,1.8-2.09,2.74-2.12C111.51,74.62,118.73,74.7,126.58,74.7ZM85.81,126.78h24.67V88.24l-.94-.38C101.77,100.61,94,113.36,85.81,126.78Z"/><path class="cls-1" d="M85.81,126.78c8.19-13.42,16-26.17,23.73-38.92l.94.38v38.54Z"/></svg>