<svg xmlns="http://www.w3.org/2000/svg" xmlns:xlink="http://www.w3.org/1999/xlink" width="1080" zoomAndPan="magnify" viewBox="0 0 810 809.999993" height="1080" preserveAspectRatio="xMidYMid meet" version="1.0"><defs><clipPath id="372767678c"><path d="M 32.941406 32.941406 L 129.058594 32.941406 L 129.058594 129.058594 L 32.941406 129.058594 Z M 32.941406 32.941406 " clip-rule="nonzero"/></clipPath><clipPath id="4e38b4e125"><path d="M 81 32.941406 C 54.457031 32.941406 32.941406 54.457031 32.941406 81 C 32.941406 107.542969 54.457031 129.058594 81 129.058594 C 107.542969 129.058594 129.058594 107.542969 129.058594 81 C 129.058594 54.457031 107.542969 32.941406 81 32.941406 Z M 81 32.941406 " clip-rule="nonzero"/></clipPath><clipPath id="488310650a"><path d="M 111.492188 111.492188 L 810 111.492188 L 810 810 L 111.492188 810 Z M 111.492188 111.492188 " clip-rule="nonzero"/></clipPath><clipPath id="492bf76ec4"><path d="M 460.746094 111.492188 C 267.859375 111.492188 111.492188 267.859375 111.492188 460.746094 C 111.492188 653.632812 267.859375 810 460.746094 810 C 653.632812 810 810 653.632812 810 460.746094 C 810 267.859375 653.632812 111.492188 460.746094 111.492188 Z M 460.746094 111.492188 " clip-rule="nonzero"/></clipPath><clipPath id="47649c673a"><path d="M 272.375 282.734375 L 648.875 282.734375 L 648.875 638.984375 L 272.375 638.984375 Z M 272.375 282.734375 " clip-rule="nonzero"/></clipPath><clipPath id="38ed8ddaf2"><path d="M 0 0 L 138.75 0 L 138.75 138.75 L 0 138.75 Z M 0 0 " clip-rule="nonzero"/></clipPath></defs><g clip-path="url(#372767678c)"><g clip-path="url(#4e38b4e125)"><path fill="#ffffff" d="M 32.941406 32.941406 L 129.058594 32.941406 L 129.058594 129.058594 L 32.941406 129.058594 Z M 32.941406 32.941406 " fill-opacity="1" fill-rule="nonzero"/></g></g><g clip-path="url(#488310650a)"><g clip-path="url(#492bf76ec4)"><path fill="#071c51" d="M 111.492188 111.492188 L 810 111.492188 L 810 810 L 111.492188 810 Z M 111.492188 111.492188 " fill-opacity="1" fill-rule="nonzero"/></g></g><path fill="#ffffff" d="M 418.042969 348.003906 L 495.675781 348.003906 C 499.085938 348.003906 501.855469 345.234375 501.855469 341.824219 C 501.855469 338.410156 499.085938 335.640625 495.675781 335.640625 L 418.042969 335.640625 C 414.632812 335.640625 411.863281 338.410156 411.863281 341.824219 C 411.863281 345.234375 414.632812 348.003906 418.042969 348.003906 Z M 418.042969 348.003906 " fill-opacity="1" fill-rule="nonzero"/><path fill="#ffffff" d="M 327.0625 439.308594 L 495.429688 439.308594 C 498.839844 439.308594 501.609375 436.539062 501.609375 433.125 C 501.609375 429.714844 498.839844 426.945312 495.429688 426.945312 L 327.0625 426.945312 C 323.652344 426.945312 320.882812 429.714844 320.882812 433.125 C 320.882812 436.539062 323.652344 439.308594 327.0625 439.308594 Z M 327.0625 439.308594 " fill-opacity="1" fill-rule="nonzero"/><g clip-path="url(#47649c673a)"><path fill="#ffffff" d="M 646.105469 385.089844 L 633.222656 374.289062 L 635.105469 372.046875 C 644.558594 360.761719 643.496094 343.839844 632.359375 334.214844 C 621.027344 324.414062 603.84375 325.828125 594.253906 337.269531 L 550.8125 389.089844 L 550.8125 321.03125 C 550.8125 299.882812 533.671875 282.734375 512.515625 282.734375 L 372.335938 282.734375 C 366.761719 282.734375 361.414062 284.914062 357.425781 288.8125 L 278.84375 365.660156 C 274.738281 369.671875 272.429688 375.171875 272.429688 380.90625 L 272.429688 600.457031 C 272.429688 621.605469 289.570312 638.753906 310.726562 638.753906 L 512.515625 638.753906 C 533.664062 638.753906 550.8125 621.613281 550.8125 600.457031 L 550.8125 472.605469 L 625.28125 383.765625 L 633.429688 390.59375 L 572.09375 463.761719 C 569.910156 466.371094 570.074219 470.320312 572.640625 472.550781 C 575.253906 474.824219 579.214844 474.503906 581.4375 471.859375 L 646.867188 393.796875 C 649.0625 391.179688 648.722656 387.285156 646.105469 385.089844 Z M 359.945312 303.640625 L 359.945312 355.480469 C 359.945312 364.71875 352.429688 372.234375 343.191406 372.234375 L 289.800781 372.234375 Z M 538.445312 600.453125 C 538.445312 614.753906 526.8125 626.386719 512.511719 626.386719 L 310.71875 626.386719 C 296.421875 626.386719 284.785156 614.753906 284.785156 600.453125 L 284.785156 384.59375 L 343.191406 384.59375 C 359.246094 384.59375 372.304688 371.535156 372.304688 355.480469 L 372.304688 295.097656 L 512.511719 295.097656 C 526.8125 295.097656 538.445312 306.730469 538.445312 321.03125 L 538.445312 403.839844 L 489.238281 462.546875 L 327.0625 462.546875 C 323.652344 462.546875 320.882812 465.316406 320.882812 468.726562 C 320.882812 472.140625 323.652344 474.910156 327.0625 474.910156 L 478.875 474.910156 L 456.5625 501.519531 L 327.0625 501.519531 C 323.652344 501.519531 320.882812 504.289062 320.882812 507.703125 C 320.882812 511.113281 323.652344 513.882812 327.0625 513.882812 L 446.214844 513.882812 C 439.519531 521.980469 434.667969 531.640625 432.1875 541.855469 L 425.832031 568.042969 L 371.5625 568.042969 C 368.152344 568.042969 365.382812 570.8125 365.382812 574.222656 C 365.382812 577.632812 368.152344 580.402344 371.5625 580.402344 L 429.910156 580.402344 C 430.300781 580.402344 430.683594 580.363281 431.054688 580.292969 C 431.78125 580.253906 432.507812 580.085938 433.195312 579.785156 L 462.226562 567.039062 C 471.984375 562.75 480.765625 556.164062 487.617188 547.996094 L 538.445312 487.355469 Z M 478.148438 540.050781 C 472.515625 546.769531 465.289062 552.1875 457.261719 555.714844 L 439.667969 563.4375 L 444.203125 544.765625 C 446.273438 536.242188 450.34375 528.1875 455.980469 521.460938 L 523.953125 440.371094 L 546.121094 458.953125 Z M 625.894531 363.792969 L 554.0625 449.484375 L 531.894531 430.902344 L 603.726562 345.207031 C 608.847656 339.09375 617.992188 338.289062 624.101562 343.410156 C 630.210938 348.539062 631.015625 357.679688 625.894531 363.792969 Z M 625.894531 363.792969 " fill-opacity="1" fill-rule="nonzero"/></g><g clip-path="url(#38ed8ddaf2)"><path fill="#071c51" d="M 69.429688 0 C 31.242188 0 0 31.242188 0 69.429688 C 0 107.613281 31.242188 138.855469 69.429688 138.855469 C 107.613281 138.855469 138.855469 107.613281 138.855469 69.429688 C 138.855469 31.242188 107.613281 0 69.429688 0 Z M 78.453125 101.363281 L 65.957031 101.363281 L 65.957031 52.070312 L 50.683594 56.929688 L 50.683594 46.515625 L 77.066406 36.796875 L 78.453125 36.796875 Z M 78.453125 101.363281 " fill-opacity="1" fill-rule="nonzero"/></g></svg>