<svg xmlns="http://www.w3.org/2000/svg" xmlns:xlink="http://www.w3.org/1999/xlink" width="1080" zoomAndPan="magnify" viewBox="0 0 810 809.999993" height="1080" preserveAspectRatio="xMidYMid meet" version="1.0"><defs><clipPath id="929867fb8d"><path d="M 0 0 L 138.859375 0 L 138.859375 138.859375 L 0 138.859375 Z M 0 0 " clip-rule="nonzero"/></clipPath><clipPath id="41e4070c73"><path d="M 69.429688 0 C 31.085938 0 0 31.085938 0 69.429688 C 0 107.773438 31.085938 138.859375 69.429688 138.859375 C 107.773438 138.859375 138.859375 107.773438 138.859375 69.429688 C 138.859375 31.085938 107.773438 0 69.429688 0 Z M 69.429688 0 " clip-rule="nonzero"/></clipPath><clipPath id="97db0e77e7"><path d="M 111.492188 111.492188 L 810 111.492188 L 810 810 L 111.492188 810 Z M 111.492188 111.492188 " clip-rule="nonzero"/></clipPath><clipPath id="d938f42fb0"><path d="M 460.746094 111.492188 C 267.859375 111.492188 111.492188 267.859375 111.492188 460.746094 C 111.492188 653.632812 267.859375 810 460.746094 810 C 653.632812 810 810 653.632812 810 460.746094 C 810 267.859375 653.632812 111.492188 460.746094 111.492188 Z M 460.746094 111.492188 " clip-rule="nonzero"/></clipPath><clipPath id="7274598874"><path d="M 206 193.183594 L 715.25 193.183594 L 715.25 685.183594 L 206 685.183594 Z M 206 193.183594 " clip-rule="nonzero"/></clipPath><clipPath id="2188bbaa8e"><path d="M 0 0 L 138.75 0 L 138.75 138.75 L 0 138.75 Z M 0 0 " clip-rule="nonzero"/></clipPath></defs><g clip-path="url(#929867fb8d)"><g clip-path="url(#41e4070c73)"><path fill="#ffffff" d="M 0 0 L 138.859375 0 L 138.859375 138.859375 L 0 138.859375 Z M 0 0 " fill-opacity="1" fill-rule="nonzero"/></g></g><g clip-path="url(#97db0e77e7)"><g clip-path="url(#d938f42fb0)"><path fill="#071c51" d="M 111.492188 111.492188 L 810 111.492188 L 810 810 L 111.492188 810 Z M 111.492188 111.492188 " fill-opacity="1" fill-rule="nonzero"/></g></g><g clip-path="url(#7274598874)"><path fill="#ffffff" d="M 715.417969 642.726562 C 715.417969 647.246094 711.75 650.914062 707.230469 650.914062 C 702.378906 650.914062 698.226562 652.289062 694.46875 654.578125 C 690.292969 657.125 686.382812 660.882812 682.527344 665.226562 C 678.054688 670.242188 673.015625 675.015625 667.117188 678.660156 C 660.816406 682.554688 653.722656 685.039062 645.609375 685.039062 C 637.511719 685.039062 630.597656 682.746094 624.347656 678.925781 C 618.527344 675.375 613.484375 670.585938 608.695312 665.210938 C 605.09375 661.164062 601.171875 657.40625 596.929688 654.785156 C 593.097656 652.414062 588.820312 650.898438 583.992188 650.898438 C 579.140625 650.898438 574.992188 652.289062 571.234375 654.578125 C 567.058594 657.125 563.148438 660.882812 559.289062 665.210938 C 554.820312 670.230469 549.777344 675.003906 543.882812 678.644531 C 537.582031 682.542969 530.488281 685.023438 522.375 685.023438 C 514.277344 685.023438 507.363281 682.71875 501.113281 678.914062 C 495.292969 675.359375 490.25 670.574219 485.460938 665.199219 C 481.859375 661.148438 477.949219 657.394531 473.695312 654.769531 C 469.863281 652.402344 465.585938 650.886719 460.757812 650.886719 C 455.921875 650.886719 451.757812 652.273438 448 654.566406 C 443.773438 657.152344 439.875 660.894531 436.03125 665.1875 C 431.574219 670.214844 426.542969 675.003906 420.648438 678.644531 C 414.34375 682.542969 407.242188 685.027344 399.128906 685.027344 C 391.03125 685.027344 384.117188 682.734375 377.863281 678.914062 C 372.046875 675.359375 367.003906 670.574219 362.214844 665.199219 C 358.609375 661.148438 354.6875 657.394531 350.449219 654.769531 C 346.617188 652.402344 342.335938 650.886719 337.511719 650.886719 C 332.671875 650.886719 328.507812 652.273438 324.753906 654.566406 C 320.523438 657.152344 316.628906 660.894531 312.785156 665.1875 C 308.339844 670.214844 303.296875 675.003906 297.402344 678.644531 C 291.097656 682.542969 283.992188 685.027344 275.882812 685.027344 C 267.785156 685.027344 260.867188 682.722656 254.617188 678.914062 C 248.785156 675.359375 243.753906 670.574219 238.96875 665.199219 C 235.363281 661.148438 231.453125 657.394531 227.203125 654.769531 C 223.367188 652.402344 219.089844 650.886719 214.265625 650.886719 C 209.742188 650.886719 206.078125 647.21875 206.078125 642.699219 C 206.078125 638.179688 209.742188 634.511719 214.265625 634.511719 C 222.375 634.511719 229.46875 636.996094 235.769531 640.890625 C 241.667969 644.53125 246.695312 649.308594 251.179688 654.324219 C 255.050781 658.65625 258.945312 662.421875 263.121094 664.96875 C 266.878906 667.261719 271.03125 668.648438 275.882812 668.648438 C 280.707031 668.648438 284.984375 667.136719 288.820312 664.765625 C 293.058594 662.144531 296.980469 658.386719 300.585938 654.339844 L 300.621094 654.339844 C 305.4375 648.9375 310.480469 644.152344 316.246094 640.636719 C 322.484375 636.828125 329.414062 634.523438 337.511719 634.523438 C 345.625 634.523438 352.714844 637.007812 359.019531 640.902344 C 364.914062 644.546875 369.957031 649.320312 374.425781 654.339844 C 378.285156 658.667969 382.195312 662.4375 386.371094 664.984375 C 390.125 667.273438 394.277344 668.664062 399.128906 668.664062 C 403.957031 668.664062 408.234375 667.148438 412.078125 664.78125 C 416.320312 662.15625 420.230469 658.398438 423.84375 654.351562 L 423.882812 654.351562 C 428.695312 648.953125 433.738281 644.164062 439.507812 640.648438 C 445.746094 636.84375 452.671875 634.539062 460.773438 634.539062 C 468.882812 634.539062 475.976562 637.019531 482.277344 640.917969 C 488.175781 644.558594 493.203125 649.332031 497.6875 654.351562 C 501.558594 658.679688 505.464844 662.449219 509.628906 664.996094 C 513.386719 667.289062 517.539062 668.675781 522.390625 668.675781 C 527.214844 668.675781 531.480469 667.160156 535.328125 664.792969 C 539.566406 662.167969 543.488281 658.414062 547.09375 654.363281 C 551.878906 648.988281 556.910156 644.214844 562.742188 640.664062 C 568.980469 636.855469 575.90625 634.550781 584.007812 634.550781 C 592.117188 634.550781 599.210938 637.03125 605.511719 640.929688 C 611.410156 644.570312 616.453125 649.347656 620.921875 654.363281 C 624.78125 658.691406 628.6875 662.460938 632.863281 665.007812 C 636.621094 667.300781 640.773438 668.6875 645.625 668.6875 C 650.449219 668.6875 654.726562 667.171875 658.5625 664.804688 C 662.800781 662.183594 666.722656 658.425781 670.328125 654.375 C 675.113281 649.003906 680.15625 644.214844 685.976562 640.664062 C 692.214844 636.855469 699.15625 634.550781 707.242188 634.550781 C 711.75 634.535156 715.417969 638.203125 715.417969 642.726562 Z M 206.078125 556.8125 C 206.078125 552.292969 209.742188 548.625 214.265625 548.625 C 222.375 548.625 229.46875 551.105469 235.769531 555.003906 C 241.667969 558.644531 246.695312 563.421875 251.179688 568.4375 C 255.050781 572.765625 258.960938 576.535156 263.121094 579.082031 C 266.878906 581.375 271.03125 582.761719 275.882812 582.761719 C 280.707031 582.761719 284.984375 581.246094 288.820312 578.878906 C 291.835938 577.019531 294.675781 574.574219 297.363281 571.863281 L 240.863281 408.402344 C 239.4375 404.238281 241.566406 399.71875 245.628906 398.152344 L 303.449219 375.765625 L 303.449219 300.128906 C 303.449219 295.609375 307.117188 291.941406 311.636719 291.941406 L 334.035156 291.941406 L 334.035156 262.210938 C 334.035156 257.691406 337.703125 254.023438 342.222656 254.023438 L 431.652344 254.023438 L 431.652344 201.371094 C 431.652344 196.847656 435.316406 193.183594 439.839844 193.183594 L 481.640625 193.183594 C 486.164062 193.183594 489.828125 196.847656 489.828125 201.371094 L 489.828125 254.023438 L 579.257812 254.023438 C 583.777344 254.023438 587.445312 257.691406 587.445312 262.210938 L 587.445312 291.941406 L 609.84375 291.941406 C 614.363281 291.941406 618.03125 295.609375 618.03125 300.128906 L 618.03125 375.15625 L 677.902344 398.101562 C 682.117188 399.707031 684.246094 404.429688 682.628906 408.65625 L 625.671875 573.402344 C 628 575.632812 630.382812 577.582031 632.851562 579.082031 C 636.609375 581.375 640.761719 582.761719 645.609375 582.761719 C 650.4375 582.761719 654.714844 581.246094 658.546875 578.878906 C 662.789062 576.257812 666.710938 572.5 670.3125 568.449219 C 675.101562 563.078125 680.144531 558.300781 685.964844 554.738281 C 692.203125 550.929688 699.128906 548.625 707.230469 548.625 C 711.75 548.625 715.417969 552.292969 715.417969 556.8125 C 715.417969 561.332031 711.75 565 707.230469 565 C 702.378906 565 698.226562 566.386719 694.46875 568.679688 C 690.292969 571.226562 686.382812 574.996094 682.527344 579.324219 C 678.054688 584.339844 673.015625 589.117188 667.117188 592.757812 C 660.816406 596.65625 653.722656 599.136719 645.609375 599.136719 C 637.511719 599.136719 630.597656 596.832031 624.347656 593.027344 C 618.527344 589.472656 613.484375 584.699219 608.695312 579.3125 C 605.09375 575.261719 601.171875 571.507812 596.929688 568.882812 C 593.085938 566.515625 588.820312 565 583.992188 565 C 579.15625 565 574.992188 566.386719 571.234375 568.679688 C 567.058594 571.226562 563.148438 574.996094 559.289062 579.324219 C 554.820312 584.339844 549.777344 589.117188 543.882812 592.757812 C 537.582031 596.65625 530.488281 599.136719 522.375 599.136719 C 514.277344 599.136719 507.363281 596.832031 501.113281 593.027344 C 495.292969 589.472656 490.25 584.699219 485.460938 579.3125 C 481.859375 575.261719 477.949219 571.507812 473.695312 568.882812 C 470.410156 566.847656 466.796875 565.457031 462.796875 565.101562 C 462.148438 565.265625 461.460938 565.367188 460.757812 565.367188 C 460.046875 565.367188 459.359375 565.265625 458.695312 565.101562 C 454.722656 565.433594 451.210938 566.71875 448 568.679688 C 443.773438 571.25 439.875 575.007812 436.03125 579.300781 C 431.574219 584.328125 426.542969 589.117188 420.648438 592.746094 C 414.347656 596.640625 407.242188 599.125 399.128906 599.125 C 391.03125 599.125 384.117188 596.820312 377.863281 593.011719 C 372.046875 589.460938 367.003906 584.6875 362.214844 579.300781 C 358.609375 575.25 354.6875 571.492188 350.449219 568.871094 C 346.605469 566.503906 342.335938 564.988281 337.511719 564.988281 C 332.671875 564.988281 328.507812 566.375 324.753906 568.667969 C 320.527344 571.238281 316.628906 574.996094 312.785156 579.285156 C 312.769531 579.300781 312.769531 579.300781 312.757812 579.3125 C 312.71875 579.351562 312.695312 579.386719 312.65625 579.425781 C 308.238281 584.40625 303.246094 589.128906 297.402344 592.734375 C 291.097656 596.628906 283.992188 599.113281 275.882812 599.113281 C 267.785156 599.113281 260.867188 596.808594 254.617188 593 C 248.796875 589.449219 243.753906 584.671875 238.96875 579.285156 C 235.363281 575.238281 231.453125 571.480469 227.203125 568.859375 C 223.355469 566.488281 219.089844 564.972656 214.265625 564.972656 C 209.742188 565 206.078125 561.332031 206.078125 556.8125 Z M 664.710938 410.554688 L 607.246094 388.527344 C 607.015625 388.449219 606.785156 388.359375 606.570312 388.269531 L 468.945312 335.503906 L 468.945312 549.515625 C 473.761719 550.558594 478.179688 552.484375 482.265625 555.003906 C 488.160156 558.644531 493.191406 563.421875 497.671875 568.4375 C 501.53125 572.765625 505.453125 576.535156 509.617188 579.082031 C 513.375 581.375 517.523438 582.761719 522.375 582.761719 C 527.203125 582.761719 531.46875 581.246094 535.3125 578.878906 C 539.554688 576.257812 543.476562 572.5 547.078125 568.449219 C 551.867188 563.078125 556.898438 558.300781 562.730469 554.738281 C 568.96875 550.929688 575.894531 548.625 583.992188 548.625 C 592.105469 548.625 599.199219 551.105469 605.5 555.003906 C 608.125 556.621094 610.582031 558.480469 612.886719 560.480469 Z M 448.027344 254.023438 L 473.46875 254.023438 L 473.46875 209.558594 L 448.027344 209.558594 Z M 350.410156 291.941406 L 571.082031 291.941406 L 571.082031 270.398438 L 350.421875 270.398438 L 350.421875 291.941406 Z M 319.835938 369.414062 L 457.28125 316.199219 C 458.328125 315.703125 459.511719 315.421875 460.746094 315.421875 C 461.980469 315.421875 463.152344 315.703125 464.199219 316.199219 L 601.65625 368.890625 L 601.65625 308.316406 L 319.835938 308.316406 Z M 258.84375 410.515625 L 310.199219 559.066406 C 312.132812 557.472656 314.132812 556.023438 316.246094 554.734375 C 322.488281 550.929688 329.414062 548.625 337.511719 548.625 C 345.625 548.625 352.714844 551.105469 359.019531 555.003906 C 364.914062 558.644531 369.957031 563.421875 374.425781 568.4375 C 378.285156 572.765625 382.207031 576.535156 386.371094 579.082031 C 390.125 581.375 394.277344 582.761719 399.128906 582.761719 C 403.957031 582.761719 408.234375 581.246094 412.078125 578.878906 C 416.320312 576.257812 420.242188 572.5 423.84375 568.449219 L 423.882812 568.449219 C 428.695312 563.050781 433.738281 558.261719 439.507812 554.738281 C 443.53125 552.277344 447.859375 550.457031 452.585938 549.464844 L 452.585938 335.53125 L 315.125 388.730469 C 314.757812 388.90625 314.386719 389.046875 313.992188 389.175781 Z M 529.253906 393.046875 C 524.730469 393.046875 521.066406 396.714844 521.066406 401.234375 L 521.066406 401.769531 C 521.066406 406.289062 524.730469 409.957031 529.253906 409.957031 C 533.773438 409.957031 537.441406 406.289062 537.441406 401.769531 L 537.441406 401.234375 C 537.441406 396.714844 533.773438 393.046875 529.253906 393.046875 Z M 563.339844 405.894531 C 558.820312 405.894531 555.152344 409.5625 555.152344 414.082031 L 555.152344 414.617188 C 555.152344 419.136719 558.820312 422.804688 563.339844 422.804688 C 567.859375 422.804688 571.527344 419.136719 571.527344 414.617188 L 571.527344 414.082031 C 571.527344 409.5625 567.859375 405.894531 563.339844 405.894531 Z M 597.429688 419.289062 C 592.90625 419.289062 589.238281 422.957031 589.238281 427.476562 L 589.238281 428.011719 C 589.238281 432.53125 592.90625 436.199219 597.429688 436.199219 C 601.949219 436.199219 605.617188 432.53125 605.617188 428.011719 L 605.617188 427.476562 C 605.617188 422.957031 601.949219 419.289062 597.429688 419.289062 Z M 392.242188 409.957031 C 396.761719 409.957031 400.429688 406.289062 400.429688 401.769531 L 400.429688 401.234375 C 400.429688 396.714844 396.761719 393.046875 392.242188 393.046875 C 387.71875 393.046875 384.054688 396.714844 384.054688 401.234375 L 384.054688 401.769531 C 384.054688 406.289062 387.71875 409.957031 392.242188 409.957031 Z M 358.152344 422.804688 C 362.671875 422.804688 366.339844 419.136719 366.339844 414.617188 L 366.339844 414.082031 C 366.339844 409.5625 362.671875 405.894531 358.152344 405.894531 C 353.632812 405.894531 349.964844 409.5625 349.964844 414.082031 L 349.964844 414.617188 C 349.964844 419.136719 353.632812 422.804688 358.152344 422.804688 Z M 324.066406 436.1875 C 328.585938 436.1875 332.253906 432.519531 332.253906 428 L 332.253906 427.476562 C 332.253906 422.957031 328.585938 419.289062 324.066406 419.289062 C 319.546875 419.289062 315.878906 422.957031 315.878906 427.476562 L 315.878906 428.011719 C 315.878906 432.519531 319.546875 436.1875 324.066406 436.1875 Z M 324.066406 436.1875 " fill-opacity="1" fill-rule="nonzero"/></g><g clip-path="url(#2188bbaa8e)"><path fill="#071c51" d="M 69.425781 0 C 31.085938 0 0 31.085938 0 69.429688 C 0 107.769531 31.085938 138.855469 69.425781 138.855469 C 107.769531 138.855469 138.855469 107.769531 138.855469 69.429688 C 138.855469 31.085938 107.769531 0 69.425781 0 Z M 97.808594 101.214844 L 41.175781 101.214844 C 41.945312 95.976562 43.898438 90.96875 47.007812 86.320312 C 50.339844 81.332031 56.707031 75.332031 65.945312 68.492188 C 71.796875 64.140625 75.453125 60.910156 77.128906 58.605469 C 78.84375 56.246094 79.703125 53.949219 79.703125 51.773438 C 79.703125 49.378906 78.804688 47.304688 77.046875 45.609375 C 75.289062 43.925781 73.066406 43.074219 70.4375 43.074219 C 67.808594 43.074219 65.429688 43.953125 63.667969 45.691406 C 62.039062 47.304688 60.949219 49.914062 60.347656 53.652344 L 42.628906 52.21875 C 43.398438 47.339844 44.722656 43.472656 46.5625 40.695312 C 48.496094 37.769531 51.273438 35.5 54.820312 33.925781 C 58.410156 32.34375 63.484375 31.539062 69.917969 31.539062 C 76.351562 31.539062 81.914062 32.308594 85.609375 33.816406 C 89.238281 35.304688 92.136719 37.621094 94.207031 40.695312 C 96.28125 43.765625 97.335938 47.265625 97.335938 51.089844 C 97.335938 55.171875 96.125 59.132812 93.71875 62.863281 C 91.285156 66.652344 86.757812 70.890625 80.269531 75.464844 C 76.34375 78.175781 73.667969 80.109375 72.324219 81.210938 C 70.984375 82.304688 69.390625 83.765625 67.585938 85.535156 L 65.976562 87.117188 L 97.820312 87.117188 L 97.820312 101.1875 Z M 97.808594 101.214844 " fill-opacity="1" fill-rule="nonzero"/></g></svg>