<svg xmlns="http://www.w3.org/2000/svg" xmlns:xlink="http://www.w3.org/1999/xlink" width="1080" zoomAndPan="magnify" viewBox="0 0 810 809.999993" height="1080" preserveAspectRatio="xMidYMid meet" version="1.0"><defs><clipPath id="8b37813a56"><path d="M 0 1.269531 L 137.589844 1.269531 L 137.589844 138.859375 L 0 138.859375 Z M 0 1.269531 " clip-rule="nonzero"/></clipPath><clipPath id="0de03348e7"><path d="M 68.792969 1.269531 C 30.800781 1.269531 0 32.070312 0 70.066406 C 0 108.058594 30.800781 138.859375 68.792969 138.859375 C 106.789062 138.859375 137.589844 108.058594 137.589844 70.066406 C 137.589844 32.070312 106.789062 1.269531 68.792969 1.269531 Z M 68.792969 1.269531 " clip-rule="nonzero"/></clipPath><clipPath id="3fba7b6ef0"><path d="M 111.492188 111.492188 L 810 111.492188 L 810 810 L 111.492188 810 Z M 111.492188 111.492188 " clip-rule="nonzero"/></clipPath><clipPath id="9bb0efb3c7"><path d="M 460.746094 111.492188 C 267.859375 111.492188 111.492188 267.859375 111.492188 460.746094 C 111.492188 653.632812 267.859375 810 460.746094 810 C 653.632812 810 810 653.632812 810 460.746094 C 810 267.859375 653.632812 111.492188 460.746094 111.492188 Z M 460.746094 111.492188 " clip-rule="nonzero"/></clipPath><clipPath id="89c1223169"><path d="M 242.285156 244.269531 L 534 244.269531 L 534 536 L 242.285156 536 Z M 242.285156 244.269531 " clip-rule="nonzero"/></clipPath><clipPath id="dfe026695b"><path d="M 532 530 L 678 530 L 678 677.019531 L 532 677.019531 Z M 532 530 " clip-rule="nonzero"/></clipPath><clipPath id="67e78104f6"><path d="M 0 0 L 138.75 0 L 138.75 138.75 L 0 138.75 Z M 0 0 " clip-rule="nonzero"/></clipPath></defs><g clip-path="url(#8b37813a56)"><g clip-path="url(#0de03348e7)"><path fill="#ffffff" d="M 0 1.269531 L 137.589844 1.269531 L 137.589844 138.859375 L 0 138.859375 Z M 0 1.269531 " fill-opacity="1" fill-rule="nonzero"/></g></g><g clip-path="url(#3fba7b6ef0)"><g clip-path="url(#9bb0efb3c7)"><path fill="#071c51" d="M 111.492188 111.492188 L 810 111.492188 L 810 810 L 111.492188 810 Z M 111.492188 111.492188 " fill-opacity="1" fill-rule="nonzero"/></g></g><g clip-path="url(#89c1223169)"><path fill="#ffffff" d="M 388.109375 535.632812 C 307.78125 535.632812 242.421875 470.28125 242.421875 389.941406 C 242.421875 309.601562 307.769531 244.25 388.109375 244.25 C 468.453125 244.25 533.800781 309.601562 533.800781 389.941406 C 533.800781 470.28125 468.441406 535.632812 388.109375 535.632812 Z M 388.109375 268.214844 C 386.117188 268.214844 384.128906 268.261719 382.136719 268.359375 C 380.148438 268.457031 378.164062 268.605469 376.179688 268.800781 C 374.195312 268.996094 372.21875 269.238281 370.25 269.53125 C 368.28125 269.824219 366.316406 270.164062 364.363281 270.550781 C 362.410156 270.941406 360.464844 271.378906 358.535156 271.863281 C 356.601562 272.34375 354.683594 272.875 352.777344 273.457031 C 350.867188 274.035156 348.976562 274.65625 347.101562 275.328125 C 345.226562 276 343.367188 276.71875 341.527344 277.480469 C 339.6875 278.242188 337.867188 279.050781 336.066406 279.902344 C 334.265625 280.753906 332.484375 281.648438 330.730469 282.585938 C 328.972656 283.527344 327.238281 284.507812 325.53125 285.53125 C 323.820312 286.554688 322.140625 287.621094 320.484375 288.726562 C 318.828125 289.835938 317.199219 290.980469 315.597656 292.167969 C 313.996094 293.355469 312.429688 294.582031 310.886719 295.84375 C 309.347656 297.109375 307.839844 298.410156 306.363281 299.746094 C 304.886719 301.085938 303.445312 302.457031 302.035156 303.867188 C 300.628906 305.277344 299.253906 306.71875 297.917969 308.195312 C 296.578125 309.671875 295.277344 311.179688 294.015625 312.71875 C 292.75 314.257812 291.523438 315.828125 290.339844 317.429688 C 289.152344 319.027344 288.003906 320.65625 286.898438 322.3125 C 285.792969 323.96875 284.726562 325.652344 283.703125 327.359375 C 282.675781 329.070312 281.695312 330.800781 280.757812 332.558594 C 279.816406 334.316406 278.921875 336.09375 278.070312 337.894531 C 277.21875 339.695312 276.410156 341.519531 275.648438 343.359375 C 274.886719 345.199219 274.171875 347.058594 273.5 348.933594 C 272.828125 350.808594 272.203125 352.699219 271.625 354.605469 C 271.046875 356.511719 270.515625 358.433594 270.03125 360.363281 C 269.546875 362.296875 269.109375 364.238281 268.722656 366.195312 C 268.332031 368.148438 267.992188 370.109375 267.699219 372.082031 C 267.410156 374.050781 267.164062 376.027344 266.96875 378.011719 C 266.773438 379.992188 266.628906 381.980469 266.53125 383.96875 C 266.433594 385.957031 266.382812 387.949219 266.382812 389.941406 C 266.382812 391.933594 266.433594 393.925781 266.53125 395.914062 C 266.628906 397.90625 266.773438 399.890625 266.96875 401.875 C 267.164062 403.855469 267.410156 405.832031 267.699219 407.804688 C 267.992188 409.773438 268.332031 411.734375 268.722656 413.691406 C 269.109375 415.644531 269.546875 417.585938 270.03125 419.519531 C 270.515625 421.453125 271.046875 423.371094 271.625 425.277344 C 272.203125 427.183594 272.828125 429.074219 273.5 430.949219 C 274.171875 432.828125 274.886719 434.683594 275.648438 436.523438 C 276.410156 438.367188 277.21875 440.1875 278.070312 441.988281 C 278.921875 443.789062 279.816406 445.566406 280.757812 447.324219 C 281.695312 449.082031 282.675781 450.8125 283.703125 452.523438 C 284.726562 454.230469 285.792969 455.914062 286.898438 457.570312 C 288.003906 459.226562 289.152344 460.855469 290.339844 462.453125 C 291.523438 464.054688 292.75 465.625 294.015625 467.164062 C 295.277344 468.703125 296.578125 470.214844 297.917969 471.6875 C 299.253906 473.164062 300.628906 474.609375 302.035156 476.015625 C 303.445312 477.425781 304.886719 478.796875 306.363281 480.136719 C 307.839844 481.472656 309.347656 482.773438 310.886719 484.039062 C 312.429688 485.300781 313.996094 486.527344 315.597656 487.714844 C 317.199219 488.902344 318.828125 490.046875 320.484375 491.15625 C 322.140625 492.261719 323.820312 493.328125 325.53125 494.351562 C 327.238281 495.375 328.972656 496.355469 330.730469 497.296875 C 332.484375 498.234375 334.265625 499.128906 336.066406 499.980469 C 337.867188 500.835938 339.6875 501.640625 341.527344 502.402344 C 343.367188 503.164062 345.226562 503.882812 347.101562 504.554688 C 348.976562 505.226562 350.867188 505.851562 352.777344 506.429688 C 354.683594 507.007812 356.601562 507.539062 358.535156 508.023438 C 360.464844 508.503906 362.410156 508.941406 364.363281 509.332031 C 366.316406 509.71875 368.28125 510.058594 370.25 510.351562 C 372.21875 510.644531 374.195312 510.886719 376.179688 511.082031 C 378.164062 511.277344 380.148438 511.425781 382.136719 511.523438 C 384.128906 511.621094 386.117188 511.667969 388.109375 511.667969 C 390.101562 511.667969 392.09375 511.621094 394.085938 511.523438 C 396.074219 511.425781 398.058594 511.277344 400.042969 511.082031 C 402.023438 510.886719 404 510.644531 405.972656 510.351562 C 407.941406 510.058594 409.90625 509.71875 411.859375 509.332031 C 413.8125 508.941406 415.757812 508.503906 417.6875 508.023438 C 419.621094 507.539062 421.539062 507.007812 423.445312 506.429688 C 425.351562 505.851562 427.246094 505.226562 429.121094 504.554688 C 430.996094 503.882812 432.855469 503.164062 434.695312 502.402344 C 436.535156 501.640625 438.355469 500.835938 440.15625 499.980469 C 441.957031 499.128906 443.738281 498.234375 445.492188 497.296875 C 447.25 496.355469 448.984375 495.375 450.691406 494.351562 C 452.402344 493.328125 454.082031 492.261719 455.738281 491.15625 C 457.394531 490.046875 459.023438 488.902344 460.625 487.714844 C 462.226562 486.527344 463.792969 485.300781 465.335938 484.039062 C 466.875 482.773438 468.382812 481.472656 469.859375 480.136719 C 471.335938 478.796875 472.777344 477.425781 474.1875 476.015625 C 475.59375 474.609375 476.96875 473.164062 478.304688 471.6875 C 479.644531 470.214844 480.945312 468.703125 482.207031 467.164062 C 483.472656 465.625 484.699219 464.054688 485.882812 462.453125 C 487.070312 460.855469 488.21875 459.226562 489.324219 457.570312 C 490.429688 455.914062 491.496094 454.230469 492.519531 452.523438 C 493.546875 450.8125 494.527344 449.082031 495.464844 447.324219 C 496.40625 445.566406 497.300781 443.789062 498.152344 441.988281 C 499.003906 440.1875 499.8125 438.367188 500.574219 436.523438 C 501.335938 434.683594 502.050781 432.828125 502.722656 430.949219 C 503.394531 429.074219 504.019531 427.183594 504.597656 425.277344 C 505.175781 423.371094 505.707031 421.453125 506.191406 419.519531 C 506.675781 417.585938 507.113281 415.644531 507.5 413.691406 C 507.890625 411.734375 508.230469 409.773438 508.523438 407.804688 C 508.8125 405.832031 509.058594 403.855469 509.253906 401.871094 C 509.449219 399.890625 509.59375 397.90625 509.691406 395.914062 C 509.789062 393.925781 509.839844 391.933594 509.839844 389.941406 C 509.835938 387.949219 509.785156 385.960938 509.683594 383.972656 C 509.585938 381.980469 509.4375 379.996094 509.238281 378.015625 C 509.042969 376.035156 508.796875 374.058594 508.5 372.089844 C 508.207031 370.121094 507.863281 368.160156 507.476562 366.207031 C 507.085938 364.253906 506.648438 362.3125 506.160156 360.378906 C 505.675781 358.449219 505.144531 356.53125 504.5625 354.625 C 503.984375 352.71875 503.359375 350.828125 502.683594 348.957031 C 502.011719 347.082031 501.296875 345.222656 500.53125 343.386719 C 499.769531 341.546875 498.960938 339.726562 498.109375 337.925781 C 497.253906 336.125 496.359375 334.347656 495.421875 332.59375 C 494.480469 330.835938 493.5 329.105469 492.472656 327.398438 C 491.449219 325.691406 490.382812 324.007812 489.277344 322.355469 C 488.167969 320.699219 487.023438 319.070312 485.835938 317.472656 C 484.648438 315.875 483.425781 314.304688 482.160156 312.765625 C 480.898438 311.226562 479.597656 309.71875 478.257812 308.242188 C 476.921875 306.769531 475.546875 305.328125 474.140625 303.917969 C 472.730469 302.511719 471.289062 301.136719 469.8125 299.800781 C 468.339844 298.464844 466.832031 297.164062 465.292969 295.898438 C 463.753906 294.636719 462.183594 293.410156 460.585938 292.222656 C 458.984375 291.039062 457.359375 289.890625 455.703125 288.785156 C 454.046875 287.679688 452.363281 286.613281 450.65625 285.589844 C 448.949219 284.5625 447.21875 283.582031 445.460938 282.644531 C 443.707031 281.703125 441.929688 280.808594 440.128906 279.957031 C 438.328125 279.101562 436.507812 278.296875 434.667969 277.53125 C 432.828125 276.769531 430.972656 276.050781 429.097656 275.378906 C 427.222656 274.707031 425.332031 274.082031 423.429688 273.503906 C 421.523438 272.925781 419.605469 272.390625 417.671875 271.90625 C 415.742188 271.421875 413.800781 270.984375 411.847656 270.59375 C 409.894531 270.203125 407.933594 269.863281 405.964844 269.566406 C 403.996094 269.273438 402.019531 269.027344 400.039062 268.832031 C 398.054688 268.632812 396.070312 268.484375 394.082031 268.386719 C 392.09375 268.285156 390.101562 268.234375 388.109375 268.234375 Z M 388.109375 268.214844 " fill-opacity="1" fill-rule="nonzero"/></g><path fill="#ffffff" d="M 493.316406 551.378906 C 491.988281 551.378906 490.695312 551.1875 489.425781 550.804688 C 488.15625 550.421875 486.972656 549.859375 485.871094 549.125 C 484.769531 548.390625 483.796875 547.511719 482.953125 546.488281 C 482.113281 545.46875 481.4375 544.34375 480.925781 543.121094 C 480.417969 541.898438 480.097656 540.628906 479.964844 539.308594 C 479.828125 537.992188 479.890625 536.683594 480.144531 535.382812 C 480.398438 534.082031 480.835938 532.847656 481.457031 531.675781 C 482.078125 530.507812 482.855469 529.449219 483.789062 528.511719 L 520.890625 491.128906 C 521.191406 490.785156 521.507812 490.460938 521.84375 490.152344 C 522.175781 489.839844 522.527344 489.546875 522.890625 489.273438 C 523.253906 489 523.632812 488.746094 524.023438 488.507812 C 524.410156 488.273438 524.8125 488.058594 525.226562 487.863281 C 525.636719 487.667969 526.058594 487.492188 526.488281 487.339844 C 526.917969 487.1875 527.351562 487.058594 527.796875 486.953125 C 528.238281 486.84375 528.6875 486.757812 529.136719 486.695312 C 529.589844 486.632812 530.042969 486.59375 530.5 486.578125 C 530.953125 486.5625 531.410156 486.570312 531.863281 486.601562 C 532.320312 486.632812 532.769531 486.683594 533.21875 486.761719 C 533.667969 486.839844 534.113281 486.9375 534.554688 487.058594 C 534.992188 487.179688 535.425781 487.324219 535.847656 487.492188 C 536.273438 487.65625 536.6875 487.84375 537.09375 488.050781 C 537.5 488.257812 537.894531 488.488281 538.277344 488.734375 C 538.660156 488.984375 539.027344 489.25 539.382812 489.535156 C 539.738281 489.824219 540.078125 490.125 540.402344 490.445312 C 540.726562 490.765625 541.03125 491.101562 541.320312 491.453125 C 541.613281 491.804688 541.882812 492.171875 542.136719 492.550781 C 542.390625 492.929688 542.621094 493.320312 542.835938 493.726562 C 543.046875 494.128906 543.238281 494.542969 543.410156 494.964844 C 543.582031 495.386719 543.730469 495.816406 543.855469 496.253906 C 543.984375 496.691406 544.085938 497.136719 544.167969 497.582031 C 544.25 498.03125 544.308594 498.484375 544.34375 498.9375 C 544.382812 499.390625 544.394531 499.847656 544.382812 500.304688 C 544.371094 500.757812 544.339844 501.214844 544.28125 501.664062 C 544.226562 502.117188 544.144531 502.566406 544.042969 503.011719 C 543.941406 503.453125 543.816406 503.890625 543.667969 504.324219 C 543.519531 504.753906 543.351562 505.175781 543.160156 505.589844 C 542.972656 506.003906 542.761719 506.410156 542.527344 506.800781 C 542.296875 507.195312 542.046875 507.574219 541.777344 507.941406 C 541.507812 508.308594 541.21875 508.660156 540.914062 509 C 540.605469 509.335938 540.285156 509.660156 539.945312 509.964844 L 502.84375 547.34375 C 501.589844 548.625 500.136719 549.617188 498.484375 550.316406 C 496.832031 551.015625 495.109375 551.371094 493.316406 551.378906 Z M 493.316406 551.378906 " fill-opacity="1" fill-rule="nonzero"/><g clip-path="url(#dfe026695b)"><path fill="#ffffff" d="M 654.320312 677.210938 C 652.789062 677.214844 651.269531 677.0625 649.765625 676.761719 C 648.265625 676.460938 646.804688 676.011719 645.390625 675.417969 C 643.980469 674.824219 642.636719 674.09375 641.371094 673.230469 C 640.105469 672.367188 638.933594 671.386719 637.863281 670.289062 L 539.140625 569.1875 C 538.613281 568.648438 538.113281 568.085938 537.644531 567.496094 C 537.171875 566.910156 536.730469 566.300781 536.320312 565.667969 C 535.910156 565.039062 535.527344 564.386719 535.179688 563.71875 C 534.835938 563.050781 534.519531 562.367188 534.238281 561.667969 C 533.960938 560.96875 533.714844 560.253906 533.503906 559.53125 C 533.292969 558.808594 533.121094 558.078125 532.980469 557.335938 C 532.84375 556.59375 532.742188 555.847656 532.675781 555.097656 C 532.609375 554.347656 532.582031 553.59375 532.589844 552.84375 C 532.601562 552.089844 532.644531 551.335938 532.726562 550.589844 C 532.8125 549.839844 532.929688 549.097656 533.085938 548.359375 C 533.242188 547.621094 533.433594 546.894531 533.660156 546.175781 C 533.886719 545.457031 534.148438 544.75 534.445312 544.058594 C 534.742188 543.367188 535.070312 542.6875 535.433594 542.027344 C 535.796875 541.367188 536.191406 540.726562 536.617188 540.105469 C 537.042969 539.484375 537.5 538.882812 537.984375 538.308594 C 538.46875 537.730469 538.980469 537.179688 539.519531 536.652344 C 540.058594 536.125 540.621094 535.628906 541.210938 535.15625 C 541.796875 534.683594 542.40625 534.242188 543.039062 533.832031 C 543.667969 533.421875 544.320312 533.042969 544.988281 532.695312 C 545.65625 532.347656 546.339844 532.03125 547.039062 531.753906 C 547.742188 531.472656 548.453125 531.226562 549.175781 531.015625 C 549.898438 530.804688 550.632812 530.632812 551.371094 530.492188 C 552.113281 530.355469 552.859375 530.253906 553.609375 530.1875 C 554.359375 530.121094 555.113281 530.09375 555.867188 530.101562 C 556.617188 530.113281 557.371094 530.15625 558.117188 530.242188 C 558.867188 530.324219 559.609375 530.441406 560.347656 530.597656 C 561.085938 530.753906 561.8125 530.945312 562.53125 531.171875 C 563.25 531.398438 563.957031 531.660156 564.648438 531.957031 C 565.34375 532.253906 566.019531 532.582031 566.679688 532.945312 C 567.339844 533.308594 567.980469 533.703125 568.601562 534.128906 C 569.222656 534.554688 569.824219 535.011719 570.398438 535.496094 C 570.976562 535.980469 571.527344 536.492188 572.054688 537.03125 L 670.777344 638.132812 C 671.566406 638.9375 672.289062 639.796875 672.949219 640.707031 C 673.609375 641.617188 674.199219 642.574219 674.722656 643.570312 C 675.242188 644.570312 675.6875 645.601562 676.054688 646.664062 C 676.425781 647.726562 676.714844 648.8125 676.921875 649.917969 C 677.132812 651.023438 677.261719 652.140625 677.308594 653.261719 C 677.355469 654.386719 677.316406 655.511719 677.199219 656.628906 C 677.082031 657.75 676.878906 658.855469 676.601562 659.945312 C 676.320312 661.035156 675.960938 662.097656 675.523438 663.136719 C 675.085938 664.171875 674.578125 665.171875 673.992188 666.132812 C 673.410156 667.097656 672.757812 668.011719 672.039062 668.878906 C 671.320312 669.746094 670.542969 670.554688 669.707031 671.308594 C 668.871094 672.0625 667.984375 672.75 667.046875 673.371094 C 666.109375 673.992188 665.128906 674.542969 664.113281 675.023438 C 663.09375 675.503906 662.046875 675.90625 660.96875 676.230469 C 659.890625 676.554688 658.792969 676.800781 657.679688 676.964844 C 656.566406 677.128906 655.449219 677.210938 654.320312 677.210938 Z M 654.320312 677.210938 " fill-opacity="1" fill-rule="nonzero"/></g><path fill="#ffffff" d="M 387.871094 492.558594 C 369.105469 492.558594 344.296875 487.179688 317.75 466.753906 C 294.4375 448.832031 283.695312 421.253906 286.664062 387.027344 C 288.097656 371.199219 291.867188 355.945312 297.964844 341.269531 C 298.160156 340.839844 298.394531 340.4375 298.667969 340.054688 C 298.941406 339.671875 299.25 339.320312 299.59375 339 C 299.9375 338.675781 300.308594 338.390625 300.707031 338.144531 C 301.105469 337.894531 301.527344 337.6875 301.964844 337.519531 C 302.40625 337.355469 302.859375 337.230469 303.324219 337.152344 C 303.785156 337.078125 304.253906 337.042969 304.722656 337.058594 C 305.195312 337.074219 305.65625 337.132812 306.117188 337.238281 C 306.574219 337.34375 307.019531 337.492188 307.449219 337.683594 C 307.878906 337.875 308.285156 338.105469 308.667969 338.378906 C 309.050781 338.652344 309.40625 338.957031 309.726562 339.300781 C 310.050781 339.640625 310.339844 340.011719 310.589844 340.40625 C 310.839844 340.804688 311.050781 341.222656 311.21875 341.664062 C 311.386719 342.101562 311.511719 342.554688 311.59375 343.015625 C 311.671875 343.480469 311.707031 343.945312 311.695312 344.417969 C 311.683594 344.886719 311.628906 345.351562 311.527344 345.8125 C 311.421875 346.269531 311.277344 346.714844 311.085938 347.144531 C 305.632812 360.460938 302.257812 374.289062 300.957031 388.617188 C 298.503906 417.949219 307.101562 440.378906 326.507812 455.328125 C 374.433594 492.210938 415.410156 473.15625 415.820312 472.957031 C 416.246094 472.738281 416.691406 472.566406 417.152344 472.4375 C 417.613281 472.3125 418.082031 472.230469 418.558594 472.195312 C 419.035156 472.160156 419.511719 472.171875 419.988281 472.234375 C 420.460938 472.292969 420.925781 472.402344 421.378906 472.554688 C 421.832031 472.707031 422.265625 472.90625 422.679688 473.144531 C 423.09375 473.382812 423.480469 473.660156 423.839844 473.980469 C 424.195312 474.296875 424.519531 474.644531 424.808594 475.027344 C 425.097656 475.40625 425.34375 475.8125 425.554688 476.246094 C 425.761719 476.675781 425.925781 477.121094 426.042969 477.585938 C 426.160156 478.050781 426.230469 478.519531 426.257812 479 C 426.28125 479.476562 426.257812 479.953125 426.1875 480.425781 C 426.117188 480.898438 426 481.359375 425.835938 481.808594 C 425.675781 482.257812 425.46875 482.6875 425.222656 483.097656 C 424.972656 483.507812 424.6875 483.886719 424.363281 484.238281 C 424.039062 484.589844 423.683594 484.90625 423.292969 485.1875 C 422.90625 485.46875 422.496094 485.707031 422.0625 485.90625 C 421.035156 486.433594 407.894531 492.558594 387.871094 492.558594 Z M 387.871094 492.558594 " fill-opacity="1" fill-rule="nonzero"/><g clip-path="url(#67e78104f6)"><path fill="#071c51" d="M 69.425781 0 C 31.082031 0 0 31.082031 0 69.429688 C 0 107.773438 31.082031 138.855469 69.425781 138.855469 C 107.773438 138.855469 138.855469 107.773438 138.855469 69.429688 C 138.855469 31.082031 107.773438 0 69.425781 0 Z M 92.121094 92.570312 C 90.808594 95.039062 88.980469 97.113281 86.636719 98.796875 C 84.292969 100.476562 81.554688 101.742188 78.429688 102.589844 C 75.304688 103.441406 71.941406 103.863281 68.34375 103.863281 C 63.535156 103.832031 59.394531 102.96875 55.914062 101.273438 C 52.433594 99.574219 49.726562 97.152344 47.796875 94.003906 C 45.863281 90.859375 44.855469 87.125 44.765625 82.804688 L 55.25 82.804688 C 55.867188 86.785156 57.378906 89.738281 59.785156 91.667969 C 62.1875 93.597656 65.113281 94.5625 68.566406 94.5625 C 71.425781 94.5625 73.902344 94.105469 75.996094 93.195312 C 78.089844 92.285156 79.707031 91.027344 80.839844 89.421875 C 81.976562 87.820312 82.542969 85.953125 82.542969 83.824219 C 82.542969 81.570312 81.933594 79.640625 80.707031 78.035156 C 79.484375 76.433594 77.8125 75.199219 75.6875 74.332031 C 73.5625 73.46875 71.175781 73.007812 68.519531 72.945312 L 62.59375 72.761719 L 62.59375 63.597656 L 68.078125 63.363281 C 70.613281 63.273438 72.847656 62.761719 74.78125 61.835938 C 76.710938 60.910156 78.222656 59.691406 79.316406 58.179688 C 80.40625 56.667969 80.953125 54.972656 80.953125 53.089844 C 80.953125 51.359375 80.441406 49.804688 79.425781 48.414062 C 78.40625 47.027344 76.96875 45.9375 75.113281 45.152344 C 73.253906 44.363281 71.058594 43.972656 68.519531 43.972656 C 66.367188 43.972656 64.347656 44.371094 62.460938 45.175781 C 60.570312 45.976562 59.015625 47.265625 57.792969 49.039062 C 56.570312 50.8125 55.898438 53.136719 55.78125 56.003906 L 45.339844 56.003906 C 45.339844 51.4375 46.386719 47.589844 48.480469 44.457031 C 50.574219 41.324219 53.382812 38.964844 56.910156 37.375 C 60.433594 35.785156 64.347656 34.992188 68.652344 34.992188 C 73.285156 34.992188 77.390625 35.648438 80.972656 36.957031 C 84.558594 38.269531 87.371094 40.238281 89.421875 42.859375 C 91.472656 45.484375 92.496094 48.738281 92.496094 52.625 C 92.496094 55.929688 91.539062 58.875 89.621094 61.464844 C 87.703125 64.058594 84.683594 66.09375 80.554688 67.578125 C 83.117188 68.316406 85.417969 69.421875 87.453125 70.886719 C 89.488281 72.351562 91.105469 74.179688 92.296875 76.371094 C 93.492188 78.5625 94.089844 81.136719 94.089844 84.101562 C 94.089844 87.277344 93.433594 90.101562 92.121094 92.570312 Z M 92.121094 92.570312 " fill-opacity="1" fill-rule="nonzero"/></g></svg>