<svg xmlns="http://www.w3.org/2000/svg" xmlns:xlink="http://www.w3.org/1999/xlink" width="1080" zoomAndPan="magnify" viewBox="0 0 810 809.999993" height="1080" preserveAspectRatio="xMidYMid meet" version="1.0"><defs><clipPath id="61da80cd17"><path d="M 0 0 L 138.859375 0 L 138.859375 138.859375 L 0 138.859375 Z M 0 0 " clip-rule="nonzero"/></clipPath><clipPath id="030cedfa66"><path d="M 69.429688 0 C 31.085938 0 0 31.085938 0 69.429688 C 0 107.773438 31.085938 138.859375 69.429688 138.859375 C 107.773438 138.859375 138.859375 107.773438 138.859375 69.429688 C 138.859375 31.085938 107.773438 0 69.429688 0 Z M 69.429688 0 " clip-rule="nonzero"/></clipPath><clipPath id="41cb26f980"><path d="M 111.492188 111.492188 L 810 111.492188 L 810 810 L 111.492188 810 Z M 111.492188 111.492188 " clip-rule="nonzero"/></clipPath><clipPath id="cd6785a525"><path d="M 460.746094 111.492188 C 267.859375 111.492188 111.492188 267.859375 111.492188 460.746094 C 111.492188 653.632812 267.859375 810 460.746094 810 C 653.632812 810 810 653.632812 810 460.746094 C 810 267.859375 653.632812 111.492188 460.746094 111.492188 Z M 460.746094 111.492188 " clip-rule="nonzero"/></clipPath><clipPath id="4691e1117e"><path d="M 378.285156 247.980469 L 543.285156 247.980469 L 543.285156 412.980469 L 378.285156 412.980469 Z M 378.285156 247.980469 " clip-rule="nonzero"/></clipPath><clipPath id="f8d332801d"><path d="M 543 330 L 543.285156 330 L 543.285156 333 L 543 333 Z M 543 330 " clip-rule="nonzero"/></clipPath><clipPath id="5216817964"><path d="M 442 301 L 543.285156 301 L 543.285156 412 L 442 412 Z M 442 301 " clip-rule="nonzero"/></clipPath><clipPath id="df255b0649"><path d="M 385.457031 255.148438 L 536.207031 255.148438 L 536.207031 405.898438 L 385.457031 405.898438 Z M 385.457031 255.148438 " clip-rule="nonzero"/></clipPath><clipPath id="db6de5285a"><path d="M 536 330 L 536.207031 330 L 536.207031 332 L 536 332 Z M 536 330 " clip-rule="nonzero"/></clipPath><clipPath id="1ab6b3ac0e"><path d="M 443 303 L 536.207031 303 L 536.207031 405 L 443 405 Z M 443 303 " clip-rule="nonzero"/></clipPath><clipPath id="dee4e45af6"><path d="M 0 0 L 138.75 0 L 138.75 138.75 L 0 138.75 Z M 0 0 " clip-rule="nonzero"/></clipPath></defs><g clip-path="url(#61da80cd17)"><g clip-path="url(#030cedfa66)"><path fill="#ffffff" d="M 0 0 L 138.859375 0 L 138.859375 138.859375 L 0 138.859375 Z M 0 0 " fill-opacity="1" fill-rule="nonzero"/></g></g><g clip-path="url(#41cb26f980)"><g clip-path="url(#cd6785a525)"><path fill="#071c51" d="M 111.492188 111.492188 L 810 111.492188 L 810 810 L 111.492188 810 Z M 111.492188 111.492188 " fill-opacity="1" fill-rule="nonzero"/></g></g><path fill="#ffffff" d="M 460.890625 442.414062 C 461.1875 442.234375 461.492188 442.074219 461.808594 441.941406 C 461.207031 441.96875 460.597656 441.964844 459.972656 441.9375 C 460.289062 442.070312 460.59375 442.234375 460.890625 442.414062 Z M 460.890625 442.414062 " fill-opacity="1" fill-rule="nonzero"/><path fill="#ffffff" d="M 623.410156 402.941406 C 623.417969 402.9375 623.425781 402.9375 623.4375 402.933594 C 623.472656 402.925781 623.507812 402.914062 623.542969 402.910156 C 623.746094 402.859375 623.71875 402.828125 623.410156 402.941406 Z M 623.410156 402.941406 " fill-opacity="1" fill-rule="nonzero"/><path fill="#ffffff" d="M 627.386719 609.230469 C 628.121094 608.792969 626.886719 609.222656 627.386719 609.230469 Z M 627.386719 609.230469 " fill-opacity="1" fill-rule="nonzero"/><path fill="#ffffff" d="M 627.886719 508.011719 C 627.886719 512.847656 627.886719 517.691406 627.886719 522.527344 C 627.886719 542.738281 627.886719 562.953125 627.886719 583.167969 C 627.886719 589.484375 627.886719 595.808594 627.886719 602.128906 C 627.886719 603.804688 627.886719 605.46875 627.886719 607.136719 C 627.886719 607.535156 627.886719 607.921875 627.886719 608.316406 C 627.886719 608.386719 627.886719 608.464844 627.886719 608.539062 C 627.886719 608.550781 627.886719 608.566406 627.886719 608.570312 C 627.886719 608.625 627.886719 608.664062 627.886719 608.699219 C 627.878906 608.722656 627.867188 608.75 627.855469 608.777344 C 627.828125 608.824219 627.792969 608.894531 627.75 608.980469 C 627.730469 609 627.714844 609.015625 627.691406 609.042969 C 627.660156 609.070312 627.632812 609.101562 627.613281 609.125 C 627.558594 609.148438 627.488281 609.183594 627.390625 609.234375 C 627.425781 609.238281 627.464844 609.234375 627.523438 609.234375 C 627.46875 609.234375 627.421875 609.238281 627.375 609.238281 C 627.351562 609.253906 627.328125 609.269531 627.304688 609.285156 C 627.332031 609.269531 627.351562 609.253906 627.371094 609.25 C 626.894531 609.277344 626.546875 609.253906 625.890625 609.417969 C 625.808594 609.441406 625.722656 609.453125 625.640625 609.476562 C 625.207031 609.582031 624.777344 609.695312 624.34375 609.796875 C 622.480469 610.257812 620.617188 610.71875 618.761719 611.175781 C 611.816406 612.890625 604.871094 614.609375 597.925781 616.324219 C 577.089844 621.472656 556.25 626.621094 535.410156 631.773438 C 516.648438 636.410156 497.878906 641.042969 479.121094 645.683594 C 474.765625 646.761719 470.414062 647.832031 466.066406 648.914062 C 465.789062 648.976562 465.511719 649.046875 465.238281 649.117188 C 465.226562 649.117188 465.21875 649.117188 465.207031 649.125 C 464.578125 649.28125 463.957031 649.546875 463.328125 649.714844 C 463.46875 649.679688 461.847656 649.949219 462.15625 649.9375 C 461.253906 650.019531 460.34375 649.984375 459.445312 649.90625 C 459.933594 649.941406 458.929688 649.808594 458.777344 649.777344 C 458.351562 649.6875 457.933594 649.574219 457.519531 649.449219 C 457.390625 649.410156 457.222656 649.351562 457.0625 649.292969 C 456.929688 649.226562 456.828125 649.183594 456.671875 649.144531 C 456.566406 649.101562 456.535156 649.085938 456.628906 649.128906 C 456.609375 649.121094 456.589844 649.121094 456.574219 649.113281 C 456.480469 649.089844 456.390625 649.070312 456.300781 649.046875 C 455.855469 648.9375 455.40625 648.824219 454.957031 648.710938 C 441.417969 645.371094 427.878906 642.027344 414.335938 638.675781 C 392.734375 633.339844 371.136719 628.007812 349.53125 622.667969 C 333.476562 618.699219 317.417969 614.730469 301.363281 610.761719 C 299.808594 610.378906 298.253906 610 296.703125 609.609375 C 296.441406 609.542969 296.179688 609.484375 295.917969 609.417969 C 295.476562 609.316406 295.179688 609.265625 294.574219 609.238281 C 294.527344 609.238281 294.480469 609.238281 294.4375 609.226562 C 294.398438 609.214844 294.339844 609.195312 294.265625 609.171875 C 294.265625 609.171875 294.265625 609.164062 294.261719 609.164062 C 294.851562 609.3125 294.230469 608.980469 294.160156 609.042969 C 294.082031 608.945312 294.003906 608.855469 293.945312 608.78125 C 293.9375 608.746094 293.925781 608.707031 293.914062 608.652344 C 293.914062 608.625 293.914062 608.589844 293.914062 608.550781 C 293.914062 605.851562 293.914062 603.148438 293.914062 600.449219 C 293.914062 584.179688 293.914062 567.90625 293.914062 551.632812 C 293.914062 537.097656 293.914062 522.558594 293.914062 508.015625 C 291.460938 507.433594 289.011719 506.832031 286.5625 506.25 C 285.707031 506.039062 284.847656 505.832031 283.992188 505.628906 C 283.992188 506.914062 283.992188 508.199219 283.992188 509.492188 C 283.992188 530.808594 283.992188 552.128906 283.992188 573.449219 C 283.992188 584.90625 283.992188 596.363281 283.992188 607.816406 C 283.992188 612.042969 285.898438 616.167969 289.882812 618.039062 C 291.179688 618.652344 292.296875 618.898438 293.660156 619.085938 C 294.097656 619.191406 294.535156 619.296875 294.972656 619.410156 C 299.929688 620.628906 304.886719 621.859375 309.839844 623.082031 C 329.15625 627.855469 348.46875 632.621094 367.777344 637.394531 C 388.28125 642.460938 408.78125 647.527344 429.285156 652.59375 C 435.730469 654.1875 442.179688 655.78125 448.625 657.371094 C 450.148438 657.746094 451.679688 658.128906 453.203125 658.503906 C 453.449219 658.566406 453.695312 658.621094 453.945312 658.6875 C 452.636719 658.363281 452.089844 657.925781 454.039062 658.722656 C 454.398438 658.871094 454.777344 658.984375 455.15625 659.097656 C 457.25 659.71875 459.53125 659.953125 461.707031 659.886719 C 464.355469 659.8125 466.804688 658.949219 469.335938 658.320312 C 471.171875 657.871094 473.007812 657.417969 474.839844 656.964844 C 481.75 655.253906 488.660156 653.546875 495.566406 651.84375 C 516.378906 646.695312 537.195312 641.554688 558.007812 636.410156 C 576.816406 631.765625 595.628906 627.117188 614.433594 622.472656 C 618.832031 621.386719 623.230469 620.296875 627.628906 619.210938 C 627.921875 619.140625 628.214844 619.066406 628.503906 618.992188 C 628.519531 618.992188 628.53125 618.984375 628.546875 618.984375 C 626.1875 619.5625 629.328125 618.933594 629.46875 618.910156 C 629.910156 618.816406 630.3125 618.703125 630.734375 618.539062 C 633.292969 617.582031 635.515625 615.777344 636.695312 613.273438 C 637.636719 611.265625 637.816406 609.273438 637.816406 607.140625 C 637.816406 594.808594 637.816406 582.476562 637.816406 570.148438 C 637.816406 548.640625 637.816406 527.132812 637.816406 505.632812 C 634.5 506.421875 631.195312 507.222656 627.886719 508.011719 Z M 294.210938 609.152344 C 294.183594 609.144531 294.148438 609.132812 294.113281 609.125 C 294.148438 609.132812 294.183594 609.140625 294.210938 609.152344 Z M 294.070312 609.027344 C 294.027344 608.960938 293.992188 608.914062 293.960938 608.871094 C 293.960938 608.863281 293.960938 608.863281 293.960938 608.855469 C 293.988281 608.90625 294.027344 608.957031 294.070312 609.027344 Z M 293.917969 608.808594 C 293.917969 608.808594 293.917969 608.800781 293.917969 608.792969 C 293.925781 608.808594 293.941406 608.832031 293.953125 608.851562 L 293.957031 608.859375 C 293.941406 608.839844 293.929688 608.832031 293.917969 608.808594 Z M 293.9375 608.777344 C 293.929688 608.761719 293.917969 608.757812 293.910156 608.75 C 293.910156 608.722656 293.910156 608.6875 293.90625 608.660156 C 293.917969 608.703125 293.929688 608.742188 293.9375 608.777344 Z M 293.285156 618.984375 C 293.382812 619.007812 293.480469 619.035156 293.578125 619.054688 C 293.597656 619.0625 293.617188 619.070312 293.636719 619.070312 C 292.941406 618.96875 293.03125 618.921875 293.285156 618.984375 Z M 293.796875 619.097656 C 293.902344 619.105469 294 619.121094 294.109375 619.132812 C 293.992188 619.121094 293.890625 619.105469 293.796875 619.097656 Z M 293.796875 619.097656 " fill-opacity="1" fill-rule="nonzero"/><path fill="#ffffff" d="M 627.378906 609.226562 L 627.382812 609.226562 L 627.382812 609.25 L 627.378906 609.25 Z M 627.378906 609.226562 " fill-opacity="1" fill-rule="nonzero"/><path fill="#ffffff" d="M 464.550781 456.53125 C 466.527344 452.433594 466.117188 448.175781 463.304688 444.585938 C 462.296875 443.296875 460.699219 442.027344 459.085938 441.636719 C 458.53125 441.507812 457.976562 441.371094 457.417969 441.234375 C 454.472656 440.523438 451.515625 439.8125 448.566406 439.101562 C 437.238281 436.375 425.910156 433.644531 414.578125 430.917969 C 399.6875 427.332031 384.796875 423.746094 369.902344 420.160156 C 355.863281 416.777344 341.820312 413.398438 327.78125 410.015625 C 319 407.902344 310.214844 405.785156 301.433594 403.671875 C 300.574219 403.46875 299.71875 403.261719 298.859375 403.050781 C 298.679688 403.011719 298.5 402.96875 298.320312 402.925781 C 298.296875 402.917969 298.269531 402.914062 298.246094 402.90625 C 298.542969 403.023438 298.839844 403.144531 299.136719 403.261719 C 298.640625 403.050781 298.144531 402.84375 297.648438 402.636719 C 297.351562 402.511719 297.035156 402.445312 296.722656 402.375 C 295.695312 402.148438 294.59375 402.03125 293.542969 402.152344 C 291.203125 402.425781 289.339844 403.203125 287.484375 404.652344 C 286.722656 405.246094 286.148438 405.976562 285.585938 406.757812 C 285.199219 407.296875 284.828125 407.660156 285.824219 406.59375 C 285.671875 406.753906 285.523438 406.914062 285.371094 407.074219 C 284.484375 408.019531 283.601562 408.964844 282.710938 409.90625 C 274.089844 419.082031 265.46875 428.257812 256.847656 437.433594 C 247.203125 447.691406 237.566406 457.953125 227.925781 468.214844 C 225.683594 470.601562 223.441406 472.980469 221.203125 475.371094 C 216.34375 480.539062 219.449219 490.082031 226.226562 491.714844 C 233.132812 493.375 240.039062 495.039062 246.945312 496.699219 C 260.148438 499.875 273.351562 503.0625 286.554688 506.242188 C 301.640625 509.867188 316.730469 513.5 331.820312 517.136719 C 344.382812 520.160156 356.941406 523.1875 369.507812 526.214844 C 375.132812 527.570312 380.757812 528.925781 386.386719 530.273438 C 386.746094 530.367188 386.589844 530.4375 385.5625 529.9375 C 387.777344 531.011719 390.058594 531.285156 392.476562 530.871094 C 394.398438 530.539062 395.957031 529.535156 397.460938 528.355469 C 398.199219 527.78125 398.765625 526.921875 399.300781 526.179688 C 399.96875 525.25 398.558594 526.933594 398.882812 526.597656 C 399.398438 526.046875 399.914062 525.488281 400.433594 524.941406 C 403.503906 521.675781 406.578125 518.402344 409.648438 515.144531 C 419.773438 504.367188 429.894531 493.589844 440.023438 482.816406 C 447.566406 474.785156 455.109375 466.757812 462.648438 458.730469 C 463.023438 458.332031 463.398438 457.933594 463.773438 457.535156 C 465.621094 455.566406 465.730469 452.476562 463.773438 450.515625 C 461.90625 448.652344 458.609375 448.546875 456.757812 450.515625 C 451.195312 456.433594 445.632812 462.355469 440.070312 468.273438 C 429.699219 479.3125 419.332031 490.351562 408.960938 501.378906 C 403.257812 507.457031 397.554688 513.519531 391.851562 519.597656 C 391.351562 520.125 391.09375 520.601562 390.738281 521.167969 C 391.40625 520.113281 390.953125 520.863281 390.683594 521.128906 C 389.902344 521.898438 391.601562 520.53125 390.683594 521.09375 C 389.757812 521.667969 391.761719 520.738281 390.738281 521.09375 C 390.40625 521.210938 389.375 521.332031 390.851562 521.15625 C 390.542969 521.195312 390.226562 521.179688 389.917969 521.167969 C 391.371094 521.234375 390.128906 521.140625 389.691406 520.996094 C 391.195312 521.519531 389.460938 520.816406 388.859375 520.671875 C 388.203125 520.515625 387.539062 520.355469 386.878906 520.191406 C 383.75 519.445312 380.617188 518.6875 377.484375 517.933594 C 365.929688 515.148438 354.371094 512.367188 342.816406 509.585938 C 327.875 505.988281 312.929688 502.390625 297.992188 498.792969 C 284.078125 495.4375 270.15625 492.09375 256.238281 488.738281 C 247.761719 486.695312 239.277344 484.65625 230.796875 482.613281 C 230.042969 482.429688 229.289062 482.253906 228.539062 482.070312 C 228.410156 482.039062 228.285156 482.003906 228.164062 481.976562 C 228.371094 482.03125 229.554688 482.640625 228.769531 482.140625 C 229.824219 482.8125 229.078125 482.367188 228.804688 482.089844 C 228.039062 481.304688 229.410156 483.007812 228.839844 482.089844 C 228.269531 481.164062 229.195312 483.171875 228.839844 482.148438 C 228.722656 481.808594 228.601562 480.785156 228.773438 482.261719 C 228.738281 481.949219 228.753906 481.632812 228.773438 481.320312 C 228.699219 482.777344 228.789062 481.53125 228.941406 481.097656 C 228.421875 482.589844 227.480469 483.171875 228.261719 482.335938 C 228.574219 482.003906 228.886719 481.671875 229.199219 481.34375 C 230.363281 480.097656 231.53125 478.855469 232.699219 477.613281 C 241.847656 467.882812 251 458.132812 260.148438 448.398438 C 269.375 438.585938 278.59375 428.769531 287.816406 418.957031 C 289.492188 417.175781 291.167969 415.386719 292.84375 413.605469 C 293.347656 413.074219 293.601562 412.601562 293.960938 412.03125 C 293.292969 413.085938 293.742188 412.335938 294.015625 412.066406 C 294.792969 411.300781 293.09375 412.671875 294.015625 412.101562 C 294.9375 411.527344 292.933594 412.460938 293.957031 412.101562 C 294.292969 411.988281 295.320312 411.867188 293.847656 412.039062 C 294.152344 412.003906 294.46875 412.015625 294.78125 412.035156 C 293.324219 411.960938 294.570312 412.050781 295.007812 412.207031 C 293.5 411.683594 295.238281 412.382812 295.835938 412.527344 C 296.496094 412.683594 297.160156 412.84375 297.820312 413.003906 C 306.03125 414.980469 314.238281 416.957031 322.453125 418.933594 C 336.25 422.257812 350.050781 425.585938 363.851562 428.902344 C 378.835938 432.511719 393.816406 436.121094 408.792969 439.726562 C 420.542969 442.554688 432.296875 445.386719 444.042969 448.214844 C 447.328125 449.007812 450.609375 449.796875 453.898438 450.585938 C 454.652344 450.765625 455.40625 450.949219 456.160156 451.128906 C 456.285156 451.160156 456.410156 451.191406 456.535156 451.222656 C 456.324219 451.167969 455.136719 450.558594 455.921875 451.058594 C 454.871094 450.390625 455.617188 450.835938 455.886719 451.113281 C 456.652344 451.890625 455.28125 450.1875 455.851562 451.109375 C 456.421875 452.035156 455.492188 450.03125 455.851562 451.050781 C 455.964844 451.386719 456.085938 452.414062 455.914062 450.941406 C 455.949219 451.253906 455.9375 451.5625 455.917969 451.875 C 455.992188 450.417969 455.898438 451.667969 455.75 452.105469 C 455.824219 451.910156 455.90625 451.714844 455.980469 451.519531 C 454.804688 453.957031 455.292969 456.863281 457.761719 458.3125 C 459.957031 459.597656 463.375 458.96875 464.550781 456.53125 Z M 464.550781 456.53125 " fill-opacity="1" fill-rule="nonzero"/><path fill="#ffffff" d="M 465.8125 451.523438 C 466.386719 452.714844 465.945312 451.828125 465.851562 451.496094 C 465.542969 450.417969 465.914062 452.671875 465.859375 451.570312 C 465.835938 451.195312 466.039062 450.210938 465.792969 451.65625 C 465.847656 451.351562 465.945312 451.058594 466.046875 450.765625 C 465.605469 452.035156 465.90625 451.179688 466.109375 450.851562 C 465.445312 451.921875 465.847656 451.183594 466.132812 450.890625 C 466.902344 450.109375 465.207031 451.488281 466.152344 450.890625 C 465.5625 451.265625 464.941406 451.300781 465.261719 451.226562 C 465.378906 451.199219 465.496094 451.171875 465.609375 451.144531 C 466.351562 450.960938 467.09375 450.785156 467.835938 450.605469 C 471.097656 449.820312 474.363281 449.035156 477.621094 448.25 C 489.34375 445.425781 501.070312 442.605469 512.789062 439.785156 C 527.761719 436.175781 542.734375 432.570312 557.714844 428.964844 C 571.535156 425.636719 585.355469 422.308594 599.167969 418.980469 C 607.417969 417 615.667969 415.007812 623.914062 413.023438 C 624.59375 412.859375 625.261719 412.699219 625.941406 412.535156 C 626.480469 412.40625 626.691406 412.308594 627.375 411.972656 C 626.183594 412.546875 627.070312 412.105469 627.402344 412.015625 C 628.480469 411.710938 626.226562 412.078125 627.332031 412.019531 C 627.703125 412 628.6875 412.199219 627.246094 411.953125 C 627.550781 412.003906 627.839844 412.105469 628.136719 412.210938 C 626.867188 411.765625 627.722656 412.070312 628.050781 412.269531 C 626.976562 411.605469 627.722656 412.007812 628.007812 412.292969 C 628.792969 413.058594 627.414062 411.367188 628.011719 412.308594 C 628.421875 412.953125 627.964844 412.554688 628.953125 413.601562 C 630.597656 415.355469 632.25 417.109375 633.894531 418.863281 C 643.09375 428.652344 652.289062 438.441406 661.484375 448.230469 C 670.660156 457.992188 679.839844 467.753906 689.011719 477.523438 C 690.628906 479.246094 692.246094 480.964844 693.863281 482.683594 C 692.402344 481.128906 692.71875 480.546875 693.050781 481.710938 C 693.355469 482.785156 692.984375 480.53125 693.039062 481.640625 C 693.0625 482.015625 692.863281 482.988281 693.105469 481.550781 C 693.054688 481.863281 692.953125 482.152344 692.855469 482.441406 C 693.292969 481.179688 692.996094 482.03125 692.792969 482.359375 C 693.453125 481.28125 693.054688 482.027344 692.769531 482.3125 C 691.996094 483.101562 693.691406 481.722656 692.75 482.320312 C 693.339844 481.945312 693.957031 481.902344 693.640625 481.984375 C 693.519531 482.011719 693.402344 482.042969 693.285156 482.070312 C 692.546875 482.246094 691.804688 482.425781 691.0625 482.605469 C 682.621094 484.636719 674.175781 486.671875 665.738281 488.699219 C 651.835938 492.050781 637.9375 495.394531 624.035156 498.742188 C 609.089844 502.34375 594.136719 505.9375 579.191406 509.539062 C 567.609375 512.332031 556.019531 515.121094 544.4375 517.910156 C 541.285156 518.664062 538.132812 519.429688 534.976562 520.183594 C 534.300781 520.347656 533.628906 520.507812 532.953125 520.679688 C 532.410156 520.804688 532.199219 520.902344 531.519531 521.238281 C 532.710938 520.664062 531.824219 521.101562 531.492188 521.195312 C 530.417969 521.503906 532.667969 521.128906 531.5625 521.183594 C 531.1875 521.207031 530.210938 521.007812 531.644531 521.253906 C 531.339844 521.203125 531.050781 521.101562 530.761719 521.003906 C 532.023438 521.441406 531.171875 521.140625 530.839844 520.9375 C 531.921875 521.601562 531.171875 521.199219 530.882812 520.917969 C 530.097656 520.148438 531.480469 521.84375 530.878906 520.894531 C 530.46875 520.25 530.933594 520.65625 529.941406 519.601562 C 524.285156 513.582031 518.625 507.5625 512.96875 501.542969 C 502.605469 490.507812 492.230469 479.472656 481.859375 468.4375 C 476.253906 462.464844 470.640625 456.496094 465.027344 450.523438 C 463.179688 448.554688 459.878906 448.65625 458.015625 450.523438 C 456.058594 452.480469 456.167969 455.570312 458.015625 457.542969 C 463.578125 463.460938 469.136719 469.382812 474.699219 475.300781 C 485.070312 486.332031 495.441406 497.367188 505.808594 508.40625 C 511.515625 514.476562 517.222656 520.542969 522.921875 526.621094 C 521.175781 524.761719 523.417969 527.417969 523.453125 527.449219 C 524.050781 528.191406 524.796875 528.785156 525.578125 529.328125 C 527.257812 530.503906 529.234375 530.988281 531.246094 531.109375 C 532.199219 531.164062 533.199219 530.96875 534.121094 530.761719 C 534.441406 530.695312 534.738281 530.566406 535.039062 530.445312 C 535.429688 530.277344 535.828125 530.117188 536.222656 529.945312 C 535.324219 530.257812 535.027344 530.378906 535.335938 530.304688 C 535.371094 530.289062 535.402344 530.285156 535.429688 530.277344 C 535.992188 530.144531 536.542969 530.007812 537.101562 529.871094 C 540.050781 529.167969 543 528.453125 545.953125 527.75 C 557.28125 525.015625 568.613281 522.289062 579.941406 519.5625 C 594.832031 515.972656 609.722656 512.386719 624.613281 508.808594 C 638.65625 505.425781 652.699219 502.039062 666.742188 498.660156 C 675.527344 496.546875 684.308594 494.433594 693.09375 492.316406 C 693.945312 492.113281 694.804688 491.90625 695.664062 491.695312 C 698.09375 491.117188 699.945312 489.386719 701.351562 487.367188 C 703.804688 483.851562 703.425781 478.398438 700.515625 475.304688 C 699.691406 474.421875 698.863281 473.539062 698.039062 472.660156 C 689.53125 463.609375 681.023438 454.554688 672.523438 445.503906 C 662.804688 435.167969 653.09375 424.832031 643.382812 414.492188 C 641.03125 411.996094 638.683594 409.496094 636.332031 406.996094 C 636.203125 406.863281 636.082031 406.726562 635.953125 406.597656 C 636.472656 407.148438 636.789062 407.660156 636.394531 407.03125 C 636.054688 406.496094 635.628906 406.011719 635.230469 405.515625 C 634.644531 404.800781 633.785156 404.222656 633.046875 403.707031 C 631.441406 402.585938 629.246094 402.117188 627.324219 402.105469 C 626.363281 402.101562 625.371094 402.277344 624.453125 402.539062 C 623.875 402.703125 623.125 403.042969 622.65625 403.273438 C 623.617188 402.808594 623.855469 402.84375 623.539062 402.917969 C 623.503906 402.925781 623.46875 402.933594 623.433594 402.941406 C 623.234375 402.992188 623.03125 403.039062 622.832031 403.085938 C 615.925781 404.75 609.019531 406.410156 602.113281 408.078125 C 588.910156 411.253906 575.710938 414.433594 562.507812 417.613281 C 547.417969 421.246094 532.332031 424.878906 517.246094 428.511719 C 504.683594 431.539062 492.121094 434.566406 479.558594 437.589844 C 473.925781 438.941406 468.304688 440.300781 462.675781 441.65625 C 460.628906 442.152344 458.878906 443.929688 457.71875 445.597656 C 455.417969 448.898438 455.558594 453.042969 457.246094 456.542969 C 458.425781 458.980469 461.839844 459.605469 464.039062 458.324219 C 466.5 456.867188 466.988281 453.960938 465.8125 451.523438 Z M 465.8125 451.523438 " fill-opacity="1" fill-rule="nonzero"/><path fill="#ffffff" d="M 457.242188 357.582031 C 455.265625 361.683594 455.675781 365.941406 458.484375 369.53125 C 459.492188 370.816406 461.089844 372.085938 462.707031 372.472656 C 463.261719 372.609375 463.816406 372.742188 464.371094 372.875 C 467.324219 373.585938 470.273438 374.296875 473.222656 375.007812 C 484.554688 377.738281 495.882812 380.46875 507.214844 383.191406 C 522.109375 386.78125 537 390.363281 551.890625 393.949219 C 565.933594 397.332031 579.972656 400.714844 594.015625 404.097656 C 602.796875 406.210938 611.582031 408.324219 620.363281 410.441406 C 621.222656 410.648438 622.074219 410.855469 622.9375 411.058594 C 623.117188 411.101562 623.292969 411.144531 623.476562 411.1875 C 623.5 411.195312 623.527344 411.199219 623.550781 411.207031 C 623.25 411.085938 622.957031 410.96875 622.660156 410.847656 C 623.15625 411.0625 623.648438 411.269531 624.148438 411.472656 C 624.445312 411.597656 624.757812 411.667969 625.070312 411.738281 C 626.101562 411.96875 627.199219 412.082031 628.253906 411.960938 C 630.59375 411.6875 632.460938 410.910156 634.3125 409.460938 C 635.070312 408.863281 635.644531 408.132812 636.207031 407.351562 C 636.59375 406.808594 636.96875 406.449219 635.96875 407.511719 C 636.121094 407.351562 636.273438 407.191406 636.421875 407.03125 C 637.308594 406.085938 638.195312 405.144531 639.082031 404.203125 C 647.703125 395.027344 656.328125 385.847656 664.945312 376.675781 C 674.589844 366.417969 684.226562 356.15625 693.867188 345.898438 C 696.109375 343.511719 698.351562 341.125 700.59375 338.742188 C 705.449219 333.578125 702.34375 324.03125 695.566406 322.402344 C 688.65625 320.738281 681.753906 319.074219 674.84375 317.410156 C 661.644531 314.234375 648.4375 311.054688 635.242188 307.875 C 620.152344 304.242188 605.0625 300.605469 589.976562 296.972656 C 577.410156 293.949219 564.851562 290.925781 552.285156 287.898438 C 546.660156 286.542969 541.035156 285.1875 535.40625 283.832031 C 535.054688 283.75 535.207031 283.675781 536.230469 284.171875 C 534.015625 283.101562 531.734375 282.824219 529.316406 283.238281 C 527.394531 283.570312 525.839844 284.574219 524.335938 285.753906 C 523.597656 286.332031 523.027344 287.1875 522.496094 287.933594 C 521.828125 288.863281 523.238281 287.171875 522.917969 287.511719 C 522.398438 288.066406 521.882812 288.617188 521.359375 289.167969 C 518.289062 292.4375 515.21875 295.707031 512.148438 298.96875 C 502.023438 309.746094 491.898438 320.519531 481.769531 331.296875 C 474.226562 339.324219 466.6875 347.351562 459.144531 355.378906 C 458.769531 355.777344 458.394531 356.171875 458.023438 356.574219 C 456.171875 358.542969 456.066406 361.632812 458.023438 363.589844 C 459.890625 365.457031 463.1875 365.558594 465.039062 363.589844 C 470.597656 357.667969 476.160156 351.75 481.726562 345.832031 C 492.09375 334.792969 502.46875 323.757812 512.835938 312.722656 C 518.539062 306.652344 524.242188 300.582031 529.945312 294.511719 C 530.445312 293.980469 530.699219 293.507812 531.058594 292.9375 C 530.390625 293.996094 530.84375 293.246094 531.113281 292.972656 C 531.894531 292.210938 530.191406 293.578125 531.113281 293.007812 C 532.035156 292.4375 530.03125 293.367188 531.054688 293.011719 C 531.390625 292.894531 532.417969 292.773438 530.945312 292.945312 C 531.253906 292.910156 531.570312 292.925781 531.878906 292.941406 C 530.425781 292.867188 531.671875 292.960938 532.105469 293.113281 C 530.601562 292.589844 532.335938 293.292969 532.933594 293.433594 C 533.597656 293.59375 534.261719 293.753906 534.921875 293.910156 C 538.046875 294.664062 541.179688 295.417969 544.308594 296.171875 C 555.867188 298.957031 567.425781 301.738281 578.980469 304.519531 C 593.921875 308.121094 608.867188 311.714844 623.808594 315.316406 C 637.722656 318.667969 651.636719 322.015625 665.558594 325.367188 C 674.035156 327.414062 682.515625 329.453125 691 331.496094 C 691.75 331.675781 692.507812 331.859375 693.257812 332.039062 C 693.382812 332.070312 693.507812 332.101562 693.632812 332.132812 C 693.425781 332.078125 692.238281 331.472656 693.023438 331.96875 C 691.96875 331.296875 692.714844 331.746094 692.984375 332.023438 C 693.75 332.800781 692.382812 331.097656 692.949219 332.019531 C 693.523438 332.941406 692.589844 330.9375 692.949219 331.960938 C 693.0625 332.296875 693.1875 333.324219 693.011719 331.851562 C 693.054688 332.160156 693.035156 332.476562 693.023438 332.785156 C 693.089844 331.332031 693.003906 332.578125 692.847656 333.015625 C 693.367188 331.519531 694.308594 330.941406 693.535156 331.773438 C 693.214844 332.105469 692.90625 332.4375 692.589844 332.773438 C 691.421875 334.011719 690.257812 335.25 689.097656 336.496094 C 679.941406 346.234375 670.792969 355.972656 661.644531 365.707031 C 652.417969 375.519531 643.199219 385.335938 633.976562 395.148438 C 632.304688 396.929688 630.625 398.714844 628.949219 400.5 C 628.449219 401.035156 628.195312 401.503906 627.835938 402.074219 C 628.503906 401.019531 628.050781 401.769531 627.78125 402.035156 C 627 402.800781 628.703125 401.433594 627.78125 402.003906 C 626.859375 402.574219 628.863281 401.644531 627.839844 402.003906 C 627.503906 402.121094 626.472656 402.238281 627.949219 402.066406 C 627.640625 402.105469 627.324219 402.085938 627.015625 402.070312 C 628.46875 402.144531 627.226562 402.050781 626.789062 401.898438 C 628.292969 402.421875 626.558594 401.71875 625.960938 401.578125 C 625.296875 401.414062 624.636719 401.257812 623.972656 401.097656 C 615.765625 399.121094 607.554688 397.140625 599.34375 395.167969 C 585.542969 391.84375 571.742188 388.519531 557.945312 385.195312 C 542.964844 381.589844 527.980469 377.984375 513.003906 374.378906 C 501.253906 371.546875 489.503906 368.71875 477.753906 365.886719 C 474.46875 365.097656 471.1875 364.304688 467.898438 363.515625 C 467.148438 363.328125 466.394531 363.152344 465.636719 362.96875 C 465.515625 362.9375 465.394531 362.910156 465.265625 362.882812 C 465.476562 362.929688 466.660156 363.539062 465.875 363.042969 C 466.933594 363.710938 466.183594 363.261719 465.914062 362.988281 C 465.144531 362.207031 466.515625 363.910156 465.949219 362.992188 C 465.375 362.0625 466.304688 364.070312 465.949219 363.046875 C 465.832031 362.710938 465.714844 361.683594 465.886719 363.160156 C 465.847656 362.847656 465.863281 362.535156 465.882812 362.226562 C 465.808594 363.679688 465.902344 362.433594 466.054688 361.996094 C 465.976562 362.1875 465.898438 362.382812 465.820312 362.578125 C 466.996094 360.144531 466.511719 357.238281 464.039062 355.792969 C 461.839844 354.519531 458.414062 355.152344 457.242188 357.582031 Z M 457.242188 357.582031 " fill-opacity="1" fill-rule="nonzero"/><path fill="#ffffff" d="M 455.988281 362.589844 C 455.414062 361.40625 455.851562 362.289062 455.949219 362.621094 C 456.253906 363.699219 455.882812 361.445312 455.941406 362.546875 C 455.960938 362.921875 455.761719 363.902344 456.007812 362.464844 C 455.953125 362.769531 455.855469 363.0625 455.753906 363.351562 C 456.199219 362.085938 455.894531 362.941406 455.695312 363.265625 C 456.359375 362.191406 455.953125 362.9375 455.671875 363.226562 C 454.902344 364.007812 456.601562 362.628906 455.65625 363.230469 C 456.242188 362.851562 456.863281 362.8125 456.546875 362.894531 C 456.429688 362.921875 456.308594 362.949219 456.191406 362.980469 C 455.449219 363.15625 454.710938 363.335938 453.972656 363.511719 C 450.707031 364.296875 447.445312 365.082031 444.183594 365.871094 C 432.457031 368.691406 420.738281 371.515625 409.015625 374.335938 C 394.039062 377.941406 379.0625 381.550781 364.085938 385.152344 C 350.269531 388.480469 336.453125 391.808594 322.632812 395.136719 C 314.386719 397.121094 306.136719 399.109375 297.890625 401.097656 C 297.214844 401.257812 296.539062 401.421875 295.863281 401.585938 C 295.324219 401.714844 295.113281 401.8125 294.429688 402.144531 C 295.617188 401.570312 294.730469 402.011719 294.402344 402.105469 C 293.324219 402.410156 295.578125 402.042969 294.472656 402.097656 C 294.097656 402.121094 293.125 401.921875 294.558594 402.167969 C 294.253906 402.113281 293.960938 402.015625 293.671875 401.914062 C 294.941406 402.355469 294.082031 402.054688 293.757812 401.855469 C 294.832031 402.515625 294.085938 402.113281 293.796875 401.828125 C 293.011719 401.0625 294.390625 402.753906 293.792969 401.8125 C 293.386719 401.164062 293.847656 401.5625 292.859375 400.515625 C 291.210938 398.761719 289.5625 397.011719 287.917969 395.257812 C 278.71875 385.46875 269.519531 375.679688 260.320312 365.890625 C 251.144531 356.128906 241.972656 346.363281 232.796875 336.601562 C 231.179688 334.878906 229.5625 333.15625 227.945312 331.4375 C 229.40625 332.992188 229.089844 333.578125 228.761719 332.414062 C 228.453125 331.335938 228.824219 333.585938 228.765625 332.484375 C 228.746094 332.109375 228.945312 331.132812 228.699219 332.570312 C 228.75 332.265625 228.851562 331.972656 228.957031 331.679688 C 228.511719 332.949219 228.816406 332.09375 229.015625 331.765625 C 228.351562 332.839844 228.757812 332.09375 229.039062 331.808594 C 229.804688 331.023438 228.113281 332.402344 229.058594 331.804688 C 228.46875 332.183594 227.851562 332.21875 228.167969 332.144531 C 228.285156 332.117188 228.402344 332.085938 228.519531 332.058594 C 229.261719 331.878906 230 331.703125 230.742188 331.523438 C 239.183594 329.488281 247.625 327.457031 256.070312 325.425781 C 269.96875 322.074219 283.867188 318.730469 297.769531 315.382812 C 312.71875 311.785156 327.664062 308.183594 342.613281 304.585938 C 354.199219 301.792969 365.78125 299.007812 377.367188 296.214844 C 380.523438 295.457031 383.667969 294.695312 386.828125 293.9375 C 387.5 293.773438 388.179688 293.613281 388.851562 293.449219 C 389.390625 293.320312 389.601562 293.21875 390.28125 292.886719 C 389.097656 293.460938 389.980469 293.019531 390.308594 292.925781 C 391.386719 292.621094 389.132812 292.992188 390.238281 292.933594 C 390.613281 292.914062 391.589844 293.113281 390.152344 292.867188 C 390.460938 292.917969 390.753906 293.019531 391.042969 293.121094 C 389.777344 292.683594 390.632812 292.980469 390.960938 293.183594 C 389.886719 292.519531 390.628906 292.921875 390.917969 293.203125 C 391.699219 293.976562 390.324219 292.28125 390.921875 293.222656 C 391.328125 293.871094 390.867188 293.46875 391.859375 294.519531 C 397.515625 300.539062 403.171875 306.558594 408.832031 312.578125 C 419.203125 323.617188 429.574219 334.652344 439.941406 345.6875 C 445.550781 351.65625 451.164062 357.625 456.773438 363.59375 C 458.625 365.566406 461.921875 365.460938 463.789062 363.59375 C 465.746094 361.640625 465.636719 358.550781 463.789062 356.578125 C 458.226562 350.660156 452.664062 344.742188 447.101562 338.824219 C 436.730469 327.789062 426.359375 316.753906 415.988281 305.714844 C 410.28125 299.648438 404.582031 293.578125 398.878906 287.507812 C 400.621094 289.363281 398.375 286.710938 398.347656 286.675781 C 397.746094 285.9375 397.003906 285.335938 396.222656 284.792969 C 394.539062 283.625 392.566406 283.136719 390.550781 283.015625 C 389.59375 282.957031 388.601562 283.152344 387.675781 283.359375 C 387.359375 283.429688 387.058594 283.554688 386.757812 283.679688 C 386.367188 283.847656 385.96875 284.011719 385.574219 284.179688 C 386.476562 283.863281 386.773438 283.75 386.460938 283.820312 C 386.429688 283.828125 386.394531 283.835938 386.367188 283.84375 C 385.8125 283.976562 385.253906 284.109375 384.699219 284.246094 C 381.75 284.957031 378.796875 285.667969 375.851562 286.378906 C 364.519531 289.105469 353.191406 291.832031 341.863281 294.5625 C 326.972656 298.148438 312.082031 301.734375 297.1875 305.320312 C 283.144531 308.699219 269.101562 312.082031 255.0625 315.464844 C 246.277344 317.578125 237.496094 319.691406 228.714844 321.808594 C 227.855469 322.015625 227 322.222656 226.144531 322.429688 C 223.714844 323.015625 221.859375 324.742188 220.457031 326.757812 C 218.003906 330.277344 218.382812 335.730469 221.289062 338.828125 C 222.117188 339.707031 222.945312 340.585938 223.769531 341.46875 C 232.277344 350.519531 240.78125 359.570312 249.289062 368.621094 C 259 378.957031 268.714844 389.296875 278.425781 399.632812 C 280.777344 402.132812 283.125 404.632812 285.472656 407.128906 C 285.601562 407.265625 285.726562 407.398438 285.851562 407.535156 C 285.332031 406.976562 285.015625 406.46875 285.414062 407.09375 C 285.753906 407.632812 286.179688 408.113281 286.578125 408.609375 C 287.160156 409.328125 288.019531 409.90625 288.757812 410.421875 C 290.367188 411.542969 292.5625 412.011719 294.484375 412.019531 C 295.441406 412.023438 296.4375 411.847656 297.355469 411.585938 C 297.929688 411.421875 298.679688 411.082031 299.148438 410.851562 C 298.1875 411.316406 297.949219 411.28125 298.261719 411.210938 C 298.300781 411.199219 298.332031 411.191406 298.371094 411.179688 C 298.566406 411.132812 298.773438 411.082031 298.972656 411.039062 C 305.878906 409.375 312.785156 407.710938 319.691406 406.050781 C 332.894531 402.871094 346.097656 399.691406 359.296875 396.511719 C 374.382812 392.878906 389.472656 389.246094 404.5625 385.613281 C 417.125 382.585938 429.6875 379.558594 442.253906 376.535156 C 447.878906 375.179688 453.503906 373.820312 459.132812 372.46875 C 461.179688 371.972656 462.929688 370.195312 464.09375 368.527344 C 466.390625 365.230469 466.25 361.082031 464.5625 357.582031 C 463.382812 355.148438 459.96875 354.519531 457.773438 355.804688 C 455.296875 357.25 454.808594 360.15625 455.988281 362.589844 Z M 455.988281 362.589844 " fill-opacity="1" fill-rule="nonzero"/><path fill="#ffffff" d="M 455.929688 446.933594 C 455.929688 450.296875 455.929688 453.660156 455.929688 457.027344 C 455.929688 465.8125 455.929688 474.59375 455.929688 483.378906 C 455.929688 495.613281 455.929688 507.84375 455.929688 520.074219 C 455.929688 533.78125 455.929688 547.496094 455.929688 561.214844 C 455.929688 574.433594 455.929688 587.660156 455.929688 600.890625 C 455.929688 611.660156 455.929688 622.433594 455.929688 633.203125 C 455.929688 639.542969 455.929688 645.890625 455.929688 652.242188 C 455.929688 653.136719 455.929688 654.035156 455.929688 654.941406 C 455.929688 657.648438 458.1875 659.898438 460.890625 659.898438 C 463.59375 659.898438 465.847656 657.648438 465.847656 654.941406 C 465.847656 651.574219 465.847656 648.210938 465.847656 644.847656 C 465.847656 636.058594 465.847656 627.277344 465.847656 618.496094 C 465.847656 606.261719 465.847656 594.03125 465.847656 581.800781 C 465.847656 568.089844 465.847656 554.378906 465.847656 540.660156 C 465.847656 527.441406 465.847656 514.210938 465.847656 500.984375 C 465.847656 490.214844 465.847656 479.441406 465.847656 468.671875 C 465.847656 462.328125 465.847656 455.976562 465.847656 449.628906 C 465.847656 448.730469 465.847656 447.828125 465.847656 446.933594 C 465.847656 444.226562 463.59375 441.96875 460.890625 441.96875 C 458.1875 441.96875 455.929688 444.230469 455.929688 446.933594 Z M 455.929688 446.933594 " fill-opacity="1" fill-rule="nonzero"/><g clip-path="url(#4691e1117e)"><path fill="#d4d3d2" d="M 543.203125 330.4375 C 543.203125 375.976562 506.285156 412.898438 460.746094 412.898438 C 415.203125 412.898438 378.285156 375.976562 378.285156 330.4375 C 378.285156 284.898438 415.203125 247.980469 460.746094 247.980469 C 506.285156 247.980469 543.203125 284.898438 543.203125 330.4375 " fill-opacity="1" fill-rule="nonzero"/></g><g clip-path="url(#f8d332801d)"><path fill="#d4d3d2" d="M 543.1875 332.082031 C 543.1875 332.078125 543.1875 332.082031 543.1875 332.078125 L 543.1875 332.082031 M 543.191406 332.023438 L 543.191406 332.019531 L 543.191406 332.023438 M 543.191406 331.847656 C 543.191406 331.847656 543.191406 331.847656 543.191406 331.84375 L 543.191406 331.847656 M 543.191406 331.789062 L 543.191406 331.785156 L 543.191406 331.789062 M 543.195312 331.730469 L 543.195312 331.726562 L 543.195312 331.730469 M 543.195312 331.613281 L 543.195312 331.609375 L 543.195312 331.613281 M 543.195312 331.558594 L 543.195312 331.550781 L 543.195312 331.558594 M 543.199219 331.496094 C 543.199219 331.492188 543.199219 331.492188 543.199219 331.492188 L 543.199219 331.496094 M 543.199219 331.382812 L 543.199219 331.375 C 543.199219 331.378906 543.199219 331.378906 543.199219 331.382812 M 543.199219 331.324219 C 543.199219 331.320312 543.199219 331.316406 543.199219 331.316406 C 543.199219 331.320312 543.199219 331.320312 543.199219 331.324219 M 543.199219 331.265625 C 543.199219 331.261719 543.199219 331.257812 543.199219 331.253906 C 543.199219 331.257812 543.199219 331.261719 543.199219 331.265625 M 543.203125 331.203125 C 543.203125 331.199219 543.203125 331.199219 543.203125 331.199219 L 543.203125 331.203125 M 543.203125 331.148438 C 543.203125 331.144531 543.203125 331.144531 543.203125 331.140625 C 543.203125 331.144531 543.203125 331.144531 543.203125 331.148438 M 543.203125 331.089844 C 543.203125 331.085938 543.203125 331.082031 543.203125 331.082031 C 543.203125 331.082031 543.203125 331.085938 543.203125 331.089844 M 543.203125 331.027344 C 543.203125 331.027344 543.203125 331.023438 543.203125 331.019531 C 543.203125 331.027344 543.203125 331.023438 543.203125 331.027344 M 543.203125 330.96875 C 543.203125 330.964844 543.203125 330.96875 543.203125 330.964844 L 543.203125 330.96875 M 543.203125 330.914062 C 543.203125 330.910156 543.203125 330.910156 543.203125 330.90625 C 543.203125 330.90625 543.203125 330.910156 543.203125 330.914062 M 543.203125 330.855469 C 543.203125 330.851562 543.203125 330.847656 543.203125 330.84375 C 543.203125 330.847656 543.203125 330.851562 543.203125 330.855469 M 543.203125 330.796875 C 543.203125 330.792969 543.203125 330.789062 543.203125 330.785156 C 543.203125 330.789062 543.203125 330.789062 543.203125 330.796875 M 543.203125 330.734375 L 543.203125 330.726562 C 543.203125 330.730469 543.203125 330.730469 543.203125 330.734375 M 543.203125 330.675781 L 543.203125 330.671875 L 543.203125 330.675781 M 543.203125 330.621094 C 543.203125 330.617188 543.203125 330.613281 543.203125 330.613281 C 543.203125 330.613281 543.203125 330.617188 543.203125 330.621094 M 543.203125 330.558594 C 543.203125 330.558594 543.203125 330.554688 543.203125 330.550781 C 543.203125 330.554688 543.203125 330.554688 543.203125 330.558594 M 543.203125 330.5 L 543.203125 330.492188 C 543.203125 330.496094 543.203125 330.496094 543.203125 330.5 " fill-opacity="1" fill-rule="nonzero"/></g><g clip-path="url(#5216817964)"><path fill="#d4d3d2" d="M 476.542969 411.378906 L 442.367188 377.203125 L 518.4375 301.128906 L 543.070312 325.761719 C 543.15625 327.308594 543.203125 328.867188 543.203125 330.4375 C 543.203125 330.457031 543.203125 330.476562 543.203125 330.492188 L 543.203125 330.5 C 543.203125 330.515625 543.203125 330.53125 543.203125 330.550781 C 543.203125 330.554688 543.203125 330.558594 543.203125 330.558594 C 543.203125 330.578125 543.203125 330.59375 543.203125 330.613281 C 543.203125 330.613281 543.203125 330.617188 543.203125 330.621094 C 543.203125 330.636719 543.203125 330.65625 543.203125 330.671875 L 543.203125 330.675781 C 543.203125 330.691406 543.203125 330.710938 543.203125 330.726562 L 543.203125 330.734375 C 543.203125 330.75 543.203125 330.769531 543.203125 330.785156 C 543.203125 330.789062 543.203125 330.792969 543.203125 330.796875 C 543.203125 330.8125 543.203125 330.828125 543.203125 330.84375 C 543.203125 330.847656 543.203125 330.851562 543.203125 330.855469 C 543.203125 330.871094 543.203125 330.886719 543.203125 330.90625 C 543.203125 330.910156 543.203125 330.910156 543.203125 330.914062 C 543.203125 330.929688 543.203125 330.945312 543.203125 330.964844 C 543.203125 330.96875 543.203125 330.964844 543.203125 330.96875 C 543.203125 330.984375 543.203125 331.003906 543.203125 331.019531 C 543.203125 331.023438 543.203125 331.027344 543.203125 331.027344 C 543.203125 331.046875 543.203125 331.0625 543.203125 331.082031 C 543.203125 331.082031 543.203125 331.085938 543.203125 331.089844 C 543.203125 331.105469 543.203125 331.125 543.203125 331.140625 C 543.203125 331.144531 543.203125 331.144531 543.203125 331.148438 C 543.203125 331.164062 543.203125 331.183594 543.203125 331.199219 C 543.203125 331.199219 543.203125 331.199219 543.203125 331.203125 C 543.203125 331.21875 543.203125 331.238281 543.199219 331.253906 C 543.199219 331.257812 543.199219 331.261719 543.199219 331.265625 C 543.199219 331.28125 543.199219 331.296875 543.199219 331.316406 C 543.199219 331.316406 543.199219 331.320312 543.199219 331.324219 C 543.199219 331.339844 543.199219 331.355469 543.199219 331.375 L 543.199219 331.382812 C 543.199219 331.398438 543.199219 331.417969 543.199219 331.4375 C 543.199219 331.457031 543.199219 331.472656 543.199219 331.492188 C 543.199219 331.492188 543.199219 331.492188 543.199219 331.496094 C 543.199219 331.515625 543.199219 331.53125 543.195312 331.550781 L 543.195312 331.558594 C 543.195312 331.578125 543.195312 331.589844 543.195312 331.609375 L 543.195312 331.613281 C 543.195312 331.652344 543.195312 331.6875 543.195312 331.726562 L 543.195312 331.730469 C 543.195312 331.75 543.195312 331.765625 543.191406 331.785156 L 543.191406 331.789062 C 543.191406 331.808594 543.191406 331.824219 543.191406 331.84375 C 543.191406 331.847656 543.191406 331.847656 543.191406 331.847656 C 543.191406 331.90625 543.191406 331.960938 543.191406 332.019531 L 543.191406 332.023438 C 543.191406 332.042969 543.1875 332.058594 543.1875 332.078125 C 543.1875 332.082031 543.1875 332.078125 543.1875 332.082031 C 543.1875 332.140625 543.183594 332.195312 543.183594 332.257812 C 543.183594 332.273438 543.183594 332.292969 543.183594 332.3125 C 542.304688 371.613281 513.933594 404.125 476.542969 411.378906 " fill-opacity="1" fill-rule="nonzero"/></g><path fill="#feffff" d="M 403.054688 338.457031 L 421.21875 320.289062 L 442.792969 341.863281 L 500.980469 283.671875 L 518.4375 301.128906 L 442.367188 377.203125 L 403.054688 338.457031 " fill-opacity="1" fill-rule="nonzero"/><g clip-path="url(#df255b0649)"><path fill="#071c51" d="M 536.03125 330.433594 C 536.03125 372.015625 502.324219 405.722656 460.742188 405.722656 C 419.164062 405.722656 385.457031 372.015625 385.457031 330.433594 C 385.457031 288.855469 419.164062 255.148438 460.742188 255.148438 C 502.324219 255.148438 536.03125 288.855469 536.03125 330.433594 " fill-opacity="1" fill-rule="nonzero"/></g><g clip-path="url(#db6de5285a)"><path fill="#d4d3d2" d="M 536.015625 331.9375 C 536.015625 331.933594 536.015625 331.9375 536.015625 331.933594 L 536.015625 331.9375 M 536.015625 331.882812 L 536.015625 331.878906 L 536.015625 331.882812 M 536.019531 331.722656 C 536.019531 331.722656 536.019531 331.722656 536.019531 331.71875 L 536.019531 331.722656 M 536.019531 331.667969 L 536.019531 331.664062 L 536.019531 331.667969 M 536.019531 331.613281 L 536.019531 331.613281 M 536.023438 331.507812 L 536.023438 331.503906 L 536.023438 331.507812 M 536.023438 331.457031 L 536.023438 331.449219 L 536.023438 331.457031 M 536.023438 331.402344 C 536.023438 331.398438 536.023438 331.398438 536.023438 331.394531 L 536.023438 331.402344 M 536.023438 331.296875 L 536.023438 331.289062 C 536.023438 331.292969 536.023438 331.292969 536.023438 331.296875 M 536.023438 331.242188 C 536.023438 331.238281 536.023438 331.238281 536.023438 331.234375 C 536.023438 331.238281 536.023438 331.238281 536.023438 331.242188 M 536.023438 331.1875 C 536.023438 331.1875 536.023438 331.183594 536.023438 331.179688 C 536.023438 331.183594 536.023438 331.1875 536.023438 331.1875 M 536.027344 331.132812 C 536.027344 331.128906 536.027344 331.132812 536.027344 331.128906 L 536.027344 331.132812 M 536.027344 331.082031 C 536.027344 331.078125 536.027344 331.078125 536.027344 331.074219 C 536.027344 331.078125 536.027344 331.078125 536.027344 331.082031 M 536.027344 331.027344 C 536.027344 331.027344 536.027344 331.023438 536.027344 331.019531 C 536.027344 331.023438 536.027344 331.027344 536.027344 331.027344 M 536.027344 330.972656 C 536.027344 330.972656 536.027344 330.96875 536.027344 330.964844 C 536.027344 330.972656 536.027344 330.96875 536.027344 330.972656 M 536.027344 330.917969 C 536.027344 330.914062 536.027344 330.917969 536.027344 330.914062 L 536.027344 330.917969 M 536.027344 330.867188 C 536.027344 330.863281 536.027344 330.863281 536.027344 330.863281 C 536.027344 330.863281 536.027344 330.863281 536.027344 330.867188 M 536.027344 330.816406 C 536.027344 330.8125 536.027344 330.808594 536.027344 330.804688 C 536.027344 330.808594 536.027344 330.8125 536.027344 330.816406 M 536.027344 330.761719 C 536.027344 330.757812 536.027344 330.753906 536.027344 330.75 C 536.027344 330.757812 536.027344 330.757812 536.027344 330.761719 M 536.03125 330.703125 L 536.03125 330.699219 C 536.03125 330.703125 536.03125 330.703125 536.03125 330.703125 M 536.03125 330.652344 L 536.03125 330.648438 L 536.03125 330.652344 M 536.03125 330.601562 C 536.03125 330.597656 536.03125 330.59375 536.03125 330.59375 C 536.03125 330.59375 536.03125 330.597656 536.03125 330.601562 M 536.03125 330.546875 C 536.03125 330.542969 536.03125 330.539062 536.03125 330.539062 C 536.03125 330.542969 536.03125 330.542969 536.03125 330.546875 M 536.03125 330.488281 L 536.03125 330.484375 C 536.03125 330.488281 536.03125 330.488281 536.03125 330.488281 " fill-opacity="1" fill-rule="nonzero"/></g><g clip-path="url(#1ab6b3ac0e)"><path fill="#071c51" d="M 475.164062 404.335938 L 443.960938 373.132812 L 513.417969 303.675781 L 535.90625 326.164062 C 535.984375 327.578125 536.03125 329 536.03125 330.433594 C 536.03125 330.449219 536.03125 330.46875 536.03125 330.484375 L 536.03125 330.488281 C 536.03125 330.507812 536.03125 330.519531 536.03125 330.539062 C 536.03125 330.539062 536.03125 330.542969 536.03125 330.546875 C 536.03125 330.5625 536.03125 330.578125 536.03125 330.59375 C 536.03125 330.59375 536.03125 330.597656 536.03125 330.601562 C 536.03125 330.613281 536.03125 330.632812 536.03125 330.648438 L 536.03125 330.652344 C 536.03125 330.667969 536.03125 330.683594 536.03125 330.699219 L 536.03125 330.703125 C 536.03125 330.71875 536.027344 330.734375 536.027344 330.75 C 536.027344 330.753906 536.027344 330.757812 536.027344 330.761719 C 536.027344 330.777344 536.027344 330.792969 536.027344 330.804688 C 536.027344 330.808594 536.027344 330.8125 536.027344 330.816406 C 536.027344 330.828125 536.027344 330.847656 536.027344 330.863281 C 536.027344 330.863281 536.027344 330.863281 536.027344 330.867188 C 536.027344 330.882812 536.027344 330.898438 536.027344 330.914062 C 536.027344 330.917969 536.027344 330.914062 536.027344 330.917969 C 536.027344 330.933594 536.027344 330.949219 536.027344 330.964844 C 536.027344 330.96875 536.027344 330.972656 536.027344 330.972656 C 536.027344 330.988281 536.027344 331.007812 536.027344 331.019531 C 536.027344 331.023438 536.027344 331.027344 536.027344 331.027344 C 536.027344 331.042969 536.027344 331.0625 536.027344 331.074219 C 536.027344 331.078125 536.027344 331.078125 536.027344 331.082031 C 536.027344 331.097656 536.027344 331.113281 536.027344 331.128906 C 536.027344 331.132812 536.027344 331.128906 536.027344 331.132812 C 536.027344 331.148438 536.027344 331.164062 536.023438 331.179688 C 536.023438 331.183594 536.023438 331.1875 536.023438 331.1875 C 536.023438 331.203125 536.023438 331.21875 536.023438 331.234375 C 536.023438 331.238281 536.023438 331.238281 536.023438 331.242188 C 536.023438 331.257812 536.023438 331.273438 536.023438 331.289062 L 536.023438 331.296875 C 536.023438 331.3125 536.023438 331.328125 536.023438 331.347656 C 536.023438 331.363281 536.023438 331.378906 536.023438 331.394531 C 536.023438 331.398438 536.023438 331.398438 536.023438 331.402344 C 536.023438 331.417969 536.023438 331.429688 536.023438 331.449219 L 536.023438 331.457031 C 536.023438 331.472656 536.023438 331.488281 536.023438 331.503906 L 536.023438 331.507812 C 536.023438 331.542969 536.019531 331.574219 536.019531 331.613281 C 536.019531 331.632812 536.019531 331.644531 536.019531 331.664062 L 536.019531 331.667969 C 536.019531 331.6875 536.019531 331.699219 536.019531 331.71875 C 536.019531 331.722656 536.019531 331.722656 536.019531 331.722656 C 536.019531 331.777344 536.019531 331.828125 536.015625 331.878906 L 536.015625 331.882812 C 536.015625 331.898438 536.015625 331.914062 536.015625 331.933594 C 536.015625 331.9375 536.015625 331.933594 536.015625 331.9375 C 536.011719 331.988281 536.011719 332.039062 536.011719 332.09375 C 536.011719 332.113281 536.011719 332.128906 536.011719 332.148438 C 535.207031 368.03125 509.300781 397.710938 475.164062 404.335938 " fill-opacity="1" fill-rule="nonzero"/></g><path fill="#feffff" d="M 408.066406 337.753906 L 424.65625 321.167969 L 444.351562 340.867188 L 497.480469 287.738281 L 513.417969 303.675781 L 443.960938 373.132812 L 408.066406 337.753906 " fill-opacity="1" fill-rule="nonzero"/><path fill="#071c51" d="M 73.917969 77.433594 L 73.917969 49.941406 L 54.320312 77.433594 Z M 73.917969 77.433594 " fill-opacity="1" fill-rule="nonzero"/><g clip-path="url(#dee4e45af6)"><path fill="#071c51" d="M 69.425781 0 C 31.082031 0 0 31.082031 0 69.429688 C 0 107.773438 31.082031 138.855469 69.425781 138.855469 C 107.773438 138.855469 138.855469 107.773438 138.855469 69.429688 C 138.855469 31.082031 107.773438 0 69.425781 0 Z M 94.621094 87.015625 L 84.402344 87.015625 L 84.402344 102.890625 L 73.960938 102.890625 L 74.007812 87.015625 L 44.234375 87.015625 L 44.234375 77.433594 L 73.695312 35.964844 L 84.402344 35.964844 L 84.402344 77.433594 L 94.621094 77.433594 Z M 94.621094 87.015625 " fill-opacity="1" fill-rule="nonzero"/></g></svg>