<svg width="50" height="50" viewBox="0 0 50 50" fill="none" xmlns="http://www.w3.org/2000/svg">
<path d="M44.1406 10.5469H50V16.4062H44.1406V10.5469Z" fill="#DF413A"/>
<path d="M14.2448 25.1953H47.0703V19.3359H41.2109V13.4766H32.4219V7.61719H29.4922V13.4766H22.5792L16.2991 7.22656L6.88095 13.4766H0C0.232315 13.8138 2.48299 25.1953 14.2448 25.1953Z" fill="#DF413A"/>
<path d="M39.7461 39.8438C39.7461 41.4619 38.4346 42.7734 36.8164 42.7734C35.1982 42.7734 33.8867 41.4619 33.8867 39.8438C33.8867 38.2256 35.1982 36.9141 36.8164 36.9141C38.4346 36.9141 39.7461 38.2256 39.7461 39.8438Z" fill="#DF413A"/>
<path d="M24.7349 39.8438H30.957C30.957 36.6123 33.585 33.9844 36.8164 33.9844C40.0478 33.9844 42.6758 36.6123 42.6758 39.8438H50V28.125H0L2.50053 30.6255C8.44421 36.5707 16.3277 39.8438 24.7349 39.8438Z" fill="#DF413A"/>
</svg>
