<svg width="40" height="50" viewBox="0 0 40 50" fill="none" xmlns="http://www.w3.org/2000/svg">
<path d="M39.5054 10.0322C39.4163 9.81424 39.2845 9.61638 39.118 9.45002L30.1893 0.521379C29.8534 0.189488 29.4008 0.00240653 28.9286 0H2.14293C1.15667 0 0.357178 0.79949 0.357178 1.78575V48.2143C0.357178 49.2005 1.15667 50 2.14293 50H37.8572C38.8434 50 39.6429 49.2005 39.6429 48.2143V10.7143C39.6426 10.48 39.5959 10.2481 39.5054 10.0322ZM30.7143 41.0714H9.28571C8.29945 41.0714 7.49996 40.2719 7.49996 39.2856C7.49996 38.2994 8.29945 37.4999 9.28571 37.4999H30.7143C31.7005 37.4999 32.5 38.2994 32.5 39.2856C32.5 40.2719 31.7005 41.0714 30.7143 41.0714ZM30.7143 33.9286H9.28571C8.29945 33.9286 7.49996 33.1291 7.49996 32.1428C7.49996 31.1566 8.29945 30.3571 9.28571 30.3571H30.7143C31.7005 30.3571 32.5 31.1566 32.5 32.1428C32.5 33.1291 31.7005 33.9286 30.7143 33.9286ZM30.7143 26.7857H9.28571C8.29945 26.7857 7.49996 25.9862 7.49996 24.9999C7.49996 24.0137 8.29945 23.2142 9.28571 23.2142H30.7143C31.7005 23.2142 32.5 24.0137 32.5 24.9999C32.5 25.9862 31.7005 26.7857 30.7143 26.7857ZM30.7143 19.6428H9.28571C8.29945 19.6428 7.49996 18.8433 7.49996 17.8571C7.49996 16.8708 8.29945 16.0713 9.28571 16.0713H30.7143C31.7005 16.0713 32.5 16.8708 32.5 17.8571C32.5 18.8433 31.7005 19.6428 30.7143 19.6428ZM30.7143 8.92853V6.09647L33.5464 8.92863H30.7143V8.92853Z" fill="#14549B"/>
</svg>
