<svg width="51" height="50" viewBox="0 0 51 50" fill="none" xmlns="http://www.w3.org/2000/svg">
<path d="M48.9448 10.6409C48.9448 10.0066 48.5617 9.43502 47.975 9.19392L25.8805 0.117322C25.4996 -0.0391073 25.0726 -0.0391073 24.6917 0.117322L2.59724 9.19392C2.01053 9.43492 1.62738 10.0066 1.62738 10.6409V39.3591C1.62738 39.9934 2.01044 40.565 2.59724 40.8061L24.6917 49.8827C25.0685 50.0374 25.492 50.0408 25.8786 49.8826C25.8974 49.8763 25.0609 50.2194 47.975 40.8061C48.5618 40.5651 48.9448 39.9934 48.9448 39.3591V10.6409ZM25.2861 18.1579L17.1451 14.8135L34.7386 7.13864L43.424 10.7067L25.2861 18.1579ZM4.75596 13.1062L11.7797 15.9916V24.1322C11.7797 24.9961 12.4801 25.6965 13.344 25.6965C14.2079 25.6965 14.9083 24.9961 14.9083 24.1322V17.2769L23.7218 20.8976V46.1019L4.75596 38.3105V13.1062ZM25.2861 3.25539L30.7089 5.48313L13.1154 13.158L7.14815 10.7066L25.2861 3.25539ZM26.8504 20.8976L45.8162 13.1062V38.3105L26.8504 46.1019V20.8976Z" fill="#14549B"/>
</svg>
