<svg width="51" height="51" viewBox="0 0 51 51" fill="none" xmlns="http://www.w3.org/2000/svg">
<g clip-path="url(#clip0)">
<path d="M34.6376 21.2385C34.629 21.2129 34.6187 21.1879 34.6068 21.1635C34.593 21.1215 34.576 21.0805 34.556 21.041C34.5383 21.0144 34.5191 20.9889 34.4985 20.9644C34.4767 20.9313 34.4524 20.8997 34.426 20.8702C34.4013 20.8483 34.3753 20.8277 34.3485 20.8085C34.322 20.7845 34.2942 20.762 34.2651 20.741L25.9318 15.7411C25.6678 15.5824 25.3375 15.5824 25.0735 15.7411L16.7402 20.741C16.7093 20.7614 16.6801 20.7839 16.6527 20.8085C16.6255 20.8277 16.5993 20.8483 16.5743 20.8702C16.5484 20.8997 16.5244 20.9308 16.5027 20.9635C16.4815 20.9881 16.462 21.014 16.4443 21.041C16.4247 21.0795 16.4081 21.1193 16.3943 21.1602C16.3825 21.186 16.3718 21.2125 16.3627 21.2394C16.3432 21.3097 16.3334 21.3823 16.3335 21.4552V29.7885C16.3336 30.081 16.4869 30.3521 16.7377 30.5027L25.071 35.5027L25.0802 35.5068L25.0893 35.5135C25.1331 35.5362 25.1788 35.555 25.226 35.5693C25.2452 35.576 25.2635 35.5868 25.2835 35.5927C25.4254 35.6315 25.575 35.6315 25.7168 35.5927C25.7368 35.5868 25.7552 35.576 25.7743 35.5693C25.8215 35.555 25.8672 35.5362 25.911 35.5135L25.9202 35.5068L25.9293 35.5027L34.2626 30.5027C34.5134 30.3521 34.6667 30.081 34.6668 29.7885V21.4552C34.6669 21.3821 34.657 21.3092 34.6376 21.2385ZM25.5002 17.4269L28.0468 18.9552L21.3335 22.9835L18.7868 21.4552L25.5002 17.4269ZM24.6668 33.316L18.0002 29.316V22.9269L24.6668 26.9269V33.316ZM25.5002 25.4835L22.9535 23.9552L29.6668 19.9269L32.2135 21.4552L25.5002 25.4835ZM33.0001 29.3169L26.3335 33.3168V26.9269L33.0001 22.9269V29.3169Z" fill="#14549B"/>
<path d="M26.1654 0.954461C25.8624 0.586233 25.3184 0.53342 24.9501 0.836336C24.907 0.871753 24.8674 0.911336 24.832 0.954461L22.332 4.28779L23.6654 5.28779L24.6654 3.95445V10.6211H26.332V3.95445L27.332 5.28779L28.6653 4.28779L26.1654 0.954461Z" fill="#14549B"/>
<path d="M27.332 45.9544L26.332 47.2878V40.6211H24.6654V47.2878L23.6654 45.9544L22.332 46.9544L24.832 50.2877C25.1082 50.656 25.6305 50.7306 25.9987 50.4544C26.0618 50.407 26.118 50.3509 26.1654 50.2877L28.6653 46.9544L27.332 45.9544Z" fill="#14549B"/>
<path d="M26.3332 12.2881H24.6665V13.9547H26.3332V12.2881Z" fill="#14549B"/>
<path d="M26.3332 37.2881H24.6665V38.9547H26.3332V37.2881Z" fill="#14549B"/>
<path d="M10.4996 24.7884H3.8329L5.16623 23.7884L4.16623 22.4551L0.832906 24.9551C0.464678 25.2312 0.390095 25.7535 0.66624 26.1217C0.713636 26.1849 0.769782 26.241 0.832906 26.2884L4.16623 28.7884L5.16623 27.4551L3.8329 26.4551H10.4996V24.7884Z" fill="#14549B"/>
<path d="M50.3333 25.1217C50.2859 25.0586 50.2298 25.0025 50.1667 24.9551L46.8333 22.4551L45.8333 23.7884L47.1667 24.7884H40.5V26.4551H47.1667L45.8333 27.4551L46.8333 28.7884L50.1667 26.2884C50.5349 26.0123 50.6095 25.49 50.3333 25.1217Z" fill="#14549B"/>
<path d="M13.8332 24.7881H12.1665V26.4548H13.8332V24.7881Z" fill="#14549B"/>
<path d="M38.8332 24.7881H37.1665V26.4548H38.8332V24.7881Z" fill="#14549B"/>
<path d="M15.4814 14.4253L10.7681 9.71196L12.4173 9.94696L12.6531 8.29696L8.52897 7.70446C8.07376 7.63686 7.64991 7.95113 7.5823 8.40644C7.57022 8.48759 7.57022 8.57009 7.5823 8.65113L8.17147 12.7753L9.82146 12.5394L9.58647 10.8903L14.2998 15.6036L15.4814 14.4253Z" fill="#14549B"/>
<path d="M43.4151 42.5914L42.8259 38.4673L41.1742 38.7048L41.4092 40.3539L36.6959 35.6406L35.5176 36.819L40.2309 41.5323L38.5834 41.2956L38.3476 42.9456L42.4717 43.5348C42.5109 43.5404 42.5505 43.5432 42.5901 43.5431C43.0503 43.5432 43.4234 43.1701 43.4235 42.7099C43.4236 42.6703 43.4207 42.6307 43.4151 42.5914Z" fill="#14549B"/>
<path d="M16.6604 15.6047L15.4819 16.7832L16.6604 17.9617L17.8389 16.7832L16.6604 15.6047Z" fill="#14549B"/>
<path d="M34.3401 33.2815L33.1616 34.46L34.3401 35.6385L35.5186 34.46L34.3401 33.2815Z" fill="#14549B"/>
<path d="M10.7657 41.5303L15.4791 36.817L14.3041 35.6387L9.59075 40.352L9.82575 38.7028L8.17575 38.467L7.58325 42.5912C7.51794 43.0467 7.83419 43.469 8.28981 43.5344C8.32908 43.54 8.36867 43.5428 8.40825 43.5428C8.44783 43.5429 8.48742 43.5401 8.52658 43.5345L12.6507 42.9453L12.4149 41.2953L10.7657 41.5303Z" fill="#14549B"/>
<path d="M43.1776 7.94398C42.9928 7.75721 42.73 7.66961 42.4701 7.70815L38.3459 8.29731L38.5817 9.94731L40.2309 9.71231L35.5176 14.4256L36.6959 15.604L41.4092 10.8906L41.1742 12.5381L42.8242 12.7756L43.4134 8.65148C43.4507 8.39169 43.3633 8.12961 43.1776 7.94398Z" fill="#14549B"/>
<path d="M16.6634 33.2824L15.4849 34.4609L16.6634 35.6394L17.8419 34.4609L16.6634 33.2824Z" fill="#14549B"/>
<path d="M34.3382 15.6018L33.1597 16.7803L34.3382 17.9588L35.5167 16.7803L34.3382 15.6018Z" fill="#14549B"/>
</g>
<defs>
<clipPath id="clip0">
<rect width="50" height="50" fill="white" transform="translate(0.5 0.630859)"/>
</clipPath>
</defs>
</svg>
