<svg width="100" height="100" viewBox="0 0 100 100" fill="none" xmlns="http://www.w3.org/2000/svg">
<g clip-path="url(#clip0)">
<path d="M44.1412 58.7891H47.0709V52.9297H35.3522V44.1406C35.3522 42.5254 34.0377 41.2109 32.4225 41.2109C30.8073 41.2109 29.4928 42.5254 29.4928 44.1406V52.9297H8.42639C2.89768 62.3615 7.39046 74.9051 18.233 78.3789C15.6604 89.7395 24.2717 100 35.3522 100C39.8502 100 43.9596 98.3008 47.0709 95.5098V76.3672H44.1412C39.2955 76.3672 35.3522 72.4238 35.3522 67.5781C35.3522 62.7324 39.2955 58.7891 44.1412 58.7891ZM91.5748 52.9297H76.3678V55.8594C76.3678 60.7051 72.4244 64.6484 67.5787 64.6484C62.733 64.6484 58.7897 60.7051 58.7897 55.8594V52.9297H52.9303V64.6484H44.1412C42.526 64.6484 41.2115 65.9629 41.2115 67.5781C41.2115 69.1934 42.526 70.5078 44.1412 70.5078H52.9303V95.5098C56.0416 98.3008 60.151 100 64.6491 100C75.7205 100 84.3434 89.7494 81.7682 78.3789C92.6033 74.9074 97.1078 62.3687 91.5748 52.9297V52.9297ZM81.7682 21.6211C84.3408 10.2611 75.7301 0 64.6491 0C60.151 0 56.0416 1.69922 52.9303 4.49023V23.6328H55.86C60.7057 23.6328 64.6491 27.5762 64.6491 32.4219C64.6491 37.2676 60.7057 41.2109 55.86 41.2109H52.9303V47.0703H64.6491V55.8594C64.6491 57.4746 65.9635 58.7891 67.5787 58.7891C69.194 58.7891 70.5084 57.4746 70.5084 55.8594V47.0703H91.5748C97.1035 37.6385 92.6108 25.0949 81.7682 21.6211ZM55.86 29.4922H47.0709V4.49023C43.9596 1.69922 39.8502 0 35.3522 0C24.2807 0 15.658 10.25 18.233 21.6211C7.39788 25.0926 2.89339 37.6313 8.42639 47.0703H23.6334V44.1406C23.6334 39.2949 27.5768 35.3516 32.4225 35.3516C37.2682 35.3516 41.2115 39.2949 41.2115 44.1406V47.0703H47.0709V35.3516H55.86C57.4752 35.3516 58.7897 34.0371 58.7897 32.4219C58.7897 30.8066 57.4752 29.4922 55.86 29.4922V29.4922Z" fill="#14549B"/>
</g>
<defs>
<clipPath id="clip0">
<rect width="100" height="100" fill="white"/>
</clipPath>
</defs>
</svg>
