<svg width="50" height="50" viewBox="0 0 50 50" fill="none" xmlns="http://www.w3.org/2000/svg">
<g clip-path="url(#clip0)">
<path d="M29.4178 22.1431C31.8587 24.584 31.8587 28.5414 29.4178 30.9822C26.9769 33.4231 23.0196 33.4231 20.5787 30.9822C18.1378 28.5414 18.1378 24.584 20.5787 22.1431C23.0196 19.7023 26.9769 19.7023 29.4178 22.1431" fill="#14549B"/>
<path d="M43.7499 9.37424H39.4315L36.3049 3.12402H13.6922L10.5685 9.37731L6.25626 9.38499C2.81838 9.39113 0.0197562 12.1927 0.0167876 15.6321L0 40.6237C0 44.0708 2.80312 46.8754 6.25022 46.8754H43.7499C47.197 46.8754 50.0001 44.0723 50.0001 40.6252V15.6244C50 12.1774 47.1969 9.37424 43.7499 9.37424V9.37424ZM24.9992 39.0626C18.1066 39.0626 12.4988 33.4549 12.4988 26.5622C12.4988 19.6696 18.1066 14.0618 24.9992 14.0618C31.8919 14.0618 37.4997 19.6696 37.4997 26.5622C37.4997 33.4549 31.8919 39.0626 24.9992 39.0626V39.0626Z" fill="#14549B"/>
</g>
<defs>
<clipPath id="clip0">
<rect width="50" height="50" fill="white"/>
</clipPath>
</defs>
</svg>
