<svg width="67" height="50" viewBox="0 0 67 50" fill="none" xmlns="http://www.w3.org/2000/svg">
<path d="M54.9933 30.5284V23.0912C54.9933 19.8499 52.3563 17.213 49.1151 17.213H31.4807V26.4874H10.5807V30.4062H9.7969C4.39489 30.4062 0 34.8011 0 40.2031C0 43.4443 2.63693 46.0812 5.87814 46.0812H8.17453C8.98336 48.3617 11.1613 50 13.7157 50C16.27 50 18.448 48.3617 19.2568 46.0812H39.4488H41.4082H47.6234C48.4322 48.3617 50.6101 50 53.1645 50C55.7189 50 57.8968 48.3617 58.7056 46.0812H66.8802V44.1218C66.8802 37.179 61.6946 31.4253 54.9933 30.5284ZM35.3995 21.1318H40.6245V26.4874H35.3995V21.1318ZM13.7157 46.0812C12.6353 46.0812 11.7563 45.2022 11.7563 44.1218C11.7563 43.0414 12.6353 42.1624 13.7157 42.1624C14.7961 42.1624 15.675 43.0414 15.675 44.1218C15.675 45.2022 14.7961 46.0812 13.7157 46.0812ZM51.0745 30.5683C45.2678 31.4604 40.649 36.0048 39.6503 41.7763L34.9114 40.8379C31.1616 40.0954 27.751 38.2742 25.0478 35.5712C22.1742 32.6976 18.4832 30.9391 14.4994 30.5103V30.4062H24.9799C25.9829 31.1147 26.9327 31.914 27.8189 32.8001C29.9712 34.9523 32.687 36.4025 35.6727 36.9937L36.9301 37.2427C37.9972 34.734 39.6432 32.4808 41.7505 30.6879C44.3998 28.434 47.6513 27.0236 51.0745 26.6132V30.5683V30.5683ZM53.1645 46.0812C52.0841 46.0812 51.2051 45.2022 51.2051 44.1218C51.2051 43.0414 52.0841 42.1624 53.1645 42.1624C54.2449 42.1624 55.1239 43.0414 55.1239 44.1218C55.1239 45.2022 54.2449 46.0812 53.1645 46.0812Z" fill="#DF413A"/>
<path d="M24.2336 17.4427L22.9065 16.1155C17.977 11.7548 14.7539 8.81613 14.7539 5.21384C14.7539 2.27513 17.029 0 19.9677 0C21.5793 0 23.1908 0.758376 24.2336 1.99074C25.2764 0.758376 26.8879 0 28.4995 0C31.4382 0 33.7133 2.27513 33.7133 5.21384C33.7133 8.81613 30.4902 11.7548 25.5608 16.1155L24.2336 17.4427Z" fill="#DF413A"/>
</svg>
