<svg width="61" height="50" viewBox="0 0 61 50" fill="none" xmlns="http://www.w3.org/2000/svg">
<g clip-path="url(#clip0)">
<path d="M50.3638 22.1836V15.3785C50.3638 12.4128 47.9488 10 44.9805 10H28.8306V18.4861H9.68994V22.0717H8.97217C4.02491 22.0717 0 26.093 0 31.0359C0 34.0016 2.41495 36.4143 5.3833 36.4143H7.48638C8.22712 38.501 10.2217 40 12.561 40C14.9004 40 16.895 38.501 17.6357 36.4143H36.1279H37.9224H43.6143C44.355 38.501 46.3496 40 48.689 40C51.0283 40 53.0229 38.501 53.7636 36.4143H61.25V34.6215C61.25 28.2688 56.501 23.0042 50.3638 22.1836ZM32.4194 13.5857H37.2046V18.4861H32.4194V13.5857ZM12.561 36.4143C11.5716 36.4143 10.7666 35.6101 10.7666 34.6215C10.7666 33.6329 11.5716 32.8287 12.561 32.8287C13.5505 32.8287 14.3555 33.6329 14.3555 34.6215C14.3555 35.6101 13.5505 36.4143 12.561 36.4143ZM46.7749 22.22C41.457 23.0364 37.2271 27.1944 36.3124 32.4754L31.9725 31.6167C28.5383 30.9374 25.4148 29.271 22.9392 26.7977C20.3075 24.1684 16.9273 22.5594 13.2788 22.167V22.0717H22.877C23.7956 22.72 24.6654 23.4514 25.477 24.2622C27.4481 26.2314 29.9353 27.5584 32.6697 28.0993L33.8212 28.3271C34.7985 26.0317 36.3059 23.97 38.2358 22.3295C40.6621 20.2672 43.6399 18.9767 46.7749 18.6012V22.22V22.22ZM48.689 36.4143C47.6995 36.4143 46.8945 35.6101 46.8945 34.6215C46.8945 33.6329 47.6995 32.8287 48.689 32.8287C49.6784 32.8287 50.4834 33.6329 50.4834 34.6215C50.4834 35.6101 49.6784 36.4143 48.689 36.4143Z" fill="#DF413A"/>
</g>
<defs>
<clipPath id="clip0">
<path d="M0 0H61V50H0V0Z" fill="white"/>
</clipPath>
</defs>
</svg>
