<svg width="512" height="512" viewBox="0 0 512 512" fill="none" xmlns="http://www.w3.org/2000/svg">
<path d="M30 22.5V52.5H60V68.576C64.901 67.872 69.907 67.5 75 67.5H90V52.5H170V67.5H200V52.5H280V67.5H310V52.5H390V67.5H405C410.093 67.5 415.099 67.872 420 68.576V52.5H450V22.5H30Z" fill="#DF413A"/>
<path d="M480 399.5V172.5C480 131.145 446.355 97.5 405 97.5H75C33.645 97.5 0 131.145 0 172.5V429.5H45C45 379.874 85.374 339.5 135 339.5C184.626 339.5 225 379.874 225 429.5H270V187.5H420V429.5H512V399.5H480ZM210 309.5H60V187.5H210V309.5Z" fill="#DF413A"/>
<path d="M180 217.5H90V279.5H180V217.5Z" fill="#DF413A"/>
<path d="M300 217.5V429.5H390V217.5H300ZM360 277.5H330V247.5H360V277.5Z" fill="#DF413A"/>
<path d="M135 489.5C168.137 489.5 195 462.637 195 429.5C195 396.363 168.137 369.5 135 369.5C101.863 369.5 75 396.363 75 429.5C75 462.637 101.863 489.5 135 489.5Z" fill="#DF413A"/>
</svg>
