<svg width="51" height="50" viewBox="0 0 51 50" fill="none" xmlns="http://www.w3.org/2000/svg">
<path d="M23.2016 20.833C19.7551 20.833 16.9516 23.6365 16.9516 27.083C16.9516 30.5295 19.7551 33.333 23.2016 33.333C26.6481 33.333 29.4516 30.5295 29.4516 27.083C29.4516 23.6366 26.648 20.833 23.2016 20.833ZM27.063 25.7362L22.8963 29.9029C22.6929 30.1064 22.4263 30.2081 22.1598 30.2081C21.8933 30.2081 21.6268 30.1064 21.4233 29.9029L19.34 27.8196C18.933 27.4127 18.933 26.7535 19.34 26.3467C19.7469 25.9398 20.4061 25.9398 20.8129 26.3467L22.1599 27.6934L25.5901 24.2632C25.997 23.8563 26.6562 23.8563 27.063 24.2632C27.4699 24.6701 27.4699 25.3293 27.063 25.7362Z" fill="#14549B"/>
<path d="M39.8691 4.1667H35.7024C35.6383 4.1667 35.5827 4.19199 35.5218 4.20303C35.1006 2.97461 33.947 2.0833 32.5774 2.0833H29.431C28.4525 0.785352 26.9144 0 25.2858 0C23.6572 0 22.1191 0.785352 21.1405 2.0833H17.9941C16.6244 2.0833 15.4707 2.97451 15.0496 4.20303C14.9887 4.19199 14.9331 4.1667 14.8691 4.1667H10.7024C8.40442 4.1667 6.53577 6.03535 6.53577 8.3333V45.8333C6.53577 48.1313 8.40442 50 10.7025 50H39.8692C42.1671 50 44.0358 48.1313 44.0358 45.8333V8.3333C44.0358 6.03535 42.1671 4.1667 39.8691 4.1667ZM16.9525 5.2083C16.9525 4.63359 17.4194 4.1666 17.9942 4.1666H21.697C22.0673 4.1666 22.4101 3.96924 22.5973 3.64883C23.168 2.66816 24.173 2.0833 25.2859 2.0833C26.3988 2.0833 27.4038 2.66826 27.9744 3.64883C28.1616 3.96924 28.5044 4.1666 28.8747 4.1666H32.5776C33.1523 4.1666 33.6193 4.6335 33.6193 5.2083V6.25C33.6193 7.39844 32.6844 8.3333 31.536 8.3333H19.0358C17.8873 8.3333 16.9525 7.39844 16.9525 6.25V5.2083ZM35.3973 39.2781C35.1939 39.4815 34.9273 39.5833 34.6608 39.5833C34.3943 39.5833 34.1278 39.4815 33.9242 39.2781L28.2852 33.6391C26.8739 34.7361 25.1242 35.4166 23.2024 35.4166C18.6074 35.4166 14.8691 31.6782 14.8691 27.0833C14.8691 22.4884 18.6074 18.75 23.2024 18.75C27.7974 18.75 31.5358 22.4884 31.5358 27.0833C31.5358 29.0052 30.8554 30.7548 29.7582 32.1661L35.3973 37.8051C35.8041 38.2121 35.8041 38.8713 35.3973 39.2781Z" fill="#14549B"/>
</svg>
