<svg width="51" height="50" viewBox="0 0 51 50" fill="none" xmlns="http://www.w3.org/2000/svg">
<g clip-path="url(#clip0)">
<path d="M26.2282 4.16667H23.9365C23.249 1.77083 21.0407 0 18.4157 0C15.7907 0 13.5824 1.77083 12.8949 4.16667H10.6032C9.74904 4.16667 9.04071 4.875 9.04071 5.72917V8.85417C9.04071 10.8542 10.6865 12.5 12.6865 12.5H24.1449C26.1449 12.5 27.7907 10.8542 27.7907 8.85417V5.72917C27.7907 4.875 27.0824 4.16667 26.2282 4.16667Z" fill="#14549B"/>
<path d="M30.395 6.25H29.8742V8.85417C29.8742 12.0208 27.3117 14.5833 24.145 14.5833H12.6867C9.52002 14.5833 6.95752 12.0208 6.95752 8.85417V6.25H6.43669C3.27002 6.25 0.70752 8.8125 0.70752 11.9792V38.0208C0.70752 41.1875 3.27002 43.75 6.43669 43.75H20.1659C19.1242 41.5208 18.4992 39.0625 18.4367 36.4583H8.52002C7.66585 36.4583 6.95752 35.75 6.95752 34.8958C6.95752 34.0417 7.66585 33.3333 8.52002 33.3333H18.6034C18.7909 32.0625 19.1034 30.8542 19.52 29.6875H8.52002C7.66585 29.6875 6.95752 28.9792 6.95752 28.125C6.95752 27.2708 7.66585 26.5625 8.52002 26.5625H21.02C21.8325 25.2292 22.7909 24 23.9159 22.9167H8.52002C7.66585 22.9167 6.95752 22.2083 6.95752 21.3542C6.95752 20.5 7.66585 19.7917 8.52002 19.7917H28.1867C30.5825 18.5417 33.27 17.7917 36.1242 17.7292V11.9792C36.1242 8.8125 33.5617 6.25 30.395 6.25Z" fill="#14549B"/>
<path d="M36.645 21.875C28.8909 21.875 22.5825 28.1833 22.5825 35.9375C22.5825 43.6917 28.8909 50 36.645 50C44.3992 50 50.7075 43.6917 50.7075 35.9375C50.7075 28.1833 44.3992 21.875 36.645 21.875ZM43.42 33.1438L36.1284 41.4771C35.7492 41.9104 35.2075 42.1687 34.6304 42.1875C34.6075 42.1875 34.5846 42.1875 34.5617 42.1875C34.0096 42.1875 33.4804 41.9688 33.0888 41.5771L28.9221 37.4104C28.1075 36.5958 28.1075 35.2792 28.9221 34.4646C29.7367 33.65 31.0534 33.65 31.8679 34.4646L34.4596 37.0563L40.2846 30.3979C41.0429 29.5354 42.3575 29.4437 43.2242 30.2021C44.0909 30.9604 44.1784 32.2771 43.42 33.1438Z" fill="#14549B"/>
</g>
<defs>
<clipPath id="clip0">
<rect width="50" height="50" fill="white" transform="translate(0.70752)"/>
</clipPath>
</defs>
</svg>
