<svg width="51" height="50" viewBox="0 0 51 50" fill="none" xmlns="http://www.w3.org/2000/svg">
<g clip-path="url(#clip0)">
<path d="M28.7308 44.8759C28.4103 44.7285 28.0925 44.5676 27.7781 44.398L27.4969 44.2428C27.1399 44.041 26.7824 43.8304 26.4423 43.5998C24.0837 42.029 22.1549 39.8936 20.8304 37.388C20.1721 37.4599 19.5107 37.4974 18.8485 37.4996C15.7008 37.5258 12.5966 36.7619 9.82076 35.2783C8.47229 38.5778 8.85856 42.332 10.8505 45.2879C12.8425 48.2433 16.1773 50.0108 19.7414 49.9999C23.4524 50.0143 26.9031 48.0951 28.8485 44.9347C28.8084 44.9169 28.77 44.8937 28.7308 44.8759ZM19.7414 48.2141C14.8122 48.2089 10.8178 44.2145 10.8126 39.2854H12.5984C12.6027 43.2288 15.798 46.424 19.7414 46.4284C20.8431 46.4314 21.9308 46.1764 22.9166 45.6837L23.7127 47.282C22.4802 47.8989 21.1199 48.2181 19.7414 48.2141Z" fill="#DF413A"/>
<path d="M11.926 30.3443C13.0439 30.9704 14.2437 31.439 15.4901 31.7359H15.5001C18.0951 32.3629 20.8138 32.2491 23.3477 31.4077H23.3538C24.5697 31.0061 25.7246 30.4385 26.7854 29.7209C32.106 26.1607 34.4088 19.4955 32.4203 13.4097C30.4314 7.32439 24.6373 3.30513 18.2407 3.57413C11.8441 3.84312 6.40788 8.33454 4.9369 14.5655C3.46635 20.7965 6.32025 27.245 11.9217 30.3461L11.926 30.3443ZM14.1992 12.3141L18.2171 8.29617C18.4726 8.04113 18.8563 7.96483 19.1902 8.10304C19.5238 8.2408 19.7413 8.56648 19.7413 8.92747V25.8921H22.4199C22.913 25.8921 23.3128 26.2919 23.3128 26.785C23.3128 27.2781 22.913 27.6779 22.4199 27.6779H15.2769C14.7838 27.6779 14.384 27.2781 14.384 26.785C14.384 26.2919 14.7838 25.8921 15.2769 25.8921H17.9556V11.0829L15.4618 13.5767C15.1112 13.915 14.5545 13.9102 14.2101 13.5658C13.8657 13.2214 13.8609 12.6646 14.1992 12.3141Z" fill="#DF413A"/>
<path d="M38.1987 14.4856C39.5088 21.98 36.3659 29.5555 30.1353 33.9218H30.1305C29.1104 34.649 28.02 35.2725 26.8751 35.7825C26.4797 35.9613 26.0799 36.1182 25.6771 36.2682C25.5519 36.3149 25.4272 36.3576 25.303 36.3995C25.0126 36.5002 24.721 36.5943 24.4289 36.6815C24.2959 36.7208 24.1607 36.7613 24.0278 36.7979C23.7003 36.8869 23.3699 36.9667 23.0394 37.0386C22.95 37.0565 22.8689 37.08 22.783 37.097L22.7207 37.111C22.7429 37.1493 22.7682 37.1868 22.7913 37.2256C23.0459 37.6529 23.3206 38.0666 23.6153 38.4673C23.6441 38.5056 23.6698 38.5471 23.6995 38.5854C24.0068 38.9905 24.3347 39.3802 24.6813 39.7521C24.7476 39.8245 24.8138 39.8968 24.8814 39.9675C25.2271 40.3245 25.5885 40.6703 25.9683 40.9951C26.0367 41.0531 26.1074 41.1084 26.1771 41.1655C26.5786 41.5017 26.9976 41.816 27.4323 42.1077C28.3688 42.735 29.3746 43.2521 30.4301 43.6488C32.1478 44.3085 33.9728 44.6455 35.813 44.6424C43.7295 44.6437 50.3162 38.5584 50.9405 30.6664C51.5648 22.7748 46.017 15.7294 38.1987 14.4856ZM29.8894 41.5086L28.343 40.6158L30.1288 37.5225L31.6752 38.4154L29.8894 41.5086ZM36.7059 42.8567H34.9202V39.2852H36.7059V42.8567ZM46.9648 21.994L47.8577 23.5404L44.7649 25.3261L43.872 23.7797L46.9648 21.994ZM41.7362 41.5086L39.9504 38.4154L41.4968 37.5225L43.2826 40.6158L41.7362 41.5086ZM41.4968 21.4045L39.9504 20.5116L41.7362 17.4188L43.2826 18.3117L41.4968 21.4045ZM46.9648 36.9335L43.872 35.1478L44.7649 33.6014L47.8577 35.3871L46.9648 36.9335ZM45.6347 30.3564V28.5706H49.2062V30.3564H45.6347Z" fill="#DF413A"/>
<path d="M9.8348 33.2736C12.5671 34.8784 15.6799 35.7211 18.8486 35.7137C19.6325 35.7159 20.4159 35.6627 21.1924 35.5559L21.2264 35.5515C21.6428 35.4979 22.0582 35.4286 22.472 35.344C23.7359 35.0842 24.9679 34.6861 26.1451 34.1577C27.1827 33.6947 28.1719 33.1293 29.0971 32.4701C33.8631 29.1296 36.7026 23.6764 36.7061 17.8562C36.7092 16.4423 36.5409 15.0332 36.2052 13.6599C34.2952 5.76265 27.2956 0.150344 19.1725 0.00298473C11.049 -0.144811 3.85017 5.20984 1.6546 13.0321C-0.540534 20.8548 2.82127 29.1728 9.8348 33.2736V33.2736ZM18.8486 1.78438C25.9253 1.78089 32.1707 6.40877 34.2276 13.1799C36.2845 19.951 33.6683 27.2706 27.7852 31.204C26.5902 32.0119 25.2893 32.6514 23.919 33.104H23.9138C22.2815 33.652 20.5707 33.9306 18.8486 33.928C17.5782 33.931 16.3125 33.7789 15.0787 33.4754H15.0717C13.6701 33.1402 12.3212 32.6131 11.0634 31.9094C4.6515 28.3619 1.45231 20.9254 3.28602 13.8308C5.1193 6.73619 11.5207 1.78133 18.8486 1.78438V1.78438Z" fill="#DF413A"/>
</g>
<defs>
<clipPath id="clip0">
<rect width="50" height="50" fill="white" transform="translate(0.879883)"/>
</clipPath>
</defs>
</svg>
