<svg width="51" height="50" viewBox="0 0 51 50" fill="none" xmlns="http://www.w3.org/2000/svg">
<path d="M45.9229 26.4648H43.339L30.0286 19.8097C32.3795 16.8076 31.2909 12.3613 27.732 10.8279C26.644 10.359 26.9186 9.08535 26.8799 8.88672C27.5899 8.81787 28.4211 9.1168 29.0589 8.38164L31.5999 5.45195C31.8313 5.18516 31.9586 4.84365 31.9581 4.49033L31.9544 1.46299C31.9533 0.654785 31.2978 0 30.4895 0H20.3406C19.5323 0 18.8768 0.654785 18.8758 1.46299L18.8721 4.49033C18.8716 4.84355 18.9989 5.18506 19.2303 5.45195L21.7713 8.38164C22.4118 9.12012 23.2333 8.81719 23.9502 8.88672V9.47471C23.9502 11.2447 24.9796 12.8319 26.5728 13.5185C27.6942 14.0017 28.389 15.1039 28.3425 16.3265C28.2475 18.8272 25.208 20.0785 23.3835 18.3218C22.8044 17.7643 22.4854 17.0146 22.4854 16.2109C22.4854 15.402 21.8295 14.7461 21.0205 14.7461C20.2115 14.7461 19.5557 15.402 19.5557 16.2109C19.5557 17.5373 19.991 18.7896 20.7937 19.8135L7.49111 26.4648H4.90723C4.09824 26.4648 3.44238 27.1207 3.44238 27.9297V48.5352C3.44238 49.3441 4.09824 50 4.90723 50H45.9229C46.7318 50 47.3877 49.3441 47.3877 48.5352V27.9297C47.3877 27.1207 46.7318 26.4648 45.9229 26.4648ZM23.4803 21.7457C24.6951 22.1694 26.0681 22.1894 27.3419 21.7418L36.788 26.4648H14.0421L23.4803 21.7457ZM13.6963 42.627C13.6963 43.4359 13.0404 44.0918 12.2314 44.0918C11.4225 44.0918 10.7666 43.4359 10.7666 42.627V33.8379C10.7666 33.0289 11.4225 32.373 12.2314 32.373C13.0404 32.373 13.6963 33.0289 13.6963 33.8379V42.627ZM22.4854 42.627C22.4854 43.4359 21.8295 44.0918 21.0205 44.0918C20.2115 44.0918 19.5557 43.4359 19.5557 42.627V33.8379C19.5557 33.0289 20.2115 32.373 21.0205 32.373C21.8295 32.373 22.4854 33.0289 22.4854 33.8379V42.627ZM31.2744 42.627C31.2744 43.4359 30.6186 44.0918 29.8096 44.0918C29.0006 44.0918 28.3447 43.4359 28.3447 42.627V33.8379C28.3447 33.0289 29.0006 32.373 29.8096 32.373C30.6186 32.373 31.2744 33.0289 31.2744 33.8379V42.627ZM40.0635 42.627C40.0635 43.4359 39.4076 44.0918 38.5986 44.0918C37.7896 44.0918 37.1338 43.4359 37.1338 42.627V33.8379C37.1338 33.0289 37.7896 32.373 38.5986 32.373C39.4076 32.373 40.0635 33.0289 40.0635 33.8379V42.627Z" fill="#14549B"/>
</svg>
