<svg width="50" height="50" viewBox="0 0 50 50" fill="none" xmlns="http://www.w3.org/2000/svg">
<path d="M29.5175 39.532C28.4091 41.6248 26.8472 43.2869 24.8299 44.5182C22.813 45.7485 20.6113 46.3646 18.2248 46.3646C14.7208 46.3646 11.7237 45.1199 9.23303 42.629C6.7426 40.1388 5.49728 37.1412 5.49728 33.6372C5.49728 31.1184 6.18835 28.8035 7.57108 26.691C8.95362 24.5793 10.8003 23.0119 13.1108 21.9893L12.6279 18.2676C9.40806 19.442 6.80887 21.44 4.8295 24.262C2.85033 27.0841 1.86084 30.2095 1.86084 33.6372C1.86084 36.5926 2.59479 39.3242 4.06251 41.8335C5.53022 44.3429 7.51884 46.3316 10.0283 47.7992C12.5374 49.2668 15.27 50.0004 18.2244 50.0004C21.7662 50.0004 24.9766 48.9494 27.8551 46.8472C30.734 44.7454 32.7226 41.9987 33.8211 38.6085L30.9236 32.8131C31.0941 35.1998 30.6255 37.4391 29.5175 39.532Z" fill="#14549B"/>
<path d="M46.4919 35.6536L40.8671 38.4664L34.3896 25.5402C34.0675 24.8775 33.5274 24.5459 32.7701 24.5459H19.8436L19.389 20.9097H30.9521V17.273H18.935L17.8836 9.06259C19.1718 9.19504 20.3082 8.80209 21.293 7.88365C22.2779 6.96511 22.7703 5.85244 22.7703 4.54553C22.7703 3.29553 22.3254 2.22535 21.4352 1.33507C20.5446 0.444891 19.4743 0 18.2246 0C17.202 0 16.2831 0.29812 15.4689 0.894757C14.6543 1.49139 14.1146 2.27232 13.8495 3.23822C13.6978 3.73097 13.641 4.1285 13.6791 4.43159L16.4061 26.5627C16.4631 27.0179 16.6663 27.4007 17.0167 27.714C17.3671 28.0259 17.7696 28.1825 18.2242 28.1825H31.6334L38.4242 41.734C38.7463 42.3963 39.2856 42.7283 40.044 42.7283C40.347 42.7283 40.6212 42.6622 40.8678 42.5295L48.1392 38.8927L46.4919 35.6536Z" fill="#14549B"/>
</svg>
