<svg width="50" height="50" viewBox="0 0 50 50" fill="none" xmlns="http://www.w3.org/2000/svg">
<path d="M39.6484 20.5078C39.6484 18.8813 38.9775 17.355 37.8146 16.2521C38.0577 15.2649 38.1836 14.2207 38.1836 13.1836C38.1836 5.91377 32.2698 0 25 0C17.7302 0 11.8164 5.91377 11.8164 13.1836C11.8164 14.1992 11.938 15.2393 12.1712 16.242C11.0168 17.3393 10.3516 18.8685 10.3516 20.5078C10.3516 23.7394 12.9794 26.3672 16.2109 26.3672C17.959 26.3672 19.5312 25.5976 20.6055 24.3788C21.6798 25.5976 23.252 26.3672 25 26.3672C26.748 26.3672 28.3202 25.5976 29.3945 24.3788C30.4688 25.5976 32.041 26.3672 33.7891 26.3672C37.1962 26.3672 39.6484 23.5505 39.6484 20.5078Z" fill="#14549B"/>
<path d="M19.7489 38.5094L23.6281 49.0483C23.8427 49.6205 24.3891 49.9996 25 49.9996C25.6108 49.9996 26.1573 49.6205 26.3719 49.0497L33.71 29.2859C32.8767 29.2782 32.0647 29.1329 31.2802 28.9004L19.7489 38.5094Z" fill="#14549B"/>
<path d="M25 29.2964C23.4422 29.2964 21.9287 28.8815 20.6054 28.1162C19.3051 28.8683 17.8192 29.2717 16.2899 29.2858L18.6593 35.6037L26.4604 29.1027C25.9764 29.1854 25.4978 29.2964 25 29.2964V29.2964Z" fill="#14549B"/>
</svg>
