<svg width="50" height="50" viewBox="0 0 50 50" fill="none" xmlns="http://www.w3.org/2000/svg">
<path d="M10.4167 20.8333V26.0416H39.5834V20.8333C39.5834 17.9625 41.9189 15.625 44.7917 15.625H45.8334V12.5C45.8334 10.7771 44.4314 9.375 42.7084 9.375H7.29175C5.5688 9.375 4.16675 10.7771 4.16675 12.5V15.625H5.20845C8.0813 15.625 10.4167 17.9625 10.4167 20.8333Z" fill="#14549B"/>
<path d="M46.875 17.708H44.7917C43.0687 17.708 41.6667 19.1101 41.6667 20.833V27.083C41.6667 27.658 41.2 28.1247 40.625 28.1247H9.375C8.8 28.1247 8.3333 27.658 8.3333 27.083V20.833C8.3333 19.1101 6.93125 17.708 5.2083 17.708H3.125C1.40205 17.708 0 19.1101 0 20.833V33.333C0 35.056 1.40205 36.458 3.125 36.458H4.1667V39.583C4.1667 40.158 4.6334 40.6247 5.2084 40.6247H11.4584C12.0334 40.6247 12.5001 40.158 12.5001 39.583V36.458H37.5001V39.583C37.5001 40.158 37.9668 40.6247 38.5418 40.6247H44.7918C45.3668 40.6247 45.8335 40.158 45.8335 39.583V36.458H46.875C48.5979 36.458 50 35.056 50 33.333V20.833C50 19.1102 48.5979 17.708 46.875 17.708Z" fill="#14549B"/>
</svg>
