<svg width="50" height="50" viewBox="0 0 50 50" fill="none" xmlns="http://www.w3.org/2000/svg">
<path d="M37.0769 0.309418C29.951 0.309418 24.1536 6.10668 24.1536 13.2326C24.1536 20.7276 32.3121 29.3855 35.149 32.1693L30.2422 38.3686L22.7092 28.2796L15.6491 41.5339L11.2579 37.1755L6.39248 46.7611H0V49.6908H8.19092L12.0495 42.0889L16.3821 46.3893L23.1242 33.7322L30.1744 43.1746L38.4968 32.6601C40.6719 30.5908 50 21.2472 50 13.2326C50 6.10668 44.2027 0.309418 37.0769 0.309418ZM37.0766 29.9509C36.0195 28.9024 34.2552 27.0621 32.4995 24.8275C28.9563 20.3179 27.0833 16.3083 27.0833 13.2325C27.0833 7.72202 31.5664 3.23901 37.0769 3.23901C42.5873 3.23911 47.0703 7.72211 47.0703 13.2326C47.0703 16.3002 45.2065 20.2982 41.6806 24.7939C39.9203 27.0384 38.1404 28.8953 37.0766 29.9509Z" fill="#DF413A"/>
<path d="M36.1342 12.1654C36.1342 11.849 36.4242 11.5854 37.3339 11.5854C38.138 11.5854 38.9948 11.8095 39.9045 12.2709L40.8405 10.0166C40.0892 9.59474 39.1399 9.34425 38.1644 9.25197V7.84132H36.3056V9.27814C34.1436 9.58136 33.0626 10.8338 33.0626 12.3234C33.0626 15.7643 38.1644 14.8282 38.1644 15.9884C38.1644 16.3048 37.848 16.4894 36.9647 16.4894C35.9496 16.4894 34.7895 16.1598 33.9194 15.6456L32.9175 17.9131C33.7084 18.4009 34.9872 18.7568 36.3055 18.8359V20.2334H38.1643V18.77C40.2077 18.4141 41.236 17.1749 41.236 15.7512C41.236 12.35 36.1342 13.2727 36.1342 12.1654Z" fill="#DF413A"/>
</svg>
