<svg width="50" height="50" viewBox="0 0 50 50" fill="none" xmlns="http://www.w3.org/2000/svg">
<path d="M33.5938 37.5C33.2484 37.5 32.9125 37.5359 32.5852 37.5969L27.7969 26.9313L34.375 3.90625L33.5938 1.5625L25 20.7031L16.4062 1.5625L15.625 3.90625L22.2039 26.9313L17.4156 37.5969C17.0875 37.5359 16.7516 37.5 16.4062 37.5C13.3859 37.5 10.9375 39.9484 10.9375 42.9688C10.9375 45.9891 13.3859 48.4375 16.4062 48.4375C19.4266 48.4375 21.875 45.9891 21.875 42.9688C21.875 41.1148 20.95 39.4789 19.5391 38.4898L21.9563 34.0016C22.6133 32.782 23.7172 31.9 25 31.4977C26.2836 31.9 27.3875 32.7812 28.0437 34.0016L30.4609 38.4898C29.05 39.4789 28.125 41.1148 28.125 42.9688C28.125 45.9891 30.5734 48.4375 33.5938 48.4375C36.6141 48.4375 39.0625 45.9891 39.0625 42.9688C39.0625 39.9484 36.6141 37.5 33.5938 37.5V37.5ZM16.4062 46.0938C14.6805 46.0938 13.2812 44.6945 13.2812 42.9688C13.2812 41.243 14.6805 39.8438 16.4062 39.8438C18.132 39.8438 19.5312 41.243 19.5312 42.9688C19.5312 44.6945 18.132 46.0938 16.4062 46.0938ZM25.7812 27.3438V28.9062H24.2188V27.3438H25.7812ZM33.5938 46.0938C31.868 46.0938 30.4688 44.6945 30.4688 42.9688C30.4688 41.243 31.868 39.8438 33.5938 39.8438C35.3195 39.8438 36.7188 41.243 36.7188 42.9688C36.7188 44.6945 35.3195 46.0938 33.5938 46.0938Z" fill="#14549B"/>
</svg>
