<svg width="50" height="50" viewBox="0 0 50 50" fill="none" xmlns="http://www.w3.org/2000/svg">
<g clip-path="url(#clip0)">
<path d="M25.0001 0C14.4589 0 5.88232 8.57658 5.88232 19.1177V36.7645C5.88232 39.1975 7.86139 41.1766 10.294 41.1766C12.727 41.1766 14.7061 39.1975 14.7061 36.7645V22.0589C14.7061 19.6262 12.727 17.6472 10.294 17.6472C9.79887 17.6472 9.33043 17.7475 8.88525 17.8986C9.51277 9.54781 16.4929 2.94113 25.0001 2.94113C33.5026 2.94113 40.4809 9.5417 41.1141 17.8867C40.6716 17.7353 40.2005 17.6472 39.7061 17.6472C37.2731 17.6472 35.294 19.6262 35.294 22.0589V36.7645C35.294 39.1975 37.2731 41.1766 39.7061 41.1766C40.2241 41.1766 40.7143 41.0706 41.1767 40.9058V42.6472C41.1767 43.4586 40.516 44.1177 39.7061 44.1177H29.1409C28.5317 42.4095 26.9147 41.1766 25.0001 41.1766C22.5674 41.1766 20.5884 43.1557 20.5884 45.5883C20.5884 48.0209 22.5674 50 25.0001 50C26.9147 50 28.5317 48.7667 29.1409 47.0589H39.7061C42.1387 47.0589 44.1178 45.0798 44.1178 42.6472C44.1178 33.8017 44.1178 27.9728 44.1178 19.1177C44.1178 8.57658 35.5412 0 25.0001 0V0Z" fill="#DF413A"/>
<path d="M47.0591 20.8591V37.9642C48.7669 37.3554 50.0002 35.7384 50.0002 33.8234V25C50.0002 23.0854 48.7669 21.4683 47.0591 20.8591V20.8591Z" fill="#DF413A"/>
<path d="M0 25V33.8234C0 35.7384 1.23329 37.3554 2.94113 37.9642V20.8591C1.23329 21.4683 0 23.0854 0 25Z" fill="#DF413A"/>
</g>
<defs>
<clipPath id="clip0">
<rect width="50" height="50" fill="white"/>
</clipPath>
</defs>
</svg>
