<svg width="40" height="50" viewBox="0 0 40 50" fill="none" xmlns="http://www.w3.org/2000/svg">
<path d="M20.0001 0C9.45891 0 0.882324 8.57658 0.882324 19.1177V36.7645C0.882324 39.1975 2.86139 41.1766 5.29402 41.1766C7.72704 41.1766 9.7061 39.1975 9.7061 36.7645V22.0589C9.7061 19.6262 7.72704 17.6472 5.29402 17.6472C4.79887 17.6472 4.33043 17.7475 3.88525 17.8986C4.51277 9.54781 11.4929 2.94113 20.0001 2.94113C28.5026 2.94113 35.4809 9.5417 36.1141 17.8867C35.6716 17.7353 35.2005 17.6472 34.7061 17.6472C32.2731 17.6472 30.294 19.6262 30.294 22.0589V36.7645C30.294 39.1975 32.2731 41.1766 34.7061 41.1766C35.2241 41.1766 35.7143 41.0706 36.1767 40.9058V42.6472C36.1767 43.4586 35.516 44.1177 34.7061 44.1177H24.1409C23.5317 42.4095 21.9147 41.1766 20.0001 41.1766C17.5674 41.1766 15.5884 43.1557 15.5884 45.5883C15.5884 48.0209 17.5674 50 20.0001 50C21.9147 50 23.5317 48.7667 24.1409 47.0589H34.7061C37.1387 47.0589 39.1178 45.0798 39.1178 42.6472C39.1178 33.8017 39.1178 27.9728 39.1178 19.1177C39.1178 8.57658 30.5412 0 20.0001 0V0Z" fill="#14549B"/>
</svg>
