<svg width="50" height="50" viewBox="0 0 50 50" fill="none" xmlns="http://www.w3.org/2000/svg">
<path d="M47.5146 22.5484L26.7449 3.62309C25.8332 2.79227 24.4585 2.79236 23.5472 3.623L2.77738 22.5484C2.04711 23.2139 1.80589 24.2392 2.16266 25.1604C2.51952 26.0816 3.3884 26.6768 4.37635 26.6768H7.69364V45.6385C7.69364 46.3903 8.30321 46.9999 9.05501 46.9999H20.4394C21.1912 46.9999 21.8008 46.3904 21.8008 45.6385V34.1256H28.4916V45.6386C28.4916 46.3904 29.1011 47 29.8529 47H41.2368C41.9886 47 42.5981 46.3905 42.5981 45.6386V26.6768H45.9161C46.9039 26.6768 47.7729 26.0816 48.1297 25.1604C48.4861 24.2391 48.2448 23.2139 47.5146 22.5484Z" fill="#14549B"/>
</svg>
