<svg width="50" height="50" viewBox="0 0 50 50" fill="none" xmlns="http://www.w3.org/2000/svg">
<path d="M19.7773 30.9571H30.2227L27.6581 24.0029C26.9192 24.566 25.9984 24.9009 25 24.9009C24.0017 24.9009 23.0809 24.5656 22.342 24.0029L19.7773 30.9571Z" fill="#14549B"/>
<path d="M26.4648 20.5065V14.6475H23.5352V20.5065C23.5352 21.314 24.1924 21.9713 25 21.9713C25.8076 21.9713 26.4648 21.314 26.4648 20.5065Z" fill="#14549B"/>
<path d="M39.8743 22.9193L36.2537 17.1488C35.7773 16.3889 35.4836 15.5348 35.3909 14.6475H29.3945V20.2448L34.4257 33.8869H15.5743L20.6055 20.2448V14.6475H14.6091C14.5164 15.534 14.2231 16.3889 13.7459 17.1488L10.1257 22.9193C8.29315 25.7562 7.32422 28.9339 7.32422 32.324C7.32422 42.0862 15.2378 49.9998 25 49.9998C34.7622 49.9998 42.6758 42.0862 42.6758 32.324C42.6758 28.9335 41.7072 25.7562 39.8743 22.9193Z" fill="#14549B"/>
<path d="M35.353 8.78809H14.6469L14.6434 11.7178H35.3565L35.353 8.78809Z" fill="#14549B"/>
<path d="M31.8687 0H18.1312L15.2073 5.85861H34.7927L31.8687 0Z" fill="#14549B"/>
</svg>
