<svg width="50" height="50" viewBox="0 0 50 50" fill="none" xmlns="http://www.w3.org/2000/svg">
<g clip-path="url(#clip0)">
<path d="M38.5618 0H11.4387C9.06951 0 7.14197 1.92755 7.14197 4.2967V22.0806C7.14197 24.4498 9.06951 26.3773 11.4387 26.3773H18.6444L15.9893 48.3654C15.8926 49.1657 16.463 49.8928 17.2633 49.9894C18.0634 50.0859 18.7905 49.5155 18.8872 48.7153L19.5161 43.5069L24.9781 37.2433L30.4844 43.5087L31.1132 48.7152C31.2026 49.4561 31.8324 50 32.5603 49.9999C32.6186 49.9999 32.6777 49.9964 32.7371 49.9893C33.5374 49.8927 34.1078 49.1655 34.0111 48.3653L31.356 26.3772H38.5617C40.9309 26.3772 42.8584 24.4496 42.8584 22.0805V4.2967C42.8585 1.92755 40.931 0 38.5618 0ZM15.5233 20.8424C13.9697 20.8424 12.7103 19.583 12.7103 18.0295C12.7103 16.4759 13.9697 15.2166 15.5233 15.2166C17.077 15.2166 18.3363 16.4759 18.3363 18.0295C18.3363 19.583 17.077 20.8424 15.5233 20.8424ZM15.5234 11.3381C13.9699 11.3381 12.7104 10.0788 12.7104 8.52523C12.7104 6.97171 13.9698 5.71233 15.5234 5.71233C17.0771 5.71233 18.3364 6.97171 18.3364 8.52523C18.3364 10.0788 17.077 11.3381 15.5234 11.3381ZM25.0002 5.71223C26.5538 5.71223 27.8131 6.97161 27.8131 8.52513C27.8131 10.0787 26.5538 11.3381 25.0002 11.3381C23.4467 11.3381 22.1873 10.0788 22.1873 8.52513C22.1873 6.97161 23.4467 5.71223 25.0002 5.71223ZM25.0002 15.2166C26.5538 15.2166 27.8131 16.4759 27.8131 18.0295C27.8131 19.583 26.5538 20.8424 25.0002 20.8424C23.4467 20.8424 22.1873 19.583 22.1873 18.0295C22.1873 16.4759 23.4467 15.2166 25.0002 15.2166ZM20.1388 38.3516L20.8409 32.5361L23.034 35.0314L20.1388 38.3516ZM24.9696 32.8118L21.3074 28.6737L21.5847 26.3774H28.4159L28.6824 28.5845C28.6238 28.6334 24.9696 32.8118 24.9696 32.8118ZM26.9136 35.0239L29.1502 32.459L29.8655 38.3826L26.9136 35.0239ZM34.477 20.8424C32.9235 20.8424 31.664 19.583 31.664 18.0295C31.664 16.4759 32.9234 15.2166 34.477 15.2166C36.0306 15.2165 37.29 16.4759 37.29 18.0295C37.29 19.583 36.0307 20.8424 34.477 20.8424ZM34.477 11.3381C32.9235 11.3381 31.664 10.0788 31.664 8.52523C31.664 6.97171 32.9234 5.71233 34.477 5.71233C36.0306 5.71233 37.29 6.97171 37.29 8.52523C37.29 10.0788 36.0306 11.3381 34.477 11.3381Z" fill="#14549B"/>
</g>
<defs>
<clipPath id="clip0">
<rect width="50" height="50" fill="white"/>
</clipPath>
</defs>
</svg>
