<svg width="50" height="50" viewBox="0 0 50 50" fill="none" xmlns="http://www.w3.org/2000/svg">
<g clip-path="url(#clip0)">
<path d="M48.5343 43.0957H41.9072C41.9998 43.57 42.0497 44.0595 42.0497 44.5605C42.0497 45.0616 41.9998 45.5511 41.9072 46.0254H48.5343C49.3433 46.0254 49.9991 45.3695 49.9991 44.5605C49.9991 43.7516 49.3433 43.0957 48.5343 43.0957Z" fill="#14549B"/>
<path d="M12.4479 49.2674C15.0475 49.2674 17.1548 47.16 17.1548 44.5604C17.1548 41.9609 15.0475 39.8535 12.4479 39.8535C9.84833 39.8535 7.74097 41.9609 7.74097 44.5604C7.74097 47.16 9.84833 49.2674 12.4479 49.2674Z" fill="#14549B"/>
<path d="M39.1212 0.732422C38.3122 0.732422 37.6563 1.38828 37.6563 2.19727V20.2987L31.0521 5.20371C29.9551 2.69639 26.9521 0.732422 24.2155 0.732422H10.0944C7.12383 0.732422 4.70703 3.14912 4.70703 6.11973V25.8811C2.05664 26.2167 0 28.484 0 31.2239V40.6379C0 43.4611 2.1835 45.7826 4.9502 46.0061C4.86006 45.5377 4.81113 45.0548 4.81113 44.5605C4.81113 40.3495 8.23701 36.9237 12.4479 36.9237C16.6586 36.9237 20.0843 40.3495 20.0843 44.5605C20.0843 45.0615 20.0344 45.551 19.9418 46.0253H26.9197C26.8272 45.551 26.7772 45.0615 26.7772 44.5605C26.7772 40.3495 30.203 36.9237 34.414 36.9237C36.9478 36.9237 39.196 38.1652 40.5858 40.0708V2.19727C40.586 1.38828 39.9302 0.732422 39.1212 0.732422V0.732422ZM33.4519 25.8365L26.0408 18.4257L27.224 17.2425C27.7961 16.6705 27.7961 15.7429 27.224 15.1709C26.652 14.5989 25.7245 14.5989 25.1524 15.1709L22.9339 17.3895C22.9338 17.3896 22.9336 17.3898 22.9334 17.3899C22.9332 17.39 22.9331 17.3902 22.9329 17.3904L20.7145 19.609C20.1424 20.181 20.1424 21.1085 20.7145 21.6806C21.0005 21.9666 21.3754 22.1096 21.7502 22.1096C22.1251 22.1096 22.5 21.9665 22.7859 21.6806L23.9691 20.4974L29.3084 25.8366H13.9128V14.7493C13.9128 13.9403 13.2569 13.2845 12.4479 13.2845C11.639 13.2845 10.9831 13.9403 10.9831 14.7493V25.8365H7.63672V6.11973C7.63672 4.76455 8.73926 3.66211 10.0944 3.66211H24.2155C25.7946 3.66211 27.7351 4.93125 28.3681 6.37812L36.8813 25.8366H33.4519V25.8365Z" fill="#14549B"/>
<path d="M34.4151 49.2674C37.0146 49.2674 39.122 47.16 39.122 44.5604C39.122 41.9609 37.0146 39.8535 34.4151 39.8535C31.8155 39.8535 29.7081 41.9609 29.7081 44.5604C29.7081 47.16 31.8155 49.2674 34.4151 49.2674Z" fill="#14549B"/>
</g>
<defs>
<clipPath id="clip0">
<rect width="50" height="50" fill="white"/>
</clipPath>
</defs>
</svg>
