<svg width="51" height="50" viewBox="0 0 51 50" fill="none" xmlns="http://www.w3.org/2000/svg">
<g clip-path="url(#clip0)">
<path d="M46.6406 18.2559C47.18 18.2559 47.6172 17.8186 47.6172 17.2793C47.6172 16.74 47.18 16.3027 46.6406 16.3027C46.1013 16.3027 45.6641 16.74 45.6641 17.2793C45.6641 17.8186 46.1013 18.2559 46.6406 18.2559Z" fill="#14549B"/>
<path d="M49.7811 20.607C49.6131 20.2799 49.2801 20.0758 48.9119 20.0758C48.7557 20.0758 48.6063 20.1129 48.4666 20.1842C48.2352 20.3033 48.0633 20.5055 47.9832 20.7535C47.9031 21.0016 47.9246 21.2662 48.0438 21.4986C48.3094 22.0162 48.7557 23.0797 48.7547 24.3814C48.7547 24.5191 48.7488 24.6588 48.74 24.7965C48.6829 25.5459 48.5798 26.0414 48.4554 26.4293L36.2011 25.1213L36.4149 22.0375C36.4337 21.7674 36.3395 21.503 36.1548 21.3051C35.9701 21.1071 35.7115 20.9961 35.4408 20.9961H32.7869L33.744 10.8723C33.844 10.8992 33.9482 10.9112 34.0529 10.905L35.7307 10.8102C36.0705 10.7916 36.3801 10.5924 36.5393 10.2916C36.6164 10.1441 37.3049 8.74277 37.5481 5.10313C37.6164 4.05234 37.7551 3.37949 37.8606 2.99668C38.0813 3.4127 38.3586 4.05918 38.4387 4.7916C38.509 5.41465 38.5686 5.82187 38.632 6.11191C38.6652 6.25645 38.757 6.57148 38.9328 6.77988C38.9796 6.83535 39.0617 6.92129 39.1916 6.99551C39.3332 7.07656 39.508 7.129 39.6721 7.129H39.6779H39.6838C39.7551 7.129 39.8293 7.11367 39.9016 7.09707L40.009 7.08691C40.0813 7.24316 40.1809 7.50518 40.2434 7.87432C40.3508 8.50615 40.508 8.97803 40.7365 9.3627C40.924 9.68398 41.1711 9.91211 41.3449 10.0479C41.3664 10.0859 42.6018 12.7096 42.9875 13.4078C43.1594 13.7184 43.4875 13.9117 43.843 13.9117C44.007 13.9117 44.1701 13.8687 44.3156 13.7887C44.7863 13.5279 44.9572 12.9322 44.6965 12.4615C44.3508 11.8385 43.9816 11.0416 43.6565 10.3385C43.6565 10.3385 43.3068 9.58652 43.176 9.33066C43.1164 9.21445 43.052 9.09043 42.9768 8.96934C42.9377 8.90684 42.9016 8.85215 42.8527 8.78965C42.8469 8.78184 42.7258 8.63535 42.5891 8.53672C42.5891 8.53672 42.4748 8.45176 42.4133 8.35996C42.3576 8.26816 42.2522 8.04062 42.1682 7.54453C42.0705 6.96738 41.8898 6.4332 41.6467 5.99961C41.5451 5.81797 41.4406 5.6666 41.3293 5.5377C41.2707 5.47031 41.215 5.4127 41.135 5.34629C41.0891 5.31016 40.9348 5.21641 40.9211 5.20859C40.7346 5.09043 40.4524 5.10215 40.4436 5.10215C40.4221 4.94004 40.4006 4.76328 40.3801 4.57578C40.2854 3.73105 40.0129 2.88242 39.5705 2.05332C39.218 1.39512 38.8684 0.95791 38.7356 0.799609C38.5246 0.547656 38.1779 0.390625 37.8439 0.390625C37.4856 0.390625 37.1457 0.534961 36.8508 0.810352C36.5031 1.14434 36.2512 1.59736 36.0354 2.28096C35.8156 2.98994 35.6731 3.8707 35.5988 4.97324C35.4826 6.72812 35.258 7.87168 35.09 8.52207C35.0568 8.65391 35.0207 8.77988 34.9856 8.896L34.3225 8.93311C33.8234 8.52393 32.8117 7.6958 31.636 6.73877C31.0765 6.27978 30.4954 5.92334 29.9105 5.67822C29.9778 5.5708 30.0325 5.45752 30.0667 5.34814C30.1097 5.21533 30.1351 5.07959 30.1439 4.93311C30.3021 4.87256 30.8499 4.69287 30.8577 4.68896C30.9124 4.6665 30.9798 4.63818 31.0921 4.56201C31.1614 4.51123 31.2435 4.44678 31.3353 4.32178C31.428 4.19775 31.5257 3.97998 31.5237 3.73877C31.5228 3.68018 31.4983 3.4624 31.4798 3.34619C31.4476 3.13818 31.4144 2.95361 31.3821 2.79639C31.3607 2.69678 31.2835 2.41846 31.2503 2.34033C31.2327 2.30225 31.1565 2.16943 31.1507 2.16162C31.1058 2.09521 31.0442 2.00439 30.8753 1.88623C30.7064 1.77979 30.6106 1.7583 30.5403 1.74268C30.5267 1.73975 30.514 1.73682 30.5023 1.73291C30.3968 1.71436 30.1106 1.70557 30.0228 1.70557C29.8763 1.70459 29.6937 1.70361 29.4407 1.69482C28.9222 1.67627 28.3685 1.63545 27.7503 1.56514C27.1409 1.4958 26.639 1.46475 26.1722 1.46475H26.1614C24.8685 1.46475 23.7083 1.7292 22.142 2.18916C21.3002 2.4333 20.6293 2.85117 20.2025 3.39902C19.7016 4.03379 19.6303 4.70703 19.6322 5.05186C19.6322 5.23838 19.6508 5.42266 19.6869 5.60137C19.64 5.575 19.6029 5.53877 19.5277 5.42256C19.349 5.11006 19.0727 4.85293 18.768 4.69863C18.4897 4.55508 18.1723 4.49229 17.8256 4.49229H17.8207C17.0746 4.49229 16.4145 4.76201 15.7758 5.02285C15.2777 5.2377 14.892 5.56055 14.5492 5.88281C14.1137 6.29883 13.6615 6.82061 13.1684 7.48271C12.8051 7.971 12.5697 8.33584 12.5678 8.33887C12.4457 8.5293 12.393 8.75713 12.4193 8.98174L12.4594 9.32617C12.4154 9.34082 12.3725 9.35527 12.3324 9.36992C12.0668 9.46855 11.7553 9.60322 11.4506 9.85225C11.2729 10.0007 11.1352 10.1618 11.0297 10.3454C10.8979 10.5739 10.8266 10.8425 10.8275 11.1031C10.8275 11.1256 10.8207 11.2135 10.8002 11.2662C10.7133 11.5162 10.3891 11.9742 9.99844 12.3092C9.57657 12.6832 9.07266 12.943 8.64981 13.0064C8.37246 13.0514 8.14981 13.1119 7.94668 13.1969C7.7543 13.277 7.57754 13.3873 7.43399 13.5152C7.19961 13.7242 7.07852 13.9488 7.01407 14.0689C7.00625 14.0826 6.99942 14.0953 6.99356 14.1061C6.94961 14.1881 6.93496 14.2105 6.92715 14.2193C6.9252 14.2203 6.92325 14.2223 6.92129 14.2252C6.90957 14.2389 6.87832 14.273 6.7084 14.3492C6.56387 14.4117 6.21914 14.5309 5.53457 14.6363C3.69375 14.9176 2.66348 15.6295 2.12256 16.1773C1.68799 16.6148 1.46827 17.0348 1.36182 17.3082C1.26026 17.4518 1.16553 17.6109 1.08155 17.7828C0.911625 18.1305 0.7085 18.6949 0.707523 19.4059C0.706547 20.0611 0.886234 20.7496 1.22705 21.3961C1.4087 21.7379 1.47022 21.9635 1.49073 22.0689C1.23584 22.1715 1.06475 22.3775 0.969047 22.6354C0.854594 22.9431 0.891605 23.2801 1.10625 23.5418C1.1334 23.5749 1.73575 24.2838 2.08438 24.7291C2.25528 24.9459 2.52657 25.3717 2.53829 25.3932C2.55391 25.6314 2.6752 25.9439 2.68204 25.9615C2.80215 26.2398 2.95889 26.5006 3.15616 26.8063C3.56143 27.4283 4.16377 28.2369 4.94786 29.2115C5.32871 29.6725 5.6001 30.4273 5.59131 31.0064C5.59131 31.0621 5.58926 31.1158 5.58536 31.1666C5.57559 31.275 5.56045 31.3111 5.55362 31.3258C5.54678 31.3414 5.53555 31.359 5.3793 31.5309C5.29727 31.6246 5.19278 31.7545 5.10489 31.9332C5.01114 32.1217 4.95254 32.3541 4.94473 32.5729C4.94375 32.6041 4.94278 32.6314 4.94278 32.6588C4.9418 32.8844 4.98672 33.2164 5.2084 33.5133C5.34121 33.6939 5.54727 33.8502 5.75821 33.9313C5.99942 34.023 6.1752 34.0338 6.30313 34.0426C6.31973 34.0436 6.33536 34.0445 6.35 34.0455C6.38028 34.0465 6.46133 34.0504 6.46133 34.0504C6.46817 34.0602 6.58536 34.2252 6.58536 34.2252C6.60879 34.2564 6.71329 34.3688 6.72305 34.3785C6.78164 34.4342 6.87051 34.5213 7.08438 34.6043C7.75039 34.8387 8.40127 34.9609 9.00674 34.9609C9.61416 34.9609 10.2162 34.8406 10.8363 34.6004C11.3481 34.4002 11.7953 34.1594 12.227 33.927C12.476 33.7941 12.7113 33.6664 12.9516 33.5512C13.5473 33.265 14.2279 32.9912 15.1752 32.9297C16.1078 32.8701 16.7309 32.7615 17.2572 32.5691C17.6371 32.4305 17.9818 32.2224 18.2553 31.9675C18.5014 31.7341 18.6664 31.5192 18.8129 31.3298C18.8959 31.2214 18.975 31.1198 19.0609 31.0231C19.2953 30.7556 19.5981 30.4623 20.227 30.0795C21.0698 29.5732 21.9249 29.3253 22.9048 29.2993C22.9626 29.2978 23.1996 29.2978 23.2558 29.2993C24.257 29.326 25.2475 29.5849 26.1721 29.8706C26.2688 29.8921 26.5178 30.0489 26.7775 30.3858C27.1086 30.7989 27.4807 31.4916 27.7746 32.2406C27.9074 32.5746 28.0022 32.855 28.0588 33.0328C28.0647 33.0514 28.0695 33.0685 28.0754 33.0852C28.0861 33.1623 28.1027 33.2372 28.1262 33.3115C28.1398 33.3555 28.1711 33.4432 28.1711 33.4432C28.1779 33.4617 28.2756 33.653 28.2785 33.6579C28.301 33.6901 28.3303 33.7351 28.4006 33.8083C28.4377 33.8444 28.4934 33.891 28.5979 33.9545C28.7531 34.0443 28.9191 34.0821 29.0998 34.0821C29.2531 34.0821 29.4279 34.0463 29.5607 33.9721C29.801 33.8383 29.9084 33.6714 29.969 33.5552C30.0383 33.4087 30.051 33.3287 30.0607 33.269C30.0617 33.2593 30.0725 33.1476 30.0725 33.1192C30.0715 33.0372 30.0607 32.9683 30.0607 32.9624C30.0481 32.8892 30.0266 32.8043 30.0236 32.7954C30.0481 32.7007 30.1018 32.5425 30.1789 32.3813C30.2326 32.2642 30.2981 32.1382 30.3742 32.0044C30.549 32.4722 30.758 32.9478 30.9807 33.3804C31.1467 33.7007 31.2932 33.9478 31.4426 34.1606C31.5119 34.2573 31.8647 34.7106 32.1232 34.7905C32.1408 34.8374 32.4553 35.8052 32.551 36.0913C32.7287 36.6255 33.09 37.1089 33.5979 37.4888C34.3234 38.0288 35.1535 38.2856 35.7961 38.4497C36.5842 38.646 37.3293 38.7358 37.8215 38.7866C38.1477 38.8198 38.4982 38.8364 38.8645 38.8364C39.4592 38.8364 40.0656 38.7925 40.6174 38.7085C40.8928 38.6675 41.135 38.6187 41.3557 38.562C41.5246 38.5181 41.7229 38.4685 41.926 38.3767C41.9611 38.3737 42.9397 38.3788 42.9397 38.3788C43.3322 38.3788 43.7766 38.3645 44.2746 38.1604C44.4856 38.0715 44.7834 37.8968 45.007 37.5813C45.2004 37.3108 45.3098 36.9501 45.3068 36.5917C45.3068 36.5321 45.4003 35.8921 45.6151 35.4312C45.8925 34.811 46.3701 33.981 46.9404 33.1528C47.1748 32.812 47.4161 32.4741 47.6465 32.1763C47.876 31.8794 48.0523 31.6714 48.1353 31.5835C48.2808 31.4292 48.5787 31.1704 48.5953 31.1567C48.6881 31.0776 48.7835 30.9956 48.8909 30.8892C49.1185 30.6665 49.3077 30.3735 49.4083 30.0864C49.5177 29.7817 49.5703 29.4458 49.5791 28.9956C49.5859 28.8022 49.6123 28.6997 49.6709 28.5435C49.7061 28.4468 50.0684 27.7017 50.1991 27.3618C50.4628 26.6685 50.623 25.8745 50.6884 24.9341C50.7011 24.7495 50.7079 24.563 50.7079 24.3813C50.7059 22.7563 50.2029 21.4321 49.7811 20.607V20.607ZM19.2182 28.4009C18.6059 28.769 18.1117 29.1646 17.7045 29.6089C17.515 29.8169 17.1772 30.2515 17.1439 30.2925C16.935 30.5435 16.8891 30.5942 16.6645 30.7026C16.4936 30.7798 16.057 30.9194 15.0531 30.98C14.3354 31.023 13.6469 31.1704 12.9477 31.4282C12.3607 31.646 10.5063 32.6323 10.1332 32.7749C9.7211 32.9331 9.38418 33.0005 9.0043 33.0015C8.68692 33.0015 8.35782 32.9497 7.99844 32.8442C7.93301 32.7573 7.8295 32.6284 7.67422 32.4946C7.55411 32.3901 7.42032 32.3052 7.27872 32.2417C7.2836 32.2329 7.48584 31.9152 7.53164 31.3247C7.53965 31.2211 7.54434 31.1138 7.54434 31.0063C7.54043 30.4712 7.44473 29.937 7.26114 29.4185C7.07559 28.897 6.80899 28.4146 6.46817 27.9858C6.18789 27.6382 5.64786 26.9595 5.18496 26.311C4.94278 25.9741 4.51504 25.2778 4.48672 25.2163C4.47305 24.9478 4.40762 24.7983 4.34512 24.6538C4.33829 24.6372 4.04922 24.1187 3.84707 23.8403C3.67813 23.6089 3.47403 23.3511 3.24063 23.0728L3.24161 23.0708C3.38125 22.814 3.45743 22.4966 3.45547 22.1782C3.45254 21.6724 3.29336 21.1353 2.95645 20.4878C2.75625 20.105 2.6625 19.7603 2.66153 19.4058C2.66153 19.1362 2.72012 18.8784 2.83633 18.6392C2.88223 18.5454 3.32657 17.7007 3.642 17.4302C4.142 17.0073 4.8793 16.7163 5.8334 16.5669C6.64981 16.439 7.21524 16.2817 7.66641 16.0562C7.98575 15.8989 8.26602 15.6782 8.45743 15.4331C8.58047 15.2778 8.73282 14.9946 8.73965 14.9839C8.74356 14.9829 8.84903 14.9526 8.95743 14.9351C9.46719 14.8501 9.96622 14.6665 10.4418 14.3892C10.85 14.1509 11.2406 13.8442 11.6039 13.4771C11.9379 13.1353 12.2113 12.7749 12.4164 12.4058C12.5854 12.0933 12.7445 11.7437 12.7768 11.3042C12.8783 11.2505 13.0551 11.1743 13.2231 11.1343C13.3607 11.0952 13.6557 11.0405 13.6596 11.0396C13.9154 11.0054 14.143 10.8745 14.3012 10.6704C14.4604 10.4673 14.5307 10.2134 14.5004 9.95752L14.4008 9.11182C14.5805 8.85303 14.8617 8.46338 15.1859 8.06885C15.4555 7.74072 15.7182 7.45557 15.9477 7.24268C16.1869 7.01611 16.4272 6.85205 16.5316 6.81299C16.9611 6.62705 17.3199 6.51641 17.5586 6.46621C17.6634 6.44414 17.8422 6.43477 17.851 6.43574C18.1127 6.89053 18.5392 7.2543 19.0062 7.44141L20.4077 27.8188C19.9991 27.9762 19.6021 28.168 19.2182 28.4009V28.4009ZM20.97 7.52686C21.1244 7.45771 21.27 7.36572 21.4027 7.24883C21.5531 7.11406 21.6703 6.96553 21.7611 6.79268C21.8695 6.58564 21.9242 6.36689 21.9252 6.14131C21.9301 5.85713 21.8168 5.53877 21.6283 5.31123C21.6225 5.29365 21.5824 5.17354 21.5854 5.05244C21.5883 4.91963 21.6078 4.77412 21.7406 4.60225C21.9174 4.37764 22.2377 4.196 22.6918 4.06123C24.3647 3.57295 25.2104 3.41572 26.1722 3.41377C26.5628 3.41377 26.9935 3.44307 27.5296 3.50361C27.8958 3.54561 28.2513 3.57881 28.5862 3.6042C28.5003 3.69209 28.4551 3.78877 28.3994 3.89131C28.2197 4.21357 28.2469 4.52119 28.2469 4.63643V4.68916C27.9539 4.93525 27.3589 5.779 27.3589 5.779C27.1636 6.09639 27.164 6.50459 27.3651 6.81807C27.5429 7.09541 27.8565 7.24893 28.1866 7.24893C28.2159 7.24893 28.2952 7.22666 28.2952 7.22666C28.6429 7.32432 29.3792 7.40713 30.4025 8.23525C30.9694 8.69658 31.4877 9.12861 31.9133 9.47656L30.825 20.9961H21.8967L20.97 7.52686ZM33.6589 33.5494C33.6124 33.4879 33.5599 33.4261 33.4982 33.3667C33.3791 33.2495 33.2326 33.1498 33.0656 33.0707C33.0344 33.0287 32.9289 32.8803 32.8234 32.684C32.6066 32.2953 32.3635 31.7563 32.1877 31.2768C32.0979 31.0316 32.0508 30.7973 32.001 30.6C31.9492 30.4037 31.9577 30.2465 31.9577 30.2055V30.2035C31.9577 30.0365 31.9092 29.8305 31.7421 29.5551C31.6474 29.4047 31.4742 29.2699 31.317 29.1869C31.1676 29.1049 30.9812 29.0585 30.7858 29.0585C30.5905 29.0605 30.4317 29.1117 30.3058 29.1664C30.0987 29.2631 29.9841 29.3617 29.8464 29.4818C29.654 29.6557 29.4746 29.8607 29.2578 30.1469C29.1973 30.227 29.1393 30.31 29.0807 30.3949C28.8043 29.8607 28.522 29.4232 28.2173 29.057C27.897 28.6791 27.4403 28.2229 26.744 28.0021C25.6415 27.6661 24.4425 27.3436 23.0705 27.3436C22.8252 27.3436 22.5741 27.3491 22.3345 27.3718L22.0314 22.949H34.3943L33.6589 33.5494ZM47.5556 29.4536L47.5526 29.4585C47.5429 29.4751 47.2958 29.6978 47.2958 29.6978C47.1454 29.8257 46.1962 30.8423 45.8515 31.3052C45.5009 31.7769 44.8271 32.7231 44.2587 33.7495C43.9882 34.2388 43.8033 34.6694 43.652 35.0659C43.5055 35.4614 43.3832 35.896 43.3832 36.3911V36.3989C43.2856 36.4087 42.2655 36.4086 42.1259 36.4086C41.9921 36.4086 41.8456 36.4111 41.6825 36.4307C41.5058 36.4541 41.3407 36.499 41.1239 36.6035C41.1239 36.6035 41.0028 36.661 40.8671 36.6952C40.4657 36.8007 39.6864 36.9141 38.8759 36.9141C38.5771 36.9141 38.2812 36.8851 38.0194 36.8587C37.37 36.7942 36.4374 36.6537 35.6826 36.3891C35.5942 36.3586 35.5089 36.3223 35.4268 36.2885L36.0658 27.0731L47.7045 28.3144C47.6566 28.5277 47.5624 29.4438 47.5556 29.4536V29.4536Z" fill="#14549B"/>
<path d="M42.8517 41.7476C42.3422 41.8196 41.8332 42.0337 41.2942 42.2603C40.7509 42.4887 40.1363 42.7498 39.7264 42.7363C38.879 42.7132 37.5349 41.6302 37.0166 41.1092C36.6372 40.7266 36.0194 40.7236 35.6362 41.1027C35.4266 41.3102 35.3306 41.589 35.3487 41.8617C35.2606 42.3698 34.9699 44.6065 36.1703 46.9121C37.0218 48.5478 37.8377 49.3656 38.8156 49.5637C38.9693 49.5949 39.1204 49.6093 39.2688 49.6093C40.2613 49.6093 41.1358 48.9631 41.8915 48.3381C43.1405 47.3051 45.9175 44.6785 44.7329 42.6035C44.5115 42.2157 43.9727 41.5886 42.8517 41.7476V41.7476ZM40.6468 46.8331C40.3804 47.0534 39.5702 47.7236 39.2035 47.6495C39.0531 47.6191 38.6254 47.3984 37.9027 46.0103C37.4935 45.2243 37.3139 44.4416 37.2449 43.7898C37.96 44.2532 38.8276 44.6655 39.6731 44.6887C40.5035 44.7116 41.3256 44.3656 42.0512 44.0607C42.3647 43.9288 42.8096 43.7418 43.0653 43.6891C43.0827 44.1288 42.4624 45.3316 40.6468 46.8331V46.8331Z" fill="#14549B"/>
</g>
<defs>
<clipPath id="clip0">
<rect width="50" height="50" fill="white" transform="translate(0.707031)"/>
</clipPath>
</defs>
</svg>
