<svg width="50" height="50" viewBox="0 0 50 50" fill="none" xmlns="http://www.w3.org/2000/svg">
<g clip-path="url(#clip0)">
<path d="M36.9736 28.4178C33.6095 24.3561 29.3573 22.1191 25.0001 22.1191C20.6429 22.1191 16.3907 24.3561 13.0268 28.4178C10.0031 32.0687 8.19788 36.6698 8.19788 40.7259C8.19788 42.6962 8.80022 44.197 9.98811 45.1867C11.1606 46.1637 12.7085 46.4941 14.4355 46.494C16.2731 46.494 18.3135 46.1198 20.3183 45.752C22.0701 45.4307 23.7248 45.1271 25.0002 45.1271C26.101 45.1271 27.6531 45.4152 29.2959 45.7202C33.1355 46.4331 37.4874 47.2409 40.0014 45.1507C41.1965 44.157 41.8025 42.6683 41.8025 40.7259C41.8026 36.6698 39.9974 32.0687 36.9736 28.4178Z" fill="#14549B"/>
<path d="M30.1818 32.9091H26.0909V28.8182C26.0909 28.3665 25.7244 28 25.2727 28H24.7273C24.2756 28 23.9091 28.3665 23.9091 28.8182V32.9091H19.8182C19.3665 32.9091 19 33.2756 19 33.7273V34.2727C19 34.7244 19.3665 35.0909 19.8182 35.0909H23.9091V39.1818C23.9091 39.6335 24.2756 40 24.7273 40H25.2727C25.7244 40 26.0909 39.6335 26.0909 39.1818V35.0909H30.1818C30.6335 35.0909 31 34.7244 31 34.2727V33.7273C31 33.2756 30.6335 32.9091 30.1818 32.9091V32.9091Z" fill="#F7F7F7"/>
<path d="M37.3173 6.36231C36.0864 4.54756 34.3239 3.50684 32.4816 3.50684C30.6393 3.50684 28.8769 4.54766 27.646 6.36231C26.5153 8.02939 25.8926 10.2187 25.8926 12.5269C25.8926 14.8351 26.5152 17.0243 27.646 18.6914C28.8769 20.5061 30.6394 21.5469 32.4816 21.5469C34.324 21.5469 36.0864 20.5061 37.3173 18.6914C38.448 17.0243 39.0707 14.8351 39.0707 12.5269C39.0707 10.2187 38.448 8.0293 37.3173 6.36231Z" fill="#14549B"/>
<path d="M22.354 6.36133C21.1232 4.54658 19.3608 3.50586 17.5184 3.50586C15.676 3.50586 13.9135 4.54668 12.6827 6.36133C11.5521 8.02842 10.9293 10.2177 10.9293 12.5259C10.9293 14.8341 11.552 17.0233 12.6827 18.6904C13.9136 20.5052 15.676 21.546 17.5184 21.546C19.3608 21.546 21.1232 20.5052 22.354 18.6904C23.4847 17.0233 24.1074 14.8342 24.1074 12.5259C24.1073 10.2177 23.4847 8.02832 22.354 6.36133Z" fill="#14549B"/>
<path d="M49.709 20.5206C49.2128 18.8327 48.1493 17.6062 46.7144 17.0673C45.5597 16.6336 44.2563 16.7071 43.0442 17.2744C41.3738 18.056 40.0084 19.6701 39.2985 21.7026C38.7183 23.3636 38.6459 25.1191 39.0949 26.6462C39.5911 28.3341 40.6546 29.5605 42.0896 30.0995C42.5862 30.286 43.1101 30.3787 43.6425 30.3787C44.3483 30.3787 45.069 30.2157 45.7599 29.8924C47.4303 29.1107 48.7956 27.4967 49.5056 25.4642V25.4641C50.0857 23.8033 50.158 22.0476 49.709 20.5206Z" fill="#14549B"/>
<path d="M10.7017 21.7025C9.9916 19.67 8.62627 18.056 6.95596 17.2743C5.74375 16.7071 4.44023 16.6336 3.28565 17.0672C1.85068 17.6063 0.78711 18.8327 0.290919 20.5205C-0.158007 22.0476 -0.0856438 23.8032 0.494532 25.4641V25.4642C1.20469 27.4967 2.56992 29.1107 4.24024 29.8923C4.93125 30.2156 5.65186 30.3786 6.35762 30.3786C6.89004 30.3786 7.41406 30.2859 7.91055 30.0994C9.3457 29.5604 10.4092 28.3339 10.9054 26.6461C11.3541 25.1192 11.2817 23.3635 10.7017 21.7025Z" fill="#14549B"/>
</g>
<defs>
<clipPath id="clip0">
<rect width="50" height="50" fill="white"/>
</clipPath>
</defs>
</svg>
