<svg width="51" height="50" viewBox="0 0 51 50" fill="none" xmlns="http://www.w3.org/2000/svg">
<path d="M37.0356 25V21.0938H40.0253C41.8799 21.0938 43.3833 19.5751 43.3833 17.7019V3.39189C43.3833 1.51855 41.8799 0 40.0253 0H11.4874C9.63281 0 8.12939 1.51855 8.12939 3.39189V17.7019C8.12939 19.5751 9.63281 21.0938 11.4874 21.0938H14.4771V25C14.4771 25.8047 15.3958 26.2641 16.0396 25.7812L22.2896 21.0938H29.2231L35.4731 25.7812C36.1169 26.2641 37.0356 25.8047 37.0356 25ZM15.063 5.40869H28.9302C29.7392 5.40869 30.395 6.06455 30.395 6.87354C30.395 7.68252 29.7392 8.33838 28.9302 8.33838H15.063C14.254 8.33838 13.5981 7.68252 13.5981 6.87354C13.5981 6.06455 14.254 5.40869 15.063 5.40869ZM15.063 15.6626C14.254 15.6626 13.5981 15.0067 13.5981 14.1978C13.5981 13.3888 14.254 12.7329 15.063 12.7329H36.4497C37.2587 12.7329 37.9146 13.3888 37.9146 14.1978C37.9146 15.0067 37.2587 15.6626 36.4497 15.6626H15.063Z" fill="#14549B"/>
<path d="M12.0337 37.5C14.1911 37.5 15.94 35.7511 15.94 33.5938C15.94 31.4364 14.1911 29.6875 12.0337 29.6875C9.87639 29.6875 8.1275 31.4364 8.1275 33.5938C8.1275 35.7511 9.87639 37.5 12.0337 37.5Z" fill="#14549B"/>
<path d="M19.8176 45.6006C19.4687 42.6515 16.9686 40.4297 13.9988 40.4297H9.94045C6.97072 40.4297 4.47062 42.6515 4.1217 45.6006L3.73029 48.9087C3.66154 49.4895 4.11525 50 4.70002 50H19.2393C19.8241 50 20.2777 49.4895 20.2091 48.9087L19.8176 45.6006Z" fill="#14549B"/>
<path d="M39.509 37.5C41.6663 37.5 43.4152 35.7511 43.4152 33.5938C43.4152 31.4364 41.6663 29.6875 39.509 29.6875C37.3516 29.6875 35.6027 31.4364 35.6027 33.5938C35.6027 35.7511 37.3516 37.5 39.509 37.5Z" fill="#14549B"/>
<path d="M47.6853 48.9087L47.2939 45.6006C46.9449 42.6515 44.4448 40.4297 41.4751 40.4297H37.4167C34.447 40.4297 31.9469 42.6515 31.598 45.6006L31.2065 48.9087C31.1378 49.4895 31.5915 50 32.1764 50H46.7156C47.3002 50 47.7539 49.4895 47.6853 48.9087Z" fill="#14549B"/>
</svg>
