<svg width="51" height="50" viewBox="0 0 51 50" fill="none" xmlns="http://www.w3.org/2000/svg">
<g clip-path="url(#clip0)">
<path d="M50.7076 15.9897C50.7076 24.6392 9.01041 34.1864 5.85306 34.1864C4.08288 34.1864 2.07446 33.7784 2.07446 32.1464C2.07446 31.6012 2.70379 30.8131 3.80812 29.863L3.8069 29.8637L0.879939 24.663C0.483615 23.9589 0.797831 23.0669 1.54783 22.7666L2.05085 22.5652C2.96254 22.2002 3.9886 22.2546 4.85649 22.714L10.1701 25.5271C12.239 24.2999 14.5859 23.0151 17.0595 21.7502L6.70453 15.0321C5.88533 14.5006 5.89407 13.2985 6.72095 12.779L7.56801 12.2468C8.97781 11.3611 10.6917 11.0995 12.3015 11.5241L29.5278 16.0679C34.8989 13.936 39.755 12.481 42.6294 12.481C43.397 12.481 44.1658 12.5013 44.9077 12.5543L39.7055 14.9028L39.581 16.6526L47.6112 12.9612C49.5361 13.4203 50.7076 14.2771 50.7076 15.9897ZM29.7511 30.9206L36.1766 38.2199C36.5682 38.6648 37.2059 38.7987 37.7433 38.5489L38.6038 38.1489C40.1731 37.4195 41.0973 35.7656 40.8964 34.0469L40.0919 27.169C40.0421 26.7434 39.6102 26.474 39.2061 26.6164L30.0306 29.8485C29.584 30.006 29.4381 30.5651 29.7511 30.9206Z" fill="#14549B"/>
</g>
<defs>
<clipPath id="clip0">
<rect width="50" height="50" fill="white" transform="translate(0.70752)"/>
</clipPath>
</defs>
</svg>
