<svg width="50" height="50" viewBox="0 0 50 50" fill="none" xmlns="http://www.w3.org/2000/svg">
<g clip-path="url(#clip0)">
<path d="M50 2.09514L47.9356 0.0189209L42.2944 5.62815L44.3589 7.70428L38.7861 13.2455C39.4868 14.7758 39.2078 16.6481 37.949 17.9054C37.1666 18.6867 36.1271 19.1169 35.0215 19.1169C33.9139 19.1169 32.873 18.6853 32.0903 17.9016C30.4761 16.2853 30.4778 13.6571 32.0941 12.043C32.8763 11.2618 33.916 10.8316 35.0215 10.8316C35.6109 10.8316 36.1808 10.9549 36.7036 11.1873L42.2936 5.62884L23.9872 3.5085L0 27.4645L22.4873 49.981L46.475 26.0246L44.3615 7.70184L50 2.09514ZM30.1763 25.7503L30.0258 26.2119L27.3122 25.6319L27.4675 25.0789C27.7922 23.9232 27.5851 23.4354 27.0893 22.9396C26.6356 22.4859 25.8715 22.5116 25.3861 22.997C25.0597 23.3234 24.8858 23.6392 24.9644 24.2822L24.9704 24.3142C25.0358 24.6675 25.0875 24.9471 25.1479 25.1535L25.5188 26.3235C25.8031 27.1761 25.9464 27.6291 26.0694 28.52C26.277 29.9385 25.9317 31.0183 24.9147 32.1264L24.8987 32.1431C23.996 33.0458 22.9248 33.5281 21.715 33.5764C20.8124 33.6181 19.9715 33.4097 19.2113 32.9564L17.9089 34.2588L15.9997 32.3496L17.2914 31.0579C16.2904 29.3546 16.3696 27.2655 17.5303 25.502L17.7396 25.1839L20.5443 25.8736L20.2003 26.4908C19.228 28.2353 19.1988 29.2645 20.0963 30.1621C20.5704 30.6362 21.049 30.8373 21.6019 30.7948C22.0437 30.7492 22.4623 30.5315 22.8459 30.1478C23.45 29.5438 23.4323 28.7161 22.7764 26.8673C22.3225 25.6571 22.1607 24.9859 22.0874 24.0034C22.0207 22.8694 22.3939 21.941 23.2615 21.0734C24.5769 19.758 26.4988 19.4577 28.0723 20.2766L29.3769 18.972L31.2861 20.8813L29.9712 22.1961C30.5355 23.2429 30.6048 24.4362 30.1763 25.7503V25.7503Z" fill="#DF413A"/>
<path d="M35.0214 13.7595C34.6972 13.7595 34.3923 13.8856 34.1629 14.1148C33.689 14.5882 33.6885 15.3589 34.1618 15.8328C34.3914 16.0626 34.6965 16.1891 35.0214 16.1891C35.3456 16.1891 35.6505 16.0629 35.8799 15.8339C36.3538 15.3605 36.3544 14.5898 35.881 14.1158C35.6515 13.8861 35.3462 13.7595 35.0214 13.7595V13.7595Z" fill="#DF413A"/>
</g>
<defs>
<clipPath id="clip0">
<rect width="50" height="50" fill="white"/>
</clipPath>
</defs>
</svg>
