<svg width="50" height="50" viewBox="0 0 50 50" fill="none" xmlns="http://www.w3.org/2000/svg">
<path d="M35.7143 31.4286H33.4286L32.5715 30.5714C35.4287 27.4286 37.143 23.1429 37.143 18.5714C37.1429 8.28571 28.8571 0 18.5714 0C8.28571 0 0 8.28571 0 18.5714C0 28.8571 8.28571 37.1429 18.5714 37.1429C23.1429 37.1429 27.4286 35.4286 30.5714 32.5714L31.4286 33.4285V35.7142L45.7143 50L50 45.7143L35.7143 31.4286ZM18.5714 31.4286C11.4286 31.4286 5.71429 25.7143 5.71429 18.5714C5.71429 11.4286 11.4286 5.71429 18.5714 5.71429C25.7143 5.71429 31.4286 11.4286 31.4286 18.5714C31.4286 25.7143 25.7143 31.4286 18.5714 31.4286Z" fill="#14549B"/>
</svg>
