<svg width="50" height="50" viewBox="0 0 50 50" fill="none" xmlns="http://www.w3.org/2000/svg">
<g clip-path="url(#clip0)">
<path d="M31.7132 15.423C32.5386 13.4556 31.8428 11.1294 29.9744 9.95466L33.706 2.3252C34.3337 1.04526 33.1018 -0.36572 31.7474 0.086463L27.657 1.45027L25.8951 0.274957C25.3286 -0.102031 24.5877 -0.0838869 24.0414 0.319308L22.4064 1.52789L18.2706 0.092511C16.9109 -0.378522 15.6639 1.03841 16.294 2.3252L20.0256 9.95466C18.1575 11.1292 17.4611 13.4551 18.2868 15.423C13.4857 16.8775 9.98096 21.3449 9.98096 26.6147V41.9361C9.98096 46.3823 13.5986 50 18.0449 50H31.9551C36.4013 50 40.019 46.3823 40.019 41.9361V26.6147C40.019 21.3449 36.5142 16.8775 31.7132 15.423ZM21.5164 26.2115C22.7128 26.2115 23.6866 27.1852 23.6866 28.3817C23.6866 29.5782 22.7128 30.5519 21.5164 30.5519C20.3199 30.5519 19.3462 29.5782 19.3462 28.3817C19.3462 27.1852 20.3199 26.2115 21.5164 26.2115ZM22.3792 12.5029H27.6207C28.288 12.5029 28.8303 13.0452 28.8303 13.7124C28.8303 14.3797 28.288 14.922 27.6207 14.922H22.3792C21.7119 14.922 21.1696 14.3797 21.1696 13.7124C21.1696 13.0452 21.7119 12.5029 22.3792 12.5029ZM28.4836 38.9121C27.2871 38.9121 26.3134 37.9384 26.3134 36.7419C26.3134 35.5455 27.2871 34.5717 28.4836 34.5717C29.6801 34.5717 30.6538 35.5455 30.6538 36.7419C30.6538 37.9384 29.6801 38.9121 28.4836 38.9121ZM30.3201 29.5217L21.9599 37.882C21.6454 38.1975 21.2321 38.3547 20.8198 38.3547C19.3979 38.3547 18.66 36.6217 19.6798 35.6019L28.0401 27.2417C28.67 26.6117 29.6911 26.6117 30.3201 27.2417C30.9501 27.8706 30.9501 28.8917 30.3201 29.5217Z" fill="#DF413A"/>
</g>
<defs>
<clipPath id="clip0">
<path d="M0 0H50V50H0V0Z" fill="white"/>
</clipPath>
</defs>
</svg>
