<svg width="51" height="50" viewBox="0 0 51 50" fill="none" xmlns="http://www.w3.org/2000/svg">
<g clip-path="url(#clip0)">
<path d="M31.9641 19.1532C23.46 19.1532 16.5407 26.0726 16.5407 34.5766C16.5407 43.0806 23.46 50 31.9641 50C40.4681 50 47.3874 43.0806 47.3874 34.5766C47.3874 26.0726 40.4681 19.1532 31.9641 19.1532ZM28.6495 28.4567C29.831 28.4567 30.7927 29.4173 30.7927 30.5988C30.7927 31.7812 29.831 32.7429 28.6495 32.7429C27.4681 32.7429 26.5064 31.7813 26.5064 30.5988C26.5064 29.4173 27.4681 28.4567 28.6495 28.4567ZM35.2786 40.6966C34.0971 40.6966 33.1354 39.7359 33.1354 38.5544C33.1354 37.3721 34.0971 36.4103 35.2786 36.4103C36.46 36.4103 37.4217 37.372 37.4217 38.5544C37.4217 39.7359 36.46 40.6966 35.2786 40.6966ZM37.082 31.7399L29.1274 39.6945C28.4936 40.3262 27.4772 40.3235 26.8461 39.6945C26.2161 39.0644 26.2161 38.0432 26.8461 37.4132L34.8007 29.4587C35.4308 28.8286 36.452 28.8286 37.082 29.4587C37.712 30.0887 37.712 31.1099 37.082 31.7399ZM27.6294 0H17.1455C15.9203 0 15.1428 1.31512 15.7312 2.3881L18.8118 8.01008C16.6181 9.31532 15.9137 12.1081 17.1395 14.2742C11.704 16.125 7.47615 20.7752 6.34611 26.6633L3.707 40.4153C2.75277 45.392 6.56748 50 11.6274 50H18.345C19.5589 50 20.153 48.5243 19.2808 47.6799C8.94329 37.6721 13.7623 20.3044 27.5569 16.8703C28.8401 16.5508 28.9782 14.7283 27.6354 14.2741C28.8611 12.1083 28.1571 9.31532 25.963 8.00998L29.0437 2.388C29.633 1.31351 28.8528 0 27.6294 0V0ZM23.5971 13.4073H21.1778C20.2514 13.4073 19.5306 12.5091 19.8391 11.5383C20.0215 10.9627 20.5739 10.5847 21.1778 10.5847H23.5971C24.201 10.5847 24.7534 10.9627 24.9358 11.5383C25.2443 12.5091 24.5235 13.4073 23.5971 13.4073Z" fill="#DF413A"/>
</g>
<defs>
<clipPath id="clip0">
<rect width="50" height="50" fill="white" transform="translate(0.473633)"/>
</clipPath>
</defs>
</svg>
