<svg width="50" height="50" viewBox="0 0 50 50" fill="none" xmlns="http://www.w3.org/2000/svg">
<g clip-path="url(#clip0)">
<path d="M21.1538 0H1.92312C0.860991 0 0 0.860991 0 1.92312V21.1539C0 22.2161 0.860991 23.0771 1.92312 23.0771H21.1539C22.2161 23.0771 23.0771 22.2161 23.0771 21.1539V1.92312C23.0769 0.860991 22.216 0 21.1538 0Z" fill="#14549B"/>
<path d="M48.0769 0H28.8461C27.784 0 26.923 0.860991 26.923 1.92312V21.1539C26.923 22.2161 27.784 23.0771 28.8461 23.0771H48.0769C49.1391 23.0771 50.0001 22.2161 50.0001 21.1539V1.92312C49.9999 0.860991 49.139 0 48.0769 0Z" fill="#14549B"/>
<path d="M21.1538 26.9229H1.92312C0.860991 26.9229 0 27.7838 0 28.846V48.0768C0 49.1389 0.860991 49.9999 1.92312 49.9999H21.1539C22.2161 49.9999 23.0771 49.1389 23.0771 48.0768V28.846C23.0769 27.7838 22.216 26.9229 21.1538 26.9229Z" fill="#14549B"/>
<path d="M48.0769 26.9229H28.8461C27.784 26.9229 26.923 27.7838 26.923 28.846V48.0768C26.923 49.1389 27.784 49.9999 28.8461 49.9999H48.0769C49.1391 49.9999 50.0001 49.1389 50.0001 48.0768V28.846C49.9999 27.7838 49.139 26.9229 48.0769 26.9229Z" fill="#14549B"/>
</g>
<defs>
<clipPath id="clip0">
<rect width="50" height="50" fill="white"/>
</clipPath>
</defs>
</svg>
