<svg width="50" height="50" viewBox="0 0 50 50" fill="none" xmlns="http://www.w3.org/2000/svg">
<path d="M49.8715 24.5695C49.7893 24.4873 49.6778 24.4412 49.5616 24.4412H47.8411L47.8436 14.2294C47.8436 14.113 47.7975 14.0016 47.7153 13.9194C47.6331 13.8372 47.5215 13.791 47.4054 13.791H36.1208L37.6373 12.0875H46.7495C46.9916 12.0875 47.1878 11.8912 47.1878 11.6492V8.73807C47.1878 8.49604 46.9916 8.2998 46.7495 8.2998H36.7827C36.2396 8.2998 35.7218 8.53351 35.362 8.94109L33.9821 10.5049L0.438261 10.5058C0.321903 10.5058 0.210475 10.552 0.128301 10.6342C0.046127 10.7164 0 10.8279 0 10.9442L0.00197217 15.5873C0.00208174 15.7464 0.0882 15.8929 0.227129 15.9701L7.96671 20.2745L13.7506 27.6629C10.4795 28.3563 8.13314 31.2326 8.13314 34.6028C8.13314 38.5162 11.3169 41.6999 15.2302 41.6999C18.426 41.6999 21.2207 39.5667 22.0707 36.4966H30.1071C30.9571 39.5668 33.7517 41.7 36.9476 41.7C40.1427 41.7 42.9371 39.568 43.7874 36.4991L49.5616 36.4987C49.8035 36.4987 49.9999 36.3025 49.9999 36.0605L50 24.8794C49.9999 24.7631 49.9537 24.6517 49.8715 24.5695ZM15.2302 38.0609C13.3235 38.0609 11.772 36.5096 11.772 34.6028C11.772 32.6963 13.3234 31.1448 15.2302 31.1448C17.1369 31.1448 18.6882 32.696 18.6882 34.6028C18.6882 36.5096 17.1369 38.0609 15.2302 38.0609ZM36.9475 38.0609C35.0408 38.0609 33.4895 36.5096 33.4895 34.6028C33.4895 32.6963 35.0406 31.1448 36.9475 31.1448C38.8544 31.1448 40.4057 32.696 40.4057 34.6028C40.4056 36.5096 38.8543 38.0609 36.9475 38.0609ZM44.0531 22.748H39.8764L37.7029 17.5787H44.0531V22.748Z" fill="#14549B"/>
</svg>
