<svg width="51" height="50" viewBox="0 0 51 50" fill="none" xmlns="http://www.w3.org/2000/svg">
<path d="M23.7231 12.5H20.5981V14.0625H19.0356V12.5H15.9106V17.9688H23.7231V12.5Z" fill="#14549B"/>
<path d="M25.743 9.375H23.2649L21.7024 10.9375H24.1805L25.743 9.375Z" fill="#14549B"/>
<path d="M21.3794 30.2436L28.8099 24.2054C31.5356 21.9913 33.0981 18.7077 33.0981 15.1968V14.8436C33.0981 11.6085 31.8091 8.59754 29.4677 6.36395C27.1271 4.13192 24.0466 2.98348 20.8122 3.13895C14.5591 3.43348 9.66064 8.72957 9.66064 15.1968C9.66064 18.7077 11.2231 21.9913 13.9489 24.2054L21.3794 30.2436ZM21.8942 27.9319C21.7466 28.0608 21.563 28.1249 21.3794 28.1249C21.1958 28.1249 21.0122 28.0608 20.8646 27.9319L14.6146 22.4632L15.6435 21.2866L21.3794 26.3054L27.1146 21.2866L28.1435 22.4632L21.8942 27.9319ZM14.3481 11.7186C14.3481 11.5022 14.4356 11.3069 14.5778 11.1655L17.7021 8.04129C17.8481 7.89442 18.0474 7.81239 18.2544 7.81239H27.6294C27.945 7.81239 28.2302 8.00223 28.3513 8.29442C28.3911 8.39129 28.4036 8.49286 28.4036 8.59364H28.4106V15.6249C28.4106 15.8327 28.3286 16.0311 28.1817 16.1772L25.0575 19.3014C24.9161 19.4436 24.7208 19.5311 24.5044 19.5311H15.1294C14.6981 19.5311 14.3481 19.1819 14.3481 18.7499V11.7186Z" fill="#14549B"/>
<path d="M21.0555 9.375H18.5774L17.0149 10.9375H19.493L21.0555 9.375Z" fill="#14549B"/>
<path d="M25.2856 16.8639L26.8481 15.3014V10.4795L25.2856 12.042V16.8639Z" fill="#14549B"/>
<path d="M47.9419 38.2812H44.8169C44.5427 38.2812 44.288 38.1375 44.1474 37.9016L42.031 34.375H38.5669V33.5938H23.7231V43.75H22.1606V33.5938H1.84814V46.0938H2.74033C3.08955 47.4383 4.30283 48.4375 5.75439 48.4375C7.20596 48.4375 8.41924 47.4383 8.76846 46.0938H14.4591C14.8083 47.4383 16.0216 48.4375 17.4731 48.4375C18.9247 48.4375 20.138 47.4383 20.4872 46.0938H25.3966C25.7458 47.4383 26.9591 48.4375 28.4106 48.4375C29.8622 48.4375 31.0755 47.4383 31.4247 46.0938H41.0216C41.3708 47.4383 42.5841 48.4375 44.0356 48.4375C45.4872 48.4375 46.7005 47.4383 47.0497 46.0938H48.7231V39.0625C48.7231 38.6313 48.3731 38.2812 47.9419 38.2812V38.2812ZM5.75439 46.875C5.17861 46.875 4.68018 46.5586 4.40908 46.0938H7.09893C6.82861 46.5586 6.33018 46.875 5.75439 46.875ZM17.4731 46.875C16.8974 46.875 16.3989 46.5586 16.1278 46.0938H18.8177C18.5474 46.5586 18.0489 46.875 17.4731 46.875ZM28.4106 46.875C27.8349 46.875 27.3364 46.5586 27.0653 46.0938H29.7552C29.4849 46.5586 28.9864 46.875 28.4106 46.875ZM41.6919 40.625H39.3481V39.8438H41.6919V40.625ZM39.3481 38.2812V35.9375H40.9106L42.4731 38.2812H39.3481ZM44.0356 46.875C43.4599 46.875 42.9614 46.5586 42.6903 46.0938H45.3802C45.1099 46.5586 44.6114 46.875 44.0356 46.875Z" fill="#14549B"/>
</svg>
