<svg width="50" height="50" viewBox="0 0 50 50" fill="none" xmlns="http://www.w3.org/2000/svg">
<path d="M1.75441 30.8433V9.57013C1.75441 8.38802 2.71266 7.42969 3.89485 7.42969H25.1571C26.3392 7.42969 27.2975 8.38802 27.2975 9.57013V30.8434C27.2975 31.2374 26.9781 31.5569 26.584 31.5569H2.46789C2.07377 31.5569 1.75441 31.2374 1.75441 30.8433ZM18.9243 38.131C18.9243 40.5828 16.9367 42.5704 14.485 42.5704C12.0333 42.5704 10.0456 40.5828 10.0456 38.131C10.0456 35.6792 12.0333 33.6917 14.485 33.6917C16.9367 33.6917 18.9243 35.6792 18.9243 38.131ZM16.7046 38.131C16.7046 36.9052 15.7108 35.9114 14.4849 35.9114C13.259 35.9114 12.2651 36.9052 12.2651 38.131C12.2651 39.3569 13.259 40.3508 14.4849 40.3508C15.7108 40.3508 16.7046 39.3569 16.7046 38.131ZM10.6614 33.6916H0.71348C0.319444 33.6916 0 34.011 0 34.4051V36.5697C0 36.9637 0.319444 37.2832 0.71348 37.2832H8.68717C8.89534 35.8547 9.61634 34.593 10.6614 33.6916ZM42.1518 38.131C42.1518 40.5828 40.1641 42.5704 37.7124 42.5704C35.2606 42.5704 33.273 40.5828 33.273 38.131C33.273 35.6792 35.2606 33.6917 37.7124 33.6917C40.1641 33.6916 42.1518 35.6792 42.1518 38.131ZM39.9322 38.131C39.9322 36.9052 38.9383 35.9114 37.7124 35.9114C36.4864 35.9114 35.4927 36.9052 35.4927 38.131C35.4927 39.3569 36.4865 40.3508 37.7124 40.3508C38.9383 40.3508 39.9322 39.3569 39.9322 38.131ZM50 34.4051V36.5697C50 36.9637 49.6806 37.2832 49.2865 37.2832H43.51C43.0969 34.4496 40.6583 32.2646 37.7126 32.2646C34.7663 32.2646 32.3276 34.4497 31.9145 37.2832H20.2828C20.0745 35.8548 19.3536 34.593 18.3086 33.6916H29.3375V13.2838C29.3375 12.4958 29.9764 11.8569 30.7645 11.8569H37.5002C39.3967 11.8569 41.1694 12.799 42.2306 14.3708L46.5729 20.8022C47.2098 21.7456 47.5502 22.8579 47.5502 23.9962V33.6916H49.2865C49.6806 33.6916 50 34.011 50 34.4051ZM42.7621 20.9669L39.2898 16.0329C39.1561 15.843 38.9385 15.73 38.7063 15.73H33.29C32.8961 15.73 32.5766 16.0495 32.5766 16.4435V21.3776C32.5766 21.7717 32.896 22.091 33.29 22.091H42.1788C42.7567 22.091 43.0948 21.4396 42.7621 20.9669Z" fill="#14549B"/>
</svg>
