<svg width="58" height="58" viewBox="0 0 58 58" fill="none" xmlns="http://www.w3.org/2000/svg">
<path d="M30.6992 37.2635C32.6528 36.7838 34.0977 35.5264 34.0977 34.0812C34.0977 32.6361 32.6528 31.3787 30.6992 30.8989V37.2635Z" fill="#14549B"/>
<path d="M29 10.3086C18.6936 10.3086 10.3086 18.6936 10.3086 29C10.3086 39.3064 18.6936 47.6914 29 47.6914C39.3064 47.6914 47.6914 39.3064 47.6914 29C47.6914 18.6936 39.3064 10.3086 29 10.3086ZM37.4961 34.0811C37.4961 37.364 34.5724 40.109 30.6992 40.7405V42.5938C30.6992 43.533 29.9392 44.293 29 44.293C28.0608 44.293 27.3008 43.533 27.3008 42.5938V40.7405C23.4276 40.109 20.5039 37.364 20.5039 34.0811C20.5039 33.1419 21.2639 32.3819 22.2031 32.3819C23.1423 32.3819 23.9023 33.1419 23.9023 34.0811C23.9023 35.5262 25.3472 36.7837 27.3008 37.2634V30.5452C23.4276 29.9137 20.5039 27.1687 20.5039 23.8858C20.5039 20.6029 23.4276 17.8579 27.3008 17.2265V15.3897C27.3008 14.4505 28.0608 13.6905 29 13.6905C29.9392 13.6905 30.6992 14.4505 30.6992 15.3897V17.2265C34.5724 17.8579 37.4961 20.6029 37.4961 23.8858C37.4961 24.825 36.7361 25.585 35.7969 25.585C34.8577 25.585 34.0977 24.825 34.0977 23.8858C34.0977 22.4407 32.6528 21.1833 30.6992 20.7035V27.4218C34.5724 28.0531 37.4961 30.7981 37.4961 34.0811Z" fill="#14549B"/>
<path d="M27.3008 20.7036C25.3472 21.1834 23.9023 22.4408 23.9023 23.8859C23.9023 25.331 25.3472 26.5885 27.3008 27.0682V20.7036Z" fill="#14549B"/>
<path d="M29 0C13.0715 0 0 13.0715 0 29C0 44.9285 13.0715 58 29 58C44.9285 58 58 44.9285 58 29C58 13.0715 44.9285 0 29 0ZM29 51.0898C16.82 51.0898 6.91016 41.18 6.91016 29C6.91016 16.82 16.82 6.91016 29 6.91016C41.18 6.91016 51.0898 16.82 51.0898 29C51.0898 41.18 41.18 51.0898 29 51.0898Z" fill="#14549B"/>
</svg>
